<svg xmlns="http://www.w3.org/2000/svg" xmlns:xlink="http://www.w3.org/1999/xlink" width="100" viewBox="0 0 75 74.999997" height="100" preserveAspectRatio="xMidYMid meet"><defs><clipPath id="3582e5b121"><path d="M 0 7.5 L 73.5 7.5 L 73.5 67.5 L 0 67.5 Z M 0 7.5 " clip-rule="nonzero"></path></clipPath><clipPath id="1bb0923ddd"><path d="M 68.242188 7.5 L 5.257812 7.5 C 4.914062 7.5 4.570312 7.535156 4.234375 7.601562 C 3.894531 7.667969 3.570312 7.765625 3.25 7.898438 C 2.933594 8.03125 2.628906 8.191406 2.34375 8.382812 C 2.058594 8.570312 1.792969 8.789062 1.546875 9.03125 C 1.304688 9.273438 1.085938 9.535156 0.894531 9.820312 C 0.703125 10.105469 0.542969 10.40625 0.410156 10.722656 C 0.277344 11.039062 0.179688 11.363281 0.109375 11.699219 C 0.0429688 12.035156 0.0078125 12.375 0.0078125 12.71875 L 0.0078125 51.847656 C 0.0078125 52.191406 0.0429688 52.53125 0.109375 52.867188 C 0.179688 53.199219 0.277344 53.527344 0.410156 53.84375 C 0.542969 54.160156 0.703125 54.460938 0.894531 54.746094 C 1.085938 55.03125 1.304688 55.292969 1.546875 55.535156 C 1.792969 55.777344 2.058594 55.992188 2.34375 56.183594 C 2.628906 56.375 2.933594 56.535156 3.25 56.667969 C 3.570312 56.796875 3.894531 56.898438 4.234375 56.964844 C 4.570312 57.03125 4.914062 57.066406 5.257812 57.066406 L 30.1875 57.066406 L 30.1875 64.890625 L 23.628906 64.890625 C 23.453125 64.890625 23.285156 64.925781 23.125 64.992188 C 22.964844 65.058594 22.824219 65.152344 22.699219 65.273438 C 22.578125 65.394531 22.484375 65.535156 22.414062 65.695312 C 22.347656 65.855469 22.316406 66.023438 22.316406 66.195312 C 22.316406 66.367188 22.347656 66.535156 22.414062 66.695312 C 22.484375 66.855469 22.578125 66.996094 22.699219 67.117188 C 22.824219 67.242188 22.964844 67.335938 23.125 67.402344 C 23.285156 67.46875 23.453125 67.5 23.628906 67.5 L 49.871094 67.5 C 50.042969 67.496094 50.207031 67.460938 50.367188 67.394531 C 50.523438 67.324219 50.664062 67.230469 50.785156 67.109375 C 50.902344 66.988281 50.996094 66.847656 51.0625 66.6875 C 51.125 66.53125 51.160156 66.367188 51.160156 66.195312 C 51.160156 66.023438 51.125 65.859375 51.0625 65.703125 C 50.996094 65.542969 50.902344 65.402344 50.785156 65.28125 C 50.664062 65.160156 50.523438 65.066406 50.367188 64.996094 C 50.207031 64.929688 50.042969 64.894531 49.871094 64.890625 L 43.3125 64.890625 L 43.3125 57.066406 L 68.242188 57.066406 C 68.585938 57.066406 68.929688 57.03125 69.265625 56.964844 C 69.605469 56.898438 69.929688 56.796875 70.25 56.667969 C 70.566406 56.535156 70.871094 56.375 71.15625 56.183594 C 71.441406 55.992188 71.707031 55.777344 71.953125 55.535156 C 72.195312 55.292969 72.414062 55.03125 72.605469 54.746094 C 72.796875 54.460938 72.957031 54.160156 73.089844 53.84375 C 73.222656 53.527344 73.320312 53.199219 73.390625 52.867188 C 73.457031 52.53125 73.492188 52.191406 73.492188 51.847656 L 73.492188 12.71875 C 73.492188 12.375 73.457031 12.035156 73.390625 11.699219 C 73.320312 11.363281 73.222656 11.039062 73.089844 10.722656 C 72.957031 10.40625 72.796875 10.105469 72.605469 9.820312 C 72.414062 9.535156 72.195312 9.273438 71.953125 9.03125 C 71.707031 8.789062 71.441406 8.570312 71.15625 8.382812 C 70.871094 8.191406 70.566406 8.03125 70.25 7.898438 C 69.929688 7.765625 69.605469 7.667969 69.265625 7.601562 C 68.929688 7.535156 68.585938 7.5 68.242188 7.5 Z M 5.257812 10.109375 L 68.242188 10.109375 C 68.589844 10.109375 68.925781 10.175781 69.246094 10.308594 C 69.566406 10.441406 69.851562 10.628906 70.097656 10.875 C 70.34375 11.117188 70.53125 11.398438 70.664062 11.71875 C 70.800781 12.039062 70.867188 12.371094 70.867188 12.71875 L 70.867188 46.628906 L 2.632812 46.628906 L 2.632812 12.71875 C 2.632812 12.371094 2.699219 12.039062 2.835938 11.71875 C 2.96875 11.398438 3.15625 11.117188 3.402344 10.875 C 3.648438 10.628906 3.933594 10.441406 4.253906 10.308594 C 4.574219 10.175781 4.910156 10.109375 5.257812 10.109375 Z M 40.6875 64.890625 L 32.8125 64.890625 L 32.8125 57.066406 L 40.6875 57.066406 Z M 68.242188 54.457031 C 68.242188 54.457031 12.542969 54.457031 5.257812 54.457031 C 4.910156 54.457031 4.574219 54.390625 4.253906 54.257812 C 3.933594 54.125 3.648438 53.9375 3.402344 53.691406 C 3.15625 53.445312 2.96875 53.164062 2.835938 52.84375 C 2.699219 52.527344 2.632812 52.195312 2.632812 51.847656 L 2.632812 49.238281 L 70.867188 49.238281 L 70.867188 51.847656 C 70.867188 52.195312 70.800781 52.527344 70.664062 52.84375 C 70.53125 53.164062 70.34375 53.445312 70.097656 53.691406 C 69.851562 53.9375 69.566406 54.125 69.246094 54.257812 C 68.925781 54.390625 68.589844 54.457031 68.242188 54.457031 Z M 17.847656 24.003906 L 22.90625 26.238281 L 22.90625 36.910156 C 22.90625 37.148438 22.96875 37.375 23.09375 37.582031 C 23.21875 37.789062 23.386719 37.949219 23.601562 38.058594 C 27.714844 40.230469 32.097656 41.316406 36.75 41.324219 C 38.933594 41.316406 41.085938 41.058594 43.210938 40.558594 L 43.210938 42.042969 C 43.210938 42.214844 43.242188 42.382812 43.308594 42.539062 C 43.375 42.699219 43.472656 42.839844 43.59375 42.964844 C 43.71875 43.085938 43.859375 43.179688 44.019531 43.246094 C 44.179688 43.3125 44.347656 43.347656 44.523438 43.347656 C 44.695312 43.347656 44.863281 43.3125 45.023438 43.246094 C 45.183594 43.179688 45.328125 43.085938 45.449219 42.964844 C 45.574219 42.839844 45.667969 42.699219 45.734375 42.539062 C 45.800781 42.382812 45.832031 42.214844 45.832031 42.042969 L 45.832031 39.808594 C 47.238281 39.332031 48.589844 38.75 49.898438 38.058594 C 50.113281 37.945312 50.28125 37.785156 50.40625 37.578125 C 50.53125 37.371094 50.59375 37.148438 50.59375 36.910156 L 50.59375 26.238281 L 55.652344 24.003906 C 55.890625 23.898438 56.078125 23.738281 56.21875 23.523438 C 56.363281 23.308594 56.433594 23.070312 56.433594 22.8125 C 56.433594 22.554688 56.363281 22.320312 56.21875 22.101562 C 56.078125 21.886719 55.890625 21.726562 55.652344 21.621094 L 37.28125 13.503906 C 36.925781 13.347656 36.574219 13.347656 36.21875 13.503906 L 17.847656 21.621094 C 17.613281 21.730469 17.425781 21.890625 17.289062 22.105469 C 17.148438 22.320312 17.082031 22.558594 17.082031 22.8125 C 17.082031 23.070312 17.148438 23.304688 17.289062 23.519531 C 17.425781 23.734375 17.613281 23.898438 17.847656 24.003906 Z M 36.75 38.714844 C 32.808594 38.710938 29.066406 37.839844 25.53125 36.109375 L 25.53125 27.398438 L 36.21875 32.121094 C 36.574219 32.277344 36.925781 32.277344 37.28125 32.121094 L 43.210938 29.503906 L 43.210938 37.882812 C 41.09375 38.433594 38.9375 38.710938 36.75 38.714844 Z M 47.96875 36.113281 C 47.25 36.46875 46.539062 36.761719 45.832031 37.027344 L 45.832031 28.34375 L 47.96875 27.398438 Z M 36.75 16.125 L 51.890625 22.8125 C 51.867188 22.824219 48.78125 24.1875 48.757812 24.195312 L 44.617188 26.027344 L 37.429688 21.699219 C 37.28125 21.613281 37.121094 21.558594 36.953125 21.535156 C 36.78125 21.511719 36.613281 21.519531 36.449219 21.5625 C 36.28125 21.605469 36.128906 21.675781 35.992188 21.777344 C 35.851562 21.878906 35.738281 22.003906 35.648438 22.148438 C 35.5625 22.296875 35.503906 22.453125 35.476562 22.621094 C 35.449219 22.789062 35.457031 22.957031 35.496094 23.125 C 35.535156 23.289062 35.601562 23.445312 35.703125 23.582031 C 35.800781 23.722656 35.925781 23.835938 36.070312 23.929688 L 41.695312 27.316406 L 36.75 29.5 C 34.460938 28.492188 23.671875 23.722656 21.609375 22.8125 Z M 36.75 16.125 " clip-rule="nonzero"></path></clipPath><linearGradient x1="4" gradientTransform="matrix(1.312171, 0, 0, 1.304348, -5.239476, -4.239129)" y1="32" x2="59.999998" gradientUnits="userSpaceOnUse" y2="32" id="ca067026ca"><stop stop-opacity="1" stop-color="rgb(100%, 50.59967%, 100%)" offset="0"></stop><stop stop-opacity="1" stop-color="rgb(99.867249%, 50.489807%, 100%)" offset="0.0078125"></stop><stop stop-opacity="1" stop-color="rgb(99.603271%, 50.271606%, 100%)" offset="0.015625"></stop><stop stop-opacity="1" stop-color="rgb(99.34082%, 50.053406%, 100%)" offset="0.0234375"></stop><stop stop-opacity="1" stop-color="rgb(99.076843%, 49.835205%, 100%)" offset="0.03125"></stop><stop stop-opacity="1" stop-color="rgb(98.814392%, 49.617004%, 100%)" offset="0.0390625"></stop><stop stop-opacity="1" stop-color="rgb(98.550415%, 49.40033%, 100%)" offset="0.046875"></stop><stop stop-opacity="1" stop-color="rgb(98.287964%, 49.182129%, 100%)" offset="0.0546875"></stop><stop stop-opacity="1" stop-color="rgb(98.023987%, 48.963928%, 100%)" offset="0.0625"></stop><stop stop-opacity="1" stop-color="rgb(97.761536%, 48.745728%, 100%)" offset="0.0703125"></stop><stop stop-opacity="1" stop-color="rgb(97.497559%, 48.527527%, 100%)" offset="0.078125"></stop><stop stop-opacity="1" stop-color="rgb(97.235107%, 48.309326%, 100%)" offset="0.0859375"></stop><stop stop-opacity="1" stop-color="rgb(96.97113%, 48.092651%, 100%)" offset="0.09375"></stop><stop stop-opacity="1" stop-color="rgb(96.707153%, 47.874451%, 100%)" offset="0.101562"></stop><stop stop-opacity="1" stop-color="rgb(96.444702%, 47.65625%, 100%)" offset="0.109375"></stop><stop stop-opacity="1" stop-color="rgb(96.180725%, 47.438049%, 100%)" offset="0.117188"></stop><stop stop-opacity="1" stop-color="rgb(95.918274%, 47.219849%, 100%)" offset="0.125"></stop><stop stop-opacity="1" stop-color="rgb(95.654297%, 47.001648%, 100%)" offset="0.132813"></stop><stop stop-opacity="1" stop-color="rgb(95.391846%, 46.783447%, 100%)" offset="0.140625"></stop><stop stop-opacity="1" stop-color="rgb(95.127869%, 46.566772%, 100%)" offset="0.148438"></stop><stop stop-opacity="1" stop-color="rgb(94.865417%, 46.348572%, 100%)" offset="0.15625"></stop><stop stop-opacity="1" stop-color="rgb(94.60144%, 46.130371%, 100%)" offset="0.164063"></stop><stop stop-opacity="1" stop-color="rgb(94.338989%, 45.91217%, 100%)" offset="0.171875"></stop><stop stop-opacity="1" stop-color="rgb(94.075012%, 45.69397%, 100%)" offset="0.179688"></stop><stop stop-opacity="1" stop-color="rgb(93.811035%, 45.475769%, 100%)" offset="0.1875"></stop><stop stop-opacity="1" stop-color="rgb(93.548584%, 45.259094%, 100%)" offset="0.195313"></stop><stop stop-opacity="1" stop-color="rgb(93.284607%, 45.040894%, 100%)" offset="0.203125"></stop><stop stop-opacity="1" stop-color="rgb(93.022156%, 44.822693%, 100%)" offset="0.210938"></stop><stop stop-opacity="1" stop-color="rgb(92.758179%, 44.604492%, 100%)" offset="0.21875"></stop><stop stop-opacity="1" stop-color="rgb(92.495728%, 44.386292%, 100%)" offset="0.226563"></stop><stop stop-opacity="1" stop-color="rgb(92.23175%, 44.168091%, 100%)" offset="0.234375"></stop><stop stop-opacity="1" stop-color="rgb(91.969299%, 43.94989%, 100%)" offset="0.242188"></stop><stop stop-opacity="1" stop-color="rgb(91.705322%, 43.733215%, 100%)" offset="0.25"></stop><stop stop-opacity="1" stop-color="rgb(91.442871%, 43.515015%, 100%)" offset="0.257812"></stop><stop stop-opacity="1" stop-color="rgb(91.178894%, 43.296814%, 100%)" offset="0.265625"></stop><stop stop-opacity="1" stop-color="rgb(90.914917%, 43.078613%, 100%)" offset="0.273438"></stop><stop stop-opacity="1" stop-color="rgb(90.652466%, 42.860413%, 100%)" offset="0.28125"></stop><stop stop-opacity="1" stop-color="rgb(90.388489%, 42.642212%, 100%)" offset="0.289062"></stop><stop stop-opacity="1" stop-color="rgb(90.126038%, 42.424011%, 100%)" offset="0.296875"></stop><stop stop-opacity="1" stop-color="rgb(89.862061%, 42.207336%, 100%)" offset="0.304688"></stop><stop stop-opacity="1" stop-color="rgb(89.599609%, 41.989136%, 100%)" offset="0.3125"></stop><stop stop-opacity="1" stop-color="rgb(89.335632%, 41.770935%, 100%)" offset="0.320312"></stop><stop stop-opacity="1" stop-color="rgb(89.073181%, 41.552734%, 100%)" offset="0.328125"></stop><stop stop-opacity="1" stop-color="rgb(88.809204%, 41.334534%, 100%)" offset="0.335938"></stop><stop stop-opacity="1" stop-color="rgb(88.546753%, 41.116333%, 100%)" offset="0.34375"></stop><stop stop-opacity="1" stop-color="rgb(88.282776%, 40.899658%, 100%)" offset="0.351562"></stop><stop stop-opacity="1" stop-color="rgb(88.018799%, 40.681458%, 100%)" offset="0.359375"></stop><stop stop-opacity="1" stop-color="rgb(87.756348%, 40.463257%, 100%)" offset="0.367188"></stop><stop stop-opacity="1" stop-color="rgb(87.492371%, 40.245056%, 100%)" offset="0.375"></stop><stop stop-opacity="1" stop-color="rgb(87.229919%, 40.026855%, 100%)" offset="0.382812"></stop><stop stop-opacity="1" stop-color="rgb(86.965942%, 39.808655%, 100%)" offset="0.390625"></stop><stop stop-opacity="1" stop-color="rgb(86.703491%, 39.590454%, 100%)" offset="0.398438"></stop><stop stop-opacity="1" stop-color="rgb(86.439514%, 39.373779%, 100%)" offset="0.40625"></stop><stop stop-opacity="1" stop-color="rgb(86.177063%, 39.155579%, 100%)" offset="0.414062"></stop><stop stop-opacity="1" stop-color="rgb(85.913086%, 38.937378%, 100%)" offset="0.421875"></stop><stop stop-opacity="1" stop-color="rgb(85.650635%, 38.719177%, 100%)" offset="0.429688"></stop><stop stop-opacity="1" stop-color="rgb(85.386658%, 38.500977%, 100%)" offset="0.4375"></stop><stop stop-opacity="1" stop-color="rgb(85.122681%, 38.282776%, 100%)" offset="0.445312"></stop><stop stop-opacity="1" stop-color="rgb(84.860229%, 38.066101%, 100%)" offset="0.453125"></stop><stop stop-opacity="1" stop-color="rgb(84.596252%, 37.8479%, 100%)" offset="0.460938"></stop><stop stop-opacity="1" stop-color="rgb(84.333801%, 37.6297%, 100%)" offset="0.46875"></stop><stop stop-opacity="1" stop-color="rgb(84.069824%, 37.411499%, 100%)" offset="0.476562"></stop><stop stop-opacity="1" stop-color="rgb(83.807373%, 37.193298%, 100%)" offset="0.484375"></stop><stop stop-opacity="1" stop-color="rgb(83.543396%, 36.975098%, 100%)" offset="0.492188"></stop><stop stop-opacity="1" stop-color="rgb(83.280945%, 36.756897%, 100%)" offset="0.5"></stop><stop stop-opacity="1" stop-color="rgb(83.016968%, 36.540222%, 100%)" offset="0.507812"></stop><stop stop-opacity="1" stop-color="rgb(82.754517%, 36.322021%, 100%)" offset="0.515625"></stop><stop stop-opacity="1" stop-color="rgb(82.49054%, 36.103821%, 100%)" offset="0.523438"></stop><stop stop-opacity="1" stop-color="rgb(82.228088%, 35.88562%, 100%)" offset="0.53125"></stop><stop stop-opacity="1" stop-color="rgb(81.964111%, 35.667419%, 100%)" offset="0.539063"></stop><stop stop-opacity="1" stop-color="rgb(81.700134%, 35.449219%, 100%)" offset="0.546875"></stop><stop stop-opacity="1" stop-color="rgb(81.437683%, 35.232544%, 100%)" offset="0.554688"></stop><stop stop-opacity="1" stop-color="rgb(81.173706%, 35.014343%, 100%)" offset="0.5625"></stop><stop stop-opacity="1" stop-color="rgb(80.911255%, 34.796143%, 100%)" offset="0.570312"></stop><stop stop-opacity="1" stop-color="rgb(80.647278%, 34.577942%, 100%)" offset="0.578125"></stop><stop stop-opacity="1" stop-color="rgb(80.384827%, 34.359741%, 100%)" offset="0.585937"></stop><stop stop-opacity="1" stop-color="rgb(80.12085%, 34.141541%, 100%)" offset="0.59375"></stop><stop stop-opacity="1" stop-color="rgb(79.858398%, 33.92334%, 100%)" offset="0.601562"></stop><stop stop-opacity="1" stop-color="rgb(79.594421%, 33.706665%, 100%)" offset="0.609375"></stop><stop stop-opacity="1" stop-color="rgb(79.33197%, 33.488464%, 100%)" offset="0.617188"></stop><stop stop-opacity="1" stop-color="rgb(79.067993%, 33.270264%, 100%)" offset="0.625"></stop><stop stop-opacity="1" stop-color="rgb(78.804016%, 33.052063%, 100%)" offset="0.632812"></stop><stop stop-opacity="1" stop-color="rgb(78.541565%, 32.833862%, 100%)" offset="0.640625"></stop><stop stop-opacity="1" stop-color="rgb(78.277588%, 32.615662%, 100%)" offset="0.648438"></stop><stop stop-opacity="1" stop-color="rgb(78.015137%, 32.397461%, 100%)" offset="0.65625"></stop><stop stop-opacity="1" stop-color="rgb(77.75116%, 32.180786%, 100%)" offset="0.664063"></stop><stop stop-opacity="1" stop-color="rgb(77.488708%, 31.962585%, 100%)" offset="0.671875"></stop><stop stop-opacity="1" stop-color="rgb(77.224731%, 31.744385%, 100%)" offset="0.679688"></stop><stop stop-opacity="1" stop-color="rgb(76.96228%, 31.526184%, 100%)" offset="0.6875"></stop><stop stop-opacity="1" stop-color="rgb(76.698303%, 31.307983%, 100%)" offset="0.695312"></stop><stop stop-opacity="1" stop-color="rgb(76.435852%, 31.089783%, 100%)" offset="0.703125"></stop><stop stop-opacity="1" stop-color="rgb(76.171875%, 30.873108%, 100%)" offset="0.710937"></stop><stop stop-opacity="1" stop-color="rgb(75.907898%, 30.654907%, 100%)" offset="0.71875"></stop><stop stop-opacity="1" stop-color="rgb(75.645447%, 30.436707%, 100%)" offset="0.726562"></stop><stop stop-opacity="1" stop-color="rgb(75.38147%, 30.218506%, 100%)" offset="0.734375"></stop><stop stop-opacity="1" stop-color="rgb(75.119019%, 30.000305%, 100%)" offset="0.742188"></stop><stop stop-opacity="1" stop-color="rgb(74.855042%, 29.782104%, 100%)" offset="0.75"></stop><stop stop-opacity="1" stop-color="rgb(74.59259%, 29.563904%, 100%)" offset="0.757812"></stop><stop stop-opacity="1" stop-color="rgb(74.328613%, 29.347229%, 100%)" offset="0.765625"></stop><stop stop-opacity="1" stop-color="rgb(74.066162%, 29.129028%, 100%)" offset="0.773438"></stop><stop stop-opacity="1" stop-color="rgb(73.802185%, 28.910828%, 100%)" offset="0.78125"></stop><stop stop-opacity="1" stop-color="rgb(73.539734%, 28.692627%, 100%)" offset="0.789063"></stop><stop stop-opacity="1" stop-color="rgb(73.275757%, 28.474426%, 100%)" offset="0.796875"></stop><stop stop-opacity="1" stop-color="rgb(73.01178%, 28.256226%, 100%)" offset="0.804688"></stop><stop stop-opacity="1" stop-color="rgb(72.749329%, 28.039551%, 100%)" offset="0.8125"></stop><stop stop-opacity="1" stop-color="rgb(72.485352%, 27.82135%, 100%)" offset="0.820312"></stop><stop stop-opacity="1" stop-color="rgb(72.2229%, 27.603149%, 100%)" offset="0.828125"></stop><stop stop-opacity="1" stop-color="rgb(71.958923%, 27.384949%, 100%)" offset="0.835937"></stop><stop stop-opacity="1" stop-color="rgb(71.696472%, 27.166748%, 100%)" offset="0.84375"></stop><stop stop-opacity="1" stop-color="rgb(71.432495%, 26.948547%, 100%)" offset="0.851562"></stop><stop stop-opacity="1" stop-color="rgb(71.170044%, 26.730347%, 100%)" offset="0.859375"></stop><stop stop-opacity="1" stop-color="rgb(70.906067%, 26.513672%, 100%)" offset="0.867188"></stop><stop stop-opacity="1" stop-color="rgb(70.643616%, 26.295471%, 100%)" offset="0.875"></stop><stop stop-opacity="1" stop-color="rgb(70.379639%, 26.077271%, 100%)" offset="0.882812"></stop><stop stop-opacity="1" stop-color="rgb(70.115662%, 25.85907%, 100%)" offset="0.890625"></stop><stop stop-opacity="1" stop-color="rgb(69.85321%, 25.640869%, 100%)" offset="0.898438"></stop><stop stop-opacity="1" stop-color="rgb(69.589233%, 25.422668%, 100%)" offset="0.90625"></stop><stop stop-opacity="1" stop-color="rgb(69.326782%, 25.205994%, 100%)" offset="0.914063"></stop><stop stop-opacity="1" stop-color="rgb(69.062805%, 24.987793%, 100%)" offset="0.921875"></stop><stop stop-opacity="1" stop-color="rgb(68.800354%, 24.769592%, 100%)" offset="0.929688"></stop><stop stop-opacity="1" stop-color="rgb(68.536377%, 24.551392%, 100%)" offset="0.9375"></stop><stop stop-opacity="1" stop-color="rgb(68.273926%, 24.333191%, 100%)" offset="0.945312"></stop><stop stop-opacity="1" stop-color="rgb(68.009949%, 24.11499%, 100%)" offset="0.953125"></stop><stop stop-opacity="1" stop-color="rgb(67.747498%, 23.89679%, 100%)" offset="0.960937"></stop><stop stop-opacity="1" stop-color="rgb(67.483521%, 23.680115%, 100%)" offset="0.96875"></stop><stop stop-opacity="1" stop-color="rgb(67.221069%, 23.461914%, 100%)" offset="0.976562"></stop><stop stop-opacity="1" stop-color="rgb(66.957092%, 23.243713%, 100%)" offset="0.984375"></stop><stop stop-opacity="1" stop-color="rgb(66.693115%, 23.025513%, 100%)" offset="0.992188"></stop><stop stop-opacity="1" stop-color="rgb(66.430664%, 22.807312%, 100%)" offset="1"></stop></linearGradient></defs><g clip-path="url(#3582e5b121)"><g clip-path="url(#1bb0923ddd)"><path fill="url(#ca067026ca)" d="M 0.0078125 7.5 L 0.0078125 67.5 L 73.492188 67.5 L 73.492188 7.5 Z M 0.0078125 7.5 " fill-rule="nonzero"></path></g></g></svg>