<svg xmlns="http://www.w3.org/2000/svg" xmlns:xlink="http://www.w3.org/1999/xlink" width="100" viewBox="0 0 75 74.999997" height="100" preserveAspectRatio="xMidYMid meet"><defs><clipPath id="d869efada6"><path d="M 1.03125 5.917969 L 73.78125 5.917969 L 73.78125 71.167969 L 1.03125 71.167969 Z M 1.03125 5.917969 " clip-rule="nonzero"></path></clipPath><clipPath id="c70ec0f418"><path d="M 73.78125 40.773438 C 73.78125 41.320312 73.761719 41.875 73.71875 42.429688 C 73.671875 43.027344 73.171875 43.480469 72.585938 43.480469 C 72.554688 43.480469 72.527344 43.480469 72.496094 43.476562 C 71.871094 43.429688 71.402344 42.878906 71.453125 42.246094 C 71.460938 42.136719 71.464844 42.027344 71.472656 41.917969 L 67.398438 41.917969 C 66.769531 41.917969 66.261719 41.40625 66.261719 40.773438 C 66.261719 40.140625 66.769531 39.628906 67.398438 39.628906 L 71.472656 39.628906 C 71.371094 37.941406 71.042969 36.3125 70.515625 34.777344 L 68.796875 35.492188 C 68.652344 35.550781 68.507812 35.578125 68.363281 35.578125 C 67.914062 35.578125 67.492188 35.3125 67.3125 34.875 C 67.070312 34.289062 67.347656 33.621094 67.925781 33.378906 L 69.640625 32.664062 C 68.914062 31.167969 67.992188 29.789062 66.90625 28.554688 L 64.03125 31.449219 C 63.808594 31.671875 63.519531 31.78125 63.226562 31.78125 C 62.9375 31.78125 62.644531 31.671875 62.421875 31.449219 C 61.980469 31 61.980469 30.277344 62.421875 29.832031 L 65.296875 26.9375 C 64.074219 25.84375 62.699219 24.914062 61.214844 24.183594 L 60.503906 25.910156 C 60.324219 26.351562 59.902344 26.617188 59.453125 26.617188 C 59.308594 26.617188 59.164062 26.589844 59.019531 26.527344 C 58.441406 26.289062 58.164062 25.617188 58.40625 25.035156 L 59.117188 23.304688 C 57.589844 22.773438 55.972656 22.445312 54.292969 22.339844 L 54.292969 26.441406 C 54.292969 27.074219 53.785156 27.585938 53.15625 27.585938 C 52.53125 27.585938 52.019531 27.074219 52.019531 26.441406 L 52.019531 22.339844 C 50.363281 22.445312 48.746094 22.777344 47.203125 23.3125 L 47.910156 25.035156 C 48.152344 25.617188 47.875 26.289062 47.296875 26.527344 C 47.152344 26.589844 47.003906 26.617188 46.859375 26.617188 C 46.414062 26.617188 45.992188 26.351562 45.808594 25.910156 L 45.101562 24.191406 C 43.628906 24.917969 42.253906 25.84375 41.015625 26.9375 L 43.890625 29.828125 C 44.335938 30.277344 44.335938 31 43.890625 31.449219 C 43.667969 31.671875 43.378906 31.78125 43.085938 31.78125 C 42.796875 31.78125 42.507812 31.671875 42.285156 31.449219 L 39.40625 28.550781 C 38.632812 29.425781 37.9375 30.382812 37.335938 31.410156 C 37.015625 31.957031 36.320312 32.136719 35.777344 31.816406 C 35.238281 31.496094 35.058594 30.792969 35.375 30.25 C 37.167969 27.191406 39.722656 24.628906 42.769531 22.835938 C 45.910156 20.992188 49.5 20.015625 53.15625 20.015625 C 64.53125 20.015625 73.78125 29.328125 73.78125 40.773438 Z M 60.300781 33.582031 C 60.746094 34.03125 60.746094 34.753906 60.300781 35.199219 L 56.492188 39.035156 C 56.761719 39.554688 56.914062 40.144531 56.914062 40.773438 C 56.914062 42.859375 55.230469 44.554688 53.15625 44.554688 C 51.085938 44.554688 49.398438 42.859375 49.398438 40.773438 C 49.398438 38.6875 51.085938 36.992188 53.15625 36.992188 C 53.78125 36.992188 54.367188 37.144531 54.886719 37.417969 L 58.695312 33.582031 C 59.136719 33.136719 59.859375 33.136719 60.300781 33.582031 Z M 54.640625 40.773438 C 54.640625 39.949219 53.976562 39.28125 53.15625 39.28125 C 52.339844 39.28125 51.671875 39.949219 51.671875 40.773438 C 51.671875 41.597656 52.339844 42.265625 53.15625 42.265625 C 53.976562 42.265625 54.640625 41.597656 54.640625 40.773438 Z M 49.019531 58.371094 L 49.019531 68.183594 C 49.019531 69.828125 47.691406 71.164062 46.058594 71.164062 L 24.222656 71.164062 C 22.589844 71.164062 21.261719 69.828125 21.261719 68.183594 L 21.261719 58.371094 C 21.261719 55.351562 23.480469 53.113281 27.511719 52.070312 C 29.054688 51.671875 30.609375 51.394531 32.175781 51.246094 C 29.867188 49.835938 28.269531 46.835938 28.269531 43.371094 C 28.269531 38.960938 30.902344 36.222656 35.140625 36.222656 C 39.378906 36.222656 42.011719 38.960938 42.011719 43.371094 C 42.011719 46.84375 40.40625 49.851562 38.085938 51.253906 C 39.640625 51.410156 41.199219 51.675781 42.757812 52.066406 C 46.738281 53.0625 49.019531 55.359375 49.019531 58.371094 Z M 35.140625 49.8125 C 37.675781 49.8125 39.738281 46.921875 39.738281 43.371094 C 39.738281 39.140625 36.859375 38.507812 35.140625 38.507812 C 33.421875 38.507812 30.542969 39.140625 30.542969 43.371094 C 30.542969 46.921875 32.605469 49.8125 35.140625 49.8125 Z M 46.746094 58.371094 C 46.746094 55.804688 43.90625 54.710938 42.210938 54.289062 C 39.820312 53.691406 37.4375 53.394531 35.074219 53.394531 C 32.714844 53.394531 30.378906 53.691406 28.078125 54.285156 C 26.003906 54.820312 23.535156 55.964844 23.535156 58.371094 L 23.535156 68.183594 C 23.535156 68.566406 23.84375 68.875 24.222656 68.875 L 27.050781 68.875 L 27.050781 61.046875 C 27.050781 60.414062 27.558594 59.902344 28.1875 59.902344 C 28.816406 59.902344 29.324219 60.414062 29.324219 61.046875 L 29.324219 68.875 L 40.957031 68.875 L 40.957031 61.046875 C 40.957031 60.414062 41.464844 59.902344 42.09375 59.902344 C 42.722656 59.902344 43.230469 60.414062 43.230469 61.046875 L 43.230469 68.875 L 46.058594 68.875 C 46.4375 68.875 46.746094 68.566406 46.746094 68.183594 Z M 23.191406 21.367188 C 23.191406 25.148438 20.136719 28.226562 16.378906 28.226562 C 12.621094 28.226562 9.566406 25.148438 9.566406 21.367188 C 9.566406 17.589844 12.621094 14.511719 16.378906 14.511719 C 20.136719 14.511719 23.191406 17.589844 23.191406 21.367188 Z M 20.917969 21.367188 C 20.917969 18.851562 18.882812 16.800781 16.378906 16.800781 C 13.875 16.800781 11.839844 18.851562 11.839844 21.367188 C 11.839844 23.886719 13.875 25.9375 16.378906 25.9375 C 18.882812 25.9375 20.917969 23.886719 20.917969 21.367188 Z M 21.589844 31.726562 C 21.066406 31.992188 20.527344 32.21875 19.96875 32.402344 L 19.421875 35.851562 C 19.332031 36.40625 18.859375 36.8125 18.300781 36.8125 L 14.457031 36.8125 C 13.898438 36.8125 13.425781 36.40625 13.335938 35.851562 L 12.789062 32.402344 C 12.230469 32.21875 11.691406 31.992188 11.167969 31.726562 L 8.355469 33.773438 C 7.902344 34.101562 7.28125 34.054688 6.886719 33.65625 L 4.167969 30.921875 C 3.773438 30.523438 3.726562 29.898438 4.054688 29.441406 L 6.089844 26.613281 C 5.824219 26.085938 5.597656 25.542969 5.417969 24.984375 L 1.988281 24.429688 C 1.4375 24.34375 1.03125 23.863281 1.03125 23.300781 L 1.03125 19.4375 C 1.03125 18.875 1.4375 18.394531 1.988281 18.304688 L 5.417969 17.753906 C 5.597656 17.195312 5.824219 16.652344 6.089844 16.125 L 4.054688 13.296875 C 3.726562 12.839844 3.773438 12.210938 4.167969 11.816406 L 6.886719 9.082031 C 7.28125 8.683594 7.902344 8.632812 8.355469 8.964844 L 11.167969 11.011719 C 11.691406 10.746094 12.230469 10.519531 12.789062 10.335938 L 13.335938 6.886719 C 13.425781 6.332031 13.898438 5.925781 14.457031 5.925781 L 18.300781 5.925781 C 18.859375 5.925781 19.332031 6.332031 19.421875 6.886719 L 19.96875 10.335938 C 20.527344 10.519531 21.066406 10.746094 21.589844 11.011719 L 24.402344 8.964844 C 24.851562 8.632812 25.476562 8.683594 25.871094 9.082031 L 28.589844 11.816406 C 28.984375 12.210938 29.03125 12.839844 28.703125 13.296875 L 26.667969 16.125 C 26.933594 16.652344 27.15625 17.195312 27.339844 17.753906 L 30.765625 18.304688 C 31.320312 18.394531 31.722656 18.875 31.722656 19.4375 L 31.722656 23.300781 C 31.722656 23.863281 31.320312 24.34375 30.765625 24.429688 L 27.339844 24.984375 C 27.160156 25.542969 26.933594 26.085938 26.667969 26.613281 L 28.703125 29.441406 C 29.03125 29.898438 28.984375 30.523438 28.585938 30.921875 L 25.871094 33.65625 C 25.476562 34.054688 24.855469 34.105469 24.402344 33.773438 Z M 21.09375 29.390625 C 21.484375 29.15625 21.972656 29.179688 22.339844 29.445312 L 24.949219 31.347656 L 26.296875 29.996094 L 24.40625 27.367188 C 24.140625 27 24.117188 26.507812 24.347656 26.113281 C 24.796875 25.355469 25.132812 24.535156 25.351562 23.683594 C 25.460938 23.242188 25.824219 22.910156 26.269531 22.839844 L 29.449219 22.328125 L 29.449219 20.410156 L 26.269531 19.898438 C 25.824219 19.828125 25.460938 19.496094 25.351562 19.054688 C 25.132812 18.199219 24.796875 17.382812 24.347656 16.625 C 24.117188 16.230469 24.140625 15.738281 24.40625 15.371094 L 26.296875 12.742188 L 24.949219 11.390625 L 22.339844 13.289062 C 21.972656 13.558594 21.484375 13.582031 21.09375 13.347656 C 20.339844 12.898438 19.527344 12.558594 18.679688 12.339844 C 18.242188 12.226562 17.910156 11.863281 17.839844 11.414062 L 17.332031 8.214844 L 15.425781 8.214844 L 14.917969 11.414062 C 14.847656 11.863281 14.515625 12.226562 14.078125 12.339844 C 13.230469 12.558594 12.417969 12.898438 11.664062 13.347656 C 11.273438 13.582031 10.785156 13.558594 10.417969 13.289062 L 7.808594 11.390625 L 6.460938 12.742188 L 8.351562 15.371094 C 8.617188 15.738281 8.640625 16.230469 8.410156 16.625 C 7.960938 17.382812 7.625 18.199219 7.40625 19.054688 C 7.296875 19.496094 6.933594 19.828125 6.488281 19.898438 L 3.304688 20.410156 L 3.304688 22.328125 L 6.488281 22.839844 C 6.933594 22.910156 7.296875 23.242188 7.40625 23.683594 C 7.625 24.539062 7.960938 25.355469 8.410156 26.113281 C 8.640625 26.507812 8.617188 27 8.351562 27.367188 L 6.460938 29.996094 L 7.808594 31.347656 L 10.417969 29.445312 C 10.785156 29.179688 11.273438 29.15625 11.664062 29.390625 C 12.417969 29.839844 13.230469 30.179688 14.078125 30.398438 C 14.515625 30.511719 14.847656 30.875 14.917969 31.324219 L 15.425781 34.523438 L 17.332031 34.523438 L 17.839844 31.324219 C 17.910156 30.875 18.242188 30.511719 18.679688 30.398438 C 19.527344 30.179688 20.339844 29.839844 21.09375 29.390625 Z M 21.09375 29.390625 " clip-rule="nonzero"></path></clipPath><linearGradient x1="-16.863966" gradientTransform="matrix(0.14209, 0, 0, 0.142998, 1.033157, 1.937194)" y1="467.247974" x2="467.247501" gradientUnits="userSpaceOnUse" y2="-16.863488" id="20ccd65669"><stop stop-opacity="1" stop-color="rgb(98.799133%, 77.598572%, 5.499268%)" offset="0"></stop><stop stop-opacity="1" stop-color="rgb(98.799133%, 77.598572%, 5.499268%)" offset="0.125"></stop><stop stop-opacity="1" stop-color="rgb(98.799133%, 77.598572%, 5.499268%)" offset="0.15625"></stop><stop stop-opacity="1" stop-color="rgb(98.773193%, 77.397156%, 5.534363%)" offset="0.160156"></stop><stop stop-opacity="1" stop-color="rgb(98.748779%, 77.19574%, 5.570984%)" offset="0.164063"></stop><stop stop-opacity="1" stop-color="rgb(98.704529%, 76.837158%, 5.633545%)" offset="0.167969"></stop><stop stop-opacity="1" stop-color="rgb(98.660278%, 76.480103%, 5.697632%)" offset="0.171875"></stop><stop stop-opacity="1" stop-color="rgb(98.616028%, 76.121521%, 5.761719%)" offset="0.175781"></stop><stop stop-opacity="1" stop-color="rgb(98.571777%, 75.764465%, 5.825806%)" offset="0.179688"></stop><stop stop-opacity="1" stop-color="rgb(98.526001%, 75.405884%, 5.888367%)" offset="0.183594"></stop><stop stop-opacity="1" stop-color="rgb(98.48175%, 75.048828%, 5.952454%)" offset="0.1875"></stop><stop stop-opacity="1" stop-color="rgb(98.4375%, 74.690247%, 6.016541%)" offset="0.191406"></stop><stop stop-opacity="1" stop-color="rgb(98.39325%, 74.333191%, 6.080627%)" offset="0.195313"></stop><stop stop-opacity="1" stop-color="rgb(98.348999%, 73.974609%, 6.143188%)" offset="0.199219"></stop><stop stop-opacity="1" stop-color="rgb(98.304749%, 73.617554%, 6.207275%)" offset="0.203125"></stop><stop stop-opacity="1" stop-color="rgb(98.260498%, 73.258972%, 6.271362%)" offset="0.207031"></stop><stop stop-opacity="1" stop-color="rgb(98.216248%, 72.901917%, 6.335449%)" offset="0.210938"></stop><stop stop-opacity="1" stop-color="rgb(98.171997%, 72.543335%, 6.39801%)" offset="0.214844"></stop><stop stop-opacity="1" stop-color="rgb(98.127747%, 72.186279%, 6.462097%)" offset="0.21875"></stop><stop stop-opacity="1" stop-color="rgb(98.08197%, 71.827698%, 6.524658%)" offset="0.222656"></stop><stop stop-opacity="1" stop-color="rgb(98.03772%, 71.470642%, 6.588745%)" offset="0.226563"></stop><stop stop-opacity="1" stop-color="rgb(97.993469%, 71.112061%, 6.652832%)" offset="0.230469"></stop><stop stop-opacity="1" stop-color="rgb(97.949219%, 70.755005%, 6.716919%)" offset="0.234375"></stop><stop stop-opacity="1" stop-color="rgb(97.904968%, 70.396423%, 6.77948%)" offset="0.238281"></stop><stop stop-opacity="1" stop-color="rgb(97.860718%, 70.039368%, 6.843567%)" offset="0.242188"></stop><stop stop-opacity="1" stop-color="rgb(97.816467%, 69.680786%, 6.907654%)" offset="0.246094"></stop><stop stop-opacity="1" stop-color="rgb(97.772217%, 69.32373%, 6.971741%)" offset="0.25"></stop><stop stop-opacity="1" stop-color="rgb(97.72644%, 68.965149%, 7.034302%)" offset="0.253906"></stop><stop stop-opacity="1" stop-color="rgb(97.68219%, 68.608093%, 7.098389%)" offset="0.257812"></stop><stop stop-opacity="1" stop-color="rgb(97.637939%, 68.249512%, 7.16095%)" offset="0.261719"></stop><stop stop-opacity="1" stop-color="rgb(97.593689%, 67.892456%, 7.225037%)" offset="0.265625"></stop><stop stop-opacity="1" stop-color="rgb(97.549438%, 67.533875%, 7.289124%)" offset="0.269531"></stop><stop stop-opacity="1" stop-color="rgb(97.505188%, 67.176819%, 7.35321%)" offset="0.273438"></stop><stop stop-opacity="1" stop-color="rgb(97.460938%, 66.818237%, 7.415771%)" offset="0.277344"></stop><stop stop-opacity="1" stop-color="rgb(97.416687%, 66.461182%, 7.479858%)" offset="0.28125"></stop><stop stop-opacity="1" stop-color="rgb(97.372437%, 66.1026%, 7.543945%)" offset="0.285156"></stop><stop stop-opacity="1" stop-color="rgb(97.328186%, 65.745544%, 7.608032%)" offset="0.289062"></stop><stop stop-opacity="1" stop-color="rgb(97.28241%, 65.386963%, 7.670593%)" offset="0.292969"></stop><stop stop-opacity="1" stop-color="rgb(97.238159%, 65.029907%, 7.73468%)" offset="0.296875"></stop><stop stop-opacity="1" stop-color="rgb(97.193909%, 64.671326%, 7.797241%)" offset="0.300781"></stop><stop stop-opacity="1" stop-color="rgb(97.149658%, 64.31427%, 7.861328%)" offset="0.304688"></stop><stop stop-opacity="1" stop-color="rgb(97.105408%, 63.955688%, 7.925415%)" offset="0.308594"></stop><stop stop-opacity="1" stop-color="rgb(97.061157%, 63.598633%, 7.989502%)" offset="0.3125"></stop><stop stop-opacity="1" stop-color="rgb(97.016907%, 63.240051%, 8.052063%)" offset="0.316406"></stop><stop stop-opacity="1" stop-color="rgb(96.972656%, 62.882996%, 8.11615%)" offset="0.320313"></stop><stop stop-opacity="1" stop-color="rgb(96.92688%, 62.524414%, 8.180237%)" offset="0.324219"></stop><stop stop-opacity="1" stop-color="rgb(96.882629%, 62.167358%, 8.244324%)" offset="0.328125"></stop><stop stop-opacity="1" stop-color="rgb(96.838379%, 61.808777%, 8.306885%)" offset="0.332031"></stop><stop stop-opacity="1" stop-color="rgb(96.794128%, 61.451721%, 8.370972%)" offset="0.335938"></stop><stop stop-opacity="1" stop-color="rgb(96.749878%, 61.09314%, 8.435059%)" offset="0.339844"></stop><stop stop-opacity="1" stop-color="rgb(96.705627%, 60.736084%, 8.499146%)" offset="0.34375"></stop><stop stop-opacity="1" stop-color="rgb(96.661377%, 60.377502%, 8.561707%)" offset="0.347656"></stop><stop stop-opacity="1" stop-color="rgb(96.617126%, 60.020447%, 8.625793%)" offset="0.351563"></stop><stop stop-opacity="1" stop-color="rgb(96.57135%, 59.661865%, 8.688354%)" offset="0.355469"></stop><stop stop-opacity="1" stop-color="rgb(96.5271%, 59.30481%, 8.752441%)" offset="0.359375"></stop><stop stop-opacity="1" stop-color="rgb(96.482849%, 58.946228%, 8.816528%)" offset="0.363281"></stop><stop stop-opacity="1" stop-color="rgb(96.438599%, 58.589172%, 8.880615%)" offset="0.367187"></stop><stop stop-opacity="1" stop-color="rgb(96.394348%, 58.230591%, 8.943176%)" offset="0.371094"></stop><stop stop-opacity="1" stop-color="rgb(96.350098%, 57.873535%, 9.007263%)" offset="0.375"></stop><stop stop-opacity="1" stop-color="rgb(96.305847%, 57.514954%, 9.07135%)" offset="0.378906"></stop><stop stop-opacity="1" stop-color="rgb(96.261597%, 57.157898%, 9.135437%)" offset="0.382812"></stop><stop stop-opacity="1" stop-color="rgb(96.217346%, 56.799316%, 9.197998%)" offset="0.386719"></stop><stop stop-opacity="1" stop-color="rgb(96.173096%, 56.442261%, 9.262085%)" offset="0.390625"></stop><stop stop-opacity="1" stop-color="rgb(96.127319%, 56.083679%, 9.324646%)" offset="0.394531"></stop><stop stop-opacity="1" stop-color="rgb(96.083069%, 55.726624%, 9.388733%)" offset="0.398438"></stop><stop stop-opacity="1" stop-color="rgb(96.038818%, 55.368042%, 9.45282%)" offset="0.402344"></stop><stop stop-opacity="1" stop-color="rgb(95.994568%, 55.010986%, 9.516907%)" offset="0.40625"></stop><stop stop-opacity="1" stop-color="rgb(95.950317%, 54.652405%, 9.579468%)" offset="0.410156"></stop><stop stop-opacity="1" stop-color="rgb(95.906067%, 54.295349%, 9.643555%)" offset="0.414063"></stop><stop stop-opacity="1" stop-color="rgb(95.861816%, 53.936768%, 9.707642%)" offset="0.417969"></stop><stop stop-opacity="1" stop-color="rgb(95.817566%, 53.579712%, 9.771729%)" offset="0.421875"></stop><stop stop-opacity="1" stop-color="rgb(95.77179%, 53.22113%, 9.83429%)" offset="0.425781"></stop><stop stop-opacity="1" stop-color="rgb(95.727539%, 52.864075%, 9.898376%)" offset="0.429688"></stop><stop stop-opacity="1" stop-color="rgb(95.683289%, 52.505493%, 9.960938%)" offset="0.433594"></stop><stop stop-opacity="1" stop-color="rgb(95.639038%, 52.148438%, 10.025024%)" offset="0.4375"></stop><stop stop-opacity="1" stop-color="rgb(95.594788%, 51.789856%, 10.089111%)" offset="0.441406"></stop><stop stop-opacity="1" stop-color="rgb(95.550537%, 51.4328%, 10.153198%)" offset="0.445313"></stop><stop stop-opacity="1" stop-color="rgb(95.506287%, 51.074219%, 10.215759%)" offset="0.449219"></stop><stop stop-opacity="1" stop-color="rgb(95.462036%, 50.717163%, 10.279846%)" offset="0.453125"></stop><stop stop-opacity="1" stop-color="rgb(95.41626%, 50.358582%, 10.343933%)" offset="0.457031"></stop><stop stop-opacity="1" stop-color="rgb(95.372009%, 50.001526%, 10.40802%)" offset="0.460938"></stop><stop stop-opacity="1" stop-color="rgb(95.327759%, 49.642944%, 10.470581%)" offset="0.464844"></stop><stop stop-opacity="1" stop-color="rgb(95.283508%, 49.285889%, 10.534668%)" offset="0.46875"></stop><stop stop-opacity="1" stop-color="rgb(95.239258%, 48.927307%, 10.598755%)" offset="0.472656"></stop><stop stop-opacity="1" stop-color="rgb(95.195007%, 48.570251%, 10.662842%)" offset="0.476562"></stop><stop stop-opacity="1" stop-color="rgb(95.150757%, 48.21167%, 10.725403%)" offset="0.480469"></stop><stop stop-opacity="1" stop-color="rgb(95.106506%, 47.854614%, 10.78949%)" offset="0.484375"></stop><stop stop-opacity="1" stop-color="rgb(95.062256%, 47.496033%, 10.852051%)" offset="0.488281"></stop><stop stop-opacity="1" stop-color="rgb(95.018005%, 47.138977%, 10.916138%)" offset="0.492188"></stop><stop stop-opacity="1" stop-color="rgb(94.972229%, 46.780396%, 10.980225%)" offset="0.496094"></stop><stop stop-opacity="1" stop-color="rgb(94.927979%, 46.42334%, 11.044312%)" offset="0.5"></stop><stop stop-opacity="1" stop-color="rgb(94.883728%, 46.064758%, 11.106873%)" offset="0.503906"></stop><stop stop-opacity="1" stop-color="rgb(94.839478%, 45.707703%, 11.170959%)" offset="0.507812"></stop><stop stop-opacity="1" stop-color="rgb(94.795227%, 45.349121%, 11.235046%)" offset="0.511719"></stop><stop stop-opacity="1" stop-color="rgb(94.750977%, 44.992065%, 11.299133%)" offset="0.515625"></stop><stop stop-opacity="1" stop-color="rgb(94.706726%, 44.633484%, 11.361694%)" offset="0.519531"></stop><stop stop-opacity="1" stop-color="rgb(94.662476%, 44.276428%, 11.425781%)" offset="0.523438"></stop><stop stop-opacity="1" stop-color="rgb(94.616699%, 43.917847%, 11.488342%)" offset="0.527344"></stop><stop stop-opacity="1" stop-color="rgb(94.572449%, 43.560791%, 11.552429%)" offset="0.53125"></stop><stop stop-opacity="1" stop-color="rgb(94.528198%, 43.202209%, 11.616516%)" offset="0.535156"></stop><stop stop-opacity="1" stop-color="rgb(94.483948%, 42.845154%, 11.680603%)" offset="0.539062"></stop><stop stop-opacity="1" stop-color="rgb(94.439697%, 42.486572%, 11.743164%)" offset="0.542969"></stop><stop stop-opacity="1" stop-color="rgb(94.395447%, 42.129517%, 11.807251%)" offset="0.546875"></stop><stop stop-opacity="1" stop-color="rgb(94.351196%, 41.770935%, 11.871338%)" offset="0.550781"></stop><stop stop-opacity="1" stop-color="rgb(94.306946%, 41.413879%, 11.935425%)" offset="0.554688"></stop><stop stop-opacity="1" stop-color="rgb(94.261169%, 41.055298%, 11.997986%)" offset="0.558594"></stop><stop stop-opacity="1" stop-color="rgb(94.216919%, 40.698242%, 12.062073%)" offset="0.5625"></stop><stop stop-opacity="1" stop-color="rgb(94.172668%, 40.339661%, 12.124634%)" offset="0.566406"></stop><stop stop-opacity="1" stop-color="rgb(94.128418%, 39.982605%, 12.188721%)" offset="0.570312"></stop><stop stop-opacity="1" stop-color="rgb(94.084167%, 39.624023%, 12.252808%)" offset="0.574219"></stop><stop stop-opacity="1" stop-color="rgb(94.039917%, 39.266968%, 12.316895%)" offset="0.578125"></stop><stop stop-opacity="1" stop-color="rgb(93.995667%, 38.908386%, 12.379456%)" offset="0.582031"></stop><stop stop-opacity="1" stop-color="rgb(93.951416%, 38.551331%, 12.443542%)" offset="0.585938"></stop><stop stop-opacity="1" stop-color="rgb(93.907166%, 38.192749%, 12.507629%)" offset="0.589844"></stop><stop stop-opacity="1" stop-color="rgb(93.862915%, 37.835693%, 12.571716%)" offset="0.59375"></stop><stop stop-opacity="1" stop-color="rgb(93.817139%, 37.477112%, 12.634277%)" offset="0.597656"></stop><stop stop-opacity="1" stop-color="rgb(93.772888%, 37.120056%, 12.698364%)" offset="0.601562"></stop><stop stop-opacity="1" stop-color="rgb(93.728638%, 36.761475%, 12.762451%)" offset="0.605469"></stop><stop stop-opacity="1" stop-color="rgb(93.684387%, 36.404419%, 12.826538%)" offset="0.609375"></stop><stop stop-opacity="1" stop-color="rgb(93.640137%, 36.045837%, 12.889099%)" offset="0.613281"></stop><stop stop-opacity="1" stop-color="rgb(93.595886%, 35.688782%, 12.953186%)" offset="0.617188"></stop><stop stop-opacity="1" stop-color="rgb(93.551636%, 35.3302%, 13.015747%)" offset="0.621094"></stop><stop stop-opacity="1" stop-color="rgb(93.507385%, 34.973145%, 13.079834%)" offset="0.625"></stop><stop stop-opacity="1" stop-color="rgb(93.461609%, 34.614563%, 13.143921%)" offset="0.628906"></stop><stop stop-opacity="1" stop-color="rgb(93.417358%, 34.257507%, 13.208008%)" offset="0.632812"></stop><stop stop-opacity="1" stop-color="rgb(93.373108%, 33.898926%, 13.270569%)" offset="0.636719"></stop><stop stop-opacity="1" stop-color="rgb(93.328857%, 33.54187%, 13.334656%)" offset="0.640625"></stop><stop stop-opacity="1" stop-color="rgb(93.284607%, 33.183289%, 13.398743%)" offset="0.644531"></stop><stop stop-opacity="1" stop-color="rgb(93.240356%, 32.826233%, 13.46283%)" offset="0.648438"></stop><stop stop-opacity="1" stop-color="rgb(93.196106%, 32.467651%, 13.525391%)" offset="0.652344"></stop><stop stop-opacity="1" stop-color="rgb(93.151855%, 32.110596%, 13.589478%)" offset="0.65625"></stop><stop stop-opacity="1" stop-color="rgb(93.106079%, 31.752014%, 13.652039%)" offset="0.660156"></stop><stop stop-opacity="1" stop-color="rgb(93.061829%, 31.394958%, 13.716125%)" offset="0.664062"></stop><stop stop-opacity="1" stop-color="rgb(93.017578%, 31.036377%, 13.780212%)" offset="0.667969"></stop><stop stop-opacity="1" stop-color="rgb(92.973328%, 30.679321%, 13.844299%)" offset="0.671875"></stop><stop stop-opacity="1" stop-color="rgb(92.929077%, 30.32074%, 13.90686%)" offset="0.675781"></stop><stop stop-opacity="1" stop-color="rgb(92.884827%, 29.963684%, 13.970947%)" offset="0.679688"></stop><stop stop-opacity="1" stop-color="rgb(92.840576%, 29.605103%, 14.035034%)" offset="0.683594"></stop><stop stop-opacity="1" stop-color="rgb(92.796326%, 29.248047%, 14.099121%)" offset="0.6875"></stop><stop stop-opacity="1" stop-color="rgb(92.752075%, 28.889465%, 14.161682%)" offset="0.691406"></stop><stop stop-opacity="1" stop-color="rgb(92.707825%, 28.53241%, 14.225769%)" offset="0.695312"></stop><stop stop-opacity="1" stop-color="rgb(92.662048%, 28.173828%, 14.28833%)" offset="0.699219"></stop><stop stop-opacity="1" stop-color="rgb(92.617798%, 27.816772%, 14.352417%)" offset="0.703125"></stop><stop stop-opacity="1" stop-color="rgb(92.573547%, 27.458191%, 14.416504%)" offset="0.707031"></stop><stop stop-opacity="1" stop-color="rgb(92.529297%, 27.101135%, 14.480591%)" offset="0.710938"></stop><stop stop-opacity="1" stop-color="rgb(92.485046%, 26.742554%, 14.543152%)" offset="0.714844"></stop><stop stop-opacity="1" stop-color="rgb(92.440796%, 26.385498%, 14.607239%)" offset="0.71875"></stop><stop stop-opacity="1" stop-color="rgb(92.396545%, 26.026917%, 14.671326%)" offset="0.722656"></stop><stop stop-opacity="1" stop-color="rgb(92.352295%, 25.669861%, 14.735413%)" offset="0.726562"></stop><stop stop-opacity="1" stop-color="rgb(92.306519%, 25.311279%, 14.797974%)" offset="0.730469"></stop><stop stop-opacity="1" stop-color="rgb(92.262268%, 24.954224%, 14.862061%)" offset="0.734375"></stop><stop stop-opacity="1" stop-color="rgb(92.218018%, 24.595642%, 14.926147%)" offset="0.738281"></stop><stop stop-opacity="1" stop-color="rgb(92.173767%, 24.238586%, 14.990234%)" offset="0.742187"></stop><stop stop-opacity="1" stop-color="rgb(92.129517%, 23.880005%, 15.052795%)" offset="0.746094"></stop><stop stop-opacity="1" stop-color="rgb(92.085266%, 23.522949%, 15.116882%)" offset="0.75"></stop><stop stop-opacity="1" stop-color="rgb(92.041016%, 23.164368%, 15.179443%)" offset="0.753906"></stop><stop stop-opacity="1" stop-color="rgb(91.996765%, 22.807312%, 15.24353%)" offset="0.757812"></stop><stop stop-opacity="1" stop-color="rgb(91.950989%, 22.44873%, 15.307617%)" offset="0.761719"></stop><stop stop-opacity="1" stop-color="rgb(91.906738%, 22.091675%, 15.371704%)" offset="0.765625"></stop><stop stop-opacity="1" stop-color="rgb(91.862488%, 21.733093%, 15.434265%)" offset="0.769531"></stop><stop stop-opacity="1" stop-color="rgb(91.818237%, 21.376038%, 15.498352%)" offset="0.773438"></stop><stop stop-opacity="1" stop-color="rgb(91.773987%, 21.017456%, 15.562439%)" offset="0.777344"></stop><stop stop-opacity="1" stop-color="rgb(91.729736%, 20.6604%, 15.626526%)" offset="0.78125"></stop><stop stop-opacity="1" stop-color="rgb(91.685486%, 20.301819%, 15.689087%)" offset="0.785156"></stop><stop stop-opacity="1" stop-color="rgb(91.641235%, 19.944763%, 15.753174%)" offset="0.789062"></stop><stop stop-opacity="1" stop-color="rgb(91.596985%, 19.586182%, 15.815735%)" offset="0.792969"></stop><stop stop-opacity="1" stop-color="rgb(91.552734%, 19.229126%, 15.879822%)" offset="0.796875"></stop><stop stop-opacity="1" stop-color="rgb(91.506958%, 18.870544%, 15.943909%)" offset="0.800781"></stop><stop stop-opacity="1" stop-color="rgb(91.462708%, 18.513489%, 16.007996%)" offset="0.804688"></stop><stop stop-opacity="1" stop-color="rgb(91.430664%, 18.255615%, 16.053772%)" offset="0.808594"></stop><stop stop-opacity="1" stop-color="rgb(91.398621%, 17.999268%, 16.099548%)" offset="0.8125"></stop><stop stop-opacity="1" stop-color="rgb(91.398621%, 17.999268%, 16.099548%)" offset="0.875"></stop><stop stop-opacity="1" stop-color="rgb(91.398621%, 17.999268%, 16.099548%)" offset="1"></stop></linearGradient></defs><g clip-path="url(#d869efada6)"><g clip-path="url(#c70ec0f418)"><path fill="url(#20ccd65669)" d="M 1.03125 5.925781 L 1.03125 71.164062 L 73.78125 71.164062 L 73.78125 5.925781 Z M 1.03125 5.925781 " fill-rule="nonzero"></path></g></g></svg>