<svg xmlns="http://www.w3.org/2000/svg" xmlns:xlink="http://www.w3.org/1999/xlink" width="100" viewBox="0 0 75 74.999997" height="100" preserveAspectRatio="xMidYMid meet"><defs><clipPath id="41472ab403"><path d="M 0 5.25 L 75 5.25 L 75 72.75 L 0 72.75 Z M 0 5.25 " clip-rule="nonzero"></path></clipPath><clipPath id="640ca1d137"><path d="M 27.804688 48.414062 L 27.804688 47.007812 C 29.460938 46.5625 31.054688 45.902344 32.535156 45.035156 L 33.519531 46.023438 C 33.933594 46.441406 34.488281 46.664062 35.070312 46.664062 C 35.652344 46.664062 36.203125 46.441406 36.621094 46.023438 L 40.75 41.878906 C 41.601562 41.027344 41.601562 39.636719 40.75 38.78125 L 39.765625 37.796875 C 40.632812 36.300781 41.289062 34.714844 41.734375 33.054688 L 43.136719 33.054688 C 44.347656 33.054688 45.332031 32.066406 45.332031 30.855469 L 45.332031 25.007812 C 45.332031 23.796875 44.347656 22.808594 43.136719 22.808594 L 41.734375 22.808594 C 41.289062 21.148438 40.632812 19.546875 39.765625 18.066406 L 40.75 17.082031 C 41.601562 16.226562 41.601562 14.835938 40.75 13.984375 L 36.636719 9.839844 C 36.21875 9.421875 35.664062 9.199219 35.082031 9.199219 C 34.503906 9.199219 33.949219 9.421875 33.53125 9.839844 L 32.546875 10.828125 C 31.054688 9.960938 29.476562 9.304688 27.820312 8.855469 L 27.820312 7.449219 C 27.820312 6.238281 26.835938 5.25 25.628906 5.25 L 19.78125 5.25 C 18.574219 5.25 17.589844 6.238281 17.589844 7.449219 L 17.589844 8.855469 C 15.933594 9.304688 14.335938 9.960938 12.859375 10.828125 L 11.875 9.839844 C 11.457031 9.421875 10.90625 9.199219 10.324219 9.199219 C 9.742188 9.199219 9.191406 9.421875 8.773438 9.839844 L 4.65625 13.96875 C 4.238281 14.386719 4.015625 14.941406 4.015625 15.523438 C 4.015625 16.109375 4.238281 16.660156 4.65625 17.082031 L 5.640625 18.066406 C 4.777344 19.5625 4.121094 21.148438 3.671875 22.808594 L 2.269531 22.808594 C 1.078125 22.824219 0.09375 23.8125 0.09375 25.007812 L 0.09375 30.855469 C 0.09375 32.066406 1.078125 33.054688 2.285156 33.054688 L 3.6875 33.054688 C 4.132812 34.714844 4.789062 36.316406 5.65625 37.796875 L 4.671875 38.78125 C 4.253906 39.203125 4.03125 39.753906 4.03125 40.339844 C 4.03125 40.921875 4.253906 41.476562 4.671875 41.894531 L 8.804688 46.039062 C 9.21875 46.457031 9.773438 46.679688 10.355469 46.679688 C 10.9375 46.679688 11.488281 46.457031 11.90625 46.039062 L 12.890625 45.050781 C 14.382812 45.917969 15.960938 46.574219 17.617188 47.023438 L 17.617188 48.429688 C 17.617188 49.640625 18.601562 50.628906 19.808594 50.628906 L 25.640625 50.628906 C 26.835938 50.613281 27.804688 49.625 27.804688 48.414062 Z M 19.050781 48.414062 L 19.050781 45.859375 L 18.484375 45.722656 C 16.589844 45.273438 14.785156 44.527344 13.113281 43.496094 L 12.621094 43.195312 L 10.816406 45.003906 C 10.683594 45.140625 10.488281 45.214844 10.292969 45.214844 C 10.101562 45.214844 9.921875 45.140625 9.773438 45.003906 L 5.640625 40.863281 C 5.507812 40.726562 5.433594 40.53125 5.433594 40.339844 C 5.433594 40.144531 5.507812 39.964844 5.640625 39.816406 L 7.445312 38.003906 L 7.148438 37.511719 C 6.117188 35.851562 5.371094 34.042969 4.925781 32.128906 L 4.789062 31.558594 L 2.285156 31.558594 C 1.882812 31.558594 1.554688 31.230469 1.554688 30.824219 L 1.554688 25.007812 C 1.554688 24.605469 1.882812 24.273438 2.285156 24.273438 L 4.835938 24.273438 L 4.96875 23.707031 C 5.417969 21.808594 6.164062 19.996094 7.191406 18.320312 L 7.492188 17.828125 L 5.6875 16.046875 C 5.550781 15.914062 5.476562 15.71875 5.476562 15.523438 C 5.476562 15.332031 5.550781 15.152344 5.6875 15 L 9.816406 10.859375 C 9.953125 10.722656 10.144531 10.648438 10.339844 10.648438 C 10.535156 10.648438 10.710938 10.722656 10.863281 10.859375 L 12.667969 12.667969 L 13.160156 12.371094 C 14.8125 11.335938 16.617188 10.589844 18.527344 10.140625 L 19.09375 10.007812 L 19.09375 7.464844 C 19.09375 7.058594 19.421875 6.730469 19.824219 6.730469 L 25.65625 6.730469 C 26.058594 6.730469 26.386719 7.058594 26.386719 7.464844 L 26.386719 10.019531 L 26.953125 10.15625 C 28.847656 10.605469 30.652344 11.351562 32.324219 12.382812 L 32.816406 12.683594 L 34.621094 10.875 C 34.753906 10.738281 34.949219 10.664062 35.144531 10.664062 C 35.335938 10.664062 35.515625 10.738281 35.664062 10.875 L 39.796875 15.015625 C 40.082031 15.300781 40.082031 15.765625 39.796875 16.046875 L 37.992188 17.859375 L 38.289062 18.351562 C 39.320312 20.011719 40.066406 21.820312 40.511719 23.738281 L 40.648438 24.304688 L 43.199219 24.304688 C 43.601562 24.304688 43.929688 24.632812 43.929688 25.039062 L 43.929688 30.886719 C 43.929688 31.289062 43.601562 31.617188 43.199219 31.617188 L 40.648438 31.617188 L 40.511719 32.1875 C 40.066406 34.085938 39.320312 35.894531 38.289062 37.570312 L 37.992188 38.066406 L 39.796875 39.875 C 40.082031 40.160156 40.082031 40.621094 39.796875 40.90625 L 35.664062 45.050781 C 35.53125 45.183594 35.335938 45.257812 35.144531 45.257812 C 34.949219 45.257812 34.769531 45.183594 34.621094 45.050781 L 32.816406 43.242188 L 32.324219 43.539062 C 30.667969 44.570312 28.863281 45.320312 26.953125 45.769531 L 26.386719 45.902344 L 26.386719 48.460938 C 26.386719 48.863281 26.058594 49.191406 25.65625 49.191406 L 19.78125 49.191406 C 19.378906 49.148438 19.050781 48.820312 19.050781 48.414062 Z M 34.367188 27.9375 C 34.367188 21.492188 29.132812 16.242188 22.703125 16.242188 C 16.277344 16.242188 11.039062 21.492188 11.039062 27.9375 C 11.039062 34.386719 16.277344 39.636719 22.703125 39.636719 C 29.132812 39.636719 34.367188 34.386719 34.367188 27.9375 Z M 22.703125 38.183594 C 17.066406 38.183594 12.488281 33.59375 12.488281 27.9375 C 12.488281 22.285156 17.066406 17.695312 22.703125 17.695312 C 28.34375 17.695312 32.921875 22.285156 32.921875 27.9375 C 32.921875 33.59375 28.34375 38.183594 22.703125 38.183594 Z M 55.964844 35.671875 C 51.742188 37.421875 49.730469 42.296875 51.476562 46.53125 C 52.804688 49.730469 55.890625 51.660156 59.140625 51.660156 C 60.199219 51.660156 61.273438 51.453125 62.304688 51.03125 C 64.347656 50.179688 65.945312 48.578125 66.792969 46.53125 C 67.644531 44.480469 67.644531 42.222656 66.792969 40.175781 C 65.046875 35.941406 60.1875 33.921875 55.964844 35.671875 Z M 65.40625 45.960938 C 64.71875 47.636719 63.40625 48.953125 61.738281 49.640625 C 58.277344 51.078125 54.308594 49.433594 52.878906 45.960938 C 51.445312 42.492188 53.085938 38.515625 56.546875 37.078125 C 57.398438 36.71875 58.277344 36.554688 59.128906 36.554688 C 61.796875 36.554688 64.316406 38.140625 65.40625 40.757812 C 66.109375 42.433594 66.109375 44.289062 65.40625 45.960938 Z M 73.578125 45.257812 L 72.863281 44.960938 C 72.984375 43.882812 72.984375 42.804688 72.863281 41.746094 L 73.578125 41.445312 C 74.476562 41.070312 74.90625 40.039062 74.535156 39.140625 L 73 35.417969 C 72.820312 34.984375 72.476562 34.640625 72.042969 34.460938 C 71.609375 34.28125 71.132812 34.28125 70.703125 34.460938 L 69.984375 34.757812 C 69.3125 33.90625 68.554688 33.144531 67.71875 32.484375 L 68.015625 31.769531 C 68.390625 30.871094 67.957031 29.839844 67.0625 29.464844 L 63.347656 27.925781 C 62.453125 27.550781 61.425781 27.984375 61.050781 28.882812 L 60.753906 29.601562 C 59.679688 29.480469 58.605469 29.480469 57.546875 29.601562 L 57.246094 28.882812 C 56.875 27.984375 55.847656 27.550781 54.949219 27.925781 L 51.238281 29.464844 C 50.34375 29.839844 49.910156 30.871094 50.28125 31.769531 L 50.582031 32.484375 C 49.730469 33.160156 48.96875 33.921875 48.3125 34.757812 L 47.597656 34.460938 C 47.164062 34.28125 46.6875 34.28125 46.253906 34.460938 C 45.824219 34.640625 45.480469 34.984375 45.300781 35.417969 L 43.765625 39.140625 C 43.390625 40.039062 43.824219 41.070312 44.71875 41.445312 L 45.433594 41.746094 C 45.316406 42.820312 45.316406 43.898438 45.433594 44.960938 L 44.71875 45.257812 C 43.824219 45.632812 43.390625 46.664062 43.765625 47.5625 L 45.300781 51.285156 C 45.480469 51.722656 45.824219 52.066406 46.253906 52.246094 C 46.6875 52.421875 47.164062 52.421875 47.597656 52.246094 L 48.3125 51.945312 C 48.984375 52.796875 49.746094 53.558594 50.582031 54.21875 L 50.28125 54.9375 C 50.101562 55.371094 50.101562 55.847656 50.28125 56.28125 C 50.460938 56.714844 50.804688 57.058594 51.238281 57.238281 L 54.949219 58.78125 C 55.847656 59.152344 56.875 58.71875 57.246094 57.824219 L 57.546875 57.105469 C 58.621094 57.226562 59.695312 57.226562 60.753906 57.105469 L 61.050781 57.824219 C 61.230469 58.257812 61.574219 58.601562 62.003906 58.78125 C 62.230469 58.871094 62.453125 58.914062 62.675781 58.914062 C 62.902344 58.914062 63.140625 58.871094 63.347656 58.78125 L 67.0625 57.238281 C 67.496094 57.058594 67.835938 56.714844 68.015625 56.28125 C 68.195312 55.847656 68.195312 55.371094 68.015625 54.9375 L 67.71875 54.21875 C 68.570312 53.546875 69.328125 52.78125 69.984375 51.945312 L 70.703125 52.246094 C 71.132812 52.421875 71.609375 52.421875 72.042969 52.246094 C 72.476562 52.066406 72.820312 51.722656 73 51.285156 L 74.535156 47.5625 C 74.90625 46.664062 74.476562 45.632812 73.578125 45.257812 Z M 73.148438 46.996094 L 71.609375 50.71875 C 71.582031 50.808594 71.507812 50.839844 71.476562 50.851562 C 71.445312 50.867188 71.371094 50.882812 71.28125 50.851562 L 69.476562 50.105469 L 69.136719 50.585938 C 68.359375 51.660156 67.433594 52.589844 66.359375 53.367188 L 65.882812 53.710938 L 66.628906 55.519531 C 66.660156 55.609375 66.644531 55.667969 66.628906 55.714844 C 66.613281 55.742188 66.570312 55.820312 66.496094 55.847656 L 62.78125 57.390625 C 62.691406 57.417969 62.632812 57.40625 62.585938 57.390625 C 62.558594 57.375 62.484375 57.328125 62.453125 57.253906 L 61.707031 55.445312 L 61.125 55.535156 C 59.828125 55.742188 58.515625 55.742188 57.203125 55.535156 L 56.621094 55.445312 L 55.875 57.253906 C 55.816406 57.390625 55.683594 57.449219 55.546875 57.390625 L 51.832031 55.847656 C 51.742188 55.820312 51.714844 55.742188 51.699219 55.714844 C 51.683594 55.683594 51.667969 55.609375 51.699219 55.519531 L 52.445312 53.710938 L 51.96875 53.367188 C 50.894531 52.589844 49.96875 51.660156 49.195312 50.585938 L 48.851562 50.105469 L 47.046875 50.851562 C 46.957031 50.882812 46.898438 50.867188 46.851562 50.851562 C 46.820312 50.839844 46.746094 50.792969 46.71875 50.71875 L 45.136719 46.996094 C 45.078125 46.859375 45.152344 46.726562 45.269531 46.664062 L 47.074219 45.917969 L 46.984375 45.335938 C 46.777344 44.03125 46.777344 42.714844 46.984375 41.402344 L 47.074219 40.816406 L 45.269531 40.070312 C 45.136719 40.007812 45.078125 39.875 45.136719 39.742188 L 46.671875 36.015625 C 46.703125 35.925781 46.777344 35.894531 46.808594 35.882812 C 46.835938 35.867188 46.910156 35.851562 47 35.882812 L 48.804688 36.628906 L 49.148438 36.152344 C 49.925781 35.074219 50.847656 34.148438 51.921875 33.367188 L 52.398438 33.023438 L 51.65625 31.214844 C 51.59375 31.082031 51.667969 30.945312 51.789062 30.886719 L 55.503906 29.34375 C 55.636719 29.285156 55.769531 29.359375 55.832031 29.480469 L 56.578125 31.289062 L 57.160156 31.199219 C 58.457031 30.992188 59.769531 30.992188 61.082031 31.199219 L 61.664062 31.289062 L 62.410156 29.480469 C 62.46875 29.34375 62.601562 29.285156 62.738281 29.34375 L 66.449219 30.886719 C 66.585938 30.945312 66.644531 31.082031 66.585938 31.214844 L 65.839844 33.023438 L 66.316406 33.367188 C 67.390625 34.148438 68.316406 35.074219 69.089844 36.152344 L 69.433594 36.628906 L 71.238281 35.882812 C 71.328125 35.851562 71.386719 35.867188 71.433594 35.882812 C 71.460938 35.894531 71.535156 35.941406 71.566406 36.015625 L 73.101562 39.742188 C 73.164062 39.875 73.085938 40.007812 72.96875 40.070312 L 71.164062 40.816406 L 71.253906 41.402344 C 71.460938 42.703125 71.460938 44.019531 71.253906 45.335938 L 71.164062 45.917969 L 72.96875 46.664062 C 73.132812 46.710938 73.191406 46.859375 73.148438 46.996094 Z M 47.925781 57.613281 L 46.777344 54.816406 C 46.628906 54.441406 46.328125 54.160156 45.957031 53.996094 C 45.585938 53.84375 45.179688 53.84375 44.808594 53.996094 L 44.390625 54.171875 C 43.929688 53.605469 43.421875 53.097656 42.855469 52.632812 L 43.019531 52.230469 C 43.332031 51.464844 42.972656 50.570312 42.199219 50.253906 L 39.410156 49.101562 C 39.035156 48.953125 38.632812 48.953125 38.261719 49.101562 C 37.886719 49.253906 37.605469 49.550781 37.441406 49.925781 L 37.277344 50.328125 C 36.558594 50.253906 35.828125 50.253906 35.097656 50.328125 L 34.933594 49.925781 C 34.785156 49.550781 34.488281 49.269531 34.113281 49.101562 C 33.742188 48.953125 33.339844 48.953125 32.964844 49.101562 L 30.175781 50.253906 C 29.804688 50.40625 29.519531 50.703125 29.355469 51.078125 C 29.207031 51.453125 29.207031 51.855469 29.355469 52.230469 L 29.519531 52.632812 C 28.953125 53.097656 28.445312 53.605469 27.984375 54.171875 L 27.582031 54.007812 C 26.820312 53.695312 25.925781 54.054688 25.613281 54.832031 L 24.464844 57.628906 C 24.152344 58.390625 24.507812 59.289062 25.285156 59.601562 L 25.6875 59.765625 C 25.613281 60.484375 25.613281 61.21875 25.6875 61.953125 L 25.300781 62.101562 C 24.925781 62.25 24.644531 62.550781 24.480469 62.921875 C 24.328125 63.296875 24.328125 63.699219 24.480469 64.074219 L 25.628906 66.871094 C 25.777344 67.246094 26.074219 67.53125 26.449219 67.695312 C 26.820312 67.84375 27.222656 67.84375 27.597656 67.695312 L 28 67.53125 C 28.460938 68.097656 28.96875 68.605469 29.535156 69.070312 L 29.371094 69.472656 C 29.058594 70.238281 29.414062 71.132812 30.191406 71.449219 L 32.980469 72.601562 C 33.160156 72.675781 33.367188 72.71875 33.5625 72.71875 C 33.757812 72.71875 33.949219 72.675781 34.144531 72.601562 C 34.515625 72.449219 34.800781 72.152344 34.964844 71.777344 L 35.128906 71.375 C 35.84375 71.449219 36.574219 71.449219 37.304688 71.375 L 37.46875 71.777344 C 37.621094 72.152344 37.917969 72.4375 38.289062 72.601562 C 38.664062 72.75 39.066406 72.75 39.4375 72.601562 L 42.226562 71.449219 C 42.601562 71.300781 42.882812 71 43.046875 70.625 C 43.199219 70.253906 43.199219 69.847656 43.046875 69.472656 L 42.882812 69.070312 C 43.453125 68.605469 43.957031 68.097656 44.421875 67.53125 L 44.824219 67.695312 C 45.195312 67.84375 45.597656 67.84375 45.972656 67.695312 C 46.34375 67.546875 46.628906 67.246094 46.792969 66.871094 L 47.941406 64.074219 C 48.253906 63.3125 47.894531 62.414062 47.121094 62.101562 L 46.71875 61.9375 C 46.792969 61.21875 46.792969 60.484375 46.71875 59.765625 L 47.121094 59.601562 C 47.882812 59.257812 48.238281 58.375 47.925781 57.613281 Z M 45.136719 59.394531 C 45.285156 60.351562 45.285156 61.324219 45.136719 62.28125 L 45.046875 62.863281 L 46.539062 63.476562 L 45.390625 66.273438 L 43.898438 65.660156 L 43.554688 66.140625 C 42.988281 66.933594 42.300781 67.621094 41.527344 68.1875 L 41.050781 68.53125 L 41.660156 70.027344 L 38.871094 71.179688 L 38.261719 69.683594 L 37.679688 69.773438 C 36.722656 69.921875 35.753906 69.921875 34.800781 69.773438 L 34.21875 69.683594 L 33.605469 71.179688 L 30.816406 70.027344 L 31.429688 68.53125 L 30.953125 68.1875 C 30.160156 67.621094 29.476562 66.933594 28.910156 66.152344 L 28.566406 65.675781 L 27.074219 66.289062 L 25.925781 63.492188 L 27.417969 62.878906 L 27.328125 62.296875 C 27.179688 61.339844 27.179688 60.367188 27.328125 59.410156 L 27.417969 58.824219 L 25.925781 58.210938 L 27.074219 55.414062 L 28.566406 56.027344 L 28.910156 55.550781 C 29.476562 54.757812 30.160156 54.070312 30.9375 53.5 L 31.414062 53.15625 L 30.804688 51.660156 L 33.59375 50.507812 L 34.203125 52.003906 L 34.785156 51.914062 C 35.738281 51.765625 36.710938 51.765625 37.664062 51.914062 L 38.246094 52.003906 L 38.855469 50.507812 L 41.644531 51.660156 L 41.035156 53.15625 L 41.511719 53.5 C 42.300781 54.070312 42.988281 54.757812 43.554688 55.535156 L 43.898438 56.011719 L 45.390625 55.398438 L 46.539062 58.195312 L 45.046875 58.808594 Z M 38.664062 54.90625 C 37.082031 54.25 35.335938 54.25 33.757812 54.90625 C 32.175781 55.566406 30.9375 56.792969 30.296875 58.375 C 29.640625 59.960938 29.640625 61.710938 30.296875 63.296875 C 31.308594 65.765625 33.710938 67.261719 36.21875 67.261719 C 37.039062 67.261719 37.859375 67.097656 38.664062 66.765625 C 41.929688 65.40625 43.480469 61.652344 42.125 58.375 C 41.46875 56.792969 40.246094 55.566406 38.664062 54.90625 Z M 38.082031 65.375 C 35.589844 66.410156 32.710938 65.226562 31.683594 62.714844 C 31.175781 61.503906 31.175781 60.171875 31.683594 58.960938 C 32.191406 57.75 33.128906 56.804688 34.339844 56.296875 C 34.949219 56.042969 35.574219 55.921875 36.21875 55.921875 C 36.859375 55.921875 37.484375 56.042969 38.097656 56.296875 C 39.304688 56.804688 40.246094 57.75 40.75 58.960938 C 41.765625 61.457031 40.574219 64.34375 38.082031 65.375 Z M 38.082031 65.375 " clip-rule="nonzero"></path></clipPath><linearGradient x1="-0.0000000164721" gradientTransform="matrix(0.149152, 0, 0, 0.149568, 0.0925659, 5.264953)" y1="225.45" x2="501.600011" gradientUnits="userSpaceOnUse" y2="225.45" id="c0d94e80f0"><stop stop-opacity="1" stop-color="rgb(100%, 44.699097%, 0%)" offset="0"></stop><stop stop-opacity="1" stop-color="rgb(100%, 44.699097%, 0%)" offset="0.0625"></stop><stop stop-opacity="1" stop-color="rgb(100%, 44.699097%, 0%)" offset="0.09375"></stop><stop stop-opacity="1" stop-color="rgb(99.906921%, 44.389343%, 0.413513%)" offset="0.0976562"></stop><stop stop-opacity="1" stop-color="rgb(99.813843%, 44.081116%, 0.828552%)" offset="0.101562"></stop><stop stop-opacity="1" stop-color="rgb(99.62616%, 43.457031%, 1.664734%)" offset="0.105469"></stop><stop stop-opacity="1" stop-color="rgb(99.440002%, 42.834473%, 2.500916%)" offset="0.109375"></stop><stop stop-opacity="1" stop-color="rgb(99.252319%, 42.211914%, 3.337097%)" offset="0.113281"></stop><stop stop-opacity="1" stop-color="rgb(99.066162%, 41.589355%, 4.173279%)" offset="0.117188"></stop><stop stop-opacity="1" stop-color="rgb(98.878479%, 40.965271%, 5.00946%)" offset="0.121094"></stop><stop stop-opacity="1" stop-color="rgb(98.692322%, 40.342712%, 5.845642%)" offset="0.125"></stop><stop stop-opacity="1" stop-color="rgb(98.504639%, 39.718628%, 6.681824%)" offset="0.128906"></stop><stop stop-opacity="1" stop-color="rgb(98.318481%, 39.096069%, 7.518005%)" offset="0.132812"></stop><stop stop-opacity="1" stop-color="rgb(98.130798%, 38.473511%, 8.354187%)" offset="0.136719"></stop><stop stop-opacity="1" stop-color="rgb(97.944641%, 37.850952%, 9.190369%)" offset="0.140625"></stop><stop stop-opacity="1" stop-color="rgb(97.756958%, 37.226868%, 10.02655%)" offset="0.144531"></stop><stop stop-opacity="1" stop-color="rgb(97.570801%, 36.604309%, 10.862732%)" offset="0.148437"></stop><stop stop-opacity="1" stop-color="rgb(97.383118%, 35.980225%, 11.698914%)" offset="0.152344"></stop><stop stop-opacity="1" stop-color="rgb(97.19696%, 35.357666%, 12.536621%)" offset="0.15625"></stop><stop stop-opacity="1" stop-color="rgb(97.009277%, 34.735107%, 13.372803%)" offset="0.160156"></stop><stop stop-opacity="1" stop-color="rgb(96.82312%, 34.112549%, 14.208984%)" offset="0.164062"></stop><stop stop-opacity="1" stop-color="rgb(96.635437%, 33.488464%, 15.045166%)" offset="0.167969"></stop><stop stop-opacity="1" stop-color="rgb(96.44928%, 32.865906%, 15.881348%)" offset="0.171875"></stop><stop stop-opacity="1" stop-color="rgb(96.261597%, 32.241821%, 16.717529%)" offset="0.175781"></stop><stop stop-opacity="1" stop-color="rgb(96.075439%, 31.619263%, 17.553711%)" offset="0.179688"></stop><stop stop-opacity="1" stop-color="rgb(95.887756%, 30.996704%, 18.389893%)" offset="0.183594"></stop><stop stop-opacity="1" stop-color="rgb(95.701599%, 30.374146%, 19.226074%)" offset="0.1875"></stop><stop stop-opacity="1" stop-color="rgb(95.513916%, 29.750061%, 20.062256%)" offset="0.191406"></stop><stop stop-opacity="1" stop-color="rgb(95.327759%, 29.127502%, 20.898438%)" offset="0.195312"></stop><stop stop-opacity="1" stop-color="rgb(95.140076%, 28.503418%, 21.734619%)" offset="0.199219"></stop><stop stop-opacity="1" stop-color="rgb(94.953918%, 27.880859%, 22.570801%)" offset="0.203125"></stop><stop stop-opacity="1" stop-color="rgb(94.766235%, 27.258301%, 23.406982%)" offset="0.207031"></stop><stop stop-opacity="1" stop-color="rgb(94.580078%, 26.635742%, 24.243164%)" offset="0.210937"></stop><stop stop-opacity="1" stop-color="rgb(94.392395%, 26.011658%, 25.079346%)" offset="0.214844"></stop><stop stop-opacity="1" stop-color="rgb(94.206238%, 25.389099%, 25.915527%)" offset="0.21875"></stop><stop stop-opacity="1" stop-color="rgb(94.018555%, 24.765015%, 26.751709%)" offset="0.222656"></stop><stop stop-opacity="1" stop-color="rgb(93.832397%, 24.142456%, 27.587891%)" offset="0.226562"></stop><stop stop-opacity="1" stop-color="rgb(93.644714%, 23.519897%, 28.424072%)" offset="0.230469"></stop><stop stop-opacity="1" stop-color="rgb(93.458557%, 22.897339%, 29.260254%)" offset="0.234375"></stop><stop stop-opacity="1" stop-color="rgb(93.270874%, 22.273254%, 30.096436%)" offset="0.238281"></stop><stop stop-opacity="1" stop-color="rgb(93.084717%, 21.650696%, 30.932617%)" offset="0.242187"></stop><stop stop-opacity="1" stop-color="rgb(92.897034%, 21.026611%, 31.768799%)" offset="0.246094"></stop><stop stop-opacity="1" stop-color="rgb(92.710876%, 20.404053%, 32.60498%)" offset="0.25"></stop><stop stop-opacity="1" stop-color="rgb(92.523193%, 19.781494%, 33.441162%)" offset="0.253906"></stop><stop stop-opacity="1" stop-color="rgb(92.337036%, 19.158936%, 34.277344%)" offset="0.257812"></stop><stop stop-opacity="1" stop-color="rgb(92.149353%, 18.534851%, 35.113525%)" offset="0.261719"></stop><stop stop-opacity="1" stop-color="rgb(91.963196%, 17.912292%, 35.949707%)" offset="0.265625"></stop><stop stop-opacity="1" stop-color="rgb(91.775513%, 17.288208%, 36.785889%)" offset="0.269531"></stop><stop stop-opacity="1" stop-color="rgb(91.589355%, 16.665649%, 37.62207%)" offset="0.273438"></stop><stop stop-opacity="1" stop-color="rgb(91.401672%, 16.043091%, 38.458252%)" offset="0.277344"></stop><stop stop-opacity="1" stop-color="rgb(91.215515%, 15.420532%, 39.294434%)" offset="0.28125"></stop><stop stop-opacity="1" stop-color="rgb(91.027832%, 14.796448%, 40.130615%)" offset="0.285156"></stop><stop stop-opacity="1" stop-color="rgb(90.841675%, 14.173889%, 40.966797%)" offset="0.289062"></stop><stop stop-opacity="1" stop-color="rgb(90.653992%, 13.549805%, 41.802979%)" offset="0.292969"></stop><stop stop-opacity="1" stop-color="rgb(90.467834%, 12.927246%, 42.63916%)" offset="0.296875"></stop><stop stop-opacity="1" stop-color="rgb(90.280151%, 12.304688%, 43.475342%)" offset="0.300781"></stop><stop stop-opacity="1" stop-color="rgb(90.093994%, 11.682129%, 44.313049%)" offset="0.304687"></stop><stop stop-opacity="1" stop-color="rgb(89.906311%, 11.058044%, 45.149231%)" offset="0.308594"></stop><stop stop-opacity="1" stop-color="rgb(89.720154%, 10.435486%, 45.985413%)" offset="0.3125"></stop><stop stop-opacity="1" stop-color="rgb(89.532471%, 9.811401%, 46.821594%)" offset="0.316406"></stop><stop stop-opacity="1" stop-color="rgb(89.346313%, 9.188843%, 47.657776%)" offset="0.320313"></stop><stop stop-opacity="1" stop-color="rgb(89.15863%, 8.566284%, 48.493958%)" offset="0.324219"></stop><stop stop-opacity="1" stop-color="rgb(88.972473%, 7.943726%, 49.330139%)" offset="0.328125"></stop><stop stop-opacity="1" stop-color="rgb(88.78479%, 7.321167%, 50.164795%)" offset="0.332031"></stop><stop stop-opacity="1" stop-color="rgb(88.598633%, 6.700134%, 50.999451%)" offset="0.335938"></stop><stop stop-opacity="1" stop-color="rgb(88.197327%, 6.877136%, 50.985718%)" offset="0.339844"></stop><stop stop-opacity="1" stop-color="rgb(87.797546%, 7.054138%, 50.971985%)" offset="0.34375"></stop><stop stop-opacity="1" stop-color="rgb(87.39624%, 7.229614%, 50.956726%)" offset="0.347656"></stop><stop stop-opacity="1" stop-color="rgb(86.99646%, 7.406616%, 50.942993%)" offset="0.351562"></stop><stop stop-opacity="1" stop-color="rgb(86.595154%, 7.583618%, 50.92926%)" offset="0.355469"></stop><stop stop-opacity="1" stop-color="rgb(86.195374%, 7.76062%, 50.915527%)" offset="0.359375"></stop><stop stop-opacity="1" stop-color="rgb(85.794067%, 7.937622%, 50.901794%)" offset="0.363281"></stop><stop stop-opacity="1" stop-color="rgb(85.394287%, 8.114624%, 50.888062%)" offset="0.367188"></stop><stop stop-opacity="1" stop-color="rgb(84.992981%, 8.291626%, 50.874329%)" offset="0.371094"></stop><stop stop-opacity="1" stop-color="rgb(84.591675%, 8.468628%, 50.860596%)" offset="0.375"></stop><stop stop-opacity="1" stop-color="rgb(84.190369%, 8.64563%, 50.846863%)" offset="0.378906"></stop><stop stop-opacity="1" stop-color="rgb(83.790588%, 8.822632%, 50.83313%)" offset="0.382812"></stop><stop stop-opacity="1" stop-color="rgb(83.389282%, 8.999634%, 50.819397%)" offset="0.386719"></stop><stop stop-opacity="1" stop-color="rgb(82.989502%, 9.176636%, 50.805664%)" offset="0.390625"></stop><stop stop-opacity="1" stop-color="rgb(82.588196%, 9.352112%, 50.790405%)" offset="0.394531"></stop><stop stop-opacity="1" stop-color="rgb(82.188416%, 9.529114%, 50.776672%)" offset="0.398437"></stop><stop stop-opacity="1" stop-color="rgb(81.787109%, 9.706116%, 50.762939%)" offset="0.402344"></stop><stop stop-opacity="1" stop-color="rgb(81.387329%, 9.883118%, 50.749207%)" offset="0.40625"></stop><stop stop-opacity="1" stop-color="rgb(80.986023%, 10.06012%, 50.735474%)" offset="0.410156"></stop><stop stop-opacity="1" stop-color="rgb(80.586243%, 10.237122%, 50.721741%)" offset="0.414062"></stop><stop stop-opacity="1" stop-color="rgb(80.184937%, 10.414124%, 50.708008%)" offset="0.417969"></stop><stop stop-opacity="1" stop-color="rgb(79.785156%, 10.591125%, 50.694275%)" offset="0.421875"></stop><stop stop-opacity="1" stop-color="rgb(79.38385%, 10.768127%, 50.680542%)" offset="0.425781"></stop><stop stop-opacity="1" stop-color="rgb(78.98407%, 10.945129%, 50.666809%)" offset="0.429687"></stop><stop stop-opacity="1" stop-color="rgb(78.582764%, 11.120605%, 50.65155%)" offset="0.433594"></stop><stop stop-opacity="1" stop-color="rgb(78.182983%, 11.297607%, 50.637817%)" offset="0.4375"></stop><stop stop-opacity="1" stop-color="rgb(77.781677%, 11.474609%, 50.624084%)" offset="0.441406"></stop><stop stop-opacity="1" stop-color="rgb(77.381897%, 11.651611%, 50.610352%)" offset="0.445312"></stop><stop stop-opacity="1" stop-color="rgb(76.980591%, 11.828613%, 50.596619%)" offset="0.449219"></stop><stop stop-opacity="1" stop-color="rgb(76.580811%, 12.005615%, 50.582886%)" offset="0.453125"></stop><stop stop-opacity="1" stop-color="rgb(76.179504%, 12.182617%, 50.569153%)" offset="0.457031"></stop><stop stop-opacity="1" stop-color="rgb(75.779724%, 12.359619%, 50.55542%)" offset="0.460938"></stop><stop stop-opacity="1" stop-color="rgb(75.378418%, 12.536621%, 50.541687%)" offset="0.464844"></stop><stop stop-opacity="1" stop-color="rgb(74.978638%, 12.713623%, 50.527954%)" offset="0.46875"></stop><stop stop-opacity="1" stop-color="rgb(74.577332%, 12.890625%, 50.514221%)" offset="0.472656"></stop><stop stop-opacity="1" stop-color="rgb(74.177551%, 13.067627%, 50.500488%)" offset="0.476562"></stop><stop stop-opacity="1" stop-color="rgb(73.776245%, 13.243103%, 50.485229%)" offset="0.480469"></stop><stop stop-opacity="1" stop-color="rgb(73.376465%, 13.420105%, 50.471497%)" offset="0.484375"></stop><stop stop-opacity="1" stop-color="rgb(72.975159%, 13.597107%, 50.457764%)" offset="0.488281"></stop><stop stop-opacity="1" stop-color="rgb(72.575378%, 13.774109%, 50.444031%)" offset="0.492187"></stop><stop stop-opacity="1" stop-color="rgb(72.174072%, 13.951111%, 50.430298%)" offset="0.496094"></stop><stop stop-opacity="1" stop-color="rgb(71.774292%, 14.128113%, 50.416565%)" offset="0.5"></stop><stop stop-opacity="1" stop-color="rgb(71.372986%, 14.305115%, 50.402832%)" offset="0.503906"></stop><stop stop-opacity="1" stop-color="rgb(70.973206%, 14.482117%, 50.389099%)" offset="0.507812"></stop><stop stop-opacity="1" stop-color="rgb(70.571899%, 14.659119%, 50.375366%)" offset="0.511719"></stop><stop stop-opacity="1" stop-color="rgb(70.172119%, 14.836121%, 50.361633%)" offset="0.515625"></stop><stop stop-opacity="1" stop-color="rgb(69.770813%, 15.011597%, 50.346375%)" offset="0.519531"></stop><stop stop-opacity="1" stop-color="rgb(69.371033%, 15.188599%, 50.332642%)" offset="0.523438"></stop><stop stop-opacity="1" stop-color="rgb(68.969727%, 15.365601%, 50.318909%)" offset="0.527344"></stop><stop stop-opacity="1" stop-color="rgb(68.569946%, 15.542603%, 50.305176%)" offset="0.53125"></stop><stop stop-opacity="1" stop-color="rgb(68.16864%, 15.719604%, 50.291443%)" offset="0.535156"></stop><stop stop-opacity="1" stop-color="rgb(67.76886%, 15.896606%, 50.27771%)" offset="0.539062"></stop><stop stop-opacity="1" stop-color="rgb(67.367554%, 16.073608%, 50.263977%)" offset="0.542969"></stop><stop stop-opacity="1" stop-color="rgb(66.967773%, 16.25061%, 50.250244%)" offset="0.546875"></stop><stop stop-opacity="1" stop-color="rgb(66.566467%, 16.427612%, 50.236511%)" offset="0.550781"></stop><stop stop-opacity="1" stop-color="rgb(66.166687%, 16.604614%, 50.222778%)" offset="0.554687"></stop><stop stop-opacity="1" stop-color="rgb(65.750122%, 16.789246%, 50.262451%)" offset="0.558594"></stop><stop stop-opacity="1" stop-color="rgb(65.333557%, 16.973877%, 50.302124%)" offset="0.5625"></stop><stop stop-opacity="1" stop-color="rgb(64.834595%, 17.199707%, 50.614929%)" offset="0.566406"></stop><stop stop-opacity="1" stop-color="rgb(64.335632%, 17.425537%, 50.927734%)" offset="0.570312"></stop><stop stop-opacity="1" stop-color="rgb(63.83667%, 17.651367%, 51.239014%)" offset="0.574219"></stop><stop stop-opacity="1" stop-color="rgb(63.339233%, 17.877197%, 51.551819%)" offset="0.578125"></stop><stop stop-opacity="1" stop-color="rgb(62.840271%, 18.101501%, 51.863098%)" offset="0.582031"></stop><stop stop-opacity="1" stop-color="rgb(62.341309%, 18.327332%, 52.175903%)" offset="0.585937"></stop><stop stop-opacity="1" stop-color="rgb(61.842346%, 18.553162%, 52.487183%)" offset="0.589844"></stop><stop stop-opacity="1" stop-color="rgb(61.343384%, 18.778992%, 52.799988%)" offset="0.59375"></stop><stop stop-opacity="1" stop-color="rgb(60.844421%, 19.004822%, 53.111267%)" offset="0.597656"></stop><stop stop-opacity="1" stop-color="rgb(60.345459%, 19.230652%, 53.424072%)" offset="0.601562"></stop><stop stop-opacity="1" stop-color="rgb(59.846497%, 19.456482%, 53.735352%)" offset="0.605469"></stop><stop stop-opacity="1" stop-color="rgb(59.34906%, 19.682312%, 54.048157%)" offset="0.609375"></stop><stop stop-opacity="1" stop-color="rgb(58.850098%, 19.906616%, 54.359436%)" offset="0.613281"></stop><stop stop-opacity="1" stop-color="rgb(58.351135%, 20.132446%, 54.672241%)" offset="0.617187"></stop><stop stop-opacity="1" stop-color="rgb(57.852173%, 20.358276%, 54.985046%)" offset="0.621094"></stop><stop stop-opacity="1" stop-color="rgb(57.35321%, 20.584106%, 55.297852%)" offset="0.625"></stop><stop stop-opacity="1" stop-color="rgb(56.854248%, 20.809937%, 55.609131%)" offset="0.628906"></stop><stop stop-opacity="1" stop-color="rgb(56.356812%, 21.035767%, 55.921936%)" offset="0.632812"></stop><stop stop-opacity="1" stop-color="rgb(55.857849%, 21.260071%, 56.233215%)" offset="0.636719"></stop><stop stop-opacity="1" stop-color="rgb(55.358887%, 21.485901%, 56.546021%)" offset="0.640625"></stop><stop stop-opacity="1" stop-color="rgb(54.859924%, 21.711731%, 56.8573%)" offset="0.644531"></stop><stop stop-opacity="1" stop-color="rgb(54.360962%, 21.937561%, 57.170105%)" offset="0.648437"></stop><stop stop-opacity="1" stop-color="rgb(53.862%, 22.163391%, 57.481384%)" offset="0.652344"></stop><stop stop-opacity="1" stop-color="rgb(53.363037%, 22.389221%, 57.794189%)" offset="0.65625"></stop><stop stop-opacity="1" stop-color="rgb(52.864075%, 22.615051%, 58.105469%)" offset="0.660156"></stop><stop stop-opacity="1" stop-color="rgb(52.366638%, 22.840881%, 58.418274%)" offset="0.664062"></stop><stop stop-opacity="1" stop-color="rgb(51.867676%, 23.065186%, 58.729553%)" offset="0.667969"></stop><stop stop-opacity="1" stop-color="rgb(51.368713%, 23.291016%, 59.042358%)" offset="0.671875"></stop><stop stop-opacity="1" stop-color="rgb(50.869751%, 23.516846%, 59.353638%)" offset="0.675781"></stop><stop stop-opacity="1" stop-color="rgb(50.370789%, 23.742676%, 59.666443%)" offset="0.679687"></stop><stop stop-opacity="1" stop-color="rgb(49.871826%, 23.968506%, 59.979248%)" offset="0.683594"></stop><stop stop-opacity="1" stop-color="rgb(49.372864%, 24.194336%, 60.292053%)" offset="0.6875"></stop><stop stop-opacity="1" stop-color="rgb(48.873901%, 24.420166%, 60.603333%)" offset="0.691406"></stop><stop stop-opacity="1" stop-color="rgb(48.376465%, 24.645996%, 60.916138%)" offset="0.695312"></stop><stop stop-opacity="1" stop-color="rgb(47.877502%, 24.8703%, 61.227417%)" offset="0.699219"></stop><stop stop-opacity="1" stop-color="rgb(47.37854%, 25.09613%, 61.540222%)" offset="0.703125"></stop><stop stop-opacity="1" stop-color="rgb(46.879578%, 25.32196%, 61.851501%)" offset="0.707031"></stop><stop stop-opacity="1" stop-color="rgb(46.380615%, 25.547791%, 62.164307%)" offset="0.710938"></stop><stop stop-opacity="1" stop-color="rgb(45.881653%, 25.773621%, 62.475586%)" offset="0.714844"></stop><stop stop-opacity="1" stop-color="rgb(45.384216%, 25.999451%, 62.788391%)" offset="0.71875"></stop><stop stop-opacity="1" stop-color="rgb(44.885254%, 26.225281%, 63.09967%)" offset="0.722656"></stop><stop stop-opacity="1" stop-color="rgb(44.386292%, 26.451111%, 63.412476%)" offset="0.726562"></stop><stop stop-opacity="1" stop-color="rgb(43.887329%, 26.675415%, 63.723755%)" offset="0.730469"></stop><stop stop-opacity="1" stop-color="rgb(43.388367%, 26.901245%, 64.03656%)" offset="0.734375"></stop><stop stop-opacity="1" stop-color="rgb(42.889404%, 27.127075%, 64.349365%)" offset="0.738281"></stop><stop stop-opacity="1" stop-color="rgb(42.390442%, 27.352905%, 64.66217%)" offset="0.742188"></stop><stop stop-opacity="1" stop-color="rgb(41.891479%, 27.578735%, 64.97345%)" offset="0.746094"></stop><stop stop-opacity="1" stop-color="rgb(41.394043%, 27.804565%, 65.286255%)" offset="0.75"></stop><stop stop-opacity="1" stop-color="rgb(40.895081%, 28.02887%, 65.597534%)" offset="0.753906"></stop><stop stop-opacity="1" stop-color="rgb(40.396118%, 28.2547%, 65.910339%)" offset="0.757812"></stop><stop stop-opacity="1" stop-color="rgb(39.897156%, 28.48053%, 66.221619%)" offset="0.761719"></stop><stop stop-opacity="1" stop-color="rgb(39.398193%, 28.70636%, 66.534424%)" offset="0.765625"></stop><stop stop-opacity="1" stop-color="rgb(38.899231%, 28.93219%, 66.845703%)" offset="0.769531"></stop><stop stop-opacity="1" stop-color="rgb(38.401794%, 29.15802%, 67.158508%)" offset="0.773437"></stop><stop stop-opacity="1" stop-color="rgb(37.902832%, 29.38385%, 67.469788%)" offset="0.777344"></stop><stop stop-opacity="1" stop-color="rgb(37.40387%, 29.60968%, 67.782593%)" offset="0.78125"></stop><stop stop-opacity="1" stop-color="rgb(36.904907%, 29.833984%, 68.093872%)" offset="0.785156"></stop><stop stop-opacity="1" stop-color="rgb(36.405945%, 30.059814%, 68.406677%)" offset="0.789062"></stop><stop stop-opacity="1" stop-color="rgb(35.745239%, 30.21698%, 68.943787%)" offset="0.792969"></stop><stop stop-opacity="1" stop-color="rgb(35.084534%, 30.375671%, 69.482422%)" offset="0.796875"></stop><stop stop-opacity="1" stop-color="rgb(34.350586%, 30.503845%, 70.118713%)" offset="0.800781"></stop><stop stop-opacity="1" stop-color="rgb(33.618164%, 30.632019%, 70.756531%)" offset="0.804687"></stop><stop stop-opacity="1" stop-color="rgb(32.884216%, 30.760193%, 71.394348%)" offset="0.808594"></stop><stop stop-opacity="1" stop-color="rgb(32.151794%, 30.888367%, 72.032166%)" offset="0.8125"></stop><stop stop-opacity="1" stop-color="rgb(31.419373%, 31.015015%, 72.669983%)" offset="0.816406"></stop><stop stop-opacity="1" stop-color="rgb(30.686951%, 31.143188%, 73.3078%)" offset="0.820312"></stop><stop stop-opacity="1" stop-color="rgb(29.953003%, 31.271362%, 73.944092%)" offset="0.824219"></stop><stop stop-opacity="1" stop-color="rgb(29.220581%, 31.399536%, 74.581909%)" offset="0.828125"></stop><stop stop-opacity="1" stop-color="rgb(28.486633%, 31.52771%, 75.219727%)" offset="0.832031"></stop><stop stop-opacity="1" stop-color="rgb(27.754211%, 31.655884%, 75.857544%)" offset="0.835937"></stop><stop stop-opacity="1" stop-color="rgb(27.020264%, 31.782532%, 76.495361%)" offset="0.839844"></stop><stop stop-opacity="1" stop-color="rgb(26.287842%, 31.910706%, 77.133179%)" offset="0.84375"></stop><stop stop-opacity="1" stop-color="rgb(25.55542%, 32.038879%, 77.76947%)" offset="0.847656"></stop><stop stop-opacity="1" stop-color="rgb(24.822998%, 32.167053%, 78.407288%)" offset="0.851562"></stop><stop stop-opacity="1" stop-color="rgb(24.08905%, 32.295227%, 79.045105%)" offset="0.855469"></stop><stop stop-opacity="1" stop-color="rgb(23.356628%, 32.423401%, 79.682922%)" offset="0.859375"></stop><stop stop-opacity="1" stop-color="rgb(22.622681%, 32.550049%, 80.32074%)" offset="0.863281"></stop><stop stop-opacity="1" stop-color="rgb(21.890259%, 32.678223%, 80.958557%)" offset="0.867187"></stop><stop stop-opacity="1" stop-color="rgb(21.156311%, 32.806396%, 81.594849%)" offset="0.871094"></stop><stop stop-opacity="1" stop-color="rgb(20.423889%, 32.93457%, 82.232666%)" offset="0.875"></stop><stop stop-opacity="1" stop-color="rgb(19.691467%, 33.062744%, 82.870483%)" offset="0.878906"></stop><stop stop-opacity="1" stop-color="rgb(18.959045%, 33.190918%, 83.508301%)" offset="0.882812"></stop><stop stop-opacity="1" stop-color="rgb(18.225098%, 33.317566%, 84.146118%)" offset="0.886719"></stop><stop stop-opacity="1" stop-color="rgb(17.492676%, 33.44574%, 84.783936%)" offset="0.890625"></stop><stop stop-opacity="1" stop-color="rgb(16.758728%, 33.573914%, 85.420227%)" offset="0.894531"></stop><stop stop-opacity="1" stop-color="rgb(16.026306%, 33.702087%, 86.058044%)" offset="0.898438"></stop><stop stop-opacity="1" stop-color="rgb(15.292358%, 33.830261%, 86.695862%)" offset="0.902344"></stop><stop stop-opacity="1" stop-color="rgb(14.559937%, 33.958435%, 87.333679%)" offset="0.90625"></stop><stop stop-opacity="1" stop-color="rgb(13.827515%, 34.085083%, 87.971497%)" offset="0.910156"></stop><stop stop-opacity="1" stop-color="rgb(13.095093%, 34.213257%, 88.609314%)" offset="0.914062"></stop><stop stop-opacity="1" stop-color="rgb(12.361145%, 34.341431%, 89.245605%)" offset="0.917969"></stop><stop stop-opacity="1" stop-color="rgb(11.628723%, 34.469604%, 89.883423%)" offset="0.921875"></stop><stop stop-opacity="1" stop-color="rgb(10.894775%, 34.597778%, 90.52124%)" offset="0.925781"></stop><stop stop-opacity="1" stop-color="rgb(10.162354%, 34.725952%, 91.159058%)" offset="0.929688"></stop><stop stop-opacity="1" stop-color="rgb(9.428406%, 34.8526%, 91.796875%)" offset="0.933594"></stop><stop stop-opacity="1" stop-color="rgb(8.695984%, 34.980774%, 92.434692%)" offset="0.9375"></stop><stop stop-opacity="1" stop-color="rgb(7.963562%, 35.108948%, 93.070984%)" offset="0.941406"></stop><stop stop-opacity="1" stop-color="rgb(7.23114%, 35.237122%, 93.708801%)" offset="0.945312"></stop><stop stop-opacity="1" stop-color="rgb(6.497192%, 35.365295%, 94.346619%)" offset="0.949219"></stop><stop stop-opacity="1" stop-color="rgb(5.764771%, 35.493469%, 94.984436%)" offset="0.953125"></stop><stop stop-opacity="1" stop-color="rgb(5.030823%, 35.620117%, 95.622253%)" offset="0.957031"></stop><stop stop-opacity="1" stop-color="rgb(4.298401%, 35.748291%, 96.260071%)" offset="0.960937"></stop><stop stop-opacity="1" stop-color="rgb(3.564453%, 35.876465%, 96.896362%)" offset="0.964844"></stop><stop stop-opacity="1" stop-color="rgb(2.832031%, 36.004639%, 97.53418%)" offset="0.96875"></stop><stop stop-opacity="1" stop-color="rgb(2.099609%, 36.132812%, 98.171997%)" offset="0.972656"></stop><stop stop-opacity="1" stop-color="rgb(1.367188%, 36.260986%, 98.809814%)" offset="0.976562"></stop><stop stop-opacity="1" stop-color="rgb(0.683594%, 36.380005%, 99.404907%)" offset="0.980469"></stop><stop stop-opacity="1" stop-color="rgb(0%, 36.499023%, 100%)" offset="0.984375"></stop><stop stop-opacity="1" stop-color="rgb(0%, 36.499023%, 100%)" offset="1"></stop></linearGradient></defs><g clip-path="url(#41472ab403)"><g clip-path="url(#640ca1d137)"><path fill="url(#c0d94e80f0)" d="M 0.09375 5.25 L 0.09375 72.75 L 74.90625 72.75 L 74.90625 5.25 Z M 0.09375 5.25 " fill-rule="nonzero"></path></g></g></svg>