<svg xmlns="http://www.w3.org/2000/svg" xmlns:xlink="http://www.w3.org/1999/xlink" width="70" viewBox="0 0 52.5 52.499999" height="70" preserveAspectRatio="xMidYMid meet"><defs><clipPath id="04b54cab65"><path d="M 3.800781 6.632812 L 48.375 6.632812 L 48.375 45.261719 L 3.800781 45.261719 Z M 3.800781 6.632812 " clip-rule="nonzero"></path></clipPath></defs><g clip-path="url(#04b54cab65)"><path fill="#131d44" d="M 33.160156 10.730469 C 33.160156 10.316406 33.507812 9.976562 33.921875 9.976562 C 34.339844 9.976562 34.675781 10.324219 34.675781 10.742188 L 34.636719 13.96875 C 34.636719 14.382812 34.289062 14.722656 33.875 14.722656 C 33.457031 14.722656 33.121094 14.375 33.121094 13.957031 Z M 46.964844 17.671875 C 47.332031 17.464844 47.796875 17.59375 47.992188 17.960938 C 48.191406 18.324219 48.0625 18.792969 47.707031 18.988281 L 44.894531 20.574219 C 44.527344 20.78125 44.0625 20.652344 43.863281 20.285156 C 43.65625 19.921875 43.785156 19.464844 44.152344 19.257812 Z M 41.785156 11.175781 C 42.003906 10.820312 42.457031 10.691406 42.824219 10.910156 C 43.179688 11.128906 43.308594 11.582031 43.09375 11.949219 L 41.449219 14.730469 C 41.242188 15.085938 40.773438 15.214844 40.410156 15 C 40.042969 14.78125 39.933594 14.324219 40.140625 13.957031 Z M 25.554688 9.226562 C 25.765625 8.859375 26.230469 8.742188 26.585938 8.949219 C 26.941406 9.15625 27.070312 9.621094 26.863281 9.976562 L 25.25 12.78125 C 25.039062 13.136719 24.574219 13.265625 24.21875 13.058594 C 23.863281 12.851562 23.734375 12.382812 23.941406 12.027344 Z M 4.664062 15.484375 C 4.296875 15.277344 4.175781 14.8125 4.386719 14.453125 C 4.59375 14.097656 5.058594 13.96875 5.414062 14.175781 L 8.207031 15.789062 C 8.5625 16 8.691406 16.464844 8.484375 16.820312 C 8.277344 17.175781 7.8125 17.304688 7.457031 17.097656 Z M 10.136719 9.679688 C 9.929688 9.324219 10.050781 8.859375 10.414062 8.652344 C 10.773438 8.445312 11.238281 8.5625 11.445312 8.929688 L 13.058594 11.730469 C 13.265625 12.097656 13.148438 12.554688 12.78125 12.761719 C 12.425781 12.96875 11.960938 12.851562 11.753906 12.484375 Z M 17.792969 7.382812 C 17.792969 6.96875 18.128906 6.632812 18.546875 6.632812 C 18.960938 6.632812 19.296875 6.96875 19.296875 7.382812 L 19.296875 10.613281 C 19.296875 11.027344 18.960938 11.363281 18.546875 11.363281 C 18.128906 11.363281 17.792969 11.027344 17.792969 10.613281 Z M 39.371094 20.019531 L 23.289062 20.019531 C 22.933594 20.019531 22.636719 19.769531 22.554688 19.445312 C 22.210938 18.324219 21.515625 17.355469 20.59375 16.671875 C 18.4375 15.066406 15.40625 15.285156 13.496094 17.195312 C 11.367188 19.324219 11.367188 22.773438 13.496094 24.890625 C 15.40625 26.800781 18.425781 27.019531 20.59375 25.414062 C 21.527344 24.722656 22.21875 23.742188 22.566406 22.601562 C 22.664062 22.277344 22.960938 22.058594 23.289062 22.058594 L 28.921875 22.058594 C 29.339844 22.058594 29.675781 22.394531 29.675781 22.8125 L 29.675781 24.988281 L 31.199219 24.988281 L 31.199219 22.8125 C 31.199219 22.394531 31.535156 22.058594 31.960938 22.058594 L 34.835938 22.058594 C 35.25 22.058594 35.585938 22.394531 35.585938 22.8125 L 35.585938 24.988281 L 37.121094 24.988281 L 37.121094 22.8125 C 37.121094 22.394531 37.457031 22.058594 37.875 22.058594 L 39.359375 22.058594 L 39.359375 20.019531 Z M 23.832031 18.503906 L 40.132812 18.503906 C 40.546875 18.503906 40.882812 18.839844 40.882812 19.257812 L 40.882812 22.820312 C 40.882812 23.238281 40.546875 23.574219 40.132812 23.574219 L 38.644531 23.574219 L 38.644531 25.753906 C 38.644531 26.167969 38.308594 26.515625 37.894531 26.515625 L 34.835938 26.515625 C 34.417969 26.515625 34.082031 26.179688 34.082031 25.753906 L 34.082031 23.574219 L 32.734375 23.574219 L 32.734375 25.753906 C 32.734375 26.167969 32.398438 26.515625 31.980469 26.515625 L 28.941406 26.515625 C 28.527344 26.515625 28.179688 26.179688 28.179688 25.753906 L 28.179688 23.574219 L 23.84375 23.574219 C 22.8125 26.21875 20.25 28 17.367188 28 C 13.523438 28 10.40625 24.882812 10.40625 21.039062 C 10.40625 17.195312 13.523438 14.078125 17.367188 14.078125 C 20.238281 14.078125 22.792969 15.871094 23.832031 18.503906 Z M 17.347656 19.019531 C 15.554688 19.019531 14.652344 21.199219 15.921875 22.464844 C 17.1875 23.730469 19.367188 22.832031 19.367188 21.039062 C 19.367188 19.921875 18.464844 19.019531 17.347656 19.019531 Z M 14.851562 18.542969 C 16.226562 17.167969 18.464844 17.167969 19.851562 18.542969 C 21.230469 19.921875 21.230469 22.15625 19.851562 23.542969 C 18.476562 24.921875 16.238281 24.921875 14.851562 23.542969 C 13.476562 22.15625 13.476562 19.921875 14.851562 18.542969 Z M 8.355469 31.851562 L 13.019531 31.851562 C 13.4375 31.851562 13.773438 32.1875 13.773438 32.605469 L 13.773438 33.128906 C 14.574219 32.890625 15.328125 32.425781 16 31.863281 C 19.683594 28.792969 20.972656 28.960938 25.398438 29.535156 C 26.328125 29.652344 27.40625 29.792969 28.714844 29.929688 C 29.941406 30.050781 30.703125 30.613281 31.042969 31.316406 C 31.386719 32.050781 31.269531 32.871094 30.8125 33.546875 C 30.257812 34.367188 29.179688 35.011719 27.703125 34.980469 L 24.277344 34.902344 C 26.636719 35.902344 31.050781 36.4375 33.089844 35.703125 L 39.339844 33.445312 C 41.003906 32.761719 43.050781 32.960938 43.875 34.179688 C 44.101562 34.527344 44.210938 34.910156 44.160156 35.335938 C 44.082031 35.960938 43.636719 36.613281 42.714844 37.167969 C 38.824219 39.484375 31.683594 44.171875 28.792969 44.8125 C 28.722656 44.824219 28.65625 44.832031 28.585938 44.832031 L 13.761719 43.980469 L 13.761719 44.617188 C 13.761719 45.03125 13.425781 45.367188 13.011719 45.367188 L 4.710938 45.367188 C 4.21875 45.367188 3.8125 44.894531 4.007812 44.328125 L 7.632812 32.40625 C 7.730469 32.058594 8.03125 31.84375 8.355469 31.851562 Z M 13.78125 34.695312 L 13.78125 42.445312 L 28.585938 43.296875 C 30.746094 42.753906 35.953125 39.546875 39.566406 37.316406 C 40.457031 36.761719 41.261719 36.277344 41.964844 35.851562 C 42.417969 35.574219 42.796875 35.238281 42.636719 35 C 42.578125 34.910156 42.476562 34.832031 42.328125 34.761719 C 41.785156 34.484375 40.894531 34.4375 39.921875 34.832031 L 39.894531 34.84375 L 33.617188 37.109375 C 31.160156 37.992188 26.101562 37.40625 23.445312 36.167969 C 22.308594 35.644531 21.4375 34.851562 21.792969 33.84375 C 21.890625 33.535156 22.1875 33.316406 22.527344 33.328125 L 27.753906 33.457031 C 29.21875 33.496094 29.960938 32.515625 29.695312 31.960938 C 29.566406 31.703125 29.21875 31.484375 28.574219 31.425781 C 27.277344 31.296875 26.167969 31.148438 25.210938 31.03125 C 21.289062 30.523438 20.148438 30.375 16.972656 33.019531 C 16.039062 33.8125 14.949219 34.4375 13.78125 34.695312 Z M 12.257812 33.355469 L 8.910156 33.355469 L 5.730469 43.832031 L 12.265625 43.832031 L 12.265625 33.355469 Z M 12.257812 33.355469 " fill-opacity="1" fill-rule="nonzero"></path></g></svg>