<svg xmlns="http://www.w3.org/2000/svg" xmlns:xlink="http://www.w3.org/1999/xlink" width="70" viewBox="0 0 52.5 52.499999" height="70" preserveAspectRatio="xMidYMid meet"><defs><clipPath id="009ecfb925"><path d="M 2.253906 14.191406 L 52 14.191406 L 52 38.707031 L 2.253906 38.707031 Z M 2.253906 14.191406 " clip-rule="nonzero"></path></clipPath></defs><g clip-path="url(#009ecfb925)"><path fill="#0a2d66" d="M 31.714844 36.480469 C 33.878906 37.796875 36.535156 38.722656 39.746094 38.722656 C 46.34375 38.722656 51.695312 33.371094 51.695312 26.777344 C 51.695312 20.183594 46.34375 14.832031 39.746094 14.832031 C 28.761719 14.832031 24.324219 25.75 24.324219 25.75 C 24.324219 25.75 21.410156 33.210938 14.015625 33.210938 C 10.464844 33.210938 7.582031 30.328125 7.582031 26.777344 C 7.582031 23.226562 10.464844 20.34375 14.015625 20.34375 C 16.082031 20.34375 17.792969 20.9375 19.175781 21.777344 C 20.480469 22.570312 22.171875 22.160156 22.96875 20.859375 C 23.757812 19.5625 23.347656 17.863281 22.046875 17.074219 C 19.886719 15.757812 17.230469 14.832031 14.015625 14.832031 C 7.421875 14.832031 2.070312 20.183594 2.070312 26.777344 C 2.070312 33.371094 7.421875 38.722656 14.015625 38.722656 C 25.003906 38.722656 29.441406 27.800781 29.441406 27.800781 C 29.441406 27.800781 32.355469 20.34375 39.746094 20.34375 C 43.300781 20.34375 46.179688 23.226562 46.179688 26.777344 C 46.179688 30.328125 43.300781 33.210938 39.746094 33.210938 C 37.683594 33.210938 35.972656 32.617188 34.585938 31.777344 C 33.285156 30.980469 31.589844 31.394531 30.796875 32.695312 C 30.007812 33.992188 30.417969 35.691406 31.714844 36.480469 Z M 31.714844 36.480469 " fill-opacity="1" fill-rule="evenodd"></path></g></svg>