<svg xmlns="http://www.w3.org/2000/svg" xmlns:xlink="http://www.w3.org/1999/xlink" width="70" zoomAndPan="magnify" viewBox="0 0 52.5 52.499999" height="70" preserveAspectRatio="xMidYMid meet" version="1.0"><defs><clipPath id="718363c4ba"><path d="M 4.246094 4.246094 L 48 4.246094 L 48 48 L 4.246094 48 Z M 4.246094 4.246094 " clip-rule="nonzero"/></clipPath></defs><g clip-path="url(#718363c4ba)"><path fill="#131d44" d="M 26 4.246094 C 14.003906 4.246094 4.246094 14.003906 4.246094 26 C 4.246094 37.996094 14.003906 47.753906 26 47.753906 C 37.996094 47.753906 47.753906 37.996094 47.753906 26 C 47.753906 14.003906 37.996094 4.246094 26 4.246094 Z M 26 43.542969 C 16.328125 43.542969 8.457031 35.675781 8.457031 26 C 8.457031 16.328125 16.328125 8.457031 26 8.457031 C 35.675781 8.457031 43.542969 16.328125 43.542969 26 C 43.542969 35.675781 35.675781 43.542969 26 43.542969 Z M 26 43.542969 " fill-opacity="1" fill-rule="nonzero"/></g><path fill="#131d44" d="M 34.160156 23.894531 L 28.105469 23.894531 L 28.105469 17.84375 C 28.105469 16.679688 27.164062 15.738281 26 15.738281 C 24.835938 15.738281 23.894531 16.679688 23.894531 17.84375 L 23.894531 23.894531 L 17.84375 23.894531 C 16.679688 23.894531 15.738281 24.835938 15.738281 26 C 15.738281 27.164062 16.679688 28.105469 17.84375 28.105469 L 23.894531 28.105469 L 23.894531 34.160156 C 23.894531 35.320312 24.835938 36.261719 26 36.261719 C 27.164062 36.261719 28.105469 35.320312 28.105469 34.160156 L 28.105469 28.105469 L 34.160156 28.105469 C 35.320312 28.105469 36.261719 27.164062 36.261719 26 C 36.261719 24.835938 35.320312 23.894531 34.160156 23.894531 Z M 34.160156 23.894531 " fill-opacity="1" fill-rule="nonzero"/></svg>