<svg xmlns="http://www.w3.org/2000/svg" xmlns:xlink="http://www.w3.org/1999/xlink" width="512" zoomAndPan="magnify" viewBox="0 0 384 383.999986" height="512" preserveAspectRatio="xMidYMid meet" version="1.0"><defs><clipPath id="ad2a72d785"><path d="M 89 138 L 294 138 L 294 379.5 L 89 379.5 Z M 89 138 " clip-rule="nonzero"/></clipPath></defs><path fill="#000000" d="M 333.023438 121.546875 C 332.578125 121.449219 332.164062 121.273438 331.78125 121.03125 C 331.394531 120.789062 331.0625 120.484375 330.78125 120.125 C 330.5 119.765625 330.289062 119.371094 330.144531 118.9375 C 330.003906 118.503906 329.9375 118.0625 329.949219 117.605469 L 329.949219 116.144531 C 329.949219 113.1875 329.828125 110.234375 329.582031 107.28125 C 329.339844 104.332031 328.972656 101.398438 328.488281 98.480469 C 328 95.5625 327.394531 92.667969 326.667969 89.796875 C 325.941406 86.929688 325.097656 84.09375 324.136719 81.296875 C 323.175781 78.496094 322.097656 75.742188 320.910156 73.03125 C 319.71875 70.320312 318.421875 67.664062 317.011719 65.0625 C 315.601562 62.460938 314.089844 59.921875 312.46875 57.445312 C 310.847656 54.96875 309.128906 52.5625 307.3125 50.226562 C 305.492188 47.890625 303.582031 45.636719 301.574219 43.460938 C 299.570312 41.28125 297.476562 39.191406 295.296875 37.191406 C 293.121094 35.1875 290.863281 33.277344 288.523438 31.460938 C 286.1875 29.644531 283.78125 27.925781 281.300781 26.308594 C 278.824219 24.691406 276.28125 23.179688 273.675781 21.773438 C 271.074219 20.367188 268.414062 19.070312 265.703125 17.886719 C 262.992188 16.699219 260.234375 15.625 257.433594 14.667969 C 254.636719 13.707031 251.800781 12.867188 248.929688 12.144531 C 246.058594 11.421875 243.164062 10.816406 240.246094 10.332031 C 237.324219 9.847656 234.390625 9.484375 231.441406 9.246094 C 228.488281 9.003906 225.535156 8.886719 222.574219 8.886719 C 219.617188 8.890625 216.660156 9.019531 213.710938 9.265625 C 210.761719 9.515625 207.828125 9.882812 204.910156 10.375 C 201.992188 10.867188 199.097656 11.476562 196.230469 12.207031 C 193.359375 12.9375 190.527344 13.785156 187.730469 14.75 C 184.929688 15.714844 182.179688 16.796875 179.46875 17.988281 C 176.761719 19.179688 174.105469 20.484375 171.503906 21.898438 C 168.90625 23.308594 166.367188 24.828125 163.890625 26.449219 C 161.417969 28.074219 159.011719 29.796875 156.679688 31.617188 C 154.347656 33.441406 152.09375 35.355469 149.921875 37.363281 C 147.746094 39.371094 145.660156 41.46875 143.660156 43.648438 C 141.660156 45.832031 139.753906 48.089844 137.9375 50.429688 C 136.125 52.769531 134.414062 55.179688 132.796875 57.660156 C 131.183594 60.140625 129.675781 62.683594 128.273438 65.289062 C 128.039062 65.71875 127.734375 66.09375 127.359375 66.410156 C 126.984375 66.726562 126.566406 66.964844 126.105469 67.125 C 125.640625 67.285156 125.164062 67.355469 124.675781 67.339844 C 124.1875 67.320312 123.71875 67.21875 123.265625 67.023438 C 122.484375 66.691406 121.695312 66.382812 120.894531 66.097656 C 120.097656 65.8125 119.289062 65.550781 118.476562 65.308594 C 117.664062 65.070312 116.839844 64.855469 116.015625 64.664062 C 115.1875 64.472656 114.355469 64.304688 113.519531 64.160156 C 112.683594 64.015625 111.84375 63.898438 111 63.800781 C 110.15625 63.707031 109.3125 63.636719 108.464844 63.589844 C 107.617188 63.542969 106.769531 63.523438 105.921875 63.523438 C 105.070312 63.527344 104.222656 63.554688 103.375 63.609375 C 102.53125 63.660156 101.683594 63.738281 100.839844 63.835938 C 100 63.9375 99.160156 64.0625 98.324219 64.214844 C 97.488281 64.363281 96.660156 64.535156 95.832031 64.734375 C 95.007812 64.933594 94.1875 65.152344 93.375 65.398438 C 92.5625 65.644531 91.757812 65.914062 90.960938 66.203125 C 90.164062 66.496094 89.378906 66.8125 88.597656 67.148438 C 87.820312 67.484375 87.050781 67.84375 86.292969 68.226562 C 85.535156 68.609375 84.789062 69.011719 84.054688 69.4375 C 83.320312 69.863281 82.597656 70.308594 81.890625 70.773438 C 81.183594 71.242188 80.488281 71.730469 79.804688 72.234375 C 79.125 72.742188 78.460938 73.269531 77.8125 73.816406 C 77.160156 74.359375 76.527344 74.925781 75.910156 75.507812 C 75.292969 76.089844 74.691406 76.6875 74.109375 77.304688 C 73.527344 77.921875 72.960938 78.554688 72.417969 79.207031 C 71.871094 79.855469 71.34375 80.519531 70.835938 81.199219 C 70.328125 81.882812 69.84375 82.574219 69.375 83.285156 C 68.90625 83.992188 68.460938 84.714844 68.035156 85.449219 C 67.609375 86.183594 67.207031 86.929688 66.824219 87.6875 C 66.441406 88.445312 66.082031 89.210938 65.746094 89.988281 C 65.40625 90.769531 65.09375 91.554688 64.800781 92.351562 C 64.507812 93.148438 64.238281 93.953125 63.992188 94.765625 C 63.746094 95.578125 63.527344 96.398438 63.328125 97.222656 C 63.128906 98.046875 62.957031 98.878906 62.804688 99.714844 C 62.65625 100.546875 62.53125 101.386719 62.429688 102.230469 C 62.378906 102.652344 62.265625 103.054688 62.085938 103.441406 C 61.90625 103.824219 61.671875 104.171875 61.382812 104.480469 C 61.089844 104.789062 60.757812 105.046875 60.382812 105.246094 C 60.011719 105.449219 59.613281 105.585938 59.195312 105.660156 C 57.25 106.011719 55.328125 106.453125 53.425781 106.984375 C 51.523438 107.511719 49.648438 108.128906 47.800781 108.832031 C 45.957031 109.535156 44.144531 110.324219 42.375 111.195312 C 40.601562 112.066406 38.871094 113.015625 37.1875 114.046875 C 35.5 115.078125 33.867188 116.183594 32.285156 117.367188 C 30.703125 118.550781 29.175781 119.800781 27.710938 121.125 C 26.242188 122.449219 24.839844 123.835938 23.503906 125.289062 C 22.164062 126.742188 20.894531 128.253906 19.699219 129.824219 C 18.5 131.394531 17.375 133.019531 16.328125 134.691406 C 15.28125 136.367188 14.3125 138.085938 13.421875 139.851562 C 12.535156 141.613281 11.730469 143.414062 11.007812 145.253906 C 10.285156 147.09375 9.648438 148.960938 9.097656 150.859375 C 8.550781 152.753906 8.089844 154.675781 7.71875 156.613281 C 7.347656 158.554688 7.066406 160.507812 6.875 162.472656 C 6.683594 164.441406 6.585938 166.410156 6.574219 168.386719 C 6.566406 170.359375 6.648438 172.332031 6.824219 174.300781 C 7 176.265625 7.261719 178.222656 7.617188 180.164062 C 7.972656 182.109375 8.417969 184.03125 8.949219 185.933594 C 9.484375 187.835938 10.101562 189.707031 10.808594 191.554688 C 11.515625 193.398438 12.304688 195.207031 13.179688 196.976562 C 14.054688 198.75 15.007812 200.476562 16.039062 202.160156 C 17.074219 203.84375 18.183594 205.476562 19.367188 207.054688 C 20.554688 208.636719 21.808594 210.160156 23.132812 211.625 C 24.460938 213.089844 25.851562 214.488281 27.304688 215.824219 C 28.761719 217.160156 30.273438 218.425781 31.847656 219.621094 C 33.421875 220.816406 35.042969 221.9375 36.722656 222.984375 C 38.398438 224.027344 40.117188 224.992188 41.882812 225.878906 C 43.648438 226.765625 45.453125 227.566406 47.292969 228.289062 C 49.132812 229.007812 51 229.640625 52.898438 230.1875 C 54.796875 230.730469 56.71875 231.1875 58.660156 231.558594 C 60.597656 231.925781 62.554688 232.203125 64.519531 232.390625 C 66.484375 232.582031 68.457031 232.675781 70.433594 232.683594 L 84.035156 232.683594 C 81.894531 212.835938 81.265625 192.9375 82.144531 172.996094 C 82.164062 172.527344 82.261719 172.078125 82.441406 171.648438 C 82.621094 171.214844 82.871094 170.828125 83.191406 170.484375 C 83.507812 170.140625 83.875 169.863281 84.292969 169.652344 C 84.707031 169.441406 85.148438 169.304688 85.613281 169.25 C 118.417969 165.308594 151.496094 153.046875 189.703125 130.339844 C 190.3125 129.988281 190.96875 129.8125 191.675781 129.8125 C 192.378906 129.8125 193.035156 129.988281 193.644531 130.339844 C 231.851562 153.046875 264.933594 165.425781 297.734375 169.25 C 298.199219 169.304688 298.640625 169.441406 299.058594 169.652344 C 299.472656 169.863281 299.839844 170.140625 300.160156 170.484375 C 300.476562 170.828125 300.726562 171.214844 300.90625 171.648438 C 301.085938 172.078125 301.183594 172.527344 301.207031 172.996094 C 302.109375 192.9375 301.480469 212.835938 299.3125 232.683594 L 320.683594 232.683594 C 322.394531 232.679688 324.101562 232.601562 325.808594 232.445312 C 327.511719 232.285156 329.207031 232.050781 330.890625 231.742188 C 332.574219 231.429688 334.238281 231.039062 335.886719 230.578125 C 337.535156 230.113281 339.15625 229.574219 340.757812 228.964844 C 342.355469 228.351562 343.921875 227.667969 345.457031 226.914062 C 346.996094 226.15625 348.492188 225.335938 349.953125 224.441406 C 351.417969 223.550781 352.832031 222.59375 354.207031 221.574219 C 355.582031 220.550781 356.90625 219.46875 358.179688 218.328125 C 359.457031 217.183594 360.675781 215.988281 361.84375 214.734375 C 363.007812 213.480469 364.113281 212.175781 365.160156 210.824219 C 366.207031 209.46875 367.191406 208.070312 368.109375 206.625 C 369.027344 205.179688 369.878906 203.699219 370.664062 202.175781 C 371.445312 200.652344 372.160156 199.097656 372.800781 197.511719 C 373.441406 195.925781 374.011719 194.3125 374.503906 192.675781 C 375 191.035156 375.417969 189.378906 375.761719 187.699219 C 376.105469 186.023438 376.371094 184.335938 376.558594 182.632812 C 376.75 180.933594 376.859375 179.226562 376.894531 177.515625 C 376.925781 175.804688 376.882812 174.09375 376.757812 172.386719 C 376.636719 170.679688 376.433594 168.980469 376.15625 167.292969 C 375.878906 165.601562 375.523438 163.929688 375.09375 162.273438 C 374.664062 160.617188 374.160156 158.984375 373.578125 157.371094 C 373 155.761719 372.347656 154.179688 371.621094 152.628906 C 370.898438 151.078125 370.105469 149.5625 369.242188 148.085938 C 368.378906 146.605469 367.453125 145.171875 366.460938 143.777344 C 365.464844 142.382812 364.410156 141.035156 363.292969 139.738281 C 362.179688 138.441406 361.003906 137.199219 359.773438 136.007812 C 358.546875 134.816406 357.265625 133.683594 355.929688 132.609375 C 354.597656 131.535156 353.21875 130.527344 351.792969 129.578125 C 350.367188 128.628906 348.902344 127.75 347.394531 126.9375 C 345.890625 126.121094 344.347656 125.378906 342.777344 124.703125 C 341.203125 124.03125 339.601562 123.429688 337.972656 122.902344 C 336.34375 122.375 334.695312 121.925781 333.023438 121.546875 Z M 236.976562 34.816406 L 236.308594 34.816406 C 231.804688 34.058594 227.269531 33.675781 222.703125 33.671875 C 222.179688 33.671875 221.679688 33.574219 221.195312 33.371094 C 220.710938 33.171875 220.285156 32.886719 219.917969 32.519531 C 219.546875 32.148438 219.261719 31.722656 219.0625 31.238281 C 218.863281 30.757812 218.761719 30.253906 218.761719 29.730469 C 218.761719 29.207031 218.863281 28.703125 219.0625 28.222656 C 219.261719 27.738281 219.546875 27.3125 219.917969 26.941406 C 220.285156 26.574219 220.710938 26.289062 221.195312 26.089844 C 221.679688 25.886719 222.179688 25.789062 222.703125 25.789062 C 227.707031 25.792969 232.675781 26.210938 237.609375 27.050781 C 238.128906 27.089844 238.625 27.230469 239.09375 27.46875 C 239.558594 27.707031 239.964844 28.027344 240.304688 28.425781 C 240.644531 28.828125 240.894531 29.277344 241.054688 29.773438 C 241.21875 30.273438 241.277344 30.785156 241.234375 31.308594 C 241.195312 31.828125 241.054688 32.324219 240.816406 32.792969 C 240.574219 33.257812 240.257812 33.664062 239.859375 34.003906 C 239.457031 34.34375 239.007812 34.59375 238.511719 34.753906 C 238.011719 34.917969 237.5 34.976562 236.976562 34.933594 Z M 303.769531 86.066406 C 303.273438 86.265625 302.761719 86.371094 302.230469 86.382812 C 301.84375 86.382812 301.464844 86.324219 301.09375 86.214844 C 300.722656 86.101562 300.378906 85.9375 300.054688 85.726562 C 299.734375 85.511719 299.449219 85.253906 299.199219 84.957031 C 298.953125 84.660156 298.753906 84.332031 298.601562 83.976562 C 297.464844 81.3125 296.1875 78.71875 294.773438 76.191406 C 293.363281 73.660156 291.820312 71.214844 290.152344 68.847656 C 288.484375 66.480469 286.695312 64.207031 284.789062 62.027344 C 282.878906 59.847656 280.863281 57.773438 278.738281 55.808594 C 276.613281 53.839844 274.390625 51.988281 272.070312 50.253906 C 269.75 48.519531 267.347656 46.910156 264.859375 45.429688 C 262.367188 43.945312 259.808594 42.597656 257.179688 41.386719 C 254.550781 40.171875 251.863281 39.097656 249.121094 38.167969 C 248.628906 38 248.183594 37.746094 247.792969 37.40625 C 247.402344 37.0625 247.089844 36.660156 246.855469 36.195312 C 246.625 35.730469 246.488281 35.238281 246.449219 34.71875 C 246.410156 34.199219 246.472656 33.695312 246.636719 33.199219 C 246.71875 32.953125 246.824219 32.71875 246.953125 32.492188 C 247.082031 32.265625 247.234375 32.054688 247.402344 31.859375 C 247.574219 31.664062 247.761719 31.488281 247.96875 31.328125 C 248.171875 31.167969 248.390625 31.03125 248.625 30.917969 C 248.855469 30.800781 249.097656 30.710938 249.347656 30.644531 C 249.601562 30.574219 249.855469 30.53125 250.113281 30.515625 C 250.375 30.496094 250.632812 30.507812 250.890625 30.539062 C 251.148438 30.574219 251.398438 30.632812 251.644531 30.714844 C 254.660156 31.734375 257.617188 32.90625 260.507812 34.234375 C 263.402344 35.5625 266.21875 37.042969 268.957031 38.667969 C 271.691406 40.292969 274.335938 42.054688 276.890625 43.960938 C 279.441406 45.863281 281.886719 47.894531 284.222656 50.058594 C 286.5625 52.21875 288.777344 54.496094 290.875 56.890625 C 292.972656 59.285156 294.941406 61.785156 296.773438 64.386719 C 298.609375 66.988281 300.300781 69.679688 301.851562 72.457031 C 303.402344 75.238281 304.804688 78.09375 306.054688 81.019531 C 306.15625 81.265625 306.230469 81.519531 306.28125 81.777344 C 306.332031 82.039062 306.355469 82.304688 306.351562 82.566406 C 306.351562 82.832031 306.320312 83.097656 306.265625 83.355469 C 306.207031 83.613281 306.125 83.867188 306.019531 84.109375 C 305.914062 84.351562 305.78125 84.582031 305.628906 84.796875 C 305.476562 85.015625 305.304688 85.214844 305.109375 85.394531 C 304.917969 85.578125 304.707031 85.738281 304.480469 85.878906 C 304.253906 86.015625 304.015625 86.132812 303.769531 86.222656 Z M 303.769531 86.066406 " fill-opacity="1" fill-rule="nonzero"/><path fill="#000000" d="M 119.046875 200.984375 C 119.757812 241.394531 126.933594 273.089844 141.402344 297.808594 C 144.386719 302.878906 147.703125 307.71875 151.355469 312.328125 C 155.007812 316.941406 158.960938 321.277344 163.214844 325.339844 C 167.46875 329.402344 171.980469 333.152344 176.753906 336.589844 C 181.527344 340.027344 186.511719 343.121094 191.714844 345.867188 C 196.914062 343.121094 201.902344 340.027344 206.675781 336.589844 C 211.449219 333.152344 215.960938 329.402344 220.214844 325.339844 C 224.46875 321.277344 228.417969 316.941406 232.074219 312.328125 C 235.726562 307.71875 239.042969 302.878906 242.023438 297.808594 C 256.335938 272.933594 263.671875 241.394531 264.378906 200.984375 C 238.859375 194.652344 214.636719 185.046875 191.714844 172.167969 C 168.789062 185.046875 144.570312 194.652344 119.046875 200.984375 Z M 209.773438 249.28125 C 209.761719 250.292969 209.671875 251.296875 209.492188 252.296875 C 209.316406 253.292969 209.058594 254.269531 208.714844 255.222656 C 208.375 256.175781 207.957031 257.097656 207.460938 257.980469 C 206.964844 258.863281 206.398438 259.699219 205.761719 260.488281 C 205.128906 261.277344 204.429688 262.007812 203.671875 262.679688 C 202.910156 263.351562 202.101562 263.957031 201.242188 264.492188 C 200.382812 265.027344 199.484375 265.488281 198.546875 265.871094 C 197.609375 266.257812 196.644531 266.558594 195.65625 266.785156 L 195.65625 291.855469 C 195.65625 292.378906 195.554688 292.882812 195.355469 293.367188 C 195.15625 293.847656 194.871094 294.273438 194.5 294.644531 C 194.132812 295.015625 193.707031 295.296875 193.222656 295.5 C 192.738281 295.699219 192.238281 295.800781 191.714844 295.800781 C 191.191406 295.800781 190.6875 295.699219 190.203125 295.5 C 189.722656 295.296875 189.296875 295.015625 188.925781 294.644531 C 188.554688 294.273438 188.269531 293.847656 188.070312 293.367188 C 187.871094 292.882812 187.769531 292.378906 187.769531 291.855469 L 187.769531 266.785156 C 186.667969 266.535156 185.59375 266.1875 184.554688 265.738281 C 183.515625 265.292969 182.527344 264.75 181.59375 264.117188 C 180.65625 263.480469 179.785156 262.765625 178.984375 261.96875 C 178.179688 261.171875 177.457031 260.304688 176.820312 259.371094 C 176.179688 258.4375 175.632812 257.453125 175.175781 256.417969 C 174.722656 255.382812 174.367188 254.3125 174.113281 253.207031 C 173.863281 252.105469 173.714844 250.988281 173.667969 249.859375 C 173.625 248.726562 173.6875 247.601562 173.855469 246.484375 C 174.023438 245.367188 174.292969 244.273438 174.667969 243.203125 C 175.042969 242.136719 175.511719 241.113281 176.078125 240.132812 C 176.644531 239.152344 177.296875 238.234375 178.035156 237.375 C 178.773438 236.519531 179.585938 235.738281 180.46875 235.035156 C 181.355469 234.328125 182.300781 233.714844 183.300781 233.1875 C 184.300781 232.660156 185.34375 232.230469 186.425781 231.898438 C 187.507812 231.566406 188.609375 231.339844 189.734375 231.214844 C 190.859375 231.09375 191.988281 231.074219 193.113281 231.160156 C 194.242188 231.25 195.355469 231.441406 196.445312 231.738281 C 197.539062 232.035156 198.59375 232.429688 199.609375 232.925781 C 200.628906 233.417969 201.589844 234.003906 202.5 234.679688 C 203.40625 235.355469 204.242188 236.109375 205.007812 236.945312 C 205.773438 237.777344 206.457031 238.671875 207.054688 239.636719 C 207.648438 240.597656 208.152344 241.605469 208.558594 242.660156 C 208.96875 243.714844 209.273438 244.800781 209.476562 245.914062 C 209.679688 247.027344 209.777344 248.148438 209.773438 249.28125 Z M 209.773438 249.28125 " fill-opacity="1" fill-rule="nonzero"/><path fill="#000000" d="M 181.542969 249.28125 C 181.550781 249.945312 181.621094 250.605469 181.757812 251.257812 C 181.894531 251.910156 182.09375 252.539062 182.355469 253.152344 C 182.617188 253.765625 182.9375 254.347656 183.3125 254.898438 C 183.6875 255.449219 184.113281 255.957031 184.589844 256.421875 C 185.066406 256.890625 185.582031 257.304688 186.140625 257.667969 C 186.695312 258.035156 187.285156 258.34375 187.902344 258.589844 C 188.519531 258.839844 189.15625 259.027344 189.808594 259.152344 C 190.464844 259.277344 191.125 259.335938 191.792969 259.332031 C 192.457031 259.328125 193.117188 259.257812 193.769531 259.121094 C 194.421875 258.988281 195.054688 258.789062 195.667969 258.53125 C 196.28125 258.273438 196.867188 257.957031 197.417969 257.582031 C 197.96875 257.210938 198.480469 256.785156 198.949219 256.3125 C 199.414062 255.835938 199.832031 255.324219 200.199219 254.765625 C 200.566406 254.210938 200.878906 253.625 201.128906 253.007812 C 201.382812 252.390625 201.570312 251.757812 201.699219 251.101562 C 201.824219 250.449219 201.886719 249.789062 201.886719 249.121094 C 201.882812 248.457031 201.816406 247.796875 201.683594 247.144531 C 201.550781 246.492188 201.355469 245.855469 201.101562 245.242188 C 200.84375 244.625 200.527344 244.042969 200.15625 243.488281 C 199.785156 242.9375 199.363281 242.425781 198.890625 241.957031 C 198.421875 241.484375 197.90625 241.066406 197.351562 240.695312 C 196.796875 240.328125 196.210938 240.015625 195.597656 239.761719 C 194.980469 239.507812 194.347656 239.3125 193.691406 239.183594 C 193.039062 239.054688 192.378906 238.988281 191.714844 238.988281 C 191.039062 238.988281 190.375 239.054688 189.714844 239.1875 C 189.054688 239.320312 188.414062 239.515625 187.792969 239.773438 C 187.171875 240.035156 186.582031 240.351562 186.023438 240.726562 C 185.46875 241.105469 184.953125 241.53125 184.476562 242.011719 C 184.003906 242.488281 183.582031 243.007812 183.214844 243.570312 C 182.84375 244.132812 182.535156 244.726562 182.28125 245.351562 C 182.027344 245.972656 181.839844 246.617188 181.714844 247.277344 C 181.589844 247.941406 181.535156 248.605469 181.542969 249.28125 Z M 181.542969 249.28125 " fill-opacity="1" fill-rule="nonzero"/><g clip-path="url(#ad2a72d785)"><path fill="#000000" d="M 291.113281 236.152344 C 293.507812 216.386719 294.308594 196.554688 293.515625 176.660156 C 261.265625 172.363281 228.777344 160.105469 191.714844 138.300781 C 154.652344 160.105469 122.164062 172.363281 89.910156 176.660156 C 89.144531 196.554688 89.949219 216.382812 92.316406 236.152344 C 101.34375 306.128906 132.058594 350.320312 191.714844 379.375 C 201.199219 374.960938 210.246094 369.773438 218.851562 363.816406 C 227.457031 357.859375 235.496094 351.21875 242.96875 343.894531 C 254.4375 332.476562 263.824219 319.546875 271.121094 305.101562 C 271.105469 304.984375 271.105469 304.867188 271.121094 304.75 C 276.367188 293.964844 280.664062 282.8125 284.011719 271.296875 C 287.363281 259.78125 289.714844 248.066406 291.074219 236.152344 Z M 248.84375 301.792969 C 245.585938 307.320312 241.957031 312.59375 237.953125 317.605469 C 233.949219 322.621094 229.613281 327.332031 224.945312 331.734375 C 220.273438 336.136719 215.320312 340.1875 210.074219 343.886719 C 204.832031 347.589844 199.355469 350.902344 193.644531 353.832031 C 193.035156 354.183594 192.378906 354.359375 191.675781 354.359375 C 190.96875 354.359375 190.3125 354.183594 189.703125 353.832031 C 183.992188 350.902344 178.515625 347.589844 173.273438 343.886719 C 168.03125 340.1875 163.074219 336.136719 158.40625 331.734375 C 153.734375 327.332031 149.398438 322.621094 145.394531 317.605469 C 141.390625 312.59375 137.761719 307.320312 134.503906 301.792969 C 119.164062 275.179688 111.515625 241.394531 111.121094 198.027344 C 111.113281 197.570312 111.179688 197.125 111.324219 196.6875 C 111.472656 196.253906 111.6875 195.855469 111.96875 195.496094 C 112.253906 195.136719 112.589844 194.835938 112.980469 194.59375 C 113.371094 194.351562 113.789062 194.183594 114.238281 194.085938 C 127.484375 190.964844 140.4375 186.914062 153.101562 181.925781 C 165.765625 176.9375 178.003906 171.070312 189.820312 164.320312 C 190.429688 163.96875 191.089844 163.792969 191.792969 163.792969 C 192.496094 163.792969 193.152344 163.96875 193.765625 164.320312 C 205.558594 171.0625 217.769531 176.929688 230.40625 181.914062 C 243.042969 186.902344 255.96875 190.957031 269.191406 194.085938 C 269.636719 194.183594 270.058594 194.351562 270.445312 194.59375 C 270.835938 194.835938 271.171875 195.136719 271.457031 195.496094 C 271.742188 195.855469 271.957031 196.253906 272.101562 196.6875 C 272.246094 197.125 272.316406 197.570312 272.304688 198.027344 C 271.910156 241.394531 264.261719 275.179688 248.84375 301.792969 Z M 248.84375 301.792969 " fill-opacity="1" fill-rule="nonzero"/></g></svg>