<svg xmlns="http://www.w3.org/2000/svg" xmlns:xlink="http://www.w3.org/1999/xlink" width="512" viewBox="0 0 384 383.999986" height="512" preserveAspectRatio="xMidYMid meet"><defs><clipPath id="4cc15caaf4"><path d="M 54 0 L 382.230469 0 L 382.230469 191 L 54 191 Z M 54 0 " clip-rule="nonzero"></path></clipPath><clipPath id="3857c9982b"><path d="M 3.480469 139 L 296 139 L 296 384 L 3.480469 384 Z M 3.480469 139 " clip-rule="nonzero"></path></clipPath></defs><g clip-path="url(#4cc15caaf4)"><path fill="#000000" d="M 328.019531 82.132812 C 324.242188 82.132812 320.59375 82.503906 317.003906 83.246094 C 317.808594 78.972656 318.242188 74.570312 318.242188 70.109375 C 318.242188 31.804688 287.109375 0.628906 248.863281 0.628906 C 217.179688 0.628906 189.699219 22.199219 181.777344 52.507812 C 174.105469 47.859375 165.441406 45.378906 156.46875 45.378906 C 129.359375 45.378906 107.328125 67.441406 107.328125 94.589844 C 107.328125 97.75 107.636719 100.851562 108.195312 103.886719 C 104.046875 102.648438 99.777344 101.964844 95.324219 101.964844 C 77.4375 101.964844 61.410156 112.625 54.476562 129.113281 C 53.796875 130.664062 54.539062 132.523438 56.148438 133.203125 C 57.695312 133.886719 59.550781 133.140625 60.171875 131.53125 C 66.171875 117.335938 79.972656 108.164062 95.324219 108.164062 C 100.953125 108.164062 106.402344 109.339844 111.414062 111.757812 C 112.527344 112.316406 113.890625 112.070312 114.816406 111.261719 C 115.746094 110.457031 116.054688 109.15625 115.683594 107.914062 C 114.261719 103.761719 113.515625 99.300781 113.515625 94.589844 C 113.515625 70.851562 132.765625 51.578125 156.46875 51.578125 C 165.6875 51.578125 174.476562 54.550781 181.964844 60.128906 C 182.832031 60.75 183.945312 60.933594 184.933594 60.5625 C 185.925781 60.191406 186.667969 59.324219 186.855469 58.269531 C 192.546875 28.519531 218.664062 6.890625 248.925781 6.890625 C 283.769531 6.890625 312.113281 35.277344 312.113281 70.171875 C 312.113281 75.933594 311.371094 81.511719 309.886719 86.78125 C 309.578125 87.894531 309.886719 89.074219 310.753906 89.816406 C 311.617188 90.5625 312.734375 90.871094 313.847656 90.5625 C 318.300781 89.136719 323.128906 88.390625 328.082031 88.390625 C 354.566406 88.390625 376.167969 109.960938 376.167969 136.550781 C 376.167969 163.140625 354.628906 184.707031 328.082031 184.707031 L 306.171875 184.707031 C 304.441406 184.707031 303.078125 186.070312 303.078125 187.808594 C 303.078125 189.542969 304.441406 190.90625 306.171875 190.90625 L 328.082031 190.90625 C 357.972656 190.90625 382.355469 166.546875 382.355469 136.550781 C 382.355469 106.550781 357.910156 82.132812 328.019531 82.132812 Z M 328.019531 82.132812 " fill-opacity="1" fill-rule="nonzero"></path></g><path fill="#000000" d="M 30.277344 315.609375 L 30.277344 333.707031 C 30.277344 335.441406 31.640625 336.808594 33.375 336.808594 C 35.105469 336.808594 36.46875 335.441406 36.46875 333.707031 L 36.46875 315.609375 C 36.46875 313.875 35.105469 312.511719 33.375 312.511719 C 31.640625 312.511719 30.277344 313.9375 30.277344 315.609375 Z M 30.277344 315.609375 " fill-opacity="1" fill-rule="nonzero"></path><path fill="#000000" d="M 41.296875 315.609375 L 41.296875 333.707031 C 41.296875 335.441406 42.65625 336.808594 44.390625 336.808594 C 46.121094 336.808594 47.484375 335.441406 47.484375 333.707031 L 47.484375 315.609375 C 47.484375 313.875 46.121094 312.511719 44.390625 312.511719 C 42.65625 312.511719 41.296875 313.9375 41.296875 315.609375 Z M 41.296875 315.609375 " fill-opacity="1" fill-rule="nonzero"></path><path fill="#000000" d="M 52.3125 315.609375 L 52.3125 333.707031 C 52.3125 335.441406 53.671875 336.808594 55.40625 336.808594 C 57.136719 336.808594 58.5 335.441406 58.5 333.707031 L 58.5 315.609375 C 58.5 313.875 57.136719 312.511719 55.40625 312.511719 C 53.671875 312.511719 52.3125 313.9375 52.3125 315.609375 Z M 52.3125 315.609375 " fill-opacity="1" fill-rule="nonzero"></path><path fill="#000000" d="M 63.390625 315.609375 L 63.390625 333.707031 C 63.390625 335.441406 64.75 336.808594 66.484375 336.808594 C 68.214844 336.808594 69.578125 335.441406 69.578125 333.707031 L 69.578125 315.609375 C 69.578125 313.875 68.214844 312.511719 66.484375 312.511719 C 64.75 312.511719 63.390625 313.9375 63.390625 315.609375 Z M 63.390625 315.609375 " fill-opacity="1" fill-rule="nonzero"></path><path fill="#000000" d="M 74.40625 315.609375 L 74.40625 333.707031 C 74.40625 335.441406 75.765625 336.808594 77.5 336.808594 C 79.230469 336.808594 80.59375 335.441406 80.59375 333.707031 L 80.59375 315.609375 C 80.59375 313.875 79.230469 312.511719 77.5 312.511719 C 75.765625 312.511719 74.40625 313.9375 74.40625 315.609375 Z M 74.40625 315.609375 " fill-opacity="1" fill-rule="nonzero"></path><path fill="#000000" d="M 85.421875 315.609375 L 85.421875 333.707031 C 85.421875 335.441406 86.78125 336.808594 88.515625 336.808594 C 90.246094 336.808594 91.609375 335.441406 91.609375 333.707031 L 91.609375 315.609375 C 91.609375 313.875 90.246094 312.511719 88.515625 312.511719 C 86.78125 312.511719 85.421875 313.9375 85.421875 315.609375 Z M 85.421875 315.609375 " fill-opacity="1" fill-rule="nonzero"></path><path fill="#000000" d="M 96.4375 315.609375 L 96.4375 333.707031 C 96.4375 335.441406 97.796875 336.808594 99.53125 336.808594 C 101.265625 336.808594 102.625 335.441406 102.625 333.707031 L 102.625 315.609375 C 102.625 313.875 101.265625 312.511719 99.53125 312.511719 C 97.796875 312.511719 96.4375 313.9375 96.4375 315.609375 Z M 96.4375 315.609375 " fill-opacity="1" fill-rule="nonzero"></path><path fill="#000000" d="M 24.152344 302.222656 L 24.152344 160.535156 L 137.21875 160.535156 C 138.890625 160.535156 140.316406 159.171875 140.316406 157.4375 C 140.316406 155.703125 138.890625 154.339844 137.21875 154.339844 L 21.058594 154.339844 C 19.324219 154.339844 17.964844 155.703125 17.964844 157.4375 L 17.964844 305.320312 C 17.964844 307.054688 19.324219 308.421875 21.058594 308.421875 L 278.136719 308.421875 C 279.808594 308.421875 281.230469 307.054688 281.230469 305.320312 L 281.230469 157.4375 C 281.230469 155.703125 279.808594 154.339844 278.136719 154.339844 L 271.082031 154.339844 C 269.347656 154.339844 267.988281 155.703125 267.988281 157.4375 C 267.988281 159.171875 269.347656 160.535156 271.082031 160.535156 L 275.042969 160.535156 L 275.042969 302.222656 Z M 24.152344 302.222656 " fill-opacity="1" fill-rule="nonzero"></path><g clip-path="url(#3857c9982b)"><path fill="#000000" d="M 284.265625 139.835938 L 267.367188 139.835938 C 265.636719 139.835938 264.273438 141.199219 264.273438 142.933594 C 264.273438 144.667969 265.636719 146.035156 267.367188 146.035156 L 284.265625 146.035156 C 287.171875 146.035156 289.523438 148.328125 289.523438 151.300781 L 289.523438 335.628906 C 289.523438 338.605469 287.171875 340.898438 284.265625 340.898438 L 14.929688 340.898438 C 11.960938 340.898438 9.671875 338.605469 9.671875 335.628906 L 9.671875 151.300781 C 9.671875 148.328125 11.960938 146.035156 14.929688 146.035156 L 140.996094 146.035156 C 142.667969 146.035156 144.089844 144.667969 144.089844 142.933594 C 144.089844 141.199219 142.667969 139.835938 140.996094 139.835938 L 14.929688 139.835938 C 8.617188 139.835938 3.480469 144.980469 3.480469 151.300781 L 3.480469 335.628906 C 3.480469 341.949219 8.617188 347.09375 14.929688 347.09375 L 107.265625 347.09375 L 107.265625 374.675781 L 89.257812 374.675781 C 87.523438 374.675781 86.164062 376.101562 86.164062 377.773438 L 86.164062 400.460938 C 86.164062 402.132812 87.523438 403.558594 89.257812 403.558594 L 209.9375 403.558594 C 211.671875 403.558594 213.03125 402.132812 213.03125 400.460938 L 213.03125 377.773438 C 213.03125 376.101562 211.671875 374.675781 209.9375 374.675781 L 191.867188 374.675781 L 191.867188 347.09375 L 284.265625 347.09375 C 290.578125 347.09375 295.714844 341.949219 295.714844 335.628906 L 295.714844 151.300781 C 295.714844 144.980469 290.578125 139.835938 284.265625 139.835938 Z M 284.265625 139.835938 " fill-opacity="1" fill-rule="nonzero"></path></g><path fill="#000000" d="M 249.421875 324.597656 C 249.421875 330.671875 254.3125 335.628906 260.253906 335.628906 C 266.316406 335.628906 271.269531 330.671875 271.269531 324.597656 C 271.269531 318.585938 266.316406 313.75 260.253906 313.75 C 254.3125 313.75 249.421875 318.585938 249.421875 324.597656 Z M 249.421875 324.597656 " fill-opacity="1" fill-rule="nonzero"></path><path fill="#000000" d="M 225.90625 324.597656 C 225.90625 329.371094 229.742188 333.210938 234.382812 333.210938 C 239.148438 333.210938 242.984375 329.371094 242.984375 324.597656 C 242.984375 319.949219 239.148438 316.167969 234.382812 316.167969 C 229.742188 316.167969 225.90625 319.949219 225.90625 324.597656 Z M 225.90625 324.597656 " fill-opacity="1" fill-rule="nonzero"></path><path fill="#000000" d="M 181.71875 277.183594 C 181.71875 271.667969 177.199219 267.140625 171.628906 267.140625 C 166.121094 267.140625 161.605469 271.667969 161.605469 277.183594 C 161.605469 282.761719 166.121094 287.285156 171.628906 287.285156 C 177.199219 287.285156 181.71875 282.761719 181.71875 277.183594 Z M 181.71875 277.183594 " fill-opacity="1" fill-rule="nonzero"></path><path fill="#000000" d="M 230.980469 277.183594 C 230.980469 271.667969 226.460938 267.140625 220.890625 267.140625 C 215.320312 267.140625 210.867188 271.667969 210.867188 277.183594 C 210.867188 282.761719 215.320312 287.285156 220.890625 287.285156 C 226.460938 287.285156 230.980469 282.761719 230.980469 277.183594 Z M 230.980469 277.183594 " fill-opacity="1" fill-rule="nonzero"></path><path fill="#000000" d="M 206.347656 277.183594 C 206.347656 271.667969 201.832031 267.140625 196.261719 267.140625 C 190.753906 267.140625 186.234375 271.667969 186.234375 277.183594 C 186.234375 282.761719 190.753906 287.285156 196.261719 287.285156 C 201.832031 287.285156 206.347656 282.761719 206.347656 277.183594 Z M 206.347656 277.183594 " fill-opacity="1" fill-rule="nonzero"></path><path fill="#000000" d="M 255.609375 277.183594 C 255.609375 271.667969 251.03125 267.140625 245.460938 267.140625 C 239.953125 267.140625 235.496094 271.667969 235.496094 277.183594 C 235.496094 282.761719 239.953125 287.285156 245.460938 287.285156 C 251.03125 287.285156 255.609375 282.761719 255.609375 277.183594 Z M 255.609375 277.183594 " fill-opacity="1" fill-rule="nonzero"></path><path fill="#000000" d="M 363.664062 136.488281 C 363.664062 134.753906 362.304688 133.390625 360.570312 133.390625 C 358.839844 133.390625 357.476562 134.753906 357.476562 136.488281 C 357.476562 152.789062 344.234375 166.054688 327.957031 166.054688 C 326.222656 166.054688 324.863281 167.417969 324.863281 169.152344 C 324.863281 170.886719 326.222656 172.25 327.957031 172.25 C 347.699219 172.25 363.664062 156.199219 363.664062 136.488281 Z M 363.664062 136.488281 " fill-opacity="1" fill-rule="nonzero"></path><path fill="#000000" d="M 248.863281 19.285156 C 247.132812 19.285156 245.769531 20.648438 245.769531 22.382812 C 245.769531 24.121094 247.132812 25.484375 248.863281 25.484375 C 273.433594 25.484375 293.484375 45.503906 293.484375 70.171875 C 293.484375 71.90625 294.847656 73.269531 296.578125 73.269531 C 298.3125 73.269531 299.675781 71.90625 299.675781 70.171875 C 299.675781 42.09375 276.898438 19.285156 248.863281 19.285156 Z M 248.863281 19.285156 " fill-opacity="1" fill-rule="nonzero"></path><path fill="#000000" d="M 156.46875 63.972656 C 139.632812 63.972656 125.894531 77.730469 125.894531 94.589844 C 125.894531 97.9375 126.390625 101.035156 127.378906 103.886719 C 127.8125 105.1875 129.050781 105.996094 130.289062 105.996094 C 130.597656 105.996094 130.96875 105.933594 131.277344 105.808594 C 132.886719 105.25 133.753906 103.453125 133.199219 101.84375 C 132.453125 99.671875 132.082031 97.195312 132.082031 94.589844 C 132.082031 81.140625 143.039062 70.171875 156.46875 70.171875 C 158.199219 70.171875 159.5625 68.808594 159.5625 67.070312 C 159.5625 65.335938 158.199219 63.972656 156.46875 63.972656 Z M 156.46875 63.972656 " fill-opacity="1" fill-rule="nonzero"></path><path fill="#000000" d="M 79.230469 135.25 C 84.738281 127.5 94.953125 124.710938 103.554688 128.617188 C 105.101562 129.359375 106.957031 128.617188 107.636719 127.066406 C 108.320312 125.519531 107.636719 123.660156 106.089844 122.976562 C 94.828125 117.832031 81.398438 121.488281 74.15625 131.652344 C 73.167969 133.019531 73.476562 135 74.898438 135.992188 C 75.457031 136.363281 76.074219 136.550781 76.695312 136.550781 C 77.683594 136.550781 78.613281 136.054688 79.230469 135.25 Z M 79.230469 135.25 " fill-opacity="1" fill-rule="nonzero"></path><path fill="#000000" d="M 244.160156 117.648438 C 244.53125 116.964844 244.347656 116.035156 243.667969 115.476562 L 236.984375 110.023438 C 236.550781 109.589844 236.054688 109.589844 235.746094 109.589844 C 235.375 109.652344 235.0625 109.773438 234.753906 110.023438 L 230.671875 113.492188 C 229.308594 114.609375 227.761719 115.351562 226.027344 115.539062 C 224.730469 115.664062 223.367188 115.476562 221.882812 114.917969 C 218.664062 113.554688 215.445312 112.625 212.597656 112.128906 C 209.441406 111.632812 206.84375 109.339844 205.792969 105.871094 L 204.367188 101.035156 C 204.058594 100.167969 203.378906 99.671875 202.511719 99.796875 L 193.847656 100.726562 C 192.609375 100.851562 192.300781 102.152344 192.238281 102.894531 L 191.929688 107.109375 C 191.867188 110.519531 189.824219 113.492188 186.605469 114.859375 C 183.820312 115.972656 180.914062 117.585938 178.003906 119.566406 C 176.890625 120.3125 175.527344 120.871094 174.105469 120.992188 C 172.371094 121.179688 170.640625 120.808594 168.96875 119.941406 L 164.328125 117.335938 C 163.957031 117.152344 163.585938 117.152344 163.398438 117.152344 C 163.152344 117.152344 162.59375 117.335938 162.222656 117.832031 L 156.714844 124.589844 C 156.15625 125.207031 156.15625 126.074219 156.714844 126.820312 L 159.746094 130.351562 C 162.222656 132.707031 162.964844 136.488281 161.542969 139.710938 C 160.367188 142.5625 159.4375 145.785156 158.820312 148.882812 C 158.386719 151.984375 156.097656 154.710938 152.691406 155.886719 L 147.679688 157.25 C 146.9375 157.4375 146.378906 158.304688 146.503906 159.109375 L 147.429688 167.789062 C 147.492188 168.59375 148.234375 169.214844 148.980469 169.277344 L 154.425781 169.710938 C 157.703125 170.082031 160.550781 172.25 161.480469 174.976562 C 162.71875 178.078125 164.328125 180.929688 166.367188 183.839844 C 168.039062 186.382812 168.164062 189.542969 166.679688 192.703125 L 164.078125 197.230469 C 163.644531 197.972656 163.832031 198.839844 164.511719 199.398438 L 171.257812 204.914062 C 171.691406 205.347656 172.25 205.347656 172.558594 205.347656 C 172.742188 205.347656 173.113281 205.222656 173.484375 204.914062 L 177.386719 201.503906 C 178.746094 200.390625 180.480469 199.644531 182.148438 199.460938 C 183.511719 199.335938 184.875 199.460938 186.296875 200.019531 C 189.328125 201.382812 192.609375 202.3125 196.199219 202.929688 C 199.417969 203.738281 201.832031 206.152344 202.449219 208.941406 L 203.8125 213.839844 C 204.121094 214.707031 204.863281 215.328125 205.667969 215.265625 L 214.332031 214.335938 C 215.136719 214.273438 215.753906 213.527344 215.878906 212.722656 L 216.25 207.890625 C 216.3125 204.355469 218.476562 201.257812 221.511719 200.140625 C 224.605469 198.902344 227.390625 197.351562 230.296875 195.308594 C 231.414062 194.5625 232.648438 194.128906 234.074219 194.003906 C 235.804688 193.820312 237.664062 194.191406 239.023438 194.933594 L 243.726562 197.476562 C 244.097656 197.664062 244.472656 197.722656 244.78125 197.722656 C 245.027344 197.722656 245.523438 197.601562 245.894531 197.042969 L 251.339844 190.347656 C 251.898438 189.667969 251.898438 188.738281 251.339844 188.117188 L 247.6875 183.902344 C 245.707031 181.421875 245.273438 178.015625 246.453125 175.351562 C 247.8125 171.941406 248.742188 168.78125 249.296875 165.742188 C 249.792969 162.707031 252.019531 160.164062 255.425781 159.050781 L 260.4375 157.683594 C 261.242188 157.375 261.800781 156.632812 261.675781 155.824219 L 260.746094 147.148438 C 260.683594 146.34375 259.941406 145.722656 259.199219 145.597656 L 253.878906 145.226562 C 250.785156 144.980469 248.183594 143.183594 246.574219 139.960938 C 245.460938 137.046875 243.789062 134.132812 241.746094 131.160156 C 240.015625 128.492188 239.953125 125.085938 241.4375 122.355469 Z M 206.71875 182.351562 C 192.980469 183.777344 180.664062 173.800781 179.242188 160.039062 C 177.816406 146.28125 187.78125 133.949219 201.519531 132.523438 C 215.261719 131.097656 227.574219 141.074219 229 154.835938 C 230.421875 168.59375 220.457031 180.929688 206.71875 182.351562 Z M 206.71875 182.351562 " fill-opacity="1" fill-rule="nonzero"></path><path fill="#000000" d="M 148.113281 194.128906 C 148.546875 193.511719 148.421875 192.765625 147.925781 192.269531 L 142.542969 186.878906 C 142.171875 186.507812 141.738281 186.445312 141.550781 186.445312 C 141.367188 186.445312 141.058594 186.507812 140.746094 186.691406 L 136.847656 189.417969 C 135.609375 190.285156 134.125 190.722656 132.640625 190.722656 C 131.277344 190.722656 129.917969 190.347656 129.113281 189.789062 C 126.328125 188.304688 123.605469 187.1875 121.003906 186.507812 C 118.160156 185.636719 116.054688 183.160156 115.808594 180.617188 L 114.878906 175.96875 C 114.753906 175.289062 114.199219 174.792969 113.515625 174.792969 L 105.90625 174.792969 C 104.792969 174.792969 104.421875 176.28125 104.359375 176.527344 L 103.675781 180.308594 C 103.246094 183.40625 100.953125 185.886719 98.417969 186.445312 C 95.570312 187.3125 92.847656 188.425781 90.0625 189.976562 L 88.207031 190.722656 L 86.78125 190.722656 C 85.050781 190.722656 83.441406 190.164062 82.511719 189.355469 L 78.613281 186.691406 C 78.367188 186.507812 78.117188 186.445312 77.808594 186.445312 C 77.5625 186.445312 77.128906 186.507812 76.816406 186.816406 L 71.433594 192.207031 C 70.878906 192.765625 70.816406 193.449219 71.308594 194.128906 L 73.847656 197.785156 C 75.582031 200.203125 75.765625 203.363281 74.34375 205.84375 C 72.917969 208.386719 71.804688 211.113281 71.0625 213.777344 C 70.257812 216.628906 67.660156 218.796875 65.058594 219.105469 L 60.605469 219.914062 C 59.921875 220.035156 59.367188 220.65625 59.367188 221.402344 L 59.367188 228.960938 C 59.367188 229.707031 59.859375 230.265625 60.605469 230.449219 L 65.308594 231.316406 C 68.152344 231.9375 70.257812 233.921875 71 236.460938 C 71.804688 239.25 72.917969 241.976562 74.28125 244.457031 C 75.703125 247 75.519531 250.160156 73.910156 252.453125 L 71.25 256.355469 C 70.878906 256.914062 70.9375 257.660156 71.433594 258.15625 L 76.878906 263.609375 C 77.191406 263.917969 77.621094 263.980469 77.808594 263.980469 C 77.996094 263.980469 78.304688 263.917969 78.675781 263.671875 L 82.386719 261.128906 C 83.6875 260.199219 85.296875 259.703125 86.90625 259.703125 L 89.011719 259.828125 L 90.433594 260.632812 C 92.972656 261.996094 95.632812 263.175781 98.109375 263.917969 C 101.015625 264.601562 103.304688 267.019531 103.738281 269.929688 L 104.542969 274.457031 C 104.667969 275.136719 105.285156 275.695312 105.96875 275.695312 L 113.578125 275.695312 C 114.261719 275.695312 114.878906 275.199219 115.003906 274.394531 L 115.808594 270.363281 C 116.117188 267.328125 118.222656 264.785156 121.191406 263.917969 C 123.789062 263.238281 126.453125 262.121094 128.988281 260.757812 L 130.96875 259.703125 L 132.578125 259.703125 C 134.1875 259.703125 135.734375 260.199219 136.910156 261.066406 L 140.6875 263.671875 C 140.996094 263.917969 141.304688 263.917969 141.550781 263.917969 C 141.738281 263.917969 142.171875 263.855469 142.542969 263.484375 L 147.925781 258.15625 C 148.421875 257.660156 148.546875 256.914062 148.050781 256.296875 L 145.265625 252.265625 C 143.65625 249.664062 143.65625 246.5625 144.957031 244.582031 C 146.441406 241.914062 147.492188 239.25 148.296875 236.460938 C 149.039062 233.859375 151.207031 231.9375 154.300781 231.253906 L 158.757812 230.449219 C 159.5 230.324219 159.933594 229.707031 159.933594 228.960938 L 159.933594 221.402344 C 159.933594 220.65625 159.4375 220.097656 158.757812 219.914062 L 154.609375 219.167969 C 151.578125 218.796875 148.980469 216.566406 148.296875 213.777344 C 147.492188 210.988281 146.441406 208.386719 145.019531 205.90625 C 143.59375 203.363281 143.78125 200.203125 145.453125 197.847656 Z M 109.679688 247.246094 C 97.550781 247.246094 87.710938 237.328125 87.710938 225.179688 C 87.710938 213.035156 97.550781 203.179688 109.679688 203.179688 C 121.808594 203.179688 131.710938 213.035156 131.710938 225.179688 C 131.710938 237.328125 121.808594 247.246094 109.679688 247.246094 Z M 109.679688 247.246094 " fill-opacity="1" fill-rule="nonzero"></path></svg>