<svg xmlns="http://www.w3.org/2000/svg" xmlns:xlink="http://www.w3.org/1999/xlink" width="100" zoomAndPan="magnify" viewBox="0 0 75 74.999997" height="100" preserveAspectRatio="xMidYMid meet" version="1.0"><path fill="#d9d9d9" d="M 27.285156 4.296875 C 33.519531 2.246094 40.074219 1.996094 46.257812 3.363281 C 52.363281 4.714844 58.101562 7.644531 62.824219 11.976562 L 65.300781 10.195312 L 65.761719 14.804688 L 66.222656 19.410156 L 62.003906 17.507812 L 57.78125 15.601562 L 60.28125 13.804688 C 56.058594 10.078125 50.984375 7.546875 45.597656 6.355469 C 39.949219 5.109375 33.957031 5.339844 28.246094 7.21875 Z M 27.285156 4.296875 " fill-opacity="1" fill-rule="nonzero"/><path fill="#d9d9d9" d="M 43.054688 18.53125 C 45.332031 19.054688 47.464844 19.957031 49.378906 21.175781 L 52.902344 17.648438 L 59.347656 24.09375 L 55.785156 27.660156 C 56.964844 29.566406 57.835938 31.683594 58.335938 33.941406 L 63.425781 33.941406 L 63.425781 43.054688 L 58.257812 43.054688 C 57.730469 45.269531 56.839844 47.34375 55.652344 49.207031 L 59.347656 52.902344 L 52.902344 59.347656 L 49.167969 55.613281 C 47.308594 56.765625 45.25 57.625 43.054688 58.125 L 43.054688 63.425781 L 33.941406 63.425781 L 33.941406 58.125 C 31.746094 57.625 29.6875 56.765625 27.828125 55.613281 L 24.09375 59.347656 L 17.648438 52.902344 L 21.34375 49.207031 C 20.160156 47.34375 19.269531 45.269531 18.742188 43.054688 L 13.570312 43.054688 L 13.570312 33.941406 L 18.664062 33.941406 C 19.160156 31.683594 20.03125 29.566406 21.214844 27.660156 L 17.648438 24.09375 L 24.09375 17.648438 L 27.621094 21.175781 C 29.535156 19.957031 31.664062 19.054688 33.941406 18.53125 L 33.941406 13.570312 L 43.054688 13.570312 Z M 38.5 23.246094 C 46.921875 23.246094 53.753906 30.074219 53.753906 38.5 C 53.753906 46.921875 46.921875 53.753906 38.5 53.753906 C 30.074219 53.753906 23.246094 46.921875 23.246094 38.5 C 23.246094 30.074219 30.074219 23.246094 38.5 23.246094 Z M 38.5 23.246094 " fill-opacity="1" fill-rule="evenodd"/><path fill="#d9d9d9" d="M 45.527344 38.5 L 38.5 42.554688 L 31.472656 46.613281 L 31.472656 30.386719 L 38.5 34.441406 Z M 45.527344 38.5 " fill-opacity="1" fill-rule="evenodd"/><path fill="#d9d9d9" d="M 72.699219 27.285156 C 74.75 33.519531 75 40.074219 73.632812 46.257812 C 72.285156 52.363281 69.355469 58.101562 65.019531 62.824219 L 66.800781 65.300781 L 62.195312 65.761719 L 57.585938 66.222656 L 59.492188 62.003906 L 61.394531 57.78125 L 63.191406 60.28125 C 66.917969 56.058594 69.449219 50.984375 70.640625 45.597656 C 71.890625 39.949219 71.660156 33.957031 69.78125 28.246094 Z M 72.699219 27.285156 " fill-opacity="1" fill-rule="nonzero"/><path fill="#d9d9d9" d="M 49.714844 72.699219 C 43.480469 74.75 36.925781 75 30.738281 73.632812 C 24.636719 72.285156 18.894531 69.355469 14.171875 65.019531 L 11.695312 66.800781 L 11.234375 62.195312 L 10.773438 57.585938 L 14.996094 59.492188 L 19.214844 61.394531 L 16.714844 63.191406 C 20.941406 66.917969 26.015625 69.449219 31.402344 70.640625 C 37.046875 71.890625 43.042969 71.660156 48.753906 69.78125 Z M 49.714844 72.699219 " fill-opacity="1" fill-rule="nonzero"/><path fill="#d9d9d9" d="M 4.296875 49.714844 C 2.246094 43.480469 1.996094 36.925781 3.363281 30.738281 C 4.714844 24.636719 7.644531 18.894531 11.976562 14.171875 L 10.195312 11.695312 L 14.804688 11.234375 L 19.410156 10.773438 L 17.507812 14.996094 L 15.601562 19.214844 L 13.804688 16.714844 C 10.078125 20.941406 7.546875 26.015625 6.355469 31.402344 C 5.109375 37.046875 5.339844 43.042969 7.21875 48.753906 Z M 4.296875 49.714844 " fill-opacity="1" fill-rule="nonzero"/><path fill="#c5e3f2" d="M 26.285156 3.296875 C 32.519531 1.246094 39.074219 0.996094 45.257812 2.363281 C 51.363281 3.714844 57.105469 6.644531 61.824219 10.976562 L 64.300781 9.199219 L 65.222656 18.410156 L 61.003906 16.507812 L 56.78125 14.605469 L 59.28125 12.804688 C 55.058594 9.078125 49.984375 6.546875 44.597656 5.355469 C 38.949219 4.109375 32.957031 4.339844 27.246094 6.21875 Z M 26.285156 3.296875 " fill-opacity="1" fill-rule="nonzero"/><path fill="#c5e3f2" d="M 42.058594 17.53125 C 44.332031 18.054688 46.464844 18.957031 48.378906 20.175781 L 51.902344 16.652344 L 58.347656 23.097656 L 54.785156 26.660156 C 55.964844 28.566406 56.839844 30.683594 57.335938 32.941406 L 62.425781 32.941406 L 62.425781 42.058594 L 57.257812 42.058594 C 56.730469 44.269531 55.839844 46.34375 54.652344 48.207031 L 58.347656 51.902344 L 51.902344 58.347656 L 48.167969 54.613281 C 46.308594 55.765625 44.25 56.625 42.058594 57.125 L 42.058594 62.425781 L 32.941406 62.425781 L 32.941406 57.125 C 30.746094 56.625 28.6875 55.765625 26.828125 54.613281 L 23.097656 58.347656 L 16.652344 51.902344 L 20.34375 48.207031 C 19.160156 46.34375 18.269531 44.269531 17.742188 42.058594 L 12.570312 42.058594 L 12.570312 32.941406 L 17.664062 32.941406 C 18.160156 30.683594 19.035156 28.566406 20.214844 26.660156 L 16.652344 23.097656 L 23.097656 16.652344 L 26.621094 20.175781 C 28.535156 18.957031 30.664062 18.054688 32.941406 17.53125 L 32.941406 12.570312 L 42.058594 12.570312 Z M 37.5 22.246094 C 45.921875 22.246094 52.753906 29.074219 52.753906 37.5 C 52.753906 45.925781 45.921875 52.753906 37.5 52.753906 C 29.074219 52.753906 22.246094 45.925781 22.246094 37.5 C 22.246094 29.074219 29.074219 22.246094 37.5 22.246094 Z M 37.5 22.246094 " fill-opacity="1" fill-rule="evenodd"/><path fill="#c5e3f2" d="M 44.527344 37.5 L 37.5 41.554688 L 30.472656 45.613281 L 30.472656 29.386719 L 37.5 33.441406 Z M 44.527344 37.5 " fill-opacity="1" fill-rule="evenodd"/><path fill="#c5e3f2" d="M 71.699219 26.285156 C 73.75 32.519531 74 39.074219 72.632812 45.257812 C 71.285156 51.363281 68.355469 57.105469 64.019531 61.824219 L 65.800781 64.300781 L 61.195312 64.761719 L 56.585938 65.222656 L 58.492188 61.003906 L 60.394531 56.78125 L 62.191406 59.28125 C 65.917969 55.058594 68.449219 49.984375 69.640625 44.597656 C 70.890625 38.949219 70.660156 32.957031 68.78125 27.246094 Z M 71.699219 26.285156 " fill-opacity="1" fill-rule="nonzero"/><path fill="#c5e3f2" d="M 48.714844 71.699219 C 42.480469 73.75 35.925781 74 29.738281 72.632812 C 23.636719 71.285156 17.894531 68.355469 13.171875 64.019531 L 10.695312 65.800781 L 10.234375 61.195312 L 9.773438 56.585938 L 13.996094 58.492188 L 18.214844 60.394531 L 15.714844 62.191406 C 19.941406 65.917969 25.015625 68.449219 30.402344 69.640625 C 36.046875 70.890625 42.042969 70.660156 47.753906 68.78125 Z M 48.714844 71.699219 " fill-opacity="1" fill-rule="nonzero"/><path fill="#c5e3f2" d="M 3.296875 48.714844 C 1.246094 42.480469 0.996094 35.925781 2.363281 29.738281 C 3.714844 23.636719 6.644531 17.894531 10.976562 13.171875 L 9.199219 10.695312 L 18.410156 9.773438 L 16.507812 13.996094 L 14.605469 18.214844 L 12.804688 15.714844 C 9.078125 19.941406 6.546875 25.015625 5.355469 30.402344 C 4.109375 36.046875 4.339844 42.042969 6.21875 47.753906 Z M 3.296875 48.714844 " fill-opacity="1" fill-rule="nonzero"/><path fill="#190145" d="M 25.285156 2.296875 C 31.519531 0.246094 38.074219 -0.00390625 44.257812 1.363281 C 50.363281 2.714844 56.105469 5.644531 60.824219 9.976562 L 63.300781 8.199219 L 63.761719 12.804688 L 64.226562 17.414062 L 60.003906 15.507812 L 55.785156 13.605469 L 58.28125 11.808594 C 54.058594 8.078125 48.984375 5.546875 43.597656 4.355469 C 37.949219 3.109375 31.957031 3.339844 26.246094 5.21875 Z M 25.285156 2.296875 " fill-opacity="1" fill-rule="nonzero"/><path fill="#190145" d="M 41.058594 16.53125 C 43.335938 17.054688 45.464844 17.957031 47.378906 19.175781 L 50.902344 15.652344 L 57.347656 22.097656 L 53.785156 25.660156 C 54.964844 27.566406 55.839844 29.683594 56.335938 31.941406 L 61.425781 31.941406 L 61.425781 41.058594 L 56.257812 41.058594 C 55.730469 43.269531 54.839844 45.34375 53.652344 47.207031 L 57.347656 50.902344 L 50.902344 57.347656 L 47.167969 53.613281 C 45.308594 54.765625 43.25 55.625 41.058594 56.125 L 41.058594 61.425781 L 31.941406 61.425781 L 31.941406 56.125 C 29.746094 55.625 27.691406 54.765625 25.832031 53.613281 L 22.097656 57.347656 L 15.652344 50.902344 L 19.34375 47.207031 C 18.160156 45.34375 17.269531 43.269531 16.742188 41.058594 L 11.574219 41.058594 L 11.574219 31.941406 L 16.664062 31.941406 C 17.160156 29.683594 18.035156 27.566406 19.214844 25.660156 L 15.652344 22.097656 L 22.097656 15.652344 L 25.621094 19.175781 C 27.535156 17.957031 29.664062 17.054688 31.941406 16.53125 L 31.941406 11.574219 L 41.058594 11.574219 Z M 36.5 21.246094 C 44.925781 21.246094 51.753906 28.074219 51.753906 36.5 C 51.753906 44.925781 44.925781 51.753906 36.5 51.753906 C 28.074219 51.753906 21.246094 44.925781 21.246094 36.5 C 21.246094 28.074219 28.074219 21.246094 36.5 21.246094 Z M 36.5 21.246094 " fill-opacity="1" fill-rule="evenodd"/><path fill="#190145" d="M 43.527344 36.5 L 36.5 40.554688 L 29.472656 44.613281 L 29.472656 28.386719 L 36.5 32.441406 Z M 43.527344 36.5 " fill-opacity="1" fill-rule="evenodd"/><path fill="#190145" d="M 70.699219 25.285156 C 72.753906 31.519531 73.003906 38.074219 71.632812 44.257812 C 70.285156 50.363281 67.355469 56.105469 63.019531 60.824219 L 64.800781 63.300781 L 60.195312 63.761719 L 55.585938 64.226562 L 57.492188 60.003906 L 59.394531 55.785156 L 61.191406 58.28125 C 64.917969 54.058594 67.453125 48.984375 68.640625 43.597656 C 69.890625 37.949219 69.660156 31.957031 67.78125 26.246094 Z M 70.699219 25.285156 " fill-opacity="1" fill-rule="nonzero"/><path fill="#190145" d="M 47.714844 70.699219 C 41.480469 72.753906 34.925781 73.003906 28.742188 71.632812 C 22.636719 70.285156 16.894531 67.355469 12.171875 63.019531 L 9.695312 64.800781 L 9.234375 60.195312 L 8.773438 55.585938 L 12.996094 57.492188 L 17.214844 59.394531 L 14.714844 61.191406 C 18.941406 64.917969 24.015625 67.453125 29.402344 68.640625 C 35.050781 69.890625 41.042969 69.660156 46.753906 67.78125 Z M 47.714844 70.699219 " fill-opacity="1" fill-rule="nonzero"/><path fill="#190145" d="M 2.296875 47.714844 C 0.246094 41.480469 -0.00390625 34.925781 1.363281 28.742188 C 2.714844 22.636719 5.644531 16.894531 9.976562 12.171875 L 8.199219 9.695312 L 12.804688 9.234375 L 17.414062 8.773438 L 15.507812 12.996094 L 13.605469 17.214844 L 11.808594 14.714844 C 8.078125 18.941406 5.546875 24.015625 4.355469 29.402344 C 3.109375 35.050781 3.339844 41.042969 5.21875 46.753906 Z M 2.296875 47.714844 " fill-opacity="1" fill-rule="nonzero"/></svg>