<svg xmlns="http://www.w3.org/2000/svg" xmlns:xlink="http://www.w3.org/1999/xlink" width="512" zoomAndPan="magnify" viewBox="0 0 384 383.999986" height="512" preserveAspectRatio="xMidYMid meet" version="1.0"><defs><filter x="0%" y="0%" width="100%" height="100%" id="9d3efb986e"><feColorMatrix values="0 0 0 0 1 0 0 0 0 1 0 0 0 0 1 0 0 0 1 0" color-interpolation-filters="sRGB"/></filter><mask id="f827dab5d1"><g filter="url(#9d3efb986e)"><rect x="-38.4" width="460.8" fill="#000000" y="-38.399999" height="460.799983" fill-opacity="0.698"/></g></mask><clipPath id="6195d67c7b"><path d="M 0.199219 0.121094 L 226.519531 0.121094 L 226.519531 226.199219 L 0.199219 226.199219 Z M 0.199219 0.121094 " clip-rule="nonzero"/></clipPath><clipPath id="9d83caca24"><rect x="0" width="227" y="0" height="227"/></clipPath><mask id="37dd3b67a0"><g filter="url(#9d3efb986e)"><rect x="-38.4" width="460.8" fill="#000000" y="-38.399999" height="460.799983" fill-opacity="0.698"/></g></mask><clipPath id="59b8c16f58"><path d="M 0.238281 0.800781 L 226.320312 0.800781 L 226.320312 226.878906 L 0.238281 226.878906 Z M 0.238281 0.800781 " clip-rule="nonzero"/></clipPath><clipPath id="a0c500fee2"><rect x="0" width="227" y="0" height="227"/></clipPath><mask id="b91c43dd71"><g filter="url(#9d3efb986e)"><rect x="-38.4" width="460.8" fill="#000000" y="-38.399999" height="460.799983" fill-opacity="0.698"/></g></mask><clipPath id="7446d71e5f"><path d="M 0.398438 0.800781 L 226 0.800781 L 226 226.878906 L 0.398438 226.878906 Z M 0.398438 0.800781 " clip-rule="nonzero"/></clipPath><clipPath id="666461ebaa"><rect x="0" width="226" y="0" height="227"/></clipPath><clipPath id="21da379952"><path d="M 47 115 L 338 115 L 338 374.25 L 47 374.25 Z M 47 115 " clip-rule="nonzero"/></clipPath><clipPath id="20770df983"><path d="M 0 21.75 L 259 21.75 L 259 281 L 0 281 Z M 0 21.75 " clip-rule="nonzero"/></clipPath><clipPath id="702882756b"><path d="M 126 21.75 L 384 21.75 L 384 281 L 126 281 Z M 126 21.75 " clip-rule="nonzero"/></clipPath><clipPath id="d7515d2f50"><path d="M 157 123 L 189.617188 123 L 189.617188 151 L 157 151 Z M 157 123 " clip-rule="nonzero"/></clipPath><clipPath id="0dda755391"><path d="M 97 183 L 125 183 L 125 215.5 L 97 215.5 Z M 97 183 " clip-rule="nonzero"/></clipPath><clipPath id="78643e631b"><path d="M 32.117188 123 L 65 123 L 65 151 L 32.117188 151 Z M 32.117188 123 " clip-rule="nonzero"/></clipPath><clipPath id="da4076efa8"><path d="M 120 206 L 266 206 L 266 348 L 120 348 Z M 120 206 " clip-rule="nonzero"/></clipPath><clipPath id="5814453a09"><path d="M 121.894531 204.449219 L 268.101562 208.054688 L 264.621094 349.011719 L 118.417969 345.40625 Z M 121.894531 204.449219 " clip-rule="nonzero"/></clipPath><clipPath id="0575405f33"><path d="M 121.894531 204.449219 L 268.101562 208.054688 L 264.621094 349.011719 L 118.417969 345.40625 Z M 121.894531 204.449219 " clip-rule="nonzero"/></clipPath><clipPath id="84cfacecc5"><path d="M 139 224 L 247 224 L 247 329 L 139 329 Z M 139 224 " clip-rule="nonzero"/></clipPath><clipPath id="0f8fb0176e"><path d="M 121.894531 204.449219 L 268.101562 208.054688 L 264.621094 349.011719 L 118.417969 345.40625 Z M 121.894531 204.449219 " clip-rule="nonzero"/></clipPath><clipPath id="f00bb49f24"><path d="M 121.894531 204.449219 L 268.101562 208.054688 L 264.621094 349.011719 L 118.417969 345.40625 Z M 121.894531 204.449219 " clip-rule="nonzero"/></clipPath><clipPath id="f8cc3a70be"><path d="M 138 223 L 248 223 L 248 331 L 138 331 Z M 138 223 " clip-rule="nonzero"/></clipPath><clipPath id="3229db6569"><path d="M 121.894531 204.449219 L 268.101562 208.054688 L 264.621094 349.011719 L 118.417969 345.40625 Z M 121.894531 204.449219 " clip-rule="nonzero"/></clipPath><clipPath id="ad46f9de18"><path d="M 121.894531 204.449219 L 268.101562 208.054688 L 264.621094 349.011719 L 118.417969 345.40625 Z M 121.894531 204.449219 " clip-rule="nonzero"/></clipPath><clipPath id="b65d228ff3"><path d="M 207.210938 76.429688 L 339 76.429688 L 339 175 L 207.210938 175 Z M 207.210938 76.429688 " clip-rule="nonzero"/></clipPath><clipPath id="c5a4a19f04"><path d="M 281 102 L 360 102 L 360 205.429688 L 281 205.429688 Z M 281 102 " clip-rule="nonzero"/></clipPath><clipPath id="43776cd62a"><path d="M 260 150 L 283 150 L 283 205.429688 L 260 205.429688 Z M 260 150 " clip-rule="nonzero"/></clipPath><clipPath id="42470e7bc3"><path d="M 279 123 L 360.210938 123 L 360.210938 205.429688 L 279 205.429688 Z M 279 123 " clip-rule="nonzero"/></clipPath><mask id="17191d1d8a"><g filter="url(#9d3efb986e)"><rect x="-38.4" width="460.8" fill="#000000" y="-38.399999" height="460.799983" fill-opacity="0.2"/></g></mask><clipPath id="b6ea179c61"><path d="M 3 1 L 81 1 L 81 82.429688 L 3 82.429688 Z M 3 1 " clip-rule="nonzero"/></clipPath><clipPath id="6ed25b44e9"><rect x="0" width="82" y="0" height="83"/></clipPath></defs><g mask="url(#f827dab5d1)"><g transform="matrix(1, 0, 0, 1, 79, 147)"><g clip-path="url(#9d83caca24)"><g clip-path="url(#6195d67c7b)"><path fill="#d9d9d9" d="M 226.3125 113.121094 C 226.3125 114.96875 226.269531 116.816406 226.175781 118.664062 C 226.085938 120.511719 225.949219 122.351562 225.769531 124.191406 C 225.589844 126.03125 225.363281 127.867188 225.089844 129.695312 C 224.820312 131.523438 224.503906 133.34375 224.144531 135.15625 C 223.78125 136.96875 223.378906 138.773438 222.929688 140.566406 C 222.480469 142.359375 221.988281 144.140625 221.449219 145.910156 C 220.914062 147.679688 220.335938 149.433594 219.710938 151.171875 C 219.089844 152.914062 218.425781 154.636719 217.714844 156.347656 C 217.007812 158.054688 216.261719 159.742188 215.46875 161.414062 C 214.679688 163.085938 213.847656 164.734375 212.976562 166.367188 C 212.105469 167.996094 211.195312 169.605469 210.246094 171.191406 C 209.296875 172.777344 208.308594 174.335938 207.28125 175.875 C 206.253906 177.410156 205.1875 178.921875 204.089844 180.40625 C 202.988281 181.890625 201.851562 183.347656 200.675781 184.777344 C 199.503906 186.207031 198.296875 187.605469 197.058594 188.976562 C 195.816406 190.34375 194.542969 191.683594 193.234375 192.992188 C 191.925781 194.296875 190.589844 195.570312 189.21875 196.8125 C 187.851562 198.054688 186.453125 199.261719 185.023438 200.433594 C 183.59375 201.605469 182.136719 202.742188 180.652344 203.84375 C 179.167969 204.945312 177.65625 206.011719 176.121094 207.039062 C 174.582031 208.0625 173.023438 209.054688 171.4375 210.003906 C 169.851562 210.953125 168.242188 211.863281 166.613281 212.734375 C 164.984375 213.605469 163.332031 214.4375 161.664062 215.230469 C 159.992188 216.019531 158.300781 216.769531 156.59375 217.476562 C 154.886719 218.183594 153.164062 218.847656 151.421875 219.46875 C 149.683594 220.09375 147.929688 220.671875 146.160156 221.210938 C 144.390625 221.746094 142.609375 222.238281 140.816406 222.6875 C 139.023438 223.136719 137.222656 223.542969 135.40625 223.902344 C 133.59375 224.261719 131.773438 224.578125 129.945312 224.851562 C 128.117188 225.121094 126.285156 225.347656 124.445312 225.527344 C 122.605469 225.710938 120.761719 225.847656 118.917969 225.9375 C 117.070312 226.027344 115.222656 226.074219 113.375 226.074219 C 111.527344 226.074219 109.679688 226.027344 107.832031 225.9375 C 105.988281 225.847656 104.144531 225.710938 102.304688 225.527344 C 100.464844 225.347656 98.632812 225.121094 96.804688 224.851562 C 94.976562 224.578125 93.15625 224.261719 91.339844 223.902344 C 89.527344 223.542969 87.726562 223.136719 85.933594 222.6875 C 84.140625 222.238281 82.359375 221.746094 80.589844 221.210938 C 78.820312 220.671875 77.066406 220.09375 75.328125 219.46875 C 73.585938 218.847656 71.863281 218.183594 70.15625 217.476562 C 68.449219 216.769531 66.757812 216.019531 65.085938 215.230469 C 63.417969 214.4375 61.765625 213.605469 60.136719 212.734375 C 58.507812 211.863281 56.898438 210.953125 55.3125 210.003906 C 53.726562 209.054688 52.167969 208.0625 50.628906 207.039062 C 49.09375 206.011719 47.582031 204.945312 46.097656 203.84375 C 44.613281 202.742188 43.15625 201.605469 41.726562 200.433594 C 40.296875 199.261719 38.898438 198.054688 37.53125 196.8125 C 36.160156 195.570312 34.824219 194.296875 33.515625 192.992188 C 32.207031 191.683594 30.933594 190.34375 29.691406 188.976562 C 28.453125 187.605469 27.246094 186.207031 26.070312 184.777344 C 24.898438 183.347656 23.761719 181.890625 22.660156 180.40625 C 21.5625 178.921875 20.496094 177.410156 19.46875 175.875 C 18.441406 174.335938 17.453125 172.777344 16.503906 171.191406 C 15.554688 169.605469 14.644531 167.996094 13.773438 166.367188 C 12.902344 164.734375 12.070312 163.085938 11.28125 161.414062 C 10.488281 159.742188 9.742188 158.054688 9.035156 156.347656 C 8.324219 154.636719 7.660156 152.914062 7.039062 151.171875 C 6.414062 149.433594 5.835938 147.679688 5.300781 145.910156 C 4.761719 144.140625 4.269531 142.359375 3.820312 140.566406 C 3.371094 138.773438 2.96875 136.96875 2.605469 135.15625 C 2.246094 133.34375 1.929688 131.523438 1.660156 129.695312 C 1.386719 127.867188 1.160156 126.03125 0.980469 124.191406 C 0.800781 122.351562 0.664062 120.511719 0.574219 118.664062 C 0.480469 116.816406 0.4375 114.96875 0.4375 113.121094 C 0.4375 111.273438 0.480469 109.425781 0.574219 107.578125 C 0.664062 105.734375 0.800781 103.890625 0.980469 102.050781 C 1.160156 100.210938 1.386719 98.375 1.660156 96.546875 C 1.929688 94.71875 2.246094 92.898438 2.605469 91.085938 C 2.96875 89.273438 3.371094 87.46875 3.820312 85.675781 C 4.269531 83.882812 4.761719 82.101562 5.300781 80.332031 C 5.835938 78.5625 6.414062 76.808594 7.039062 75.070312 C 7.660156 73.328125 8.324219 71.605469 9.035156 69.898438 C 9.742188 68.1875 10.488281 66.5 11.28125 64.828125 C 12.070312 63.15625 12.902344 61.507812 13.773438 59.875 C 14.644531 58.246094 15.554688 56.636719 16.503906 55.054688 C 17.453125 53.46875 18.441406 51.90625 19.46875 50.367188 C 20.496094 48.832031 21.5625 47.320312 22.660156 45.835938 C 23.761719 44.351562 24.898438 42.894531 26.070312 41.464844 C 27.246094 40.035156 28.453125 38.636719 29.691406 37.269531 C 30.933594 35.898438 32.207031 34.558594 33.515625 33.253906 C 34.824219 31.945312 36.160156 30.671875 37.53125 29.429688 C 38.898438 28.1875 40.296875 26.980469 41.726562 25.808594 C 43.15625 24.636719 44.613281 23.5 46.097656 22.398438 C 47.582031 21.296875 49.09375 20.234375 50.628906 19.207031 C 52.167969 18.179688 53.726562 17.191406 55.3125 16.238281 C 56.898438 15.289062 58.507812 14.378906 60.136719 13.507812 C 61.765625 12.636719 63.417969 11.804688 65.085938 11.015625 C 66.757812 10.222656 68.449219 9.476562 70.15625 8.769531 C 71.863281 8.058594 73.585938 7.394531 75.328125 6.773438 C 77.066406 6.148438 78.820312 5.570312 80.589844 5.035156 C 82.359375 4.496094 84.140625 4.003906 85.933594 3.554688 C 87.726562 3.105469 89.527344 2.699219 91.339844 2.339844 C 93.15625 1.980469 94.976562 1.664062 96.804688 1.390625 C 98.632812 1.121094 100.464844 0.894531 102.304688 0.714844 C 104.144531 0.53125 105.988281 0.398438 107.832031 0.304688 C 109.679688 0.214844 111.527344 0.167969 113.375 0.167969 C 115.222656 0.167969 117.070312 0.214844 118.917969 0.304688 C 120.761719 0.398438 122.605469 0.53125 124.445312 0.714844 C 126.285156 0.894531 128.117188 1.121094 129.945312 1.390625 C 131.773438 1.664062 133.59375 1.980469 135.40625 2.339844 C 137.222656 2.699219 139.023438 3.105469 140.816406 3.554688 C 142.609375 4.003906 144.390625 4.496094 146.160156 5.035156 C 147.929688 5.570312 149.683594 6.148438 151.421875 6.773438 C 153.164062 7.394531 154.886719 8.058594 156.59375 8.769531 C 158.300781 9.476562 159.992188 10.222656 161.664062 11.015625 C 163.332031 11.804688 164.984375 12.636719 166.613281 13.507812 C 168.242188 14.378906 169.851562 15.289062 171.4375 16.238281 C 173.023438 17.191406 174.582031 18.179688 176.121094 19.207031 C 177.65625 20.234375 179.167969 21.296875 180.652344 22.398438 C 182.136719 23.5 183.59375 24.636719 185.023438 25.808594 C 186.453125 26.980469 187.851562 28.1875 189.21875 29.429688 C 190.589844 30.671875 191.925781 31.945312 193.234375 33.253906 C 194.542969 34.558594 195.816406 35.898438 197.058594 37.269531 C 198.296875 38.636719 199.503906 40.035156 200.675781 41.464844 C 201.851562 42.894531 202.988281 44.351562 204.089844 45.835938 C 205.1875 47.320312 206.253906 48.832031 207.28125 50.367188 C 208.308594 51.90625 209.296875 53.46875 210.246094 55.054688 C 211.195312 56.636719 212.105469 58.246094 212.976562 59.875 C 213.847656 61.507812 214.679688 63.15625 215.46875 64.828125 C 216.261719 66.5 217.007812 68.1875 217.714844 69.898438 C 218.425781 71.605469 219.089844 73.328125 219.710938 75.070312 C 220.335938 76.808594 220.914062 78.5625 221.449219 80.332031 C 221.988281 82.101562 222.480469 83.882812 222.929688 85.675781 C 223.378906 87.46875 223.78125 89.273438 224.144531 91.085938 C 224.503906 92.898438 224.820312 94.71875 225.089844 96.546875 C 225.363281 98.375 225.589844 100.210938 225.769531 102.050781 C 225.949219 103.890625 226.085938 105.734375 226.175781 107.578125 C 226.269531 109.425781 226.3125 111.273438 226.3125 113.121094 Z M 226.3125 113.121094 " fill-opacity="1" fill-rule="nonzero"/></g></g></g></g><g mask="url(#37dd3b67a0)"><g transform="matrix(1, 0, 0, 1, 0, 22)"><g clip-path="url(#a0c500fee2)"><g clip-path="url(#59b8c16f58)"><path fill="#d9d9d9" d="M 226.257812 113.875 C 226.257812 115.722656 226.210938 117.570312 226.121094 119.417969 C 226.03125 121.261719 225.894531 123.105469 225.710938 124.945312 C 225.53125 126.785156 225.304688 128.621094 225.035156 130.449219 C 224.761719 132.277344 224.445312 134.097656 224.085938 135.910156 C 223.726562 137.722656 223.320312 139.527344 222.871094 141.320312 C 222.421875 143.113281 221.929688 144.894531 221.394531 146.664062 C 220.855469 148.433594 220.277344 150.1875 219.65625 151.925781 C 219.03125 153.667969 218.367188 155.390625 217.660156 157.097656 C 216.953125 158.808594 216.203125 160.496094 215.414062 162.167969 C 214.621094 163.839844 213.792969 165.488281 212.921875 167.121094 C 212.050781 168.75 211.140625 170.359375 210.1875 171.945312 C 209.238281 173.527344 208.25 175.089844 207.222656 176.628906 C 206.195312 178.164062 205.132812 179.675781 204.03125 181.160156 C 202.929688 182.644531 201.792969 184.101562 200.621094 185.53125 C 199.449219 186.960938 198.242188 188.359375 197 189.726562 C 195.757812 191.097656 194.484375 192.4375 193.175781 193.742188 C 191.871094 195.050781 190.53125 196.324219 189.164062 197.566406 C 187.792969 198.808594 186.394531 200.015625 184.964844 201.1875 C 183.535156 202.359375 182.078125 203.496094 180.59375 204.597656 C 179.109375 205.699219 177.601562 206.761719 176.0625 207.789062 C 174.527344 208.816406 172.964844 209.804688 171.378906 210.757812 C 169.792969 211.707031 168.1875 212.617188 166.558594 213.488281 C 164.925781 214.359375 163.277344 215.191406 161.605469 215.980469 C 159.933594 216.773438 158.246094 217.519531 156.539062 218.226562 C 154.828125 218.9375 153.105469 219.601562 151.367188 220.222656 C 149.625 220.847656 147.871094 221.425781 146.101562 221.960938 C 144.332031 222.5 142.554688 222.992188 140.761719 223.441406 C 138.96875 223.890625 137.164062 224.296875 135.351562 224.65625 C 133.539062 225.015625 131.71875 225.332031 129.890625 225.605469 C 128.0625 225.875 126.226562 226.101562 124.386719 226.28125 C 122.546875 226.464844 120.707031 226.597656 118.859375 226.691406 C 117.011719 226.78125 115.167969 226.828125 113.316406 226.828125 C 111.46875 226.828125 109.621094 226.78125 107.777344 226.691406 C 105.929688 226.597656 104.085938 226.464844 102.25 226.28125 C 100.410156 226.101562 98.574219 225.875 96.746094 225.605469 C 94.917969 225.332031 93.097656 225.015625 91.285156 224.65625 C 89.472656 224.296875 87.667969 223.890625 85.875 223.441406 C 84.082031 222.992188 82.300781 222.5 80.535156 221.960938 C 78.765625 221.425781 77.011719 220.847656 75.269531 220.222656 C 73.53125 219.601562 71.804688 218.9375 70.097656 218.226562 C 68.390625 217.519531 66.703125 216.773438 65.03125 215.980469 C 63.359375 215.191406 61.710938 214.359375 60.078125 213.488281 C 58.449219 212.617188 56.839844 211.707031 55.257812 210.757812 C 53.671875 209.804688 52.109375 208.816406 50.574219 207.789062 C 49.035156 206.761719 47.523438 205.699219 46.039062 204.597656 C 44.554688 203.496094 43.097656 202.359375 41.671875 201.1875 C 40.242188 200.015625 38.84375 198.808594 37.472656 197.566406 C 36.105469 196.324219 34.765625 195.050781 33.457031 193.742188 C 32.152344 192.4375 30.878906 191.097656 29.636719 189.726562 C 28.394531 188.359375 27.1875 186.960938 26.015625 185.53125 C 24.84375 184.101562 23.707031 182.644531 22.605469 181.160156 C 21.503906 179.675781 20.441406 178.164062 19.414062 176.628906 C 18.386719 175.089844 17.398438 173.527344 16.449219 171.945312 C 15.496094 170.359375 14.585938 168.75 13.714844 167.121094 C 12.84375 165.488281 12.011719 163.839844 11.222656 162.167969 C 10.433594 160.496094 9.683594 158.808594 8.976562 157.097656 C 8.269531 155.390625 7.605469 153.667969 6.980469 151.925781 C 6.359375 150.1875 5.777344 148.433594 5.242188 146.664062 C 4.707031 144.894531 4.214844 143.113281 3.765625 141.320312 C 3.316406 139.527344 2.910156 137.722656 2.550781 135.910156 C 2.1875 134.097656 1.871094 132.277344 1.601562 130.449219 C 1.332031 128.621094 1.105469 126.785156 0.921875 124.945312 C 0.742188 123.105469 0.605469 121.261719 0.515625 119.417969 C 0.425781 117.570312 0.378906 115.722656 0.378906 113.875 C 0.378906 112.027344 0.425781 110.179688 0.515625 108.332031 C 0.605469 106.484375 0.742188 104.644531 0.921875 102.804688 C 1.105469 100.964844 1.332031 99.128906 1.601562 97.300781 C 1.871094 95.472656 2.1875 93.652344 2.550781 91.839844 C 2.910156 90.027344 3.316406 88.222656 3.765625 86.429688 C 4.214844 84.636719 4.707031 82.855469 5.242188 81.085938 C 5.777344 79.316406 6.359375 77.5625 6.980469 75.824219 C 7.605469 74.082031 8.269531 72.359375 8.976562 70.648438 C 9.683594 68.941406 10.433594 67.253906 11.222656 65.582031 C 12.011719 63.910156 12.84375 62.261719 13.714844 60.628906 C 14.585938 59 15.496094 57.390625 16.449219 55.804688 C 17.398438 54.21875 18.386719 52.660156 19.414062 51.121094 C 20.441406 49.585938 21.503906 48.074219 22.605469 46.589844 C 23.707031 45.105469 24.84375 43.648438 26.015625 42.21875 C 27.1875 40.789062 28.394531 39.390625 29.636719 38.019531 C 30.878906 36.652344 32.152344 35.3125 33.457031 34.003906 C 34.765625 32.699219 36.105469 31.425781 37.472656 30.183594 C 38.84375 28.941406 40.242188 27.734375 41.671875 26.5625 C 43.097656 25.390625 44.554688 24.253906 46.039062 23.152344 C 47.523438 22.050781 49.035156 20.984375 50.574219 19.957031 C 52.109375 18.933594 53.671875 17.941406 55.257812 16.992188 C 56.839844 16.042969 58.449219 15.132812 60.078125 14.261719 C 61.710938 13.390625 63.359375 12.558594 65.03125 11.769531 C 66.703125 10.976562 68.390625 10.226562 70.097656 9.519531 C 71.804688 8.8125 73.53125 8.148438 75.269531 7.527344 C 77.011719 6.902344 78.765625 6.324219 80.535156 5.785156 C 82.300781 5.25 84.082031 4.757812 85.875 4.308594 C 87.667969 3.859375 89.472656 3.453125 91.285156 3.09375 C 93.097656 2.734375 94.917969 2.417969 96.746094 2.144531 C 98.574219 1.875 100.410156 1.648438 102.25 1.46875 C 104.085938 1.285156 105.929688 1.148438 107.777344 1.058594 C 109.621094 0.96875 111.46875 0.921875 113.316406 0.921875 C 115.167969 0.921875 117.011719 0.96875 118.859375 1.058594 C 120.707031 1.148438 122.546875 1.285156 124.386719 1.46875 C 126.226562 1.648438 128.0625 1.875 129.890625 2.144531 C 131.71875 2.417969 133.539062 2.734375 135.351562 3.09375 C 137.164062 3.453125 138.96875 3.859375 140.761719 4.308594 C 142.550781 4.757812 144.332031 5.25 146.101562 5.785156 C 147.871094 6.324219 149.625 6.902344 151.367188 7.527344 C 153.105469 8.148438 154.828125 8.8125 156.539062 9.519531 C 158.246094 10.226562 159.933594 10.976562 161.605469 11.769531 C 163.277344 12.558594 164.925781 13.390625 166.558594 14.261719 C 168.1875 15.132812 169.792969 16.042969 171.378906 16.992188 C 172.964844 17.941406 174.527344 18.933594 176.0625 19.957031 C 177.601562 20.984375 179.109375 22.050781 180.59375 23.152344 C 182.078125 24.253906 183.535156 25.390625 184.964844 26.5625 C 186.394531 27.734375 187.792969 28.941406 189.164062 30.183594 C 190.53125 31.425781 191.871094 32.699219 193.175781 34.003906 C 194.484375 35.3125 195.757812 36.652344 197 38.019531 C 198.242188 39.390625 199.449219 40.789062 200.621094 42.21875 C 201.792969 43.648438 202.929688 45.105469 204.03125 46.589844 C 205.132812 48.074219 206.195312 49.585938 207.222656 51.121094 C 208.25 52.660156 209.238281 54.21875 210.1875 55.804688 C 211.140625 57.390625 212.050781 59 212.921875 60.628906 C 213.792969 62.261719 214.621094 63.910156 215.414062 65.582031 C 216.203125 67.253906 216.953125 68.941406 217.660156 70.648438 C 218.367188 72.359375 219.03125 74.082031 219.65625 75.824219 C 220.277344 77.5625 220.855469 79.316406 221.394531 81.085938 C 221.929688 82.855469 222.421875 84.636719 222.871094 86.429688 C 223.320312 88.222656 223.726562 90.027344 224.085938 91.839844 C 224.445312 93.652344 224.761719 95.472656 225.035156 97.300781 C 225.304688 99.128906 225.53125 100.964844 225.710938 102.804688 C 225.894531 104.644531 226.03125 106.484375 226.121094 108.332031 C 226.210938 110.179688 226.257812 112.027344 226.257812 113.875 Z M 226.257812 113.875 " fill-opacity="1" fill-rule="nonzero"/></g></g></g></g><g mask="url(#b91c43dd71)"><g transform="matrix(1, 0, 0, 1, 158, 22)"><g clip-path="url(#666461ebaa)"><g clip-path="url(#7446d71e5f)"><path fill="#d9d9d9" d="M 226.371094 113.875 C 226.371094 115.722656 226.324219 117.570312 226.234375 119.417969 C 226.144531 121.261719 226.007812 123.105469 225.828125 124.945312 C 225.644531 126.785156 225.417969 128.621094 225.148438 130.449219 C 224.878906 132.277344 224.5625 134.097656 224.199219 135.910156 C 223.839844 137.722656 223.433594 139.527344 222.984375 141.320312 C 222.535156 143.113281 222.042969 144.894531 221.507812 146.664062 C 220.972656 148.433594 220.390625 150.1875 219.769531 151.925781 C 219.144531 153.667969 218.480469 155.390625 217.773438 157.097656 C 217.066406 158.808594 216.316406 160.496094 215.527344 162.167969 C 214.738281 163.839844 213.90625 165.488281 213.035156 167.121094 C 212.164062 168.75 211.253906 170.359375 210.300781 171.945312 C 209.351562 173.527344 208.363281 175.089844 207.335938 176.628906 C 206.308594 178.164062 205.246094 179.675781 204.144531 181.160156 C 203.042969 182.644531 201.90625 184.101562 200.734375 185.53125 C 199.5625 186.960938 198.355469 188.359375 197.113281 189.726562 C 195.871094 191.097656 194.597656 192.4375 193.292969 193.742188 C 191.984375 195.050781 190.644531 196.324219 189.277344 197.566406 C 187.90625 198.808594 186.507812 200.015625 185.078125 201.1875 C 183.652344 202.359375 182.195312 203.496094 180.710938 204.597656 C 179.226562 205.699219 177.714844 206.761719 176.175781 207.789062 C 174.640625 208.816406 173.078125 209.804688 171.492188 210.757812 C 169.910156 211.707031 168.300781 212.617188 166.671875 213.488281 C 165.039062 214.359375 163.390625 215.191406 161.71875 215.980469 C 160.046875 216.773438 158.359375 217.519531 156.652344 218.226562 C 154.945312 218.9375 153.21875 219.601562 151.480469 220.222656 C 149.738281 220.847656 147.984375 221.425781 146.214844 221.960938 C 144.449219 222.5 142.667969 222.992188 140.875 223.441406 C 139.082031 223.890625 137.277344 224.296875 135.464844 224.65625 C 133.652344 225.015625 131.832031 225.332031 130.003906 225.605469 C 128.175781 225.875 126.339844 226.101562 124.5 226.28125 C 122.664062 226.464844 120.820312 226.597656 118.972656 226.691406 C 117.128906 226.78125 115.28125 226.828125 113.433594 226.828125 C 111.582031 226.828125 109.738281 226.78125 107.890625 226.691406 C 106.042969 226.597656 104.203125 226.464844 102.363281 226.28125 C 100.523438 226.101562 98.6875 225.875 96.859375 225.605469 C 95.03125 225.332031 93.210938 225.015625 91.398438 224.65625 C 89.585938 224.296875 87.78125 223.890625 85.988281 223.441406 C 84.195312 222.992188 82.417969 222.5 80.648438 221.960938 C 78.878906 221.425781 77.125 220.847656 75.382812 220.222656 C 73.644531 219.601562 71.917969 218.9375 70.210938 218.226562 C 68.503906 217.519531 66.816406 216.773438 65.144531 215.980469 C 63.472656 215.191406 61.824219 214.359375 60.191406 213.488281 C 58.5625 212.617188 56.957031 211.707031 55.371094 210.757812 C 53.785156 209.804688 52.222656 208.816406 50.6875 207.789062 C 49.148438 206.761719 47.640625 205.699219 46.15625 204.597656 C 44.667969 203.496094 43.214844 202.359375 41.785156 201.1875 C 40.355469 200.015625 38.957031 198.808594 37.585938 197.566406 C 36.21875 196.324219 34.878906 195.050781 33.574219 193.742188 C 32.265625 192.4375 30.992188 191.097656 29.75 189.726562 C 28.507812 188.359375 27.300781 186.960938 26.128906 185.53125 C 24.957031 184.101562 23.820312 182.644531 22.71875 181.160156 C 21.617188 179.675781 20.554688 178.164062 19.527344 176.628906 C 18.5 175.089844 17.511719 173.527344 16.5625 171.945312 C 15.609375 170.359375 14.699219 168.75 13.828125 167.121094 C 12.957031 165.488281 12.125 163.839844 11.335938 162.167969 C 10.546875 160.496094 9.796875 158.808594 9.089844 157.097656 C 8.382812 155.390625 7.71875 153.667969 7.09375 151.925781 C 6.472656 150.1875 5.894531 148.433594 5.355469 146.664062 C 4.820312 144.894531 4.328125 143.113281 3.878906 141.320312 C 3.429688 139.527344 3.023438 137.722656 2.664062 135.910156 C 2.304688 134.097656 1.988281 132.277344 1.714844 130.449219 C 1.445312 128.621094 1.21875 126.785156 1.039062 124.945312 C 0.855469 123.105469 0.71875 121.261719 0.628906 119.417969 C 0.539062 117.570312 0.492188 115.722656 0.492188 113.875 C 0.492188 112.027344 0.539062 110.179688 0.628906 108.332031 C 0.71875 106.484375 0.855469 104.644531 1.039062 102.804688 C 1.21875 100.964844 1.445312 99.128906 1.714844 97.300781 C 1.988281 95.472656 2.304688 93.652344 2.664062 91.839844 C 3.023438 90.027344 3.429688 88.222656 3.878906 86.429688 C 4.328125 84.636719 4.820312 82.855469 5.355469 81.085938 C 5.894531 79.316406 6.472656 77.5625 7.09375 75.824219 C 7.71875 74.082031 8.382812 72.359375 9.089844 70.648438 C 9.796875 68.941406 10.546875 67.253906 11.335938 65.582031 C 12.125 63.910156 12.957031 62.261719 13.828125 60.628906 C 14.699219 59 15.609375 57.390625 16.5625 55.804688 C 17.511719 54.21875 18.5 52.660156 19.527344 51.121094 C 20.554688 49.585938 21.617188 48.074219 22.71875 46.589844 C 23.820312 45.105469 24.957031 43.648438 26.128906 42.21875 C 27.300781 40.789062 28.507812 39.390625 29.75 38.019531 C 30.992188 36.652344 32.265625 35.3125 33.574219 34.003906 C 34.878906 32.699219 36.21875 31.425781 37.585938 30.183594 C 38.957031 28.941406 40.355469 27.734375 41.785156 26.5625 C 43.214844 25.390625 44.667969 24.253906 46.15625 23.152344 C 47.640625 22.050781 49.148438 20.984375 50.6875 19.957031 C 52.222656 18.933594 53.785156 17.941406 55.371094 16.992188 C 56.957031 16.042969 58.5625 15.132812 60.191406 14.261719 C 61.824219 13.390625 63.472656 12.558594 65.144531 11.769531 C 66.816406 10.976562 68.503906 10.226562 70.210938 9.519531 C 71.917969 8.8125 73.644531 8.148438 75.382812 7.527344 C 77.125 6.902344 78.878906 6.324219 80.648438 5.785156 C 82.417969 5.25 84.195312 4.757812 85.988281 4.308594 C 87.78125 3.859375 89.585938 3.453125 91.398438 3.09375 C 93.210938 2.734375 95.03125 2.417969 96.859375 2.144531 C 98.6875 1.875 100.523438 1.648438 102.363281 1.46875 C 104.203125 1.285156 106.042969 1.148438 107.890625 1.058594 C 109.738281 0.96875 111.582031 0.921875 113.433594 0.921875 C 115.28125 0.921875 117.128906 0.96875 118.972656 1.058594 C 120.820312 1.148438 122.664062 1.285156 124.5 1.46875 C 126.339844 1.648438 128.175781 1.875 130.003906 2.144531 C 131.832031 2.417969 133.652344 2.734375 135.464844 3.09375 C 137.277344 3.453125 139.082031 3.859375 140.875 4.308594 C 142.667969 4.757812 144.449219 5.25 146.214844 5.785156 C 147.984375 6.324219 149.738281 6.902344 151.480469 7.527344 C 153.21875 8.148438 154.945312 8.8125 156.652344 9.519531 C 158.359375 10.226562 160.046875 10.976562 161.71875 11.769531 C 163.390625 12.558594 165.039062 13.390625 166.671875 14.261719 C 168.300781 15.132812 169.910156 16.042969 171.492188 16.992188 C 173.078125 17.941406 174.640625 18.933594 176.175781 19.957031 C 177.714844 20.984375 179.226562 22.050781 180.710938 23.152344 C 182.195312 24.253906 183.652344 25.390625 185.078125 26.5625 C 186.507812 27.734375 187.90625 28.941406 189.277344 30.183594 C 190.644531 31.425781 191.984375 32.699219 193.292969 34.003906 C 194.597656 35.3125 195.871094 36.652344 197.113281 38.019531 C 198.355469 39.390625 199.5625 40.789062 200.734375 42.21875 C 201.90625 43.648438 203.042969 45.105469 204.144531 46.589844 C 205.246094 48.074219 206.308594 49.585938 207.335938 51.121094 C 208.363281 52.660156 209.351562 54.21875 210.300781 55.804688 C 211.253906 57.390625 212.164062 59 213.035156 60.628906 C 213.90625 62.261719 214.738281 63.910156 215.527344 65.582031 C 216.316406 67.253906 217.066406 68.941406 217.773438 70.648438 C 218.480469 72.359375 219.144531 74.082031 219.769531 75.824219 C 220.390625 77.5625 220.972656 79.316406 221.507812 81.085938 C 222.042969 82.855469 222.535156 84.636719 222.984375 86.429688 C 223.433594 88.222656 223.839844 90.027344 224.199219 91.839844 C 224.5625 93.652344 224.878906 95.472656 225.148438 97.300781 C 225.417969 99.128906 225.644531 100.964844 225.828125 102.804688 C 226.007812 104.644531 226.144531 106.484375 226.234375 108.332031 C 226.324219 110.179688 226.371094 112.027344 226.371094 113.875 Z M 226.371094 113.875 " fill-opacity="1" fill-rule="nonzero"/></g></g></g></g><g clip-path="url(#21da379952)"><path stroke-linecap="butt" transform="matrix(1.129386, 0, 0, 1.129516, -89.971474, -84.381015)" fill="none" stroke-linejoin="miter" d="M 349.999045 304.999639 C 349.999045 306.635433 349.960999 308.271227 349.877989 309.907021 C 349.798438 311.542815 349.677383 313.171693 349.518281 314.80057 C 349.359179 316.429447 349.158572 318.054866 348.91646 319.673369 C 348.677807 321.291871 348.39765 322.903457 348.079446 324.508126 C 347.757783 326.112795 347.401533 327.710547 347.003778 329.297924 C 346.606023 330.885301 346.170222 332.462304 345.692916 334.028931 C 345.219069 335.595558 344.707176 337.148352 344.153778 338.687313 C 343.603838 340.229732 343.015853 341.754859 342.386363 343.269611 C 341.760331 344.780905 341.099712 346.274907 340.397588 347.755076 C 339.698923 349.235245 338.962212 350.694663 338.190913 352.140249 C 337.419615 353.582376 336.613729 355.007211 335.773255 356.411297 C 334.932782 357.815382 334.057721 359.195259 333.148073 360.557844 C 332.238425 361.916971 331.294189 363.255348 330.322284 364.569517 C 329.34692 365.883685 328.340427 367.173645 327.299347 368.439397 C 326.261725 369.705149 325.192975 370.943234 324.096555 372.157111 C 322.996676 373.367529 321.869128 374.553739 320.71045 375.712283 C 319.551773 376.867368 318.368885 377.994786 317.154868 379.094538 C 315.944309 380.194289 314.706081 381.262916 313.440183 382.300417 C 312.174285 383.337919 310.884175 384.344295 309.569855 385.319546 C 308.255534 386.294798 306.917003 387.238924 305.557718 388.148467 C 304.194976 389.054552 302.814939 389.93297 301.410691 390.773346 C 300.006444 391.613722 298.581444 392.419515 297.13915 393.190724 C 295.696856 393.961934 294.23381 394.69856 292.756928 395.400603 C 291.276589 396.099187 289.778955 396.763188 288.267486 397.389147 C 286.756018 398.015106 285.230714 398.603024 283.688117 399.1529 C 282.148978 399.706234 280.596005 400.218068 279.029197 400.695319 C 277.462388 401.169111 275.885204 401.604862 274.297643 402.00257 C 272.710082 402.400279 271.115604 402.759947 269.50729 403.078114 C 267.902436 403.396281 266.290664 403.676406 264.671974 403.91849 C 263.053285 404.157115 261.431137 404.357699 259.802071 404.516782 C 258.173005 404.679324 256.540481 404.800366 254.907957 404.879908 C 253.271973 404.95945 251.63599 405.00095 250.000007 405.00095 C 248.364024 405.00095 246.728041 404.95945 245.092058 404.879908 C 243.459533 404.800366 241.827009 404.679324 240.197943 404.516782 C 238.568877 404.357699 236.946729 404.157115 235.32804 403.91849 C 233.70935 403.676406 232.097578 403.396281 230.489265 403.078114 C 228.884411 402.759947 227.289932 402.400279 225.702371 402.00257 C 224.114811 401.604862 222.537626 401.169111 220.970818 400.695319 C 219.404009 400.218068 217.851036 399.706234 216.311897 399.1529 C 214.7693 398.603024 213.243996 398.015106 211.732528 397.389147 C 210.221059 396.763188 208.723426 396.099187 207.243086 395.400603 C 205.766205 394.69856 204.303158 393.961934 202.860864 393.190724 C 201.418571 392.419515 199.993571 391.613722 198.589323 390.773346 C 197.185075 389.93297 195.805039 389.054552 194.442296 388.148467 C 193.083012 387.238924 191.74448 386.294798 190.430159 385.319546 C 189.115839 384.344295 187.82573 383.337919 186.559831 382.300417 C 185.293933 381.262916 184.055705 380.194289 182.845147 379.094538 C 181.63113 377.994786 180.448241 376.867368 179.289564 375.712283 C 178.130887 374.553739 177.003338 373.367529 175.903459 372.157111 C 174.807039 370.943234 173.738289 369.705149 172.700668 368.439397 C 171.659587 367.173645 170.653095 365.883685 169.67773 364.569517 C 168.705825 363.255348 167.761589 361.916971 166.851941 360.557844 C 165.942293 359.195259 165.067232 357.815382 164.226759 356.411297 C 163.386286 355.007211 162.5804 353.582376 161.809101 352.140249 C 161.037802 350.694663 160.301091 349.235245 159.602426 347.755076 C 158.900302 346.274907 158.239683 344.780905 157.613652 343.269611 C 156.984161 341.754859 156.396176 340.229732 155.846236 338.687313 C 155.292838 337.148352 154.780945 335.595558 154.307098 334.028931 C 153.829792 332.462304 153.393991 330.885301 152.996236 329.297924 C 152.598481 327.710547 152.242231 326.112795 151.920569 324.508126 C 151.602365 322.903457 151.322207 321.291871 151.083554 319.673369 C 150.841442 318.054866 150.640835 316.429447 150.481734 314.80057 C 150.322632 313.171693 150.201576 311.542815 150.122025 309.907021 C 150.039015 308.271227 150.000969 306.635433 150.000969 304.999639 C 150.000969 303.363845 150.039015 301.728051 150.122025 300.092257 C 150.201576 298.459921 150.322632 296.827586 150.481734 295.198708 C 150.640835 293.569831 150.841442 291.944412 151.083554 290.32591 C 151.322207 288.707407 151.602365 287.095822 151.920569 285.491153 C 152.242231 283.886484 152.598481 282.288732 152.996236 280.701354 C 153.393991 279.113977 153.829792 277.536975 154.307098 275.970347 C 154.780945 274.40372 155.292838 272.850926 155.846236 271.311966 C 156.396176 269.769547 156.984161 268.24442 157.613652 266.733126 C 158.239683 265.218374 158.900302 263.724371 159.602426 262.244203 C 160.301091 260.764034 161.037802 259.304615 161.809101 257.85903 C 162.5804 256.416903 163.386286 254.992067 164.226759 253.59144 C 165.067232 252.187355 165.942293 250.80402 166.851941 249.441434 C 167.761589 248.082307 168.705825 246.74393 169.67773 245.429762 C 170.653095 244.115593 171.659587 242.825633 172.697209 241.559881 C 173.738289 240.294129 174.807039 239.056044 175.903459 237.845626 C 177.003338 236.631749 178.130887 235.445539 179.289564 234.290454 C 180.448241 233.131911 181.63113 232.004492 182.845147 230.904741 C 184.055705 229.804989 185.293933 228.736363 186.559831 227.698861 C 187.82573 226.66136 189.115839 225.654983 190.430159 224.679732 C 191.74448 223.704481 193.083012 222.763812 194.442296 221.85427 C 195.805039 220.944727 197.185075 220.069767 198.589323 219.225932 C 199.993571 218.385556 201.418571 217.579763 202.860864 216.808554 C 204.303158 216.037344 205.766205 215.300718 207.243086 214.602134 C 208.723426 213.900091 210.221059 213.239549 211.732528 212.61359 C 213.243996 211.984172 214.7693 211.396254 216.311897 210.846379 C 217.851036 210.293045 219.404009 209.78121 220.970818 209.307418 C 222.537626 208.830167 224.114811 208.394417 225.702371 207.996708 C 227.289932 207.598999 228.884411 207.239332 230.489265 206.921165 C 232.097578 206.602998 233.70935 206.322872 235.32804 206.080788 C 236.946729 205.842163 238.568877 205.64158 240.197943 205.482496 C 241.827009 205.319954 243.459533 205.202371 245.092058 205.11937 C 246.728041 205.039829 248.364024 204.998329 250.000007 204.998329 C 251.63599 204.998329 253.271973 205.039829 254.907957 205.11937 C 256.540481 205.202371 258.173005 205.319954 259.802071 205.482496 C 261.431137 205.64158 263.053285 205.842163 264.671974 206.080788 C 266.290664 206.322872 267.902436 206.602998 269.50729 206.921165 C 271.115604 207.239332 272.710082 207.598999 274.297643 207.996708 C 275.885204 208.394417 277.462388 208.830167 279.029197 209.307418 C 280.596005 209.78121 282.148978 210.293045 283.688117 210.846379 C 285.230714 211.396254 286.756018 211.984172 288.267486 212.61359 C 289.778955 213.239549 291.276589 213.900091 292.756928 214.602134 C 294.23381 215.300718 295.696856 216.037344 297.13915 216.808554 C 298.581444 217.579763 300.006444 218.385556 301.410691 219.225932 C 302.814939 220.069767 304.194976 220.944727 305.557718 221.85427 C 306.917003 222.763812 308.255534 223.704481 309.569855 224.679732 C 310.884175 225.654983 312.174285 226.66136 313.440183 227.698861 C 314.706081 228.736363 315.944309 229.804989 317.154868 230.904741 C 318.368885 232.004492 319.551773 233.131911 320.71045 234.290454 C 321.869128 235.445539 322.996676 236.631749 324.096555 237.845626 C 325.192975 239.056044 326.261725 240.294129 327.299347 241.559881 C 328.340427 242.825633 329.34692 244.115593 330.322284 245.429762 C 331.294189 246.74393 332.238425 248.082307 333.148073 249.441434 C 334.057721 250.80402 334.932782 252.187355 335.773255 253.59144 C 336.613729 254.992067 337.419615 256.416903 338.190913 257.85903 C 338.962212 259.304615 339.698923 260.764034 340.397588 262.244203 C 341.099712 263.724371 341.760331 265.218374 342.386363 266.733126 C 343.015853 268.24442 343.603838 269.769547 344.153778 271.311966 C 344.707176 272.850926 345.219069 274.40372 345.692916 275.970347 C 346.170222 277.536975 346.606023 279.113977 347.003778 280.701354 C 347.401533 282.288732 347.757783 283.886484 348.079446 285.491153 C 348.39765 287.095822 348.677807 288.707407 348.91646 290.32591 C 349.158572 291.944412 349.359179 293.569831 349.518281 295.198708 C 349.677383 296.827586 349.798438 298.459921 349.877989 300.092257 C 349.960999 301.728051 349.999045 303.363845 349.999045 304.999639 Z M 349.999045 304.999639 " stroke="#ffffff" stroke-width="2" stroke-opacity="1" stroke-miterlimit="10"/></g><g clip-path="url(#20770df983)"><path stroke-linecap="butt" transform="matrix(1.129386, 0, 0, 1.129516, -89.971474, -84.381015)" fill="none" stroke-linejoin="miter" d="M 280.001102 195.000273 C 280.001102 196.636067 279.959597 198.271861 279.880046 199.907655 C 279.800495 201.53999 279.679439 203.172326 279.516879 204.801203 C 279.357777 206.430081 279.15717 208.0555 278.918517 209.674002 C 278.676405 211.292504 278.396248 212.90409 278.078044 214.508759 C 277.75984 216.113428 277.400131 217.71118 277.002376 219.298558 C 276.604621 220.885935 276.16882 222.462937 275.694973 224.029564 C 275.217667 225.596192 274.705774 227.148985 274.155835 228.687946 C 273.602436 230.230365 273.014451 231.755492 272.388419 233.266786 C 271.762388 234.781538 271.09831 236.27554 270.399645 237.755709 C 269.697521 239.235878 268.964269 240.695297 268.19297 242.140882 C 267.421671 243.583009 266.615785 245.007845 265.771853 246.41193 C 264.93138 247.812557 264.056319 249.195892 263.146671 250.558478 C 262.237023 251.917604 261.296246 253.255981 260.320882 254.57015 C 259.345518 255.884319 258.339025 257.174279 257.301403 258.440031 C 256.263782 259.705782 255.195032 260.943867 254.095153 262.154286 C 252.995274 263.368163 251.867726 264.554373 250.709048 265.709458 C 249.55383 266.868001 248.367483 267.995419 247.156924 269.095171 C 245.942907 270.194922 244.704679 271.263549 243.438781 272.30105 C 242.172883 273.338552 240.882773 274.344928 239.568453 275.32018 C 238.254132 276.295431 236.919059 277.236099 235.556316 278.145642 C 234.197032 279.055185 232.813537 279.930145 231.409289 280.773979 C 230.005042 281.614356 228.5835 282.420148 227.141206 283.191358 C 225.695454 283.962567 224.235866 284.699193 222.755526 285.397778 C 221.275187 286.09982 219.781012 286.760363 218.269543 287.386322 C 216.754616 288.01574 215.229312 288.603657 213.690174 289.153533 C 212.147576 289.706867 210.594603 290.218701 209.027795 290.692494 C 207.460986 291.169744 205.88726 291.605495 204.2997 292.003204 C 202.712139 292.400913 201.114202 292.76058 199.509347 293.078747 C 197.904493 293.396914 196.292721 293.67704 194.674031 293.919123 C 193.055342 294.157749 191.429735 294.358332 189.800669 294.517416 C 188.171603 294.679958 186.542538 294.797541 184.906555 294.880541 C 183.270571 294.960083 181.638047 295.001583 179.998605 295.001583 C 178.362622 295.001583 176.726639 294.960083 175.094114 294.880541 C 173.458131 294.797541 171.825607 294.679958 170.2 294.517416 C 168.570934 294.358332 166.945327 294.157749 165.326638 293.919123 C 163.707948 293.67704 162.096176 293.396914 160.491322 293.078747 C 158.886467 292.76058 157.28853 292.400913 155.700969 292.003204 C 154.113409 291.605495 152.536224 291.169744 150.972874 290.692494 C 149.406066 290.218701 147.853093 289.706867 146.310495 289.153533 C 144.771357 288.603657 143.242595 288.01574 141.731126 287.386322 C 140.219657 286.760363 138.725482 286.09982 137.245143 285.397778 C 135.764803 284.699193 134.305215 283.962567 132.859463 283.191358 C 131.417169 282.420148 129.992169 281.614356 128.59138 280.773979 C 127.187132 279.930145 125.803637 279.055185 124.444353 278.145642 C 123.08161 277.236099 121.743078 276.295431 120.428758 275.32018 C 119.114437 274.344928 117.824328 273.338552 116.561888 272.30105 C 115.29599 271.263549 114.057762 270.194922 112.843745 269.095171 C 111.633186 267.995419 110.446839 266.868001 109.288162 265.709458 C 108.132943 264.554373 107.005395 263.368163 105.905516 262.154286 C 104.805637 260.943867 103.736887 259.705782 102.699266 258.440031 C 101.661644 257.174279 100.655151 255.884319 99.679787 254.57015 C 98.704423 253.255981 97.763646 251.917604 96.853998 250.558478 C 95.94435 249.195892 95.069289 247.812557 94.228816 246.41193 C 93.384884 245.007845 92.578998 243.583009 91.807699 242.140882 C 91.0364 240.695297 90.299689 239.235878 89.601024 237.755709 C 88.902359 236.27554 88.238281 234.781538 87.61225 233.266786 C 86.986218 231.755492 86.398233 230.230365 85.844834 228.687946 C 85.294895 227.148985 84.779543 225.596192 84.305696 224.029564 C 83.831849 222.462937 83.396048 220.885935 82.998293 219.298558 C 82.600538 217.71118 82.240829 216.113428 81.922625 214.508759 C 81.600963 212.90409 81.320805 211.292504 81.082152 209.674002 C 80.843499 208.0555 80.642892 206.430081 80.480332 204.801203 C 80.32123 203.172326 80.200174 201.53999 80.120623 199.907655 C 80.041072 198.271861 79.999567 196.636067 79.999567 195.000273 C 79.999567 193.364479 80.041072 191.728684 80.120623 190.09289 C 80.200174 188.457096 80.32123 186.828219 80.480332 185.199342 C 80.642892 183.570464 80.843499 181.945045 81.082152 180.326543 C 81.320805 178.708041 81.600963 177.096455 81.922625 175.491786 C 82.240829 173.887117 82.600538 172.289365 82.998293 170.701988 C 83.396048 169.11461 83.831849 167.537608 84.305696 165.970981 C 84.779543 164.404354 85.294895 162.85156 85.844834 161.312599 C 86.398233 159.77018 86.986218 158.245053 87.61225 156.730301 C 88.238281 155.219007 88.902359 153.725005 89.601024 152.244836 C 90.299689 150.764667 91.0364 149.305248 91.807699 147.859663 C 92.578998 146.417536 93.384884 144.992701 94.228816 143.588615 C 95.069289 142.18453 95.94435 140.804653 96.853998 139.442068 C 97.763646 138.082941 98.704423 136.744564 99.679787 135.430395 C 100.655151 134.116227 101.661644 132.826266 102.699266 131.560515 C 103.736887 130.294763 104.805637 129.056678 105.905516 127.842801 C 107.005395 126.632382 108.132943 125.446172 109.288162 124.287629 C 110.446839 123.132544 111.633186 122.005126 112.843745 120.905374 C 114.057762 119.805623 115.29599 118.736996 116.561888 117.699495 C 117.824328 116.661993 119.114437 115.655617 120.428758 114.680365 C 121.743078 113.705114 123.08161 112.760988 124.444353 111.851445 C 125.803637 110.94536 127.187132 110.066942 128.59138 109.226566 C 129.992169 108.38619 131.417169 107.580397 132.859463 106.809187 C 134.305215 106.037978 135.764803 105.301352 137.245143 104.602767 C 138.725482 103.900725 140.219657 103.236724 141.731126 102.610765 C 143.242595 101.984805 144.771357 101.396888 146.310495 100.847012 C 147.853093 100.293678 149.406066 99.781844 150.972874 99.304593 C 152.536224 98.830801 154.113409 98.39505 155.700969 97.997341 C 157.28853 97.599632 158.886467 97.239965 160.491322 96.921798 C 162.096176 96.603631 163.707948 96.323506 165.326638 96.081422 C 166.945327 95.842796 168.570934 95.642213 170.2 95.483129 C 171.825607 95.320587 173.458131 95.199546 175.094114 95.120004 C 176.726639 95.040462 178.362622 94.998962 179.998605 94.998962 C 181.638047 94.998962 183.270571 95.040462 184.906555 95.120004 C 186.542538 95.199546 188.171603 95.320587 189.800669 95.483129 C 191.429735 95.642213 193.055342 95.842796 194.674031 96.081422 C 196.292721 96.323506 197.904493 96.603631 199.509347 96.921798 C 201.114202 97.239965 202.712139 97.599632 204.2997 97.997341 C 205.883802 98.39505 207.460986 98.830801 209.027795 99.304593 C 210.594603 99.781844 212.147576 100.293678 213.690174 100.847012 C 215.229312 101.396888 216.754616 101.984805 218.269543 102.610765 C 219.781012 103.236724 221.275187 103.900725 222.755526 104.602767 C 224.235866 105.301352 225.695454 106.037978 227.141206 106.809187 C 228.5835 107.580397 230.005042 108.38619 231.409289 109.226566 C 232.813537 110.066942 234.197032 110.94536 235.556316 111.851445 C 236.919059 112.760988 238.254132 113.705114 239.568453 114.680365 C 240.882773 115.655617 242.172883 116.661993 243.438781 117.699495 C 244.704679 118.736996 245.942907 119.805623 247.156924 120.905374 C 248.367483 122.005126 249.55383 123.132544 250.709048 124.287629 C 251.867726 125.446172 252.995274 126.632382 254.095153 127.842801 C 255.195032 129.056678 256.263782 130.294763 257.301403 131.560515 C 258.339025 132.826266 259.345518 134.116227 260.320882 135.430395 C 261.296246 136.744564 262.237023 138.082941 263.146671 139.442068 C 264.056319 140.804653 264.93138 142.18453 265.771853 143.588615 C 266.615785 144.992701 267.421671 146.417536 268.19297 147.859663 C 268.964269 149.305248 269.697521 150.764667 270.399645 152.244836 C 271.09831 153.725005 271.762388 155.219007 272.388419 156.730301 C 273.014451 158.245053 273.602436 159.77018 274.155835 161.312599 C 274.705774 162.85156 275.217667 164.404354 275.694973 165.970981 C 276.16882 167.537608 276.604621 169.11461 277.002376 170.701988 C 277.400131 172.289365 277.75984 173.887117 278.078044 175.491786 C 278.396248 177.096455 278.676405 178.708041 278.918517 180.326543 C 279.15717 181.945045 279.357777 183.570464 279.516879 185.199342 C 279.679439 186.828219 279.800495 188.457096 279.880046 190.09289 C 279.959597 191.728684 280.001102 193.364479 280.001102 195.000273 Z M 280.001102 195.000273 " stroke="#ffffff" stroke-width="2" stroke-opacity="1" stroke-miterlimit="10"/></g><g clip-path="url(#702882756b)"><path stroke-linecap="butt" transform="matrix(1.129386, 0, 0, 1.129516, -89.971474, -84.381015)" fill="none" stroke-linejoin="miter" d="M 420.000447 195.000273 C 420.000447 196.636067 419.958942 198.271861 419.879391 199.907655 C 419.79984 201.53999 419.678785 203.172326 419.519683 204.801203 C 419.357122 206.430081 419.156515 208.0555 418.917862 209.674002 C 418.679209 211.292504 418.399051 212.90409 418.077389 214.508759 C 417.759185 216.113428 417.399476 217.71118 417.001721 219.298558 C 416.603966 220.885935 416.168165 222.462937 415.694318 224.029564 C 415.220471 225.596192 414.705119 227.148985 414.15518 228.687946 C 413.601782 230.230365 413.013796 231.755492 412.387765 233.266786 C 411.761733 234.781538 411.097655 236.27554 410.39899 237.755709 C 409.700325 239.235878 408.963614 240.695297 408.192315 242.140882 C 407.421017 243.583009 406.615131 245.007845 405.771198 246.41193 C 404.930725 247.812557 404.055664 249.195892 403.146016 250.558478 C 402.236368 251.917604 401.295591 253.255981 400.320227 254.57015 C 399.344863 255.884319 398.33837 257.174279 397.300749 258.440031 C 396.263127 259.705782 395.194377 260.943867 394.094498 262.154286 C 392.99462 263.368163 391.867071 264.554373 390.711852 265.709458 C 389.553175 266.868001 388.366828 267.995419 387.15627 269.095171 C 385.942252 270.194922 384.704024 271.263549 383.438126 272.30105 C 382.175687 273.338552 380.885577 274.344928 379.571257 275.32018 C 378.256936 276.295431 376.918405 277.236099 375.555662 278.145642 C 374.196378 279.055185 372.812882 279.930145 371.408635 280.773979 C 370.007846 281.614356 368.582846 282.420148 367.140552 283.191358 C 365.694799 283.962567 364.235212 284.699193 362.754872 285.397778 C 361.274532 286.09982 359.780357 286.760363 358.268888 287.386322 C 356.75742 288.01574 355.228657 288.603657 353.689519 289.153533 C 352.146922 289.706867 350.593948 290.218701 349.02714 290.692494 C 347.46379 291.169744 345.886606 291.605495 344.299045 292.003204 C 342.711484 292.400913 341.113547 292.76058 339.508692 293.078747 C 337.903838 293.396914 336.292066 293.67704 334.673376 293.919123 C 333.054687 294.157749 331.42908 294.358332 329.800014 294.517416 C 328.174407 294.679958 326.541883 294.797541 324.9059 294.880541 C 323.273375 294.960083 321.637392 295.001583 320.001409 295.001583 C 318.361967 295.001583 316.729443 294.960083 315.09346 294.880541 C 313.457476 294.797541 311.828411 294.679958 310.199345 294.517416 C 308.570279 294.358332 306.944672 294.157749 305.325983 293.919123 C 303.707294 293.67704 302.095522 293.396914 300.490667 293.078747 C 298.885813 292.76058 297.287875 292.400913 295.700315 292.003204 C 294.112754 291.605495 292.539028 291.169744 290.97222 290.692494 C 289.405411 290.218701 287.852438 289.706867 286.30984 289.153533 C 284.770702 288.603657 283.24194 288.01574 281.730471 287.386322 C 280.219003 286.760363 278.724828 286.09982 277.244488 285.397778 C 275.764148 284.699193 274.30456 283.962567 272.858808 283.191358 C 271.416514 282.420148 269.994973 281.614356 268.590725 280.773979 C 267.186477 279.930145 265.802982 279.055185 264.443698 278.145642 C 263.080955 277.236099 261.745882 276.295431 260.431561 275.32018 C 259.113782 274.344928 257.827132 273.338552 256.561233 272.30105 C 255.295335 271.263549 254.057107 270.194922 252.84309 269.095171 C 251.632532 267.995419 250.446184 266.868001 249.290966 265.709458 C 248.132288 264.554373 247.00474 263.368163 245.904861 262.154286 C 244.804982 260.943867 243.736232 259.705782 242.698611 258.440031 C 241.660989 257.174279 240.654497 255.884319 239.679132 254.57015 C 238.703768 253.255981 237.762991 251.917604 236.853343 250.558478 C 235.943695 249.195892 235.068634 247.812557 234.228161 246.41193 C 233.384229 245.007845 232.578343 243.583009 231.807044 242.140882 C 231.035746 240.695297 230.302493 239.235878 229.600369 237.755709 C 228.901704 236.27554 228.237626 234.781538 227.611595 233.266786 C 226.985563 231.755492 226.397578 230.230365 225.84418 228.687946 C 225.29424 227.148985 224.782347 225.596192 224.305041 224.029564 C 223.831194 222.462937 223.395393 220.885935 222.997638 219.298558 C 222.599883 217.71118 222.240174 216.113428 221.921971 214.508759 C 221.603767 212.90409 221.323609 211.292504 221.081497 209.674002 C 220.842844 208.0555 220.642237 206.430081 220.483136 204.801203 C 220.320575 203.172326 220.199519 201.53999 220.119968 199.907655 C 220.040417 198.271861 219.998912 196.636067 219.998912 195.000273 C 219.998912 193.364479 220.040417 191.728684 220.119968 190.09289 C 220.199519 188.457096 220.320575 186.828219 220.483136 185.199342 C 220.642237 183.570464 220.842844 181.945045 221.081497 180.326543 C 221.323609 178.708041 221.603767 177.096455 221.921971 175.491786 C 222.240174 173.887117 222.599883 172.289365 222.997638 170.701988 C 223.395393 169.11461 223.831194 167.537608 224.305041 165.970981 C 224.782347 164.404354 225.29424 162.85156 225.84418 161.312599 C 226.397578 159.77018 226.985563 158.245053 227.611595 156.730301 C 228.237626 155.219007 228.901704 153.725005 229.600369 152.244836 C 230.302493 150.764667 231.035746 149.305248 231.807044 147.859663 C 232.578343 146.417536 233.384229 144.992701 234.228161 143.588615 C 235.068634 142.18453 235.943695 140.804653 236.853343 139.442068 C 237.762991 138.082941 238.703768 136.744564 239.679132 135.430395 C 240.654497 134.116227 241.660989 132.826266 242.698611 131.560515 C 243.736232 130.294763 244.804982 129.056678 245.904861 127.842801 C 247.00474 126.632382 248.132288 125.446172 249.290966 124.287629 C 250.446184 123.132544 251.632532 122.005126 252.84309 120.905374 C 254.057107 119.805623 255.295335 118.736996 256.561233 117.699495 C 257.827132 116.661993 259.113782 115.655617 260.431561 114.680365 C 261.745882 113.705114 263.080955 112.760988 264.443698 111.851445 C 265.802982 110.94536 267.186477 110.066942 268.590725 109.226566 C 269.994973 108.38619 271.416514 107.580397 272.858808 106.809187 C 274.30456 106.037978 275.764148 105.301352 277.244488 104.602767 C 278.724828 103.900725 280.219003 103.236724 281.730471 102.610765 C 283.24194 101.984805 284.770702 101.396888 286.30984 100.847012 C 287.852438 100.293678 289.405411 99.781844 290.97222 99.304593 C 292.539028 98.830801 294.112754 98.39505 295.700315 97.997341 C 297.287875 97.599632 298.885813 97.239965 300.490667 96.921798 C 302.095522 96.603631 303.707294 96.323506 305.325983 96.081422 C 306.944672 95.842796 308.570279 95.642213 310.199345 95.483129 C 311.828411 95.320587 313.457476 95.199546 315.09346 95.120004 C 316.729443 95.040462 318.361967 94.998962 320.001409 94.998962 C 321.637392 94.998962 323.273375 95.040462 324.9059 95.120004 C 326.541883 95.199546 328.174407 95.320587 329.800014 95.483129 C 331.42908 95.642213 333.054687 95.842796 334.673376 96.081422 C 336.292066 96.323506 337.903838 96.603631 339.508692 96.921798 C 341.113547 97.239965 342.711484 97.599632 344.299045 97.997341 C 345.886606 98.39505 347.46379 98.830801 349.02714 99.304593 C 350.593948 99.781844 352.146922 100.293678 353.689519 100.847012 C 355.228657 101.396888 356.75742 101.984805 358.268888 102.610765 C 359.780357 103.236724 361.274532 103.900725 362.754872 104.602767 C 364.235212 105.301352 365.694799 106.037978 367.140552 106.809187 C 368.582846 107.580397 370.007846 108.38619 371.408635 109.226566 C 372.812882 110.066942 374.196378 110.94536 375.555662 111.851445 C 376.918405 112.760988 378.256936 113.705114 379.571257 114.680365 C 380.885577 115.655617 382.175687 116.661993 383.438126 117.699495 C 384.704024 118.736996 385.942252 119.805623 387.15627 120.905374 C 388.366828 122.005126 389.553175 123.132544 390.711852 124.287629 C 391.867071 125.446172 392.99462 126.632382 394.094498 127.842801 C 395.194377 129.056678 396.263127 130.294763 397.300749 131.560515 C 398.33837 132.826266 399.344863 134.116227 400.320227 135.430395 C 401.295591 136.744564 402.236368 138.082941 403.146016 139.442068 C 404.055664 140.804653 404.930725 142.18453 405.771198 143.588615 C 406.615131 144.992701 407.421017 146.417536 408.192315 147.859663 C 408.963614 149.305248 409.700325 150.764667 410.39899 152.244836 C 411.097655 153.725005 411.761733 155.219007 412.387765 156.730301 C 413.013796 158.245053 413.601782 159.77018 414.15518 161.312599 C 414.705119 162.85156 415.220471 164.404354 415.694318 165.970981 C 416.168165 167.537608 416.603966 169.11461 417.001721 170.701988 C 417.399476 172.289365 417.759185 173.887117 418.077389 175.491786 C 418.399051 177.096455 418.679209 178.708041 418.917862 180.326543 C 419.156515 181.945045 419.357122 183.570464 419.519683 185.199342 C 419.678785 186.828219 419.79984 188.457096 419.879391 190.09289 C 419.958942 191.728684 420.000447 193.364479 420.000447 195.000273 Z M 420.000447 195.000273 " stroke="#ffffff" stroke-width="2" stroke-opacity="1" stroke-miterlimit="10"/></g><path fill="#020202" d="M 92.65625 110.972656 C 91.425781 109.742188 89.210938 109.742188 87.980469 110.972656 L 85.027344 113.925781 C 84.410156 114.542969 84.042969 115.402344 84.042969 116.265625 C 84.042969 117.125 84.410156 117.988281 85.027344 118.601562 L 88.101562 121.679688 C 86.378906 124.140625 84.902344 126.96875 84.042969 130.660156 L 80.105469 130.660156 C 78.011719 130.660156 76.414062 132.261719 76.414062 134.351562 L 76.414062 138.042969 C 76.414062 140.136719 78.011719 141.734375 80.105469 141.734375 L 84.042969 141.734375 C 84.65625 145.550781 86.011719 148.871094 88.101562 151.949219 L 85.027344 155.023438 C 84.410156 155.640625 84.042969 156.5 84.042969 157.363281 C 84.042969 158.222656 84.410156 159.085938 85.027344 159.699219 L 87.980469 162.652344 C 89.210938 163.882812 91.425781 163.882812 92.65625 162.652344 L 95.730469 159.578125 C 98.683594 161.546875 102.253906 162.898438 105.945312 163.636719 L 105.945312 167.574219 C 105.945312 169.667969 107.542969 171.265625 109.636719 171.265625 L 113.328125 171.265625 C 115.417969 171.265625 117.019531 169.667969 117.019531 167.574219 L 117.019531 163.636719 C 120.710938 162.898438 123.539062 161.300781 126 159.578125 L 129.078125 162.652344 C 130.308594 163.882812 132.523438 163.882812 133.753906 162.652344 L 136.707031 159.699219 C 137.320312 159.085938 137.691406 158.222656 137.691406 157.363281 C 137.691406 156.5 137.320312 155.640625 136.707031 155.023438 L 133.628906 151.949219 C 135.476562 149.117188 136.953125 145.425781 137.691406 141.734375 L 141.628906 141.734375 C 143.71875 141.734375 145.320312 140.136719 145.320312 138.042969 L 145.320312 134.351562 C 145.320312 132.261719 143.71875 130.660156 141.628906 130.660156 L 137.691406 130.660156 C 136.953125 126.96875 135.351562 124.140625 133.628906 121.679688 L 136.707031 118.601562 C 137.320312 117.988281 137.691406 117.125 137.691406 116.265625 C 137.691406 115.402344 137.320312 114.542969 136.707031 113.925781 L 133.753906 110.972656 C 132.523438 109.742188 130.308594 109.742188 129.078125 110.972656 L 126 114.050781 C 123.539062 112.328125 120.832031 110.851562 117.019531 109.988281 L 117.019531 106.050781 C 117.019531 103.960938 115.417969 102.359375 113.328125 102.359375 L 109.636719 102.359375 C 107.542969 102.359375 105.945312 103.960938 105.945312 106.050781 L 105.945312 109.988281 C 102.253906 110.726562 98.683594 112.082031 95.730469 114.050781 Z M 110.867188 122.046875 C 118.988281 122.046875 125.632812 128.691406 125.632812 136.8125 C 125.632812 144.933594 118.988281 151.578125 110.867188 151.578125 C 102.746094 151.578125 96.101562 144.933594 96.101562 136.8125 C 96.101562 128.691406 102.746094 122.046875 110.867188 122.046875 Z M 110.867188 122.046875 " fill-opacity="1" fill-rule="nonzero"/><path fill="#020202" d="M 97.453125 82.058594 C 97.453125 82.179688 97.578125 82.179688 97.578125 82.304688 C 97.578125 82.425781 97.699219 82.425781 97.824219 82.425781 C 97.824219 82.425781 97.945312 82.550781 97.945312 82.550781 L 110.25 89.933594 C 110.375 90.054688 110.621094 90.054688 110.867188 90.054688 C 111.113281 90.054688 111.359375 90.054688 111.480469 89.933594 L 123.785156 82.550781 C 123.785156 82.550781 123.910156 82.425781 123.910156 82.425781 C 124.03125 82.425781 124.03125 82.304688 124.15625 82.304688 C 124.15625 82.304688 124.277344 82.179688 124.277344 82.058594 C 124.277344 81.933594 124.402344 81.933594 124.402344 81.8125 C 124.402344 81.6875 124.402344 81.6875 124.402344 81.566406 C 124.402344 81.566406 124.402344 81.441406 124.402344 81.441406 L 124.402344 66.675781 C 124.402344 66.554688 124.402344 66.429688 124.277344 66.308594 C 124.277344 66.308594 124.277344 66.183594 124.277344 66.183594 C 124.277344 66.0625 124.15625 65.9375 124.03125 65.816406 C 123.910156 65.691406 123.910156 65.691406 123.785156 65.691406 L 111.480469 58.308594 C 111.113281 58.0625 110.621094 58.0625 110.25 58.308594 L 97.945312 65.691406 C 97.824219 65.691406 97.824219 65.816406 97.699219 65.816406 C 97.578125 65.9375 97.578125 66.0625 97.453125 66.183594 C 97.453125 66.183594 97.453125 66.308594 97.453125 66.308594 C 97.332031 66.429688 97.332031 66.554688 97.332031 66.675781 L 97.332031 81.441406 C 97.332031 81.441406 97.332031 81.566406 97.332031 81.566406 C 97.332031 81.6875 97.332031 81.6875 97.332031 81.8125 C 97.453125 81.933594 97.453125 81.933594 97.453125 82.058594 Z M 121.941406 80.703125 L 111.972656 86.609375 C 111.972656 86.488281 112.097656 86.363281 112.097656 86.242188 L 112.097656 74.675781 L 121.941406 68.769531 Z M 110.867188 60.769531 L 120.832031 66.675781 L 110.867188 72.582031 L 100.898438 66.675781 Z M 99.792969 68.890625 L 109.636719 74.796875 L 109.636719 86.363281 C 109.636719 86.488281 109.636719 86.609375 109.757812 86.734375 L 99.792969 80.703125 Z M 99.792969 68.890625 " fill-opacity="1" fill-rule="nonzero"/><path fill="#020202" d="M 151.347656 77.382812 C 151.347656 77.382812 151.226562 77.382812 151.347656 77.382812 C 151.101562 77.503906 150.980469 77.503906 150.855469 77.628906 L 140.398438 88.085938 C 140.398438 88.085938 140.398438 88.210938 140.273438 88.210938 C 140.273438 88.332031 140.152344 88.332031 140.152344 88.457031 C 140.152344 88.578125 140.152344 88.578125 140.027344 88.703125 C 140.027344 88.824219 140.027344 88.824219 140.027344 88.949219 C 140.027344 89.070312 140.027344 89.070312 140.027344 89.195312 C 140.027344 89.195312 140.027344 89.316406 140.027344 89.316406 L 143.472656 103.222656 C 143.597656 103.714844 143.964844 103.960938 144.335938 104.082031 L 158.238281 107.527344 C 158.363281 107.527344 158.484375 107.527344 158.484375 107.527344 C 158.609375 107.527344 158.730469 107.527344 158.976562 107.40625 C 158.976562 107.40625 159.101562 107.40625 159.101562 107.28125 C 159.222656 107.28125 159.347656 107.160156 159.347656 107.160156 L 169.804688 96.699219 C 169.929688 96.578125 169.929688 96.453125 170.050781 96.332031 C 170.050781 96.332031 170.050781 96.207031 170.050781 96.207031 C 170.050781 96.085938 170.175781 95.960938 170.175781 95.839844 C 170.175781 95.714844 170.175781 95.714844 170.175781 95.59375 L 166.730469 81.6875 C 166.605469 81.195312 166.238281 80.949219 165.867188 80.828125 L 151.964844 77.382812 C 151.839844 77.382812 151.839844 77.382812 151.71875 77.382812 C 151.59375 77.257812 151.472656 77.382812 151.347656 77.382812 Z M 158.363281 104.945312 L 147.164062 102.113281 C 147.289062 102.113281 147.410156 101.992188 147.410156 101.867188 L 155.65625 93.625 L 166.851562 96.453125 Z M 164.636719 83.042969 L 167.46875 94.238281 L 156.269531 91.410156 L 153.441406 80.210938 Z M 153.933594 92.023438 L 145.6875 100.269531 C 145.566406 100.390625 145.566406 100.390625 145.441406 100.515625 L 142.613281 89.316406 L 150.980469 80.949219 Z M 153.933594 92.023438 " fill-opacity="1" fill-rule="nonzero"/><g clip-path="url(#d7515d2f50)"><path fill="#020202" d="M 182.109375 123.894531 C 182.109375 123.769531 181.988281 123.769531 181.988281 123.648438 C 181.863281 123.523438 181.742188 123.523438 181.617188 123.402344 C 181.617188 123.402344 181.496094 123.402344 181.496094 123.402344 C 181.371094 123.402344 181.25 123.277344 181.125 123.277344 L 166.359375 123.277344 C 166.359375 123.277344 166.238281 123.277344 166.238281 123.277344 C 166.113281 123.277344 166.113281 123.277344 165.992188 123.277344 C 165.867188 123.277344 165.867188 123.277344 165.746094 123.402344 C 165.621094 123.402344 165.621094 123.523438 165.5 123.523438 C 165.375 123.523438 165.375 123.648438 165.375 123.769531 C 165.375 123.769531 165.253906 123.894531 165.253906 123.894531 L 157.871094 136.199219 C 157.625 136.566406 157.625 137.058594 157.871094 137.429688 L 165.253906 149.734375 C 165.253906 149.855469 165.375 149.855469 165.375 149.980469 C 165.5 150.101562 165.621094 150.101562 165.746094 150.226562 C 165.746094 150.226562 165.867188 150.226562 165.867188 150.226562 C 165.992188 150.226562 166.113281 150.347656 166.238281 150.347656 L 181.003906 150.347656 C 181.125 150.347656 181.25 150.347656 181.371094 150.226562 C 181.371094 150.226562 181.496094 150.226562 181.496094 150.226562 C 181.617188 150.226562 181.742188 150.101562 181.863281 149.980469 C 181.863281 149.855469 181.988281 149.855469 181.988281 149.734375 L 189.371094 137.429688 C 189.617188 137.058594 189.617188 136.566406 189.371094 136.199219 Z M 166.976562 125.738281 L 178.910156 125.738281 L 173.003906 135.582031 L 161.316406 135.582031 C 161.191406 135.582031 161.070312 135.582031 160.945312 135.707031 Z M 166.976562 147.886719 L 161.070312 137.921875 C 161.191406 137.921875 161.316406 138.042969 161.4375 138.042969 L 173.003906 138.042969 L 178.910156 147.886719 Z M 181.003906 146.78125 L 175.097656 136.8125 L 181.003906 126.847656 L 186.910156 136.8125 Z M 181.003906 146.78125 " fill-opacity="1" fill-rule="nonzero"/></g><path fill="#020202" d="M 170.296875 177.171875 C 170.296875 177.050781 170.175781 176.925781 170.050781 176.804688 L 159.59375 166.34375 C 159.59375 166.34375 159.46875 166.34375 159.46875 166.222656 C 159.347656 166.222656 159.347656 166.097656 159.222656 166.097656 C 159.101562 166.097656 159.101562 166.097656 158.976562 165.976562 C 158.855469 165.976562 158.855469 165.976562 158.730469 165.976562 C 158.609375 165.976562 158.609375 165.976562 158.484375 165.976562 C 158.484375 165.976562 158.363281 165.976562 158.363281 165.976562 L 144.457031 169.421875 C 143.964844 169.542969 143.71875 169.914062 143.597656 170.28125 L 140.152344 184.1875 C 140.152344 184.1875 140.152344 184.308594 140.152344 184.308594 C 140.152344 184.433594 140.152344 184.433594 140.152344 184.554688 C 140.152344 184.679688 140.152344 184.679688 140.152344 184.800781 C 140.152344 184.925781 140.152344 184.925781 140.273438 185.046875 C 140.273438 185.171875 140.398438 185.171875 140.398438 185.292969 C 140.398438 185.292969 140.398438 185.417969 140.519531 185.417969 L 150.980469 195.875 C 151.101562 196 151.226562 196.121094 151.347656 196.121094 C 151.472656 196.121094 151.71875 196.246094 151.839844 196.246094 C 151.964844 196.246094 152.085938 196.246094 152.085938 196.246094 L 165.992188 192.800781 C 166.484375 192.675781 166.730469 192.308594 166.851562 191.9375 L 170.296875 178.035156 C 170.296875 177.910156 170.296875 177.910156 170.296875 177.789062 C 170.421875 177.542969 170.296875 177.417969 170.296875 177.171875 C 170.296875 177.296875 170.296875 177.171875 170.296875 177.171875 Z M 158.363281 168.683594 L 166.730469 177.050781 L 155.53125 179.878906 L 147.289062 171.636719 C 147.164062 171.511719 147.164062 171.511719 147.042969 171.390625 Z M 151.101562 192.675781 L 142.734375 184.308594 L 145.566406 173.113281 C 145.566406 173.234375 145.6875 173.359375 145.8125 173.359375 L 154.054688 181.601562 Z M 164.636719 190.585938 L 153.441406 193.414062 L 156.269531 182.21875 L 167.46875 179.386719 Z M 164.636719 190.585938 " fill-opacity="1" fill-rule="nonzero"/><g clip-path="url(#0dda755391)"><path fill="#020202" d="M 124.277344 191.570312 C 124.277344 191.445312 124.15625 191.445312 124.15625 191.324219 C 124.15625 191.199219 124.03125 191.199219 123.910156 191.199219 C 123.910156 191.199219 123.785156 191.078125 123.785156 191.078125 L 111.480469 183.695312 C 111.113281 183.449219 110.621094 183.449219 110.25 183.695312 L 97.945312 191.078125 C 97.945312 191.078125 97.824219 191.199219 97.824219 191.199219 C 97.699219 191.199219 97.699219 191.324219 97.578125 191.324219 C 97.578125 191.324219 97.453125 191.445312 97.453125 191.570312 C 97.453125 191.691406 97.332031 191.691406 97.332031 191.816406 C 97.332031 191.9375 97.332031 191.9375 97.332031 192.0625 C 97.332031 192.0625 97.332031 192.183594 97.332031 192.183594 L 97.332031 206.949219 C 97.332031 207.074219 97.332031 207.195312 97.453125 207.320312 C 97.453125 207.320312 97.453125 207.441406 97.453125 207.441406 C 97.453125 207.566406 97.578125 207.6875 97.699219 207.8125 C 97.824219 207.933594 97.824219 207.933594 97.945312 207.933594 L 110.25 215.316406 C 110.496094 215.441406 110.621094 215.441406 110.867188 215.441406 C 111.113281 215.441406 111.359375 215.441406 111.480469 215.316406 L 123.785156 207.933594 C 123.910156 207.933594 123.910156 207.8125 124.03125 207.8125 C 124.15625 207.6875 124.15625 207.566406 124.277344 207.441406 C 124.277344 207.441406 124.277344 207.320312 124.277344 207.320312 C 124.277344 207.195312 124.402344 207.074219 124.402344 206.949219 L 124.402344 192.183594 C 124.402344 192.183594 124.402344 192.0625 124.402344 192.0625 C 124.402344 191.9375 124.402344 191.9375 124.402344 191.816406 C 124.277344 191.691406 124.277344 191.691406 124.277344 191.570312 Z M 99.792969 192.921875 L 109.757812 187.015625 C 109.757812 187.140625 109.636719 187.261719 109.636719 187.386719 L 109.636719 198.953125 L 99.792969 204.859375 Z M 110.867188 212.855469 L 100.898438 206.949219 L 110.867188 201.042969 L 120.832031 206.949219 Z M 121.941406 204.734375 L 112.097656 198.828125 L 112.097656 187.261719 C 112.097656 187.140625 112.097656 187.015625 111.972656 186.894531 L 121.941406 192.800781 Z M 121.941406 204.734375 " fill-opacity="1" fill-rule="nonzero"/></g><path fill="#020202" d="M 70.015625 196.367188 C 70.136719 196.367188 70.382812 196.367188 70.507812 196.246094 C 70.628906 196.246094 70.753906 196.121094 70.875 196 L 81.335938 185.539062 C 81.335938 185.539062 81.335938 185.417969 81.457031 185.417969 C 81.457031 185.292969 81.582031 185.292969 81.582031 185.171875 C 81.582031 185.046875 81.582031 185.046875 81.703125 184.925781 C 81.703125 184.800781 81.703125 184.800781 81.703125 184.679688 C 81.703125 184.554688 81.703125 184.554688 81.703125 184.433594 C 81.703125 184.433594 81.703125 184.308594 81.703125 184.308594 L 78.257812 170.40625 C 78.136719 169.914062 77.765625 169.667969 77.398438 169.542969 L 63.492188 166.097656 C 63.492188 166.097656 63.371094 166.097656 63.371094 166.097656 C 63.246094 166.097656 63.246094 166.097656 63.125 166.097656 C 63 166.097656 63 166.097656 62.878906 166.097656 C 62.753906 166.097656 62.753906 166.097656 62.632812 166.222656 C 62.507812 166.222656 62.507812 166.34375 62.386719 166.34375 C 62.386719 166.34375 62.261719 166.34375 62.261719 166.46875 L 51.804688 176.925781 C 51.679688 177.050781 51.679688 177.171875 51.558594 177.296875 C 51.558594 177.296875 51.558594 177.296875 51.558594 177.417969 C 51.558594 177.542969 51.433594 177.664062 51.433594 177.789062 C 51.433594 177.910156 51.433594 177.910156 51.433594 178.035156 L 54.878906 191.9375 C 55.003906 192.429688 55.371094 192.675781 55.742188 192.800781 L 69.644531 196.246094 C 69.769531 196.367188 69.890625 196.367188 70.015625 196.367188 Z M 76.289062 173.113281 L 79.121094 184.308594 L 70.753906 192.675781 L 67.921875 181.480469 L 76.167969 173.234375 C 76.167969 173.234375 76.167969 173.113281 76.289062 173.113281 Z M 63.371094 168.683594 L 74.566406 171.511719 C 74.445312 171.511719 74.320312 171.636719 74.320312 171.757812 L 66.078125 179.878906 L 54.878906 177.050781 Z M 57.09375 190.585938 L 54.265625 179.386719 L 65.460938 182.21875 L 68.292969 193.414062 Z M 57.09375 190.585938 " fill-opacity="1" fill-rule="nonzero"/><g clip-path="url(#78643e631b)"><path fill="#020202" d="M 55.496094 150.347656 C 55.617188 150.347656 55.742188 150.347656 55.863281 150.226562 C 55.863281 150.226562 55.988281 150.226562 55.988281 150.226562 C 56.109375 150.226562 56.234375 150.101562 56.355469 149.980469 C 56.355469 149.855469 56.480469 149.855469 56.480469 149.734375 L 63.863281 137.429688 C 64.109375 137.058594 64.109375 136.566406 63.863281 136.199219 L 56.480469 123.894531 C 56.480469 123.894531 56.355469 123.769531 56.355469 123.769531 C 56.355469 123.648438 56.234375 123.648438 56.234375 123.523438 C 56.234375 123.523438 56.109375 123.402344 55.988281 123.402344 C 55.863281 123.402344 55.863281 123.277344 55.742188 123.277344 C 55.617188 123.277344 55.617188 123.277344 55.496094 123.277344 C 55.496094 123.277344 55.371094 123.277344 55.371094 123.277344 L 40.730469 123.277344 C 40.359375 123.277344 39.992188 123.402344 39.867188 123.648438 C 39.867188 123.648438 39.746094 123.769531 39.746094 123.769531 L 32.363281 136.074219 C 32.117188 136.445312 32.117188 136.9375 32.363281 137.304688 L 39.746094 149.609375 C 39.746094 149.734375 39.867188 149.734375 39.867188 149.855469 C 39.992188 149.980469 40.113281 149.980469 40.238281 150.101562 C 40.238281 150.101562 40.359375 150.101562 40.359375 150.101562 C 40.484375 150.347656 40.605469 150.347656 40.730469 150.347656 Z M 54.757812 125.738281 L 60.664062 135.707031 C 60.664062 135.582031 60.539062 135.582031 60.417969 135.582031 L 48.851562 135.582031 L 42.945312 125.738281 Z M 34.824219 136.8125 L 40.730469 126.847656 L 46.636719 136.8125 L 40.730469 146.78125 Z M 42.945312 147.886719 L 48.851562 138.042969 L 60.417969 138.042969 C 60.539062 138.042969 60.664062 138.042969 60.785156 137.921875 L 54.757812 147.886719 Z M 42.945312 147.886719 " fill-opacity="1" fill-rule="nonzero"/></g><path fill="#020202" d="M 78.136719 103.222656 L 81.582031 89.316406 C 81.582031 89.316406 81.582031 89.195312 81.582031 89.195312 C 81.582031 89.070312 81.582031 89.070312 81.582031 88.949219 C 81.582031 88.824219 81.582031 88.824219 81.582031 88.703125 C 81.582031 88.578125 81.582031 88.578125 81.457031 88.457031 C 81.457031 88.332031 81.335938 88.332031 81.335938 88.210938 C 81.335938 88.210938 81.335938 88.085938 81.210938 88.085938 L 70.753906 77.628906 C 70.628906 77.503906 70.507812 77.503906 70.382812 77.382812 C 70.382812 77.382812 70.382812 77.382812 70.261719 77.382812 C 70.136719 77.382812 70.015625 77.257812 69.890625 77.257812 C 69.769531 77.257812 69.769531 77.257812 69.644531 77.257812 L 55.742188 80.703125 C 55.25 80.828125 55.003906 81.195312 54.878906 81.566406 L 51.433594 95.46875 C 51.433594 95.59375 51.433594 95.59375 51.433594 95.714844 C 51.433594 95.839844 51.433594 95.960938 51.558594 96.085938 C 51.558594 96.085938 51.558594 96.207031 51.558594 96.207031 C 51.558594 96.332031 51.679688 96.453125 51.804688 96.578125 L 62.261719 107.035156 C 62.386719 107.160156 62.386719 107.160156 62.507812 107.160156 C 62.507812 107.160156 62.632812 107.160156 62.632812 107.28125 C 62.753906 107.28125 62.878906 107.40625 63 107.40625 C 63.125 107.40625 63.246094 107.40625 63.246094 107.40625 L 77.152344 103.960938 C 77.644531 103.960938 78.011719 103.589844 78.136719 103.222656 Z M 57.09375 83.042969 L 68.292969 80.210938 L 65.460938 91.410156 L 54.265625 94.238281 Z M 63.371094 104.945312 L 55.003906 96.578125 L 66.199219 93.746094 L 74.445312 101.992188 C 74.566406 102.113281 74.566406 102.113281 74.691406 102.238281 Z M 76.042969 100.269531 L 67.800781 92.023438 L 70.628906 80.828125 L 78.996094 89.195312 L 76.167969 100.390625 C 76.167969 100.390625 76.167969 100.390625 76.042969 100.269531 Z M 76.042969 100.269531 " fill-opacity="1" fill-rule="nonzero"/><g clip-path="url(#da4076efa8)"><g clip-path="url(#5814453a09)"><g clip-path="url(#0575405f33)"><path fill="#000000" d="M 194.542969 206.234375 C 193.230469 206.28125 191.976562 206.578125 190.78125 207.128906 L 139.585938 229.941406 C 136.910156 231.128906 134.933594 233.464844 134.203125 236.292969 L 120.484375 289.980469 C 119.832031 292.503906 120.242188 295.171875 121.664062 297.378906 C 121.832031 297.644531 122.007812 297.902344 122.191406 298.152344 L 156.085938 342.34375 C 157.875 344.652344 160.617188 346.019531 163.542969 346.078125 L 219.617188 347.460938 C 222.550781 347.539062 225.363281 346.246094 227.261719 344.058594 L 263.277344 301.585938 C 265.167969 299.367188 265.925781 296.398438 265.292969 293.546875 L 254.15625 239.195312 C 253.566406 236.339844 251.699219 233.90625 249.09375 232.585938 L 199.164062 207.339844 C 197.703125 206.578125 196.148438 206.207031 194.5 206.234375 Z M 194.542969 206.234375 " fill-opacity="1" fill-rule="nonzero"/></g></g></g><g clip-path="url(#84cfacecc5)"><g clip-path="url(#0f8fb0176e)"><g clip-path="url(#f00bb49f24)"><path fill="#ffffff" d="M 194.554688 224.648438 C 192.804688 224.726562 191.449219 226.183594 191.496094 227.925781 L 191.476562 228.773438 C 191.535156 229.742188 191.65625 230.699219 191.824219 231.648438 C 192.058594 233.472656 192.113281 235.300781 191.988281 237.132812 C 191.800781 237.730469 191.441406 238.265625 190.957031 238.671875 L 190.859375 239.945312 C 189.015625 240.054688 187.183594 240.289062 185.375 240.652344 C 177.769531 242.167969 170.785156 245.90625 165.328125 251.410156 L 164.257812 250.613281 C 163.65625 250.78125 163.011719 250.695312 162.46875 250.390625 C 161.019531 249.261719 159.691406 248.007812 158.488281 246.621094 C 157.882812 245.867188 157.238281 245.148438 156.554688 244.46875 L 155.894531 243.917969 C 155.308594 243.425781 154.578125 243.128906 153.8125 243.074219 C 153.347656 243.039062 152.902344 243.109375 152.472656 243.289062 C 152.042969 243.464844 151.675781 243.730469 151.375 244.082031 C 150.3125 245.492188 150.601562 247.488281 152.011719 248.550781 L 152.625 249.0625 C 153.417969 249.617188 154.242188 250.128906 155.09375 250.585938 C 156.679688 251.519531 158.171875 252.601562 159.546875 253.867188 C 159.902344 254.398438 160.089844 254.984375 160.109375 255.621094 L 161.078125 256.550781 C 155.535156 264.410156 153.101562 274.035156 154.238281 283.578125 L 152.960938 283.910156 C 152.617188 284.425781 152.164062 284.863281 151.628906 285.179688 C 149.839844 285.609375 148.023438 285.863281 146.1875 285.9375 C 145.210938 285.933594 144.242188 285.984375 143.273438 286.09375 L 142.464844 286.253906 L 142.375 286.253906 C 141.804688 286.316406 141.292969 286.527344 140.839844 286.878906 C 140.390625 287.230469 140.0625 287.675781 139.863281 288.214844 C 139.664062 288.75 139.621094 289.300781 139.734375 289.859375 C 139.847656 290.421875 140.101562 290.914062 140.492188 291.332031 C 140.886719 291.75 141.363281 292.03125 141.917969 292.179688 C 142.472656 292.328125 143.027344 292.320312 143.578125 292.15625 L 143.636719 292.15625 L 144.457031 292.085938 C 145.386719 291.835938 146.300781 291.523438 147.195312 291.167969 C 148.917969 290.53125 150.695312 290.054688 152.511719 289.757812 C 153.136719 289.808594 153.730469 290.039062 154.230469 290.410156 L 155.597656 290.21875 C 158.324219 299.421875 164.335938 307.308594 172.496094 312.386719 L 171.914062 313.527344 C 172.15625 314.0625 172.238281 314.652344 172.144531 315.234375 C 171.355469 316.945312 170.394531 318.578125 169.285156 320.109375 C 168.679688 320.867188 168.117188 321.660156 167.601562 322.480469 L 167.195312 323.285156 C 166.898438 323.773438 166.75 324.300781 166.75 324.871094 C 166.75 325.441406 166.902344 325.96875 167.199219 326.453125 C 167.5 326.941406 167.90625 327.3125 168.414062 327.570312 C 168.925781 327.828125 169.464844 327.933594 170.035156 327.890625 C 170.605469 327.839844 171.121094 327.644531 171.582031 327.304688 C 172.042969 326.964844 172.378906 326.527344 172.59375 325.996094 L 172.988281 325.238281 C 173.355469 324.339844 173.671875 323.425781 173.929688 322.496094 C 174.78125 320.539062 175.269531 318.429688 176.402344 317.140625 C 176.777344 316.808594 177.214844 316.605469 177.714844 316.539062 L 178.425781 315.320312 C 180.632812 316.230469 182.902344 316.929688 185.234375 317.425781 C 187.566406 317.917969 189.925781 318.199219 192.308594 318.261719 C 194.695312 318.328125 197.0625 318.175781 199.421875 317.808594 C 201.777344 317.441406 204.082031 316.867188 206.332031 316.078125 L 206.90625 317.246094 C 207.523438 317.351562 208.066406 317.707031 208.429688 318.214844 C 209.242188 319.855469 209.890625 321.570312 210.375 323.332031 C 210.589844 324.277344 210.859375 325.207031 211.1875 326.121094 L 211.542969 326.898438 C 211.734375 327.4375 212.046875 327.886719 212.492188 328.246094 C 212.9375 328.609375 213.441406 328.828125 214.007812 328.902344 C 214.574219 328.980469 215.121094 328.902344 215.644531 328.671875 C 216.167969 328.445312 216.59375 328.09375 216.917969 327.625 C 217.242188 327.152344 217.417969 326.632812 217.445312 326.0625 C 217.46875 325.488281 217.347656 324.953125 217.070312 324.453125 L 216.695312 323.628906 C 216.21875 322.785156 215.699219 321.972656 215.128906 321.1875 C 214.121094 319.65625 213.261719 318.035156 212.523438 316.335938 C 212.382812 315.683594 212.503906 315.082031 212.875 314.53125 C 212.691406 314.132812 212.535156 313.722656 212.402344 313.304688 C 220.785156 308.597656 227.152344 300.988281 230.296875 291.917969 L 231.582031 292.175781 C 232.054688 291.765625 232.667969 291.558594 233.292969 291.59375 C 235.085938 291.980469 236.835938 292.585938 238.53125 293.261719 C 239.40625 293.691406 240.304688 294.058594 241.21875 294.371094 C 241.433594 294.433594 241.753906 294.492188 241.996094 294.554688 L 242.054688 294.558594 C 242.597656 294.746094 243.148438 294.78125 243.710938 294.660156 C 244.269531 294.535156 244.757812 294.277344 245.171875 293.878906 C 245.585938 293.484375 245.863281 293.007812 246.007812 292.453125 C 246.152344 291.898438 246.136719 291.347656 245.96875 290.800781 C 245.792969 290.253906 245.488281 289.792969 245.054688 289.417969 C 244.617188 289.042969 244.117188 288.8125 243.546875 288.722656 L 242.671875 288.492188 C 241.710938 288.335938 240.746094 288.238281 239.773438 288.195312 C 237.941406 288.03125 236.132812 287.6875 234.371094 287.167969 C 233.835938 286.851562 233.390625 286.386719 233.097656 285.832031 L 231.878906 285.441406 C 232.261719 283.09375 232.429688 280.726562 232.378906 278.351562 C 232.328125 275.972656 232.0625 273.617188 231.582031 271.285156 C 231.101562 268.957031 230.414062 266.6875 229.519531 264.484375 C 228.625 262.277344 227.535156 260.171875 226.257812 258.164062 L 227.351562 257.203125 C 227.320312 256.582031 227.542969 255.96875 227.957031 255.503906 C 229.378906 254.34375 230.917969 253.328125 232.53125 252.464844 C 233.40625 252.046875 234.253906 251.582031 235.074219 251.066406 L 235.75 250.546875 C 236.253906 250.253906 236.640625 249.84375 236.910156 249.328125 C 237.179688 248.808594 237.289062 248.257812 237.238281 247.675781 C 237.191406 247.089844 236.988281 246.566406 236.632812 246.101562 C 236.28125 245.636719 235.828125 245.300781 235.277344 245.09375 C 234.730469 244.886719 234.167969 244.84375 233.59375 244.960938 C 233.023438 245.078125 232.523438 245.339844 232.101562 245.746094 L 231.414062 246.261719 C 230.699219 246.910156 230.019531 247.59375 229.378906 248.316406 C 228.148438 249.65625 226.789062 250.867188 225.324219 251.945312 C 224.726562 252.171875 224.113281 252.222656 223.484375 252.097656 L 222.316406 252.882812 C 215.855469 245.796875 207.03125 241.277344 197.480469 240.179688 C 197.492188 239.726562 197.449219 239.046875 197.445312 238.835938 C 196.941406 238.46875 196.597656 237.921875 196.496094 237.308594 C 196.476562 235.472656 196.636719 233.65625 196.972656 231.855469 C 197.191406 230.910156 197.351562 229.960938 197.460938 229 L 197.484375 228.09375 C 197.617188 226.359375 196.339844 224.835938 194.59375 224.671875 Z M 190.1875 247.933594 L 188.890625 263.71875 L 188.824219 263.71875 C 188.753906 264.695312 188.15625 265.515625 187.257812 265.960938 C 186.363281 266.410156 185.316406 266.246094 184.542969 265.652344 L 171.757812 256.144531 C 173.878906 254.167969 176.230469 252.519531 178.8125 251.199219 C 181.394531 249.878906 184.109375 248.9375 186.957031 248.371094 C 188.027344 248.171875 189.101562 248.027344 190.179688 247.933594 Z M 197.761719 248.121094 C 204.574219 249.136719 210.863281 252.351562 215.664062 257.277344 L 202.554688 266.085938 C 201.742188 266.699219 200.652344 266.800781 199.738281 266.34375 C 198.828125 265.886719 198.261719 264.949219 198.273438 263.933594 Z M 166.890625 261.972656 L 178.523438 272.847656 L 178.523438 272.914062 C 179.246094 273.578125 179.546875 274.585938 179.304688 275.535156 C 179.0625 276.484375 178.308594 277.222656 177.363281 277.457031 L 177.359375 277.5 L 161.988281 281.5 C 161.695312 278.0625 161.96875 274.671875 162.808594 271.328125 C 163.648438 267.980469 165.011719 264.863281 166.894531 261.96875 Z M 220.253906 263.289062 C 223.726562 269.238281 225.152344 276.152344 224.320312 282.984375 L 209.140625 278.21875 L 209.144531 278.160156 C 208.195312 277.878906 207.488281 277.105469 207.296875 276.144531 C 207.109375 275.183594 207.449219 274.199219 208.207031 273.566406 L 220.273438 263.328125 Z M 190.894531 273.976562 L 195.761719 274.097656 L 198.644531 277.9375 L 197.449219 282.617188 L 193.023438 284.605469 L 188.695312 282.398438 L 187.777344 277.667969 Z M 206.171875 287.207031 C 206.375 287.1875 206.625 287.195312 206.785156 287.222656 L 222.460938 290.257812 C 220.03125 296.71875 215.410156 302.175781 209.472656 305.753906 L 203.75 290.921875 C 203.671875 290.722656 203.617188 290.519531 203.585938 290.304688 C 203.558594 290.09375 203.554688 289.882812 203.574219 289.667969 C 203.597656 289.457031 203.644531 289.25 203.714844 289.046875 C 203.789062 288.847656 203.882812 288.65625 204 288.476562 C 204.117188 288.296875 204.257812 288.136719 204.414062 287.988281 C 204.570312 287.84375 204.742188 287.71875 204.929688 287.613281 C 205.117188 287.507812 205.3125 287.429688 205.519531 287.371094 C 205.726562 287.3125 205.9375 287.28125 206.152344 287.273438 Z M 179.730469 286.621094 C 180.621094 286.65625 181.429688 287.132812 181.898438 287.886719 C 182.367188 288.644531 182.417969 289.578125 182.050781 290.382812 L 182.046875 290.441406 L 175.640625 304.855469 C 169.941406 301.015625 165.683594 295.410156 163.503906 288.902344 L 179.175781 286.648438 C 179.347656 286.632812 179.523438 286.640625 179.703125 286.660156 Z M 192.757812 293.28125 C 193.265625 293.277344 193.734375 293.410156 194.167969 293.671875 C 194.601562 293.933594 194.933594 294.289062 195.164062 294.738281 L 195.222656 294.738281 L 202.574219 308.761719 L 199.476562 309.59375 C 193.789062 310.742188 187.886719 310.292969 182.433594 308.292969 L 190.496094 294.648438 C 190.984375 293.84375 191.859375 293.367188 192.796875 293.371094 Z M 192.757812 293.28125 " fill-opacity="1" fill-rule="nonzero"/></g></g></g><g clip-path="url(#f8cc3a70be)"><g clip-path="url(#3229db6569)"><g clip-path="url(#ad46f9de18)"><path stroke-linecap="butt" transform="matrix(4.540543, 0.112028, -0.111662, 4.525694, 122.4024, 202.30009)" fill="none" stroke-linejoin="miter" d="M 16.002372 4.541984 C 15.617614 4.568771 15.327182 4.897907 15.346961 5.282372 L 15.347265 5.469663 C 15.365423 5.683269 15.397273 5.893947 15.439399 6.102644 C 15.500892 6.504202 15.522857 6.907602 15.505293 7.312843 C 15.467269 7.445843 15.391075 7.565978 15.286669 7.658327 L 15.27209 7.940068 C 14.866867 7.974266 14.464902 8.036004 14.068796 8.12608 C 12.403033 8.502207 10.886045 9.365771 9.71482 10.61091 L 9.474913 10.44077 C 9.343419 10.48114 9.201088 10.465674 9.079924 10.401349 C 8.754814 10.159953 8.455679 9.890294 8.183336 9.590626 C 8.045976 9.427442 7.900209 9.272235 7.746056 9.125867 L 7.597762 9.007837 C 7.466122 8.902341 7.30373 8.840763 7.134916 8.832858 C 7.032411 8.827628 6.934778 8.845581 6.841178 8.887602 C 6.747557 8.92876 6.66818 8.989417 6.603886 9.06869 C 6.377683 9.385879 6.452147 9.825093 6.768298 10.052038 L 6.906063 10.161698 C 7.08361 10.279867 7.267803 10.388377 7.457718 10.484662 C 7.811859 10.682183 8.146171 10.912993 8.455687 11.184985 C 8.536812 11.300362 8.581264 11.428731 8.589021 11.569229 L 8.807295 11.76925 C 7.629946 13.535006 7.146572 15.673716 7.448593 17.77486 L 7.169247 17.855141 C 7.096387 17.970877 6.999028 18.069957 6.882956 18.142744 C 6.49151 18.247378 6.09309 18.313343 5.689396 18.339736 C 5.47443 18.344194 5.26148 18.360686 5.048848 18.390117 L 4.871743 18.429889 L 4.851968 18.430379 C 4.726779 18.447288 4.615294 18.496656 4.517468 18.576759 C 4.420502 18.656841 4.350699 18.756965 4.309778 18.87709 C 4.268835 18.996352 4.262369 19.118213 4.290336 19.240948 C 4.318324 19.364545 4.376883 19.47185 4.465131 19.56202 C 4.554238 19.652169 4.660659 19.711679 4.783554 19.741436 C 4.906449 19.771193 5.028496 19.766445 5.148834 19.727215 L 5.161731 19.726896 L 5.341903 19.7069 C 5.545173 19.646628 5.744665 19.57264 5.939624 19.489269 C 6.31533 19.339279 6.703943 19.224358 7.102129 19.148904 C 7.239969 19.156712 7.371908 19.204371 7.483975 19.283594 L 7.783859 19.233877 C 8.433965 21.251312 9.799998 22.960152 11.623658 24.037075 L 11.501745 24.292126 C 11.557957 24.408983 11.579216 24.538789 11.561742 24.667827 C 11.397357 25.049946 11.194718 25.415749 10.958856 25.759934 C 10.829705 25.930577 10.710203 26.10875 10.601167 26.292706 L 10.51612 26.472616 C 10.453428 26.582058 10.42362 26.699318 10.426717 26.825258 C 10.429814 26.951198 10.466209 27.066819 10.534183 27.172165 C 10.603038 27.278351 10.694471 27.358085 10.807642 27.41225 C 10.921674 27.466394 11.040896 27.486747 11.166191 27.474151 C 11.291443 27.45983 11.403874 27.41389 11.503482 27.336332 C 11.603091 27.258775 11.674656 27.160333 11.719059 27.041849 L 11.801782 26.872354 C 11.877722 26.671955 11.942401 26.468382 11.994097 26.261678 C 12.170902 25.824875 12.266919 25.356409 12.509256 25.065579 C 12.589991 24.990214 12.685184 24.942975 12.794875 24.925587 L 12.944737 24.652582 C 13.435456 24.841543 13.938786 24.983584 14.454769 25.080428 C 14.970732 25.17641 15.491567 25.225663 16.016373 25.226482 C 16.54206 25.228142 17.06226 25.181603 17.579574 25.087664 C 18.096028 24.993746 18.60018 24.854386 19.091129 24.667882 L 19.22386 24.922671 C 19.360278 24.942599 19.481718 25.018137 19.564435 25.128296 C 19.75218 25.486162 19.904216 25.861312 20.020396 26.247706 C 20.072817 26.455285 20.137191 26.659116 20.214377 26.859177 L 20.296838 27.028898 C 20.341895 27.146895 20.413117 27.244391 20.513084 27.321324 C 20.613071 27.39912 20.725171 27.44468 20.850243 27.457984 C 20.975335 27.47215 21.09528 27.451918 21.209239 27.398173 C 21.32322 27.34529 21.415027 27.265336 21.483843 27.160057 C 21.552638 27.053916 21.588507 26.938232 21.591428 26.812143 C 21.593468 26.685213 21.563909 26.567696 21.500149 26.458794 L 21.413134 26.278828 C 21.303659 26.095103 21.184895 25.918512 21.055104 25.748236 C 20.824964 25.415587 20.627009 25.06229 20.455283 24.69108 C 20.420788 24.547792 20.444174 24.414291 20.522862 24.290643 C 20.480289 24.203657 20.44367 24.113936 20.412168 24.022361 C 22.231696 22.937252 23.591816 21.222212 24.234683 19.202117 L 24.518951 19.252047 C 24.620757 19.158899 24.754619 19.109839 24.892375 19.114197 C 25.289114 19.189826 25.677584 19.313995 26.054399 19.453988 C 26.249324 19.544107 26.449068 19.620297 26.651953 19.684325 C 26.699581 19.696956 26.770401 19.70815 26.824047 19.720632 L 26.836965 19.721175 C 26.957493 19.759622 27.078913 19.764384 27.202064 19.734579 C 27.324334 19.703932 27.430406 19.64434 27.519379 19.554098 C 27.608373 19.46472 27.66683 19.357971 27.69563 19.234694 C 27.724429 19.111417 27.717999 18.989875 27.678059 18.870026 C 27.636399 18.75022 27.566832 18.650093 27.46936 18.569645 C 27.371028 18.489219 27.259725 18.44105 27.133709 18.424317 L 26.939866 18.378191 C 26.727511 18.348923 26.514615 18.332614 26.300296 18.328425 C 25.896168 18.302178 25.496222 18.236123 25.10564 18.130995 C 24.986131 18.06404 24.885592 17.963817 24.818096 17.842923 L 24.547723 17.763303 C 24.619232 17.242794 24.643348 16.719142 24.619273 16.194956 C 24.595177 15.669908 24.52392 15.151206 24.405503 14.638851 C 24.287107 14.127358 24.12346 13.629932 23.914606 13.148298 C 23.705731 12.665801 23.454418 12.206797 23.162366 11.770379 L 23.397886 11.552219 C 23.387635 11.415236 23.433312 11.278594 23.521924 11.173689 C 23.828584 10.909749 24.161823 10.677087 24.512224 10.477662 C 24.702545 10.380596 24.886594 10.273328 25.064347 10.154995 L 25.210268 10.036587 C 25.319589 9.969147 25.40248 9.876466 25.459005 9.761134 C 25.515508 9.64494 25.536591 9.522717 25.522253 9.394466 C 25.508754 9.265331 25.461203 9.150849 25.380438 9.050136 C 25.300533 8.949402 25.198975 8.877687 25.076621 8.83497 C 24.955127 8.792232 24.831086 8.785808 24.705334 8.814814 C 24.580442 8.8438 24.471812 8.904318 24.381162 8.996327 L 24.23264 9.113937 C 24.078822 9.261023 23.932932 9.415682 23.795852 9.578754 C 23.532297 9.88133 23.23967 10.156144 22.923107 10.402203 C 22.79279 10.45549 22.65808 10.470045 22.518977 10.445868 L 22.266166 10.625615 C 20.805607 9.096057 18.838818 8.146104 16.730692 7.955749 C 16.73081 7.855624 16.717661 7.705765 16.715656 7.659206 C 16.60275 7.580867 16.52412 7.461975 16.498435 7.3271 C 16.484166 6.921783 16.509553 6.519801 16.573715 6.120311 C 16.616729 5.910369 16.646825 5.699885 16.66568 5.487088 L 16.665918 5.286837 C 16.685731 4.903118 16.39631 4.573663 16.011097 4.546947 Z M 15.167588 9.70775 L 14.967864 13.200591 L 14.953247 13.200953 C 14.943075 13.416986 14.815983 13.601389 14.620652 13.704621 C 14.426201 13.808694 14.194889 13.778168 14.021428 13.651267 L 11.155731 11.621352 C 11.611858 11.173319 12.120494 10.796488 12.68164 10.490861 C 13.242785 10.185233 13.835221 9.962555 14.458925 9.821962 C 14.693423 9.772138 14.929078 9.734369 15.165869 9.707792 Z M 16.835722 9.707887 C 18.340696 9.895046 19.742403 10.570703 20.825824 11.632287 L 17.988234 13.64888 C 17.81273 13.788736 17.573402 13.817101 17.369731 13.721157 C 17.16692 13.625191 17.037161 13.421253 17.034225 13.196912 Z M 10.116093 12.934873 L 12.73558 15.272977 L 12.73594 15.287641 C 12.898606 15.430346 12.970282 15.651258 12.922131 15.86219 C 12.873979 16.073122 12.712051 16.240262 12.505256 16.297168 L 12.50463 16.306678 L 9.143113 17.273731 C 9.059962 16.516237 9.101733 15.766009 9.268428 15.023045 C 9.435101 14.279219 9.718236 13.583435 10.116932 12.933989 Z M 21.868714 12.934825 C 22.665367 14.229647 23.016735 15.748685 22.870703 17.261909 L 19.503713 16.29224 L 19.504255 16.279279 C 19.293801 16.222344 19.13398 16.055401 19.086632 15.844243 C 19.040144 15.633065 19.109599 15.413837 19.27296 15.269967 L 21.873225 12.943344 Z M 15.464637 15.454866 L 16.536582 15.455088 L 17.191954 16.287319 L 16.954274 17.327229 L 15.990939 17.790407 L 15.026316 17.326618 L 14.798579 16.287009 Z M 18.899091 18.293262 C 18.943694 18.287842 18.998762 18.288205 19.034162 18.293371 L 22.500946 18.878205 C 22.001249 20.318187 21.013763 21.548419 19.726327 22.370913 L 18.386201 19.126792 C 18.367923 19.083225 18.354783 19.038668 18.346738 18.991395 C 18.339574 18.944963 18.337569 18.898404 18.340701 18.850854 C 18.344714 18.804146 18.353907 18.758173 18.36828 18.712935 C 18.383534 18.668537 18.403129 18.625759 18.427947 18.585441 C 18.452765 18.545123 18.482847 18.50899 18.516432 18.47536 C 18.550039 18.442592 18.58719 18.414052 18.627887 18.389741 C 18.668584 18.365429 18.711148 18.347113 18.756399 18.333046 C 18.801649 18.318979 18.847907 18.310928 18.895153 18.308033 Z M 13.07605 18.307935 C 13.272271 18.310846 13.452834 18.411678 13.560102 18.575606 C 13.667391 18.740397 13.683638 18.946283 13.607188 19.125979 L 13.606647 19.138939 L 12.274882 22.356845 C 10.999609 21.539959 10.032006 20.325323 9.516907 18.900104 L 12.95411 18.316996 C 12.991855 18.312609 13.030588 18.313376 13.070244 18.31671 Z M 15.979589 19.707694 C 16.091339 19.704064 16.195234 19.730839 16.292091 19.786271 C 16.388948 19.841703 16.46396 19.91839 16.517127 20.016334 L 16.530023 20.016015 L 18.224287 23.072702 L 17.546999 23.273314 C 16.301394 23.557906 14.999826 23.490866 13.78871 23.078924 L 15.4892 20.021927 C 15.592303 19.841571 15.782306 19.731566 15.988675 19.727321 Z M 15.979589 19.707694 " stroke="#ffffff" stroke-width="0.055" stroke-opacity="1" stroke-miterlimit="4"/></g></g></g><g clip-path="url(#b65d228ff3)"><path fill="#020202" d="M 253.808594 174.867188 L 232.695312 174.867188 C 218.582031 171.359375 207.707031 160.285156 207.707031 145.558594 C 207.707031 133.382812 215.554688 122.238281 226.226562 118.039062 C 226.085938 116.734375 226.019531 115.496094 226.019531 114.1875 C 226.019531 93.269531 243.023438 76.347656 263.949219 76.347656 C 275.445312 76.347656 286.253906 81.578125 293.480469 90.519531 C 297.75 88.386719 302.496094 87.21875 307.3125 87.285156 C 323.90625 87.285156 338.222656 101.988281 338.84375 118.378906 L 282.238281 95.0625 L 253.808594 112.054688 Z M 253.808594 174.867188 " fill-opacity="1" fill-rule="nonzero"/></g><g clip-path="url(#c5a4a19f04)"><path fill="#5d5d5d" d="M 359.546875 190.484375 L 281.574219 205.34375 L 281.917969 150.582031 L 359.570312 164.960938 Z M 281.824219 102.152344 L 359.546875 131.390625 L 359.546875 160.628906 L 281.964844 144.117188 " fill-opacity="1" fill-rule="nonzero"/></g><path fill="#000000" d="M 281.964844 144.117188 L 260.828125 153.957031 L 260.828125 114.949219 L 281.828125 102.152344 M 356.035156 157.257812 L 285.542969 141.132812 L 285.542969 106.207031 L 356.035156 132.214844 Z M 317.277344 144.734375 L 324.300781 146.660156 L 324.300781 123.820312 L 317.277344 121.34375 Z M 310.191406 119.140625 L 303.167969 116.601562 L 303.167969 140.929688 L 310.191406 142.921875 Z M 331.394531 148.585938 L 338.347656 150.445312 L 338.484375 128.703125 L 331.394531 126.363281 Z M 289.054688 137.371094 L 296.078125 139.160156 L 296.078125 114.257812 L 289.054688 111.917969 Z M 352.527344 133.449219 L 345.503906 130.976562 L 345.503906 152.234375 L 352.527344 154.160156 Z M 285.546875 156.359375 L 285.546875 201.554688 L 356.039062 188.621094 L 356.039062 167.25 Z M 289.058594 196.257812 L 289.058594 161.449219 L 296.082031 162.34375 L 296.082031 195.066406 Z M 310.191406 192.75 L 303.167969 194.054688 L 303.167969 163.308594 L 310.191406 164.339844 L 310.191406 192.753906 Z M 317.28125 191.71875 L 317.28125 165.03125 L 324.304688 165.921875 L 324.304688 190.417969 Z M 338.417969 188.003906 L 331.394531 189.171875 L 331.394531 166.742188 L 338.417969 167.777344 Z M 352.734375 185.734375 L 345.4375 186.972656 L 345.4375 168.53125 L 352.253906 169.355469 Z M 352.734375 185.734375 " fill-opacity="1" fill-rule="nonzero"/><path fill="#5d5d5d" d="M 267.988281 143.425781 L 264.476562 145.488281 L 264.476562 117.765625 L 267.988281 115.839844 L 267.988281 143.429688 Z M 275.011719 111.851562 L 271.5 114.257812 L 271.5 141.226562 L 275.011719 139.300781 Z M 275.011719 111.851562 " fill-opacity="1" fill-rule="nonzero"/><g clip-path="url(#43776cd62a)"><path fill="#000000" d="M 260.828125 192.824219 L 260.691406 160.761719 L 281.894531 150.511719 L 282.03125 205.410156 " fill-opacity="1" fill-rule="nonzero"/></g><path fill="#5d5d5d" d="M 267.503906 192.6875 L 264.265625 191.035156 L 264.265625 163.996094 L 267.503906 162.574219 Z M 275.097656 159.179688 L 271.585938 160.691406 L 271.445312 194.839844 L 275.097656 196.695312 Z M 275.097656 159.179688 " fill-opacity="1" fill-rule="nonzero"/><path fill="#7a7a7a" d="M 352.453125 135.722656 L 289.121094 114.464844 L 289.191406 111.714844 L 352.453125 133.457031 Z M 352.25 169.433594 L 289.167969 161.523438 L 289.167969 164.273438 L 352.292969 171.703125 Z M 275.011719 115.429688 L 275.011719 111.988281 L 264.753906 117.632812 L 264.617188 120.523438 Z M 264.34375 166.066406 L 275.082031 162.144531 L 275.082031 159.183594 L 264.273438 163.996094 Z M 264.34375 166.066406 " fill-opacity="1" fill-rule="nonzero"/><g clip-path="url(#42470e7bc3)"><g mask="url(#17191d1d8a)"><g transform="matrix(1, 0, 0, 1, 279, 123)"><g clip-path="url(#6ed25b44e9)"><g clip-path="url(#b6ea179c61)"><path fill="#ffffff" d="M 80.546875 8.523438 L 80.546875 67.484375 L 3.03125 82.34375 L 61.753906 1.441406 Z M 80.546875 8.523438 " fill-opacity="1" fill-rule="nonzero"/></g></g></g></g></g></svg>