<svg xmlns="http://www.w3.org/2000/svg" xmlns:xlink="http://www.w3.org/1999/xlink" width="512" zoomAndPan="magnify" viewBox="0 0 384 383.999986" height="512" preserveAspectRatio="xMidYMid meet" version="1.0"><defs><clipPath id="687235085e"><path d="M 2.878906 0 L 380.878906 0 L 380.878906 195 L 2.878906 195 Z M 2.878906 0 " clip-rule="nonzero"/></clipPath></defs><g clip-path="url(#687235085e)"><path fill="#000000" d="M 324.222656 81.992188 C 318.328125 55.445312 294.746094 35.980469 267.039062 35.980469 C 255.25 13.566406 232.261719 0 206.324219 0 C 178.027344 0 153.269531 16.515625 142.65625 42.46875 C 134.402344 38.339844 125.5625 35.980469 116.128906 35.980469 C 88.421875 35.980469 64.253906 55.445312 58.359375 81.992188 C 27.707031 83.761719 2.945312 109.714844 2.945312 140.976562 C 2.945312 163.980469 15.914062 184.035156 35.957031 194.066406 L 35.957031 132.71875 C 35.957031 120.332031 45.980469 109.714844 58.949219 109.714844 L 324.8125 109.714844 C 337.191406 109.714844 347.800781 119.742188 347.800781 132.71875 L 347.800781 194.066406 C 367.84375 184.625 380.8125 163.980469 380.8125 140.976562 C 380.222656 109.714844 355.464844 83.761719 324.222656 81.992188 Z M 324.222656 81.992188 " fill-opacity="1" fill-rule="nonzero"/></g><path fill="#000000" d="M 248.765625 349.789062 L 229.3125 349.789062 L 225.1875 335.632812 L 157.984375 335.632812 L 153.859375 349.789062 L 134.402344 349.789062 C 124.972656 349.789062 117.308594 357.457031 117.308594 366.894531 C 117.308594 376.332031 124.972656 384 134.402344 384 L 249.355469 384 C 258.789062 384 266.453125 376.332031 266.453125 366.894531 C 265.863281 357.457031 258.199219 349.789062 248.765625 349.789062 Z M 248.765625 349.789062 " fill-opacity="1" fill-rule="nonzero"/><path fill="#000000" d="M 77.222656 294.339844 L 305.949219 294.339844 L 305.949219 151.003906 L 77.222656 151.003906 Z M 157.984375 186.394531 L 164.46875 166.339844 C 165.058594 163.980469 167.414062 162.800781 169.773438 163.390625 C 172.132812 163.980469 173.3125 166.339844 172.722656 168.699219 L 170.363281 175.777344 C 177.4375 171.648438 185.691406 169.878906 193.941406 169.878906 C 206.914062 169.878906 219.292969 174.597656 228.722656 184.035156 C 232.261719 187.574219 235.207031 191.703125 237.566406 195.835938 C 241.691406 202.914062 243.460938 211.171875 243.460938 219.429688 C 243.460938 227.6875 241.101562 235.945312 237.566406 243.023438 C 236.976562 244.203125 235.207031 245.382812 233.441406 245.382812 C 232.851562 245.382812 232.261719 245.382812 231.082031 244.792969 C 228.722656 243.613281 228.132812 240.664062 229.3125 238.894531 C 232.261719 232.996094 234.027344 226.507812 234.027344 219.429688 C 234.027344 212.351562 232.261719 205.863281 229.3125 199.964844 C 227.542969 196.425781 224.597656 192.886719 221.648438 189.933594 C 213.984375 182.265625 203.964844 178.136719 193.355469 178.136719 C 185.101562 178.136719 177.4375 180.496094 170.953125 184.625 L 183.332031 188.164062 C 185.691406 188.753906 186.871094 191.113281 186.28125 193.476562 C 185.691406 195.246094 183.921875 196.425781 182.152344 196.425781 C 181.5625 196.425781 181.5625 196.425781 180.972656 196.425781 L 160.929688 189.933594 C 159.753906 189.34375 158.574219 188.753906 158.574219 187.574219 C 157.394531 188.753906 157.394531 187.574219 157.984375 186.394531 Z M 145.605469 201.144531 C 146.785156 198.785156 149.730469 198.195312 151.5 199.375 C 153.859375 200.554688 154.445312 203.503906 153.269531 205.273438 C 149.730469 211.171875 148.550781 217.660156 148.550781 224.738281 C 148.550781 231.816406 150.320312 238.304688 153.269531 244.203125 C 155.035156 247.742188 157.984375 251.28125 160.929688 254.230469 C 168.59375 261.898438 178.617188 266.027344 189.226562 266.027344 C 197.480469 266.027344 205.144531 263.667969 211.628906 259.539062 L 199.25 256 C 196.890625 255.410156 195.710938 253.050781 196.300781 250.691406 C 196.890625 248.332031 199.25 247.152344 201.605469 247.742188 L 221.648438 253.640625 C 222.828125 254.230469 224.007812 254.820312 224.007812 256 C 224.597656 257.179688 224.597656 258.359375 224.597656 259.539062 L 218.113281 279.59375 C 217.523438 281.363281 215.753906 282.542969 213.984375 282.542969 C 213.398438 282.542969 213.398438 282.542969 212.808594 282.542969 C 210.449219 281.953125 209.269531 279.59375 209.859375 277.234375 L 212.21875 269.566406 C 205.144531 273.695312 196.890625 275.464844 188.636719 275.464844 C 175.667969 275.464844 163.289062 270.746094 153.859375 261.308594 C 150.320312 257.769531 146.785156 253.640625 144.425781 249.511719 C 140.300781 242.433594 138.53125 234.175781 138.53125 225.917969 C 139.710938 216.480469 141.476562 208.222656 145.605469 201.144531 Z M 145.605469 201.144531 " fill-opacity="1" fill-rule="nonzero"/><path fill="#000000" d="M 324.222656 118.5625 L 58.359375 118.5625 C 50.695312 118.5625 44.210938 125.050781 44.210938 132.71875 L 44.210938 313.214844 C 44.210938 320.886719 50.695312 326.785156 58.359375 326.785156 L 324.222656 326.785156 C 331.886719 326.785156 338.371094 320.886719 338.371094 313.214844 L 338.371094 132.71875 C 338.371094 125.050781 331.886719 118.5625 324.222656 118.5625 Z M 314.789062 299.058594 C 314.789062 301.417969 313.019531 303.777344 310.074219 303.777344 L 72.507812 303.777344 C 70.148438 303.777344 67.792969 302.007812 67.792969 299.058594 L 67.792969 146.875 C 67.792969 144.515625 69.558594 142.15625 72.507812 142.15625 L 310.074219 142.15625 C 312.433594 142.15625 314.789062 143.925781 314.789062 146.875 Z M 314.789062 299.058594 " fill-opacity="1" fill-rule="nonzero"/></svg>