<svg xmlns="http://www.w3.org/2000/svg" xmlns:xlink="http://www.w3.org/1999/xlink" width="512" zoomAndPan="magnify" viewBox="0 0 384 383.999986" height="512" preserveAspectRatio="xMidYMid meet" version="1.0"><defs><clipPath id="63a1010307"><path d="M 25.441406 7.175781 L 352.441406 7.175781 L 352.441406 383.722656 L 25.441406 383.722656 Z M 25.441406 7.175781 " clip-rule="nonzero"/></clipPath></defs><g clip-path="url(#63a1010307)"><path fill="#141414" d="M 275.070312 25.90625 C 243.234375 25.90625 212.765625 19.265625 188.941406 7.179688 C 165.121094 19.265625 134.648438 25.90625 102.808594 25.90625 C 74.761719 25.90625 47.761719 20.75 25.441406 11.253906 L 25.441406 167.550781 C 25.441406 269.28125 98.660156 365.914062 188.941406 383.722656 C 279.21875 365.914062 352.441406 269.28125 352.441406 167.550781 L 352.441406 11.253906 C 330.121094 20.75 303.121094 25.90625 275.070312 25.90625 " fill-opacity="1" fill-rule="nonzero"/></g><path fill="#ffffff" d="M 156.847656 258.046875 L 88.734375 189.878906 L 109.144531 169.453125 L 156.847656 217.195312 L 268.734375 105.214844 L 289.144531 125.640625 L 156.847656 258.046875 " fill-opacity="1" fill-rule="nonzero"/><path fill="#000000" d="M 254.289062 355.570312 C 306.816406 319.445312 344.96875 256.019531 351.457031 188.007812 L 289.144531 125.640625 L 156.847656 258.046875 L 254.289062 355.570312 " fill-opacity="1" fill-rule="nonzero"/></svg>