<svg xmlns="http://www.w3.org/2000/svg" xmlns:xlink="http://www.w3.org/1999/xlink" width="100" zoomAndPan="magnify" viewBox="0 0 75 74.999997" height="100" preserveAspectRatio="xMidYMid meet" version="1.0"><defs><clipPath id="419574b461"><path d="M 19 10.78125 L 24 10.78125 L 24 15 L 19 15 Z M 19 10.78125 " clip-rule="nonzero"/></clipPath><clipPath id="02dd3bd493"><path d="M 48 10.78125 L 53 10.78125 L 53 15 L 48 15 Z M 48 10.78125 " clip-rule="nonzero"/></clipPath><clipPath id="1e91ed84f5"><path d="M 7.5 52 L 12 52 L 12 57 L 7.5 57 Z M 7.5 52 " clip-rule="nonzero"/></clipPath><clipPath id="6baa386bb9"><path d="M 7.5 39 L 13 39 L 13 44 L 7.5 44 Z M 7.5 39 " clip-rule="nonzero"/></clipPath><clipPath id="b3b10a2e0d"><path d="M 7.5 34 L 13 34 L 13 40 L 7.5 40 Z M 7.5 34 " clip-rule="nonzero"/></clipPath><clipPath id="f2f776cba3"><path d="M 7.5 22 L 12 22 L 12 27 L 7.5 27 Z M 7.5 22 " clip-rule="nonzero"/></clipPath><clipPath id="083bdffaae"><path d="M 48.632812 63.511719 L 52.964844 63.511719 L 52.964844 67.78125 L 48.632812 67.78125 Z M 48.632812 63.511719 " clip-rule="nonzero"/></clipPath><clipPath id="14ec8220ac"><path d="M 36 63 L 41 63 L 41 67.78125 L 36 67.78125 Z M 36 63 " clip-rule="nonzero"/></clipPath><clipPath id="bb4e5fb355"><path d="M 31 63 L 36 63 L 36 67.78125 L 31 67.78125 Z M 31 63 " clip-rule="nonzero"/></clipPath><clipPath id="510f3a1d4d"><path d="M 19 63.511719 L 23.273438 63.511719 L 23.273438 67.78125 L 19 67.78125 Z M 19 63.511719 " clip-rule="nonzero"/></clipPath><clipPath id="612698ceb6"><path d="M 60.230469 22.222656 L 64.5 22.222656 L 64.5 26.554688 L 60.230469 26.554688 Z M 60.230469 22.222656 " clip-rule="nonzero"/></clipPath><clipPath id="e305705428"><path d="M 59 34 L 64.5 34 L 64.5 40 L 59 40 Z M 59 34 " clip-rule="nonzero"/></clipPath><clipPath id="937cd8dd15"><path d="M 59 39 L 64.5 39 L 64.5 44 L 59 44 Z M 59 39 " clip-rule="nonzero"/></clipPath><clipPath id="a8b5e0ec24"><path d="M 60.230469 52 L 64.5 52 L 64.5 56.242188 L 60.230469 56.242188 Z M 60.230469 52 " clip-rule="nonzero"/></clipPath></defs><path fill="#000000" d="M 49.210938 55.703125 L 22.792969 55.703125 C 21.023438 55.703125 19.585938 54.265625 19.585938 52.496094 L 19.585938 26.074219 C 19.585938 24.304688 21.023438 22.867188 22.792969 22.867188 L 49.214844 22.867188 C 50.984375 22.867188 52.421875 24.308594 52.421875 26.074219 L 52.421875 52.496094 C 52.421875 54.265625 50.984375 55.703125 49.210938 55.703125 Z M 22.792969 24.050781 C 21.679688 24.050781 20.773438 24.960938 20.773438 26.074219 L 20.773438 52.492188 C 20.773438 53.609375 21.679688 54.515625 22.792969 54.515625 L 49.214844 54.515625 C 50.328125 54.515625 51.234375 53.609375 51.234375 52.492188 L 51.234375 26.074219 C 51.234375 24.960938 50.328125 24.054688 49.214844 24.054688 L 22.792969 24.054688 L 22.792969 24.050781 " fill-opacity="1" fill-rule="evenodd"/><path fill="#000000" d="M 44.695312 50.289062 L 27.3125 50.289062 C 26.035156 50.289062 24.996094 49.253906 24.996094 47.976562 L 24.996094 30.59375 C 24.996094 29.316406 26.035156 28.277344 27.3125 28.277344 L 44.695312 28.277344 C 45.96875 28.277344 47.007812 29.316406 47.007812 30.59375 L 47.007812 47.976562 C 47.007812 49.25 45.96875 50.289062 44.695312 50.289062 Z M 27.3125 29.464844 C 26.691406 29.464844 26.183594 29.972656 26.183594 30.59375 L 26.183594 47.976562 C 26.183594 48.597656 26.691406 49.101562 27.3125 49.101562 L 44.695312 49.101562 C 45.316406 49.101562 45.820312 48.597656 45.820312 47.976562 L 45.820312 30.59375 C 45.820312 29.972656 45.316406 29.464844 44.695312 29.464844 L 27.3125 29.464844 " fill-opacity="1" fill-rule="evenodd"/><path fill="#000000" d="M 25.503906 24.050781 C 25.175781 24.050781 24.910156 23.785156 24.910156 23.457031 L 24.910156 20.054688 L 21.148438 20.054688 C 20.820312 20.054688 20.554688 19.789062 20.554688 19.460938 L 20.554688 14.367188 C 20.554688 14.039062 20.820312 13.773438 21.148438 13.773438 C 21.476562 13.773438 21.742188 14.039062 21.742188 14.367188 L 21.742188 18.867188 L 25.503906 18.867188 C 25.832031 18.867188 26.097656 19.132812 26.097656 19.460938 L 26.097656 23.460938 C 26.097656 23.789062 25.832031 24.050781 25.503906 24.050781 " fill-opacity="1" fill-rule="evenodd"/><path fill="#000000" d="M 46.503906 24.050781 C 46.175781 24.050781 45.910156 23.785156 45.910156 23.457031 L 45.910156 19.457031 C 45.910156 19.128906 46.175781 18.863281 46.503906 18.863281 L 50.265625 18.863281 L 50.265625 14.367188 C 50.265625 14.039062 50.53125 13.773438 50.859375 13.773438 C 51.1875 13.773438 51.453125 14.039062 51.453125 14.367188 L 51.453125 19.460938 C 51.453125 19.789062 51.1875 20.054688 50.859375 20.054688 L 47.097656 20.054688 L 47.097656 23.460938 C 47.097656 23.789062 46.832031 24.050781 46.503906 24.050781 " fill-opacity="1" fill-rule="evenodd"/><path fill="#000000" d="M 29.300781 24.050781 C 28.972656 24.050781 28.707031 23.785156 28.707031 23.457031 L 28.707031 18.722656 C 28.707031 18.394531 28.972656 18.128906 29.300781 18.128906 C 29.628906 18.128906 29.894531 18.394531 29.894531 18.722656 L 29.894531 23.460938 C 29.894531 23.789062 29.628906 24.050781 29.300781 24.050781 " fill-opacity="1" fill-rule="evenodd"/><path fill="#000000" d="M 33.769531 24.050781 C 33.441406 24.050781 33.175781 23.785156 33.175781 23.457031 L 33.175781 14.839844 C 33.175781 14.511719 33.441406 14.246094 33.769531 14.246094 C 34.097656 14.246094 34.363281 14.511719 34.363281 14.839844 L 34.363281 23.460938 C 34.363281 23.789062 34.097656 24.050781 33.769531 24.050781 " fill-opacity="1" fill-rule="evenodd"/><path fill="#000000" d="M 38.238281 24.050781 C 37.910156 24.050781 37.644531 23.785156 37.644531 23.457031 L 37.644531 14.839844 C 37.644531 14.511719 37.910156 14.246094 38.238281 14.246094 C 38.566406 14.246094 38.832031 14.511719 38.832031 14.839844 L 38.832031 23.460938 C 38.832031 23.789062 38.566406 24.050781 38.238281 24.050781 " fill-opacity="1" fill-rule="evenodd"/><path fill="#000000" d="M 42.707031 24.050781 C 42.378906 24.050781 42.113281 23.785156 42.113281 23.457031 L 42.113281 18.722656 C 42.113281 18.394531 42.378906 18.128906 42.707031 18.128906 C 43.03125 18.128906 43.300781 18.394531 43.300781 18.722656 L 43.300781 23.460938 C 43.300781 23.789062 43.03125 24.050781 42.707031 24.050781 " fill-opacity="1" fill-rule="evenodd"/><g clip-path="url(#419574b461)"><path fill="#000000" d="M 21.148438 14.960938 C 19.996094 14.960938 19.058594 14.023438 19.058594 12.871094 C 19.058594 11.71875 19.996094 10.78125 21.148438 10.78125 C 22.300781 10.78125 23.238281 11.71875 23.238281 12.871094 C 23.238281 14.023438 22.300781 14.960938 21.148438 14.960938 Z M 21.148438 11.96875 C 20.648438 11.96875 20.246094 12.375 20.246094 12.871094 C 20.246094 13.371094 20.648438 13.777344 21.148438 13.777344 C 21.644531 13.777344 22.050781 13.371094 22.050781 12.871094 C 22.050781 12.375 21.644531 11.96875 21.148438 11.96875 " fill-opacity="1" fill-rule="evenodd"/></g><path fill="#000000" d="M 29.300781 19.316406 C 28.148438 19.316406 27.210938 18.382812 27.210938 17.226562 C 27.210938 16.074219 28.148438 15.136719 29.300781 15.136719 C 30.453125 15.136719 31.390625 16.074219 31.390625 17.226562 C 31.390625 18.378906 30.453125 19.316406 29.300781 19.316406 Z M 29.300781 16.324219 C 28.804688 16.324219 28.398438 16.730469 28.398438 17.226562 C 28.398438 17.726562 28.804688 18.128906 29.300781 18.128906 C 29.800781 18.128906 30.203125 17.726562 30.203125 17.226562 C 30.203125 16.730469 29.800781 16.324219 29.300781 16.324219 " fill-opacity="1" fill-rule="evenodd"/><path fill="#000000" d="M 33.769531 15.433594 C 32.617188 15.433594 31.679688 14.496094 31.679688 13.34375 C 31.679688 12.191406 32.613281 11.253906 33.769531 11.253906 C 34.921875 11.253906 35.859375 12.191406 35.859375 13.34375 C 35.859375 14.496094 34.921875 15.433594 33.769531 15.433594 Z M 33.769531 12.441406 C 33.269531 12.441406 32.867188 12.847656 32.867188 13.34375 C 32.867188 13.84375 33.269531 14.25 33.769531 14.25 C 34.265625 14.25 34.671875 13.84375 34.671875 13.34375 C 34.671875 12.847656 34.265625 12.441406 33.769531 12.441406 " fill-opacity="1" fill-rule="evenodd"/><path fill="#000000" d="M 38.238281 15.433594 C 37.085938 15.433594 36.148438 14.496094 36.148438 13.34375 C 36.148438 12.191406 37.082031 11.253906 38.238281 11.253906 C 39.390625 11.253906 40.328125 12.191406 40.328125 13.34375 C 40.328125 14.496094 39.390625 15.433594 38.238281 15.433594 Z M 38.238281 12.441406 C 37.738281 12.441406 37.335938 12.847656 37.335938 13.34375 C 37.335938 13.84375 37.738281 14.25 38.238281 14.25 C 38.734375 14.25 39.140625 13.84375 39.140625 13.34375 C 39.140625 12.847656 38.734375 12.441406 38.238281 12.441406 " fill-opacity="1" fill-rule="evenodd"/><path fill="#000000" d="M 42.707031 19.316406 C 41.554688 19.316406 40.613281 18.382812 40.613281 17.226562 C 40.613281 16.074219 41.550781 15.136719 42.707031 15.136719 C 43.855469 15.136719 44.796875 16.074219 44.796875 17.226562 C 44.796875 18.378906 43.855469 19.316406 42.707031 19.316406 Z M 42.707031 16.324219 C 42.207031 16.324219 41.800781 16.730469 41.800781 17.226562 C 41.800781 17.726562 42.207031 18.128906 42.707031 18.128906 C 43.203125 18.128906 43.609375 17.726562 43.609375 17.226562 C 43.609375 16.730469 43.203125 16.324219 42.707031 16.324219 " fill-opacity="1" fill-rule="evenodd"/><g clip-path="url(#02dd3bd493)"><path fill="#000000" d="M 50.859375 14.960938 C 49.707031 14.960938 48.765625 14.023438 48.765625 12.871094 C 48.765625 11.71875 49.703125 10.78125 50.859375 10.78125 C 52.011719 10.78125 52.949219 11.71875 52.949219 12.871094 C 52.949219 14.023438 52.007812 14.960938 50.859375 14.960938 Z M 50.859375 11.96875 C 50.359375 11.96875 49.953125 12.375 49.953125 12.871094 C 49.953125 13.371094 50.359375 13.777344 50.859375 13.777344 C 51.355469 13.777344 51.761719 13.371094 51.761719 12.871094 C 51.761719 12.375 51.355469 11.96875 50.859375 11.96875 " fill-opacity="1" fill-rule="evenodd"/></g><path fill="#000000" d="M 16.179688 54.734375 L 11.085938 54.734375 C 10.757812 54.734375 10.492188 54.46875 10.492188 54.140625 C 10.492188 53.8125 10.757812 53.546875 11.085938 53.546875 L 15.585938 53.546875 L 15.585938 49.785156 C 15.585938 49.457031 15.851562 49.191406 16.179688 49.191406 L 20.179688 49.191406 C 20.507812 49.191406 20.773438 49.457031 20.773438 49.785156 C 20.773438 50.113281 20.507812 50.378906 20.179688 50.378906 L 16.773438 50.378906 L 16.773438 54.140625 C 16.773438 54.46875 16.507812 54.734375 16.179688 54.734375 " fill-opacity="1" fill-rule="evenodd"/><path fill="#000000" d="M 20.175781 29.378906 L 16.175781 29.378906 C 15.847656 29.378906 15.582031 29.113281 15.582031 28.785156 L 15.582031 25.023438 L 11.085938 25.023438 C 10.757812 25.023438 10.492188 24.757812 10.492188 24.429688 C 10.492188 24.101562 10.757812 23.835938 11.085938 23.835938 L 16.179688 23.835938 C 16.507812 23.835938 16.773438 24.101562 16.773438 24.429688 L 16.773438 28.191406 L 20.179688 28.191406 C 20.507812 28.191406 20.773438 28.457031 20.773438 28.785156 C 20.773438 29.113281 20.507812 29.378906 20.175781 29.378906 " fill-opacity="1" fill-rule="evenodd"/><path fill="#000000" d="M 20.175781 46.582031 L 15.441406 46.582031 C 15.113281 46.582031 14.847656 46.316406 14.847656 45.988281 C 14.847656 45.660156 15.113281 45.394531 15.441406 45.394531 L 20.179688 45.394531 C 20.507812 45.394531 20.773438 45.660156 20.773438 45.988281 C 20.773438 46.316406 20.507812 46.582031 20.175781 46.582031 " fill-opacity="1" fill-rule="evenodd"/><path fill="#000000" d="M 20.175781 42.113281 L 11.558594 42.113281 C 11.230469 42.113281 10.964844 41.847656 10.964844 41.519531 C 10.964844 41.191406 11.230469 40.925781 11.558594 40.925781 L 20.175781 40.925781 C 20.503906 40.925781 20.769531 41.191406 20.769531 41.519531 C 20.769531 41.847656 20.507812 42.113281 20.175781 42.113281 " fill-opacity="1" fill-rule="evenodd"/><path fill="#000000" d="M 20.175781 37.644531 L 11.558594 37.644531 C 11.230469 37.644531 10.964844 37.378906 10.964844 37.050781 C 10.964844 36.722656 11.230469 36.457031 11.558594 36.457031 L 20.175781 36.457031 C 20.503906 36.457031 20.769531 36.722656 20.769531 37.050781 C 20.769531 37.378906 20.507812 37.644531 20.175781 37.644531 " fill-opacity="1" fill-rule="evenodd"/><path fill="#000000" d="M 20.175781 33.175781 L 15.441406 33.175781 C 15.113281 33.175781 14.847656 32.910156 14.847656 32.582031 C 14.847656 32.253906 15.113281 31.988281 15.441406 31.988281 L 20.179688 31.988281 C 20.507812 31.988281 20.773438 32.253906 20.773438 32.582031 C 20.773438 32.910156 20.507812 33.175781 20.175781 33.175781 " fill-opacity="1" fill-rule="evenodd"/><g clip-path="url(#1e91ed84f5)"><path fill="#000000" d="M 9.589844 56.230469 C 8.4375 56.230469 7.5 55.292969 7.5 54.140625 C 7.5 52.988281 8.4375 52.050781 9.589844 52.050781 C 10.742188 52.050781 11.679688 52.984375 11.679688 54.140625 C 11.679688 55.292969 10.742188 56.230469 9.589844 56.230469 Z M 9.589844 53.238281 C 9.09375 53.238281 8.6875 53.640625 8.6875 54.140625 C 8.6875 54.636719 9.09375 55.042969 9.589844 55.042969 C 10.089844 55.042969 10.492188 54.636719 10.492188 54.140625 C 10.492188 53.640625 10.089844 53.238281 9.589844 53.238281 " fill-opacity="1" fill-rule="evenodd"/></g><path fill="#000000" d="M 13.945312 48.078125 C 12.792969 48.078125 11.855469 47.140625 11.855469 45.988281 C 11.855469 44.835938 12.792969 43.894531 13.945312 43.894531 C 15.097656 43.894531 16.035156 44.832031 16.035156 45.988281 C 16.035156 47.140625 15.097656 48.078125 13.945312 48.078125 Z M 13.945312 45.082031 C 13.449219 45.082031 13.042969 45.488281 13.042969 45.988281 C 13.042969 46.484375 13.449219 46.890625 13.945312 46.890625 C 14.441406 46.890625 14.847656 46.484375 14.847656 45.988281 C 14.847656 45.488281 14.445312 45.082031 13.945312 45.082031 " fill-opacity="1" fill-rule="evenodd"/><g clip-path="url(#6baa386bb9)"><path fill="#000000" d="M 10.0625 43.609375 C 8.910156 43.609375 7.972656 42.671875 7.972656 41.519531 C 7.972656 40.367188 8.910156 39.425781 10.0625 39.425781 C 11.21875 39.425781 12.15625 40.363281 12.15625 41.519531 C 12.152344 42.671875 11.214844 43.609375 10.0625 43.609375 Z M 10.0625 40.617188 C 9.566406 40.617188 9.160156 41.019531 9.160156 41.519531 C 9.160156 42.015625 9.566406 42.421875 10.0625 42.421875 C 10.5625 42.421875 10.964844 42.015625 10.964844 41.519531 C 10.964844 41.019531 10.558594 40.617188 10.0625 40.617188 " fill-opacity="1" fill-rule="evenodd"/></g><g clip-path="url(#b3b10a2e0d)"><path fill="#000000" d="M 10.0625 39.140625 C 8.910156 39.140625 7.972656 38.203125 7.972656 37.050781 C 7.972656 35.898438 8.910156 34.960938 10.0625 34.960938 C 11.21875 34.960938 12.15625 35.898438 12.15625 37.050781 C 12.152344 38.203125 11.214844 39.140625 10.0625 39.140625 Z M 10.0625 36.148438 C 9.566406 36.148438 9.160156 36.554688 9.160156 37.050781 C 9.160156 37.550781 9.566406 37.953125 10.0625 37.953125 C 10.5625 37.953125 10.964844 37.550781 10.964844 37.050781 C 10.964844 36.554688 10.558594 36.148438 10.0625 36.148438 " fill-opacity="1" fill-rule="evenodd"/></g><path fill="#000000" d="M 13.945312 34.671875 C 12.792969 34.671875 11.855469 33.734375 11.855469 32.582031 C 11.855469 31.429688 12.792969 30.492188 13.945312 30.492188 C 15.097656 30.492188 16.035156 31.429688 16.035156 32.582031 C 16.035156 33.734375 15.097656 34.671875 13.945312 34.671875 Z M 13.945312 31.679688 C 13.449219 31.679688 13.042969 32.085938 13.042969 32.582031 C 13.042969 33.082031 13.449219 33.484375 13.945312 33.484375 C 14.441406 33.484375 14.847656 33.082031 14.847656 32.582031 C 14.847656 32.085938 14.445312 31.679688 13.945312 31.679688 " fill-opacity="1" fill-rule="evenodd"/><g clip-path="url(#f2f776cba3)"><path fill="#000000" d="M 9.589844 26.519531 C 8.4375 26.519531 7.5 25.582031 7.5 24.429688 C 7.5 23.277344 8.4375 22.339844 9.589844 22.339844 C 10.742188 22.339844 11.679688 23.277344 11.679688 24.429688 C 11.679688 25.582031 10.742188 26.519531 9.589844 26.519531 Z M 9.589844 23.527344 C 9.09375 23.527344 8.6875 23.933594 8.6875 24.429688 C 8.6875 24.929688 9.09375 25.332031 9.589844 25.332031 C 10.089844 25.332031 10.492188 24.929688 10.492188 24.429688 C 10.492188 23.933594 10.089844 23.527344 9.589844 23.527344 " fill-opacity="1" fill-rule="evenodd"/></g><path fill="#000000" d="M 50.859375 64.796875 C 50.53125 64.796875 50.265625 64.53125 50.265625 64.203125 L 50.265625 59.703125 L 46.503906 59.703125 C 46.175781 59.703125 45.910156 59.4375 45.910156 59.109375 L 45.910156 55.109375 C 45.910156 54.78125 46.175781 54.515625 46.503906 54.515625 C 46.832031 54.515625 47.097656 54.78125 47.097656 55.109375 L 47.097656 58.515625 L 50.859375 58.515625 C 51.1875 58.515625 51.453125 58.785156 51.453125 59.109375 L 51.453125 64.203125 C 51.453125 64.53125 51.1875 64.796875 50.859375 64.796875 " fill-opacity="1" fill-rule="evenodd"/><path fill="#000000" d="M 21.148438 64.796875 C 20.820312 64.796875 20.554688 64.53125 20.554688 64.203125 L 20.554688 59.109375 C 20.554688 58.78125 20.820312 58.515625 21.148438 58.515625 L 24.910156 58.515625 L 24.910156 55.109375 C 24.910156 54.78125 25.175781 54.515625 25.503906 54.515625 C 25.832031 54.515625 26.097656 54.78125 26.097656 55.109375 L 26.097656 59.109375 C 26.097656 59.4375 25.832031 59.703125 25.503906 59.703125 L 21.742188 59.703125 L 21.742188 64.203125 C 21.742188 64.53125 21.476562 64.796875 21.148438 64.796875 " fill-opacity="1" fill-rule="evenodd"/><path fill="#000000" d="M 42.707031 60.4375 C 42.378906 60.4375 42.113281 60.171875 42.113281 59.84375 L 42.113281 55.109375 C 42.113281 54.78125 42.378906 54.515625 42.707031 54.515625 C 43.03125 54.515625 43.300781 54.78125 43.300781 55.109375 L 43.300781 59.847656 C 43.300781 60.171875 43.03125 60.4375 42.707031 60.4375 " fill-opacity="1" fill-rule="evenodd"/><path fill="#000000" d="M 38.238281 64.320312 C 37.910156 64.320312 37.644531 64.054688 37.644531 63.726562 L 37.644531 55.109375 C 37.644531 54.78125 37.910156 54.515625 38.238281 54.515625 C 38.566406 54.515625 38.832031 54.78125 38.832031 55.109375 L 38.832031 63.726562 C 38.832031 64.054688 38.566406 64.320312 38.238281 64.320312 " fill-opacity="1" fill-rule="evenodd"/><path fill="#000000" d="M 33.769531 64.320312 C 33.441406 64.320312 33.175781 64.054688 33.175781 63.726562 L 33.175781 55.109375 C 33.175781 54.78125 33.441406 54.515625 33.769531 54.515625 C 34.097656 54.515625 34.363281 54.78125 34.363281 55.109375 L 34.363281 63.726562 C 34.363281 64.054688 34.097656 64.320312 33.769531 64.320312 " fill-opacity="1" fill-rule="evenodd"/><path fill="#000000" d="M 29.300781 60.4375 C 28.972656 60.4375 28.707031 60.171875 28.707031 59.84375 L 28.707031 55.109375 C 28.707031 54.78125 28.972656 54.515625 29.300781 54.515625 C 29.628906 54.515625 29.894531 54.78125 29.894531 55.109375 L 29.894531 59.847656 C 29.894531 60.171875 29.628906 60.4375 29.300781 60.4375 " fill-opacity="1" fill-rule="evenodd"/><g clip-path="url(#083bdffaae)"><path fill="#000000" d="M 50.859375 67.789062 C 49.707031 67.789062 48.765625 66.851562 48.765625 65.695312 C 48.765625 64.542969 49.703125 63.605469 50.859375 63.605469 C 52.007812 63.605469 52.949219 64.542969 52.949219 65.695312 C 52.949219 66.851562 52.007812 67.789062 50.859375 67.789062 Z M 50.859375 64.796875 C 50.359375 64.796875 49.953125 65.199219 49.953125 65.699219 C 49.953125 66.195312 50.359375 66.601562 50.859375 66.601562 C 51.355469 66.601562 51.761719 66.195312 51.761719 65.699219 C 51.761719 65.199219 51.355469 64.796875 50.859375 64.796875 " fill-opacity="1" fill-rule="evenodd"/></g><path fill="#000000" d="M 42.707031 63.433594 C 41.554688 63.433594 40.613281 62.496094 40.613281 61.34375 C 40.613281 60.1875 41.550781 59.25 42.707031 59.25 C 43.855469 59.25 44.796875 60.1875 44.796875 61.34375 C 44.796875 62.496094 43.855469 63.433594 42.707031 63.433594 Z M 42.707031 60.4375 C 42.207031 60.4375 41.800781 60.84375 41.800781 61.34375 C 41.800781 61.839844 42.207031 62.246094 42.707031 62.246094 C 43.203125 62.246094 43.609375 61.839844 43.609375 61.34375 C 43.609375 60.84375 43.203125 60.4375 42.707031 60.4375 " fill-opacity="1" fill-rule="evenodd"/><g clip-path="url(#14ec8220ac)"><path fill="#000000" d="M 38.238281 67.316406 C 37.085938 67.316406 36.148438 66.378906 36.148438 65.222656 C 36.148438 64.070312 37.082031 63.132812 38.238281 63.132812 C 39.390625 63.132812 40.328125 64.070312 40.328125 65.222656 C 40.328125 66.378906 39.390625 67.316406 38.238281 67.316406 Z M 38.238281 64.320312 C 37.738281 64.320312 37.335938 64.726562 37.335938 65.226562 C 37.335938 65.722656 37.738281 66.128906 38.238281 66.128906 C 38.734375 66.128906 39.140625 65.722656 39.140625 65.226562 C 39.140625 64.726562 38.734375 64.320312 38.238281 64.320312 " fill-opacity="1" fill-rule="evenodd"/></g><g clip-path="url(#bb4e5fb355)"><path fill="#000000" d="M 33.769531 67.316406 C 32.617188 67.316406 31.679688 66.378906 31.679688 65.222656 C 31.679688 64.070312 32.613281 63.132812 33.769531 63.132812 C 34.921875 63.132812 35.859375 64.070312 35.859375 65.222656 C 35.859375 66.378906 34.921875 67.316406 33.769531 67.316406 Z M 33.769531 64.320312 C 33.269531 64.320312 32.867188 64.726562 32.867188 65.226562 C 32.867188 65.722656 33.269531 66.128906 33.769531 66.128906 C 34.265625 66.128906 34.671875 65.722656 34.671875 65.226562 C 34.671875 64.726562 34.265625 64.320312 33.769531 64.320312 " fill-opacity="1" fill-rule="evenodd"/></g><path fill="#000000" d="M 29.300781 63.433594 C 28.148438 63.433594 27.210938 62.496094 27.210938 61.34375 C 27.210938 60.1875 28.148438 59.25 29.300781 59.25 C 30.453125 59.25 31.390625 60.1875 31.390625 61.34375 C 31.390625 62.496094 30.453125 63.433594 29.300781 63.433594 Z M 29.300781 60.4375 C 28.804688 60.4375 28.398438 60.84375 28.398438 61.34375 C 28.398438 61.839844 28.804688 62.246094 29.300781 62.246094 C 29.800781 62.246094 30.203125 61.839844 30.203125 61.34375 C 30.203125 60.84375 29.800781 60.4375 29.300781 60.4375 " fill-opacity="1" fill-rule="evenodd"/><g clip-path="url(#510f3a1d4d)"><path fill="#000000" d="M 21.148438 67.789062 C 19.996094 67.789062 19.058594 66.851562 19.058594 65.695312 C 19.058594 64.542969 19.996094 63.605469 21.148438 63.605469 C 22.300781 63.605469 23.238281 64.542969 23.238281 65.695312 C 23.238281 66.851562 22.300781 67.789062 21.148438 67.789062 Z M 21.148438 64.796875 C 20.648438 64.796875 20.246094 65.199219 20.246094 65.699219 C 20.246094 66.195312 20.648438 66.601562 21.148438 66.601562 C 21.644531 66.601562 22.050781 66.195312 22.050781 65.699219 C 22.050781 65.199219 21.644531 64.796875 21.148438 64.796875 " fill-opacity="1" fill-rule="evenodd"/></g><path fill="#000000" d="M 55.828125 29.378906 L 51.828125 29.378906 C 51.5 29.378906 51.234375 29.113281 51.234375 28.785156 C 51.234375 28.457031 51.5 28.191406 51.828125 28.191406 L 55.234375 28.191406 L 55.234375 24.429688 C 55.234375 24.101562 55.5 23.835938 55.828125 23.835938 L 60.921875 23.835938 C 61.25 23.835938 61.515625 24.101562 61.515625 24.429688 C 61.515625 24.757812 61.25 25.023438 60.921875 25.023438 L 56.421875 25.023438 L 56.421875 28.785156 C 56.421875 29.113281 56.15625 29.378906 55.828125 29.378906 " fill-opacity="1" fill-rule="evenodd"/><path fill="#000000" d="M 60.921875 54.734375 L 55.828125 54.734375 C 55.5 54.734375 55.234375 54.46875 55.234375 54.140625 L 55.234375 50.378906 L 51.828125 50.378906 C 51.5 50.378906 51.234375 50.113281 51.234375 49.785156 C 51.234375 49.457031 51.5 49.191406 51.828125 49.191406 L 55.828125 49.191406 C 56.15625 49.191406 56.421875 49.457031 56.421875 49.785156 L 56.421875 53.546875 L 60.921875 53.546875 C 61.25 53.546875 61.515625 53.8125 61.515625 54.140625 C 61.515625 54.46875 61.246094 54.734375 60.921875 54.734375 " fill-opacity="1" fill-rule="evenodd"/><path fill="#000000" d="M 56.5625 33.175781 L 51.828125 33.175781 C 51.5 33.175781 51.234375 32.910156 51.234375 32.582031 C 51.234375 32.253906 51.5 31.988281 51.828125 31.988281 L 56.566406 31.988281 C 56.894531 31.988281 57.160156 32.253906 57.160156 32.582031 C 57.160156 32.910156 56.890625 33.175781 56.5625 33.175781 " fill-opacity="1" fill-rule="evenodd"/><path fill="#000000" d="M 60.445312 37.644531 L 51.828125 37.644531 C 51.5 37.644531 51.234375 37.378906 51.234375 37.050781 C 51.234375 36.722656 51.5 36.457031 51.828125 36.457031 L 60.445312 36.457031 C 60.773438 36.457031 61.039062 36.722656 61.039062 37.050781 C 61.039062 37.378906 60.773438 37.644531 60.445312 37.644531 " fill-opacity="1" fill-rule="evenodd"/><path fill="#000000" d="M 60.445312 42.113281 L 51.828125 42.113281 C 51.5 42.113281 51.234375 41.847656 51.234375 41.519531 C 51.234375 41.191406 51.5 40.925781 51.828125 40.925781 L 60.445312 40.925781 C 60.773438 40.925781 61.039062 41.191406 61.039062 41.519531 C 61.039062 41.847656 60.773438 42.113281 60.445312 42.113281 " fill-opacity="1" fill-rule="evenodd"/><path fill="#000000" d="M 56.5625 46.582031 L 51.828125 46.582031 C 51.5 46.582031 51.234375 46.316406 51.234375 45.988281 C 51.234375 45.660156 51.5 45.394531 51.828125 45.394531 L 56.566406 45.394531 C 56.894531 45.394531 57.160156 45.660156 57.160156 45.988281 C 57.160156 46.316406 56.890625 46.582031 56.5625 46.582031 " fill-opacity="1" fill-rule="evenodd"/><g clip-path="url(#612698ceb6)"><path fill="#000000" d="M 62.414062 26.519531 C 61.265625 26.519531 60.324219 25.582031 60.324219 24.429688 C 60.324219 23.277344 61.261719 22.339844 62.414062 22.339844 C 63.570312 22.339844 64.507812 23.277344 64.507812 24.429688 C 64.507812 25.582031 63.570312 26.519531 62.414062 26.519531 Z M 62.414062 23.527344 C 61.917969 23.527344 61.511719 23.933594 61.511719 24.429688 C 61.511719 24.929688 61.917969 25.332031 62.414062 25.332031 C 62.914062 25.332031 63.320312 24.929688 63.320312 24.429688 C 63.320312 23.933594 62.914062 23.527344 62.414062 23.527344 " fill-opacity="1" fill-rule="evenodd"/></g><path fill="#000000" d="M 58.0625 34.671875 C 56.910156 34.671875 55.96875 33.734375 55.96875 32.582031 C 55.96875 31.429688 56.90625 30.492188 58.0625 30.492188 C 59.214844 30.492188 60.152344 31.429688 60.152344 32.582031 C 60.152344 33.734375 59.214844 34.671875 58.0625 34.671875 Z M 58.0625 31.679688 C 57.5625 31.679688 57.15625 32.085938 57.15625 32.582031 C 57.15625 33.082031 57.5625 33.484375 58.0625 33.484375 C 58.558594 33.484375 58.964844 33.082031 58.964844 32.582031 C 58.964844 32.085938 58.558594 31.679688 58.0625 31.679688 " fill-opacity="1" fill-rule="evenodd"/><g clip-path="url(#e305705428)"><path fill="#000000" d="M 61.941406 39.140625 C 60.789062 39.140625 59.851562 38.203125 59.851562 37.050781 C 59.851562 35.898438 60.789062 34.960938 61.941406 34.960938 C 63.097656 34.960938 64.03125 35.898438 64.03125 37.050781 C 64.03125 38.203125 63.097656 39.140625 61.941406 39.140625 Z M 61.941406 36.148438 C 61.445312 36.148438 61.039062 36.554688 61.039062 37.050781 C 61.039062 37.550781 61.445312 37.953125 61.941406 37.953125 C 62.441406 37.953125 62.84375 37.550781 62.84375 37.050781 C 62.84375 36.554688 62.441406 36.148438 61.941406 36.148438 " fill-opacity="1" fill-rule="evenodd"/></g><g clip-path="url(#937cd8dd15)"><path fill="#000000" d="M 61.941406 43.609375 C 60.789062 43.609375 59.851562 42.671875 59.851562 41.519531 C 59.851562 40.367188 60.789062 39.425781 61.941406 39.425781 C 63.097656 39.425781 64.03125 40.363281 64.03125 41.519531 C 64.03125 42.671875 63.097656 43.609375 61.941406 43.609375 Z M 61.941406 40.617188 C 61.445312 40.617188 61.039062 41.019531 61.039062 41.519531 C 61.039062 42.015625 61.445312 42.421875 61.941406 42.421875 C 62.441406 42.421875 62.84375 42.015625 62.84375 41.519531 C 62.84375 41.019531 62.441406 40.617188 61.941406 40.617188 " fill-opacity="1" fill-rule="evenodd"/></g><path fill="#000000" d="M 58.0625 48.078125 C 56.910156 48.078125 55.96875 47.140625 55.96875 45.988281 C 55.96875 44.835938 56.90625 43.894531 58.0625 43.894531 C 59.214844 43.894531 60.152344 44.832031 60.152344 45.988281 C 60.152344 47.140625 59.214844 48.078125 58.0625 48.078125 Z M 58.0625 45.082031 C 57.5625 45.082031 57.15625 45.488281 57.15625 45.988281 C 57.15625 46.484375 57.5625 46.890625 58.0625 46.890625 C 58.558594 46.890625 58.964844 46.484375 58.964844 45.988281 C 58.964844 45.488281 58.558594 45.082031 58.0625 45.082031 " fill-opacity="1" fill-rule="evenodd"/><g clip-path="url(#a8b5e0ec24)"><path fill="#000000" d="M 62.414062 56.230469 C 61.265625 56.230469 60.324219 55.292969 60.324219 54.140625 C 60.324219 52.984375 61.261719 52.050781 62.414062 52.050781 C 63.570312 52.050781 64.507812 52.984375 64.507812 54.140625 C 64.507812 55.292969 63.570312 56.230469 62.414062 56.230469 Z M 62.414062 53.238281 C 61.917969 53.238281 61.511719 53.640625 61.511719 54.140625 C 61.511719 54.636719 61.917969 55.042969 62.414062 55.042969 C 62.914062 55.042969 63.320312 54.636719 63.320312 54.140625 C 63.320312 53.640625 62.914062 53.238281 62.414062 53.238281 " fill-opacity="1" fill-rule="evenodd"/></g><path fill="#000000" d="M 34.683594 44.851562 L 29.589844 44.851562 C 29.261719 44.851562 28.996094 44.585938 28.996094 44.257812 L 28.996094 40.496094 L 25.589844 40.496094 C 25.261719 40.496094 24.996094 40.230469 24.996094 39.902344 C 24.996094 39.574219 25.261719 39.308594 25.589844 39.308594 L 29.589844 39.308594 C 29.917969 39.308594 30.183594 39.574219 30.183594 39.902344 L 30.183594 43.664062 L 34.683594 43.664062 C 35.011719 43.664062 35.277344 43.929688 35.277344 44.257812 C 35.277344 44.585938 35.011719 44.851562 34.683594 44.851562 " fill-opacity="1" fill-rule="evenodd"/><path fill="#000000" d="M 46.414062 39.261719 L 42.414062 39.261719 C 42.085938 39.261719 41.820312 38.992188 41.820312 38.664062 L 41.820312 34.90625 L 37.324219 34.90625 C 36.996094 34.90625 36.730469 34.640625 36.730469 34.3125 C 36.730469 33.984375 36.996094 33.71875 37.324219 33.71875 L 42.414062 33.71875 C 42.742188 33.71875 43.007812 33.984375 43.007812 34.3125 L 43.007812 38.070312 L 46.414062 38.070312 C 46.742188 38.070312 47.007812 38.339844 47.007812 38.664062 C 47.007812 38.992188 46.742188 39.261719 46.414062 39.261719 " fill-opacity="1" fill-rule="evenodd"/><path fill="#000000" d="M 34.25 38.558594 C 33.921875 38.558594 33.65625 38.292969 33.65625 37.964844 L 33.65625 33.464844 L 29.894531 33.464844 C 29.566406 33.464844 29.300781 33.199219 29.300781 32.871094 L 29.300781 28.871094 C 29.300781 28.542969 29.566406 28.277344 29.894531 28.277344 C 30.222656 28.277344 30.488281 28.542969 30.488281 28.871094 L 30.488281 32.277344 L 34.25 32.277344 C 34.578125 32.277344 34.84375 32.542969 34.84375 32.871094 L 34.84375 37.964844 C 34.84375 38.292969 34.578125 38.558594 34.25 38.558594 " fill-opacity="1" fill-rule="evenodd"/><path fill="#000000" d="M 42.113281 50.289062 C 41.785156 50.289062 41.519531 50.023438 41.519531 49.695312 L 41.519531 46.289062 L 37.757812 46.289062 C 37.429688 46.289062 37.164062 46.023438 37.164062 45.695312 L 37.164062 40.605469 C 37.164062 40.277344 37.429688 40.011719 37.757812 40.011719 C 38.085938 40.011719 38.351562 40.277344 38.351562 40.605469 L 38.351562 45.101562 L 42.113281 45.101562 C 42.4375 45.101562 42.707031 45.367188 42.707031 45.695312 L 42.707031 49.695312 C 42.707031 50.023438 42.4375 50.289062 42.113281 50.289062 " fill-opacity="1" fill-rule="evenodd"/></svg>