<svg xmlns="http://www.w3.org/2000/svg" xmlns:xlink="http://www.w3.org/1999/xlink" width="70" zoomAndPan="magnify" viewBox="0 0 52.5 52.499999" height="70" preserveAspectRatio="xMidYMid meet" version="1.0"><defs><clipPath id="5fe4c9433a"><path d="M 1.71875 7.175781 L 51.21875 7.175781 L 51.21875 38 L 1.71875 38 Z M 1.71875 7.175781 " clip-rule="nonzero"/></clipPath><clipPath id="8f2abef56a"><path d="M 16 29 L 37 29 L 37 45.425781 L 16 45.425781 Z M 16 29 " clip-rule="nonzero"/></clipPath></defs><g clip-path="url(#5fe4c9433a)"><path fill="#000000" d="M 41.839844 37.449219 L 37.488281 37.449219 L 37.488281 31.203125 C 37.488281 29.953125 36.714844 28.992188 35.554688 28.703125 L 35.554688 27.933594 C 35.554688 23.035156 31.496094 19 26.46875 19 C 21.441406 19 17.378906 23.035156 17.378906 27.933594 L 17.378906 28.703125 C 16.21875 28.992188 15.351562 29.953125 15.351562 31.203125 L 15.351562 37.449219 L 11.097656 37.449219 C 5.875 37.449219 1.71875 33.316406 1.71875 28.222656 C 1.71875 24.765625 3.554688 21.6875 6.550781 20.054688 C 6.9375 18.039062 8.003906 16.210938 9.550781 14.867188 C 11.191406 13.519531 13.320312 12.753906 15.445312 12.753906 C 16.703125 12.753906 17.765625 12.945312 18.925781 13.328125 C 20.085938 9.675781 23.566406 7.179688 27.53125 7.179688 C 30.722656 7.179688 33.71875 8.8125 35.363281 11.503906 C 36.234375 11.214844 37.101562 11.117188 38.070312 11.117188 C 43.097656 11.117188 47.15625 15.15625 47.15625 20.152344 C 47.15625 20.34375 47.15625 20.441406 47.15625 20.535156 C 49.671875 22.265625 51.21875 25.148438 51.21875 28.222656 C 51.21875 33.316406 47.0625 37.449219 41.839844 37.449219 Z M 47.738281 28.800781 C 47.449219 28.800781 47.15625 28.511719 47.15625 28.222656 C 47.15625 26.398438 46.289062 24.765625 44.742188 23.707031 L 43.289062 22.84375 C 43.097656 22.746094 43 22.457031 43 22.265625 L 43.097656 20.535156 C 43.097656 20.441406 43.097656 20.34375 43.097656 20.152344 C 43.097656 17.363281 40.875 15.15625 38.070312 15.15625 C 37.488281 15.15625 36.910156 15.25 36.328125 15.441406 L 33.914062 16.308594 C 33.621094 16.402344 33.332031 16.308594 33.234375 16.019531 L 32.074219 13.808594 C 31.109375 12.175781 29.464844 11.214844 27.53125 11.214844 C 25.210938 11.214844 23.179688 12.753906 22.601562 14.960938 C 22.601562 15.347656 22.214844 15.539062 21.925781 15.441406 C 21.632812 15.347656 21.441406 15.058594 21.539062 14.769531 C 22.214844 11.984375 24.726562 10.0625 27.53125 10.0625 C 29.851562 10.0625 31.980469 11.3125 33.042969 13.328125 L 34.007812 15.058594 L 35.941406 14.386719 C 36.621094 14.097656 37.296875 14 38.070312 14 C 41.453125 14 44.257812 16.789062 44.257812 20.152344 C 44.257812 20.34375 44.257812 20.535156 44.257812 20.632812 L 44.160156 22.074219 L 45.320312 22.746094 C 47.15625 23.996094 48.316406 26.011719 48.316406 28.222656 C 48.316406 28.511719 48.027344 28.800781 47.738281 28.800781 Z M 47.738281 28.800781 " fill-opacity="1" fill-rule="evenodd"/></g><g clip-path="url(#8f2abef56a)"><path fill="#000000" d="M 34.976562 45.425781 L 17.960938 45.425781 C 17.1875 45.425781 16.511719 44.847656 16.511719 43.984375 L 16.511719 31.203125 C 16.511719 30.433594 17.1875 29.761719 17.960938 29.761719 L 34.976562 29.761719 C 35.75 29.761719 36.425781 30.433594 36.425781 31.203125 L 36.425781 43.984375 C 36.425781 44.847656 35.75 45.425781 34.976562 45.425781 Z M 25.886719 38.21875 C 24.824219 37.929688 24.148438 36.96875 24.148438 35.910156 C 24.148438 34.660156 25.210938 33.605469 26.46875 33.605469 C 27.726562 33.605469 28.789062 34.660156 28.789062 35.910156 C 28.789062 36.96875 28.113281 37.929688 27.046875 38.21875 L 27.046875 41.101562 C 27.046875 41.386719 26.757812 41.675781 26.46875 41.675781 C 26.179688 41.675781 25.886719 41.386719 25.886719 41.101562 Z M 26.46875 34.757812 C 25.792969 34.757812 25.308594 35.238281 25.308594 35.910156 C 25.308594 36.582031 25.792969 37.0625 26.46875 37.0625 C 27.144531 37.0625 27.628906 36.582031 27.628906 35.910156 C 27.628906 35.238281 27.144531 34.757812 26.46875 34.757812 Z M 26.46875 34.757812 " fill-opacity="1" fill-rule="evenodd"/></g><path fill="#000000" d="M 18.539062 28.609375 L 18.539062 27.933594 C 18.539062 23.609375 22.117188 20.152344 26.46875 20.152344 C 30.820312 20.152344 34.394531 23.609375 34.394531 27.933594 L 34.394531 28.609375 L 33.234375 28.609375 L 33.234375 27.933594 C 33.234375 24.285156 30.140625 21.304688 26.46875 21.304688 C 22.792969 21.304688 19.699219 24.285156 19.699219 27.933594 L 19.699219 28.609375 Z M 18.539062 28.609375 " fill-opacity="1" fill-rule="evenodd"/></svg>