<svg xmlns="http://www.w3.org/2000/svg" xmlns:xlink="http://www.w3.org/1999/xlink" width="100" zoomAndPan="magnify" viewBox="0 0 75 74.999997" height="100" preserveAspectRatio="xMidYMid meet" version="1.0"><defs><clipPath id="006c687996"><path d="M 14.8125 7.5 L 60.5625 7.5 L 60.5625 67.5 L 14.8125 67.5 Z M 14.8125 7.5 " clip-rule="nonzero"/></clipPath></defs><g clip-path="url(#006c687996)"><path fill="#000000" d="M 49.410156 26.769531 C 46.261719 25.386719 42.097656 24.625 37.6875 24.625 C 33.277344 24.625 29.113281 25.386719 25.964844 26.769531 C 22.566406 28.261719 20.695312 30.34375 20.695312 32.628906 C 20.695312 32.632812 20.695312 32.632812 20.695312 32.632812 L 20.695312 59.496094 C 20.695312 61.78125 22.566406 63.863281 25.964844 65.355469 C 29.113281 66.738281 33.277344 67.5 37.6875 67.5 C 42.097656 67.5 46.261719 66.738281 49.410156 65.355469 C 52.808594 63.863281 54.679688 61.78125 54.679688 59.496094 L 54.679688 32.628906 C 54.679688 30.34375 52.808594 28.261719 49.410156 26.769531 Z M 48.617188 63.585938 C 45.714844 64.863281 41.832031 65.566406 37.6875 65.566406 C 33.542969 65.566406 29.660156 64.863281 26.757812 63.585938 C 24.144531 62.4375 22.644531 60.945312 22.644531 59.496094 L 22.644531 56.59375 C 23.496094 57.351562 24.609375 58.042969 25.964844 58.640625 C 29.113281 60.023438 33.277344 60.785156 37.6875 60.785156 C 42.097656 60.785156 46.261719 60.023438 49.410156 58.640625 C 50.765625 58.042969 51.878906 57.351562 52.730469 56.59375 L 52.730469 59.496094 C 52.730469 60.945312 51.230469 62.4375 48.617188 63.585938 Z M 48.617188 56.871094 C 45.714844 58.144531 41.832031 58.847656 37.6875 58.847656 C 33.542969 58.847656 29.660156 58.144531 26.757812 56.871094 C 24.144531 55.722656 22.644531 54.230469 22.644531 52.777344 L 22.644531 49.875 C 23.496094 50.636719 24.609375 51.328125 25.964844 51.921875 C 29.113281 53.304688 33.277344 54.066406 37.6875 54.066406 C 42.097656 54.066406 46.261719 53.304688 49.410156 51.921875 C 50.765625 51.328125 51.878906 50.636719 52.730469 49.875 L 52.730469 52.777344 C 52.730469 54.230469 51.230469 55.722656 48.617188 56.871094 Z M 48.617188 50.152344 C 45.714844 51.429688 41.832031 52.132812 37.6875 52.132812 C 33.542969 52.132812 29.660156 51.429688 26.757812 50.152344 C 24.144531 49.007812 22.644531 47.515625 22.644531 46.0625 L 22.644531 43.160156 C 23.496094 43.917969 24.609375 44.609375 25.964844 45.207031 C 29.113281 46.589844 33.277344 47.351562 37.6875 47.351562 C 42.097656 47.351562 46.261719 46.589844 49.410156 45.207031 C 50.765625 44.609375 51.878906 43.917969 52.730469 43.160156 L 52.730469 46.0625 C 52.730469 47.515625 51.230469 49.007812 48.617188 50.152344 Z M 48.617188 43.4375 C 45.714844 44.714844 41.832031 45.414062 37.6875 45.414062 C 33.542969 45.414062 29.660156 44.714844 26.757812 43.4375 C 24.144531 42.289062 22.644531 40.796875 22.644531 39.347656 L 22.644531 36.445312 C 23.496094 37.203125 24.609375 37.894531 25.964844 38.492188 C 29.113281 39.875 33.277344 40.636719 37.6875 40.636719 C 42.097656 40.636719 46.261719 39.875 49.410156 38.492188 C 50.765625 37.894531 51.878906 37.203125 52.730469 36.445312 L 52.730469 39.347656 C 52.730469 40.796875 51.230469 42.289062 48.617188 43.4375 Z M 48.617188 36.722656 C 45.714844 37.996094 41.832031 38.699219 37.6875 38.699219 C 33.542969 38.699219 29.660156 37.996094 26.757812 36.722656 C 24.144531 35.574219 22.648438 34.082031 22.644531 32.632812 L 22.644531 32.628906 C 22.644531 31.179688 24.144531 29.6875 26.757812 28.539062 C 29.660156 27.261719 33.542969 26.5625 37.6875 26.5625 C 41.832031 26.5625 45.714844 27.261719 48.617188 28.539062 C 51.230469 29.6875 52.730469 31.179688 52.730469 32.628906 C 52.730469 34.082031 51.230469 35.574219 48.617188 36.722656 Z M 41.75 34.269531 C 41.855469 34.929688 41.679688 35.550781 41.246094 36.058594 C 40.570312 36.855469 39.464844 37.160156 38.664062 37.277344 L 38.664062 37.457031 C 38.664062 37.992188 38.226562 38.425781 37.6875 38.425781 C 37.148438 38.425781 36.710938 37.992188 36.710938 37.457031 L 36.710938 37.265625 C 35.179688 37.015625 34.023438 36.175781 33.640625 34.972656 C 33.480469 34.460938 33.765625 33.917969 34.277344 33.757812 C 34.792969 33.597656 35.339844 33.882812 35.503906 34.390625 C 35.695312 35.003906 36.664062 35.433594 37.796875 35.410156 C 38.652344 35.394531 39.472656 35.144531 39.753906 34.8125 C 39.820312 34.734375 39.839844 34.671875 39.824219 34.5625 C 39.730469 33.964844 38.546875 33.6875 37.570312 33.5625 C 34.667969 33.1875 33.984375 31.90625 33.921875 30.894531 C 33.84375 29.605469 34.757812 28.535156 36.308594 28.101562 C 36.441406 28.066406 36.574219 28.035156 36.710938 28.007812 L 36.710938 27.804688 C 36.710938 27.269531 37.148438 26.835938 37.6875 26.835938 C 38.226562 26.835938 38.664062 27.269531 38.664062 27.804688 L 38.664062 28.007812 C 39.792969 28.214844 40.84375 28.804688 41.410156 29.859375 C 41.660156 30.332031 41.480469 30.917969 41.003906 31.167969 C 40.527344 31.417969 39.9375 31.238281 39.683594 30.765625 C 39.226562 29.910156 37.851562 29.683594 36.839844 29.964844 C 36.375 30.09375 35.84375 30.386719 35.871094 30.777344 C 35.894531 31.164062 36.625 31.488281 37.824219 31.644531 C 38.710938 31.757812 41.417969 32.105469 41.75 34.269531 Z M 34.367188 18.96875 C 34.066406 18.527344 34.179688 17.925781 34.628906 17.625 C 35.074219 17.324219 35.679688 17.441406 35.984375 17.882812 L 36.710938 18.949219 L 36.710938 8.46875 C 36.710938 7.933594 37.148438 7.5 37.6875 7.5 C 38.226562 7.5 38.664062 7.933594 38.664062 8.46875 L 38.664062 18.949219 L 39.390625 17.882812 C 39.695312 17.441406 40.300781 17.328125 40.746094 17.625 C 41.195312 17.925781 41.308594 18.527344 41.007812 18.96875 L 38.496094 22.640625 C 38.3125 22.90625 38.011719 23.066406 37.6875 23.066406 C 37.363281 23.066406 37.0625 22.90625 36.878906 22.640625 Z M 60.230469 25.605469 L 57.71875 29.277344 C 57.535156 29.542969 57.234375 29.703125 56.910156 29.703125 C 56.585938 29.703125 56.285156 29.542969 56.101562 29.277344 L 53.589844 25.605469 C 53.289062 25.164062 53.40625 24.5625 53.851562 24.261719 C 54.296875 23.960938 54.902344 24.078125 55.207031 24.519531 L 55.933594 25.585938 L 55.933594 15.105469 C 55.933594 14.570312 56.371094 14.136719 56.910156 14.136719 C 57.449219 14.136719 57.886719 14.570312 57.886719 15.105469 L 57.886719 25.585938 L 58.613281 24.519531 C 58.917969 24.078125 59.523438 23.964844 59.96875 24.261719 C 60.417969 24.5625 60.53125 25.164062 60.230469 25.605469 Z M 21.785156 25.605469 L 19.273438 29.277344 C 19.089844 29.542969 18.789062 29.703125 18.464844 29.703125 C 18.140625 29.703125 17.839844 29.542969 17.65625 29.277344 L 15.144531 25.605469 C 14.84375 25.164062 14.957031 24.5625 15.40625 24.261719 C 15.851562 23.960938 16.457031 24.078125 16.757812 24.519531 L 17.488281 25.585938 L 17.488281 15.105469 C 17.488281 14.570312 17.925781 14.136719 18.464844 14.136719 C 19.003906 14.136719 19.441406 14.570312 19.441406 15.105469 L 19.441406 25.585938 L 20.167969 24.519531 C 20.472656 24.078125 21.078125 23.964844 21.523438 24.261719 C 21.96875 24.5625 22.085938 25.164062 21.785156 25.605469 Z M 21.785156 25.605469 " fill-opacity="1" fill-rule="nonzero"/></g></svg>