<svg xmlns="http://www.w3.org/2000/svg" xmlns:xlink="http://www.w3.org/1999/xlink" width="100" zoomAndPan="magnify" viewBox="0 0 75 74.999997" height="100" preserveAspectRatio="xMidYMid meet" version="1.0"><defs><clipPath id="002ac5f3a4"><path d="M 5.625 41 L 28 41 L 28 50 L 5.625 50 Z M 5.625 41 " clip-rule="nonzero"/></clipPath><clipPath id="20c9780754"><path d="M 5.625 34 L 28 34 L 28 43 L 5.625 43 Z M 5.625 34 " clip-rule="nonzero"/></clipPath><clipPath id="92594a5c65"><path d="M 5.625 25 L 28 25 L 28 35 L 5.625 35 Z M 5.625 25 " clip-rule="nonzero"/></clipPath><clipPath id="39948a54c7"><path d="M 30 47 L 69.375 47 L 69.375 58.933594 L 30 58.933594 Z M 30 47 " clip-rule="nonzero"/></clipPath><clipPath id="b933d5a08f"><path d="M 30 38 L 69.375 38 L 69.375 50 L 30 50 Z M 30 38 " clip-rule="nonzero"/></clipPath><clipPath id="b13fe3542a"><path d="M 30 28 L 69.375 28 L 69.375 40 L 30 40 Z M 30 28 " clip-rule="nonzero"/></clipPath><clipPath id="0dc9ca479d"><path d="M 30 16.183594 L 69.375 16.183594 L 69.375 31 L 30 31 Z M 30 16.183594 " clip-rule="nonzero"/></clipPath></defs><g clip-path="url(#002ac5f3a4)"><path fill="#100f0d" d="M 16.191406 44.117188 C 16.28125 44.257812 16.335938 44.425781 16.335938 44.605469 L 16.335938 47.109375 C 16.335938 47.628906 15.914062 48.046875 15.398438 48.046875 C 14.878906 48.046875 14.460938 47.628906 14.460938 47.109375 L 14.460938 44.605469 C 14.460938 44.351562 14.5625 44.121094 14.726562 43.953125 C 13.902344 43.847656 13.121094 43.71875 12.375 43.574219 C 12.40625 43.667969 12.425781 43.761719 12.425781 43.859375 L 12.425781 46.363281 C 12.425781 46.882812 12.007812 47.304688 11.488281 47.304688 C 10.972656 47.304688 10.554688 46.882812 10.554688 46.363281 L 10.554688 43.859375 C 10.554688 43.621094 10.644531 43.402344 10.796875 43.234375 C 9.921875 43.027344 9.117188 42.804688 8.386719 42.574219 C 8.390625 42.59375 8.394531 42.613281 8.394531 42.632812 L 8.394531 45.136719 C 8.394531 45.65625 7.976562 46.074219 7.457031 46.074219 C 6.941406 46.074219 6.523438 45.65625 6.523438 45.136719 L 6.523438 42.632812 C 6.523438 42.394531 6.613281 42.179688 6.757812 42.015625 C 6.347656 41.859375 5.972656 41.710938 5.636719 41.566406 L 5.636719 44.621094 C 5.636719 46.617188 11.136719 49.515625 19.753906 49.515625 C 22.933594 49.515625 25.679688 49.121094 27.890625 48.523438 L 27.890625 43.382812 C 25.542969 43.894531 22.765625 44.269531 19.640625 44.269531 C 18.4375 44.269531 17.285156 44.210938 16.191406 44.117188 " fill-opacity="1" fill-rule="nonzero"/></g><g clip-path="url(#20c9780754)"><path fill="#100f0d" d="M 16.335938 37.640625 L 16.335938 40.125 C 16.335938 40.644531 15.914062 41.066406 15.398438 41.066406 C 14.878906 41.066406 14.460938 40.644531 14.460938 40.125 L 14.460938 37.625 C 14.460938 37.554688 14.46875 37.488281 14.484375 37.425781 C 13.785156 37.324219 13.097656 37.203125 12.425781 37.0625 L 12.425781 39.378906 C 12.425781 39.898438 12.007812 40.320312 11.488281 40.320312 C 10.972656 40.320312 10.554688 39.898438 10.554688 39.378906 L 10.554688 36.878906 C 10.554688 36.789062 10.570312 36.703125 10.59375 36.621094 C 9.824219 36.40625 9.085938 36.160156 8.394531 35.890625 L 8.394531 38.152344 C 8.394531 38.671875 7.976562 39.09375 7.457031 39.09375 C 6.941406 39.09375 6.523438 38.671875 6.523438 38.152344 L 6.523438 35.652344 C 6.523438 35.449219 6.585938 35.265625 6.691406 35.113281 C 6.320312 34.914062 5.964844 34.703125 5.636719 34.484375 L 5.636719 39.808594 C 7.421875 40.675781 12.515625 42.789062 19.640625 42.789062 C 22.808594 42.789062 25.601562 42.371094 27.890625 41.828125 L 27.890625 36.882812 C 25.355469 37.484375 22.527344 37.796875 19.753906 37.796875 C 18.617188 37.796875 17.46875 37.742188 16.335938 37.640625 " fill-opacity="1" fill-rule="nonzero"/></g><g clip-path="url(#92594a5c65)"><path fill="#100f0d" d="M 27.085938 25.914062 C 26.9375 25.878906 26.789062 25.847656 26.640625 25.8125 C 26.390625 25.757812 26.132812 25.710938 25.875 25.660156 C 25.75 25.636719 25.632812 25.613281 25.507812 25.59375 C 25.125 25.527344 24.730469 25.464844 24.320312 25.410156 C 24.222656 25.398438 24.117188 25.390625 24.019531 25.375 C 23.695312 25.335938 23.363281 25.300781 23.027344 25.269531 C 22.882812 25.257812 22.734375 25.246094 22.585938 25.234375 C 22.269531 25.210938 21.945312 25.1875 21.613281 25.171875 C 21.472656 25.164062 21.332031 25.15625 21.1875 25.152344 C 20.71875 25.132812 20.242188 25.121094 19.753906 25.121094 C 19.265625 25.121094 18.789062 25.132812 18.320312 25.152344 C 18.175781 25.15625 18.035156 25.164062 17.894531 25.171875 C 17.5625 25.1875 17.238281 25.210938 16.921875 25.234375 C 16.773438 25.246094 16.625 25.257812 16.480469 25.269531 C 16.144531 25.300781 15.8125 25.335938 15.488281 25.375 C 15.390625 25.390625 15.285156 25.398438 15.1875 25.410156 C 14.78125 25.464844 14.382812 25.527344 14 25.59375 C 13.875 25.613281 13.757812 25.636719 13.636719 25.660156 C 13.375 25.710938 13.117188 25.757812 12.867188 25.8125 C 12.71875 25.847656 12.570312 25.878906 12.421875 25.914062 C 12.210938 25.964844 12.007812 26.015625 11.804688 26.066406 C 11.65625 26.105469 11.507812 26.144531 11.363281 26.183594 C 11.15625 26.242188 10.960938 26.304688 10.761719 26.367188 C 10.503906 26.449219 10.253906 26.535156 10.011719 26.621094 C 9.890625 26.664062 9.765625 26.707031 9.648438 26.753906 C 9.476562 26.820312 9.3125 26.886719 9.148438 26.957031 C 9.0625 26.992188 8.980469 27.027344 8.894531 27.066406 C 8.722656 27.140625 8.558594 27.21875 8.398438 27.296875 C 8.359375 27.316406 8.328125 27.335938 8.289062 27.351562 C 7.71875 27.640625 7.238281 27.941406 6.84375 28.246094 C 6.839844 28.25 6.835938 28.25 6.835938 28.253906 C 6.699219 28.359375 6.574219 28.464844 6.460938 28.570312 C 5.929688 29.070312 5.636719 29.566406 5.636719 30.015625 C 5.636719 30.464844 5.929688 30.960938 6.460938 31.457031 C 6.574219 31.566406 6.699219 31.671875 6.835938 31.777344 C 6.835938 31.777344 6.839844 31.78125 6.84375 31.78125 C 7.234375 32.085938 7.71875 32.386719 8.289062 32.679688 C 8.328125 32.695312 8.359375 32.714844 8.394531 32.734375 C 8.554688 32.8125 8.722656 32.890625 8.898438 32.964844 C 8.976562 33.003906 9.0625 33.039062 9.148438 33.074219 C 9.3125 33.144531 9.476562 33.210938 9.648438 33.28125 C 9.765625 33.324219 9.890625 33.367188 10.011719 33.410156 C 10.253906 33.496094 10.503906 33.582031 10.765625 33.664062 C 10.960938 33.726562 11.15625 33.789062 11.363281 33.847656 C 11.507812 33.886719 11.65625 33.925781 11.804688 33.964844 C 12.007812 34.015625 12.210938 34.070312 12.421875 34.117188 C 12.570312 34.152344 12.71875 34.1875 12.867188 34.21875 C 13.117188 34.273438 13.375 34.324219 13.636719 34.371094 C 13.757812 34.394531 13.875 34.417969 14 34.4375 C 14.382812 34.503906 14.78125 34.566406 15.1875 34.621094 C 15.285156 34.632812 15.390625 34.644531 15.488281 34.65625 C 15.8125 34.695312 16.144531 34.730469 16.480469 34.761719 C 16.625 34.773438 16.773438 34.785156 16.921875 34.796875 C 17.238281 34.824219 17.5625 34.84375 17.890625 34.859375 C 18.035156 34.867188 18.175781 34.875 18.320312 34.878906 C 18.789062 34.898438 19.265625 34.910156 19.753906 34.910156 C 20.242188 34.910156 20.71875 34.898438 21.1875 34.878906 C 21.332031 34.875 21.472656 34.867188 21.617188 34.859375 C 21.945312 34.84375 22.269531 34.824219 22.585938 34.796875 C 22.734375 34.785156 22.882812 34.773438 23.027344 34.761719 C 23.363281 34.730469 23.695312 34.695312 24.019531 34.65625 C 24.117188 34.644531 24.222656 34.632812 24.320312 34.621094 C 24.730469 34.566406 25.125 34.503906 25.507812 34.4375 C 25.632812 34.417969 25.75 34.394531 25.875 34.371094 C 26.132812 34.324219 26.390625 34.273438 26.640625 34.21875 C 26.789062 34.1875 26.9375 34.152344 27.085938 34.117188 C 27.296875 34.070312 27.5 34.015625 27.703125 33.964844 C 27.765625 33.945312 27.828125 33.929688 27.890625 33.914062 L 27.890625 26.117188 C 27.828125 26.101562 27.765625 26.085938 27.703125 26.066406 C 27.5 26.015625 27.296875 25.964844 27.085938 25.914062 " fill-opacity="1" fill-rule="nonzero"/></g><g clip-path="url(#39948a54c7)"><path fill="#100f0d" d="M 42.71875 55.871094 C 42.71875 56.441406 42.257812 56.902344 41.6875 56.902344 C 41.117188 56.902344 40.65625 56.441406 40.65625 55.871094 L 40.65625 52.835938 C 40.65625 52.265625 41.117188 51.804688 41.6875 51.804688 C 42.257812 51.804688 42.71875 52.265625 42.71875 52.835938 Z M 38.8125 54.964844 C 38.8125 55.535156 38.351562 56 37.78125 56 C 37.210938 56 36.75 55.535156 36.75 54.964844 L 36.75 51.933594 C 36.75 51.363281 37.210938 50.898438 37.78125 50.898438 C 38.351562 50.898438 38.8125 51.363281 38.8125 51.933594 Z M 34.777344 53.480469 C 34.777344 54.050781 34.316406 54.515625 33.75 54.515625 C 33.179688 54.515625 32.71875 54.050781 32.71875 53.480469 L 32.71875 50.445312 C 32.71875 49.875 33.179688 49.414062 33.75 49.414062 C 34.316406 49.414062 34.777344 49.875 34.777344 50.445312 Z M 30.769531 47.90625 L 30.769531 51.9375 C 30.769531 55.253906 38.699219 58.945312 50.078125 58.945312 C 61.453125 58.945312 69.382812 55.253906 69.382812 51.9375 L 69.382812 47.875 C 66.058594 49.320312 59.101562 51.757812 49.929688 51.757812 C 40.78125 51.757812 34.027344 49.363281 30.769531 47.90625 " fill-opacity="1" fill-rule="nonzero"/></g><g clip-path="url(#b933d5a08f)"><path fill="#100f0d" d="M 42.71875 46.808594 C 42.71875 47.378906 42.257812 47.84375 41.6875 47.84375 C 41.117188 47.84375 40.65625 47.378906 40.65625 46.808594 L 40.65625 43.777344 C 40.65625 43.203125 41.117188 42.742188 41.6875 42.742188 C 42.257812 42.742188 42.71875 43.203125 42.71875 43.777344 Z M 38.8125 45.90625 C 38.8125 46.476562 38.351562 46.9375 37.78125 46.9375 C 37.210938 46.9375 36.75 46.476562 36.75 45.90625 L 36.75 42.871094 C 36.75 42.300781 37.210938 41.839844 37.78125 41.839844 C 38.351562 41.839844 38.8125 42.300781 38.8125 42.871094 Z M 34.777344 44.417969 C 34.777344 44.988281 34.316406 45.453125 33.75 45.453125 C 33.179688 45.453125 32.71875 44.988281 32.71875 44.417969 L 32.71875 41.386719 C 32.71875 40.816406 33.179688 40.351562 33.75 40.351562 C 34.316406 40.351562 34.777344 40.816406 34.777344 41.386719 Z M 30.769531 38.710938 L 30.769531 44.972656 C 32.9375 46.054688 39.96875 49.132812 49.929688 49.132812 C 59.886719 49.132812 67.140625 46.042969 69.382812 44.957031 L 69.382812 38.679688 C 66.058594 40.125 59.101562 42.5625 49.929688 42.5625 C 40.78125 42.5625 34.027344 40.167969 30.769531 38.710938 " fill-opacity="1" fill-rule="nonzero"/></g><g clip-path="url(#b13fe3542a)"><path fill="#100f0d" d="M 42.71875 37.421875 C 42.71875 37.992188 42.257812 38.453125 41.6875 38.453125 C 41.117188 38.453125 40.65625 37.992188 40.65625 37.421875 L 40.65625 34.386719 C 40.65625 33.816406 41.117188 33.355469 41.6875 33.355469 C 42.257812 33.355469 42.71875 33.816406 42.71875 34.386719 Z M 38.8125 36.515625 C 38.8125 37.085938 38.351562 37.550781 37.78125 37.550781 C 37.210938 37.550781 36.75 37.085938 36.75 36.515625 L 36.75 33.484375 C 36.75 32.914062 37.210938 32.449219 37.78125 32.449219 C 38.351562 32.449219 38.8125 32.914062 38.8125 33.484375 Z M 34.777344 35.03125 C 34.777344 35.601562 34.316406 36.066406 33.75 36.066406 C 33.179688 36.066406 32.71875 35.601562 32.71875 35.03125 L 32.71875 32 C 32.71875 31.425781 33.179688 30.964844 33.75 30.964844 C 34.316406 30.964844 34.777344 31.425781 34.777344 32 Z M 30.769531 28.207031 L 30.769531 35.515625 C 32.9375 36.597656 39.96875 39.675781 49.929688 39.675781 C 59.886719 39.675781 67.140625 36.585938 69.382812 35.5 L 69.382812 28.207031 C 65.636719 31.171875 58.558594 33.085938 50.078125 33.085938 C 41.59375 33.085938 34.515625 31.171875 30.769531 28.207031 " fill-opacity="1" fill-rule="nonzero"/></g><path fill="#100f0d" d="M 56.257812 24.605469 C 56.511719 24.398438 56.605469 24.242188 56.636719 24.148438 C 56.675781 24.027344 56.675781 23.921875 56.640625 23.839844 C 56.601562 23.730469 56.550781 23.648438 56.492188 23.589844 C 56.023438 23.113281 55.445312 22.808594 54.78125 22.683594 C 54.214844 22.574219 53.535156 22.5625 52.753906 22.644531 L 55.34375 25.117188 C 55.75 24.941406 56.058594 24.769531 56.257812 24.605469 " fill-opacity="1" fill-rule="nonzero"/><g clip-path="url(#0dc9ca479d)"><path fill="#100f0d" d="M 43 20.144531 C 43.230469 19.785156 43.597656 19.429688 44.089844 19.089844 C 44.484375 18.816406 44.957031 18.5625 45.492188 18.335938 L 45.027344 17.886719 C 44.75 17.628906 44.792969 17.359375 44.925781 17.191406 C 45.050781 17.042969 45.226562 16.933594 45.472656 16.855469 C 45.675781 16.792969 45.90625 16.769531 46.179688 16.777344 C 46.46875 16.789062 46.714844 16.882812 46.894531 17.054688 L 47.605469 17.734375 C 48.777344 17.5 49.898438 17.457031 50.941406 17.617188 C 52.054688 17.777344 52.972656 18.179688 53.671875 18.8125 L 53.722656 18.871094 C 53.847656 19.089844 53.824219 19.261719 53.785156 19.367188 C 53.714844 19.546875 53.550781 19.679688 53.28125 19.765625 C 52.828125 19.914062 52.4375 19.867188 52.121094 19.628906 C 51.941406 19.492188 51.726562 19.363281 51.480469 19.242188 C 51.222656 19.117188 50.925781 19.015625 50.601562 18.9375 C 50.257812 18.855469 49.882812 18.804688 49.484375 18.785156 C 49.242188 18.769531 48.988281 18.773438 48.722656 18.796875 L 51.621094 21.5625 C 52.597656 21.390625 53.410156 21.3125 54.101562 21.332031 C 54.835938 21.351562 55.46875 21.433594 55.984375 21.574219 C 56.519531 21.71875 56.964844 21.914062 57.300781 22.15625 C 57.640625 22.398438 57.914062 22.628906 58.136719 22.859375 C 58.585938 23.371094 58.660156 23.984375 58.355469 24.640625 C 58.203125 24.953125 57.925781 25.238281 57.507812 25.515625 C 57.207031 25.722656 56.835938 25.917969 56.382812 26.105469 L 56.914062 26.613281 C 57.195312 26.882812 57.132812 27.160156 56.980469 27.328125 C 56.851562 27.472656 56.667969 27.582031 56.441406 27.652344 C 56.261719 27.707031 56.078125 27.734375 55.886719 27.734375 C 55.835938 27.734375 55.78125 27.734375 55.730469 27.726562 C 55.445312 27.707031 55.214844 27.613281 55.039062 27.445312 L 54.339844 26.773438 C 53.671875 26.949219 52.984375 27.082031 52.292969 27.175781 C 51.601562 27.265625 50.914062 27.300781 50.238281 27.285156 C 49.578125 27.265625 48.976562 27.183594 48.398438 27.035156 C 47.839844 26.894531 47.328125 26.679688 46.886719 26.394531 C 46.460938 26.175781 46.527344 25.90625 46.574219 25.796875 C 46.640625 25.632812 46.832031 25.511719 47.195312 25.421875 C 47.71875 25.285156 48.117188 25.296875 48.378906 25.519531 C 48.863281 25.785156 49.59375 25.96875 50.507812 26.039062 C 51.320312 26.097656 52.253906 26.003906 53.28125 25.761719 L 50.488281 23.097656 C 49.007812 23.449219 47.667969 23.570312 46.5 23.457031 C 45.277344 23.34375 44.257812 22.996094 43.46875 22.425781 C 43.042969 22.097656 42.796875 21.730469 42.726562 21.335938 C 42.652344 20.941406 42.746094 20.539062 43 20.144531 Z M 33.601562 26.699219 C 33.613281 26.707031 33.625 26.714844 33.636719 26.71875 C 34.4375 27.199219 35.394531 27.652344 36.488281 28.0625 C 36.523438 28.078125 36.554688 28.089844 36.589844 28.101562 C 36.9375 28.230469 37.300781 28.355469 37.675781 28.476562 C 37.710938 28.488281 37.75 28.5 37.789062 28.511719 C 38.550781 28.75 39.367188 28.972656 40.234375 29.167969 C 40.289062 29.179688 40.34375 29.195312 40.398438 29.207031 C 40.8125 29.296875 41.238281 29.382812 41.671875 29.464844 C 41.746094 29.476562 41.820312 29.492188 41.894531 29.503906 C 42.335938 29.582031 42.785156 29.65625 43.246094 29.726562 C 43.296875 29.734375 43.347656 29.738281 43.398438 29.746094 C 43.847656 29.808594 44.308594 29.867188 44.777344 29.917969 C 44.828125 29.921875 44.878906 29.929688 44.929688 29.933594 C 45.40625 29.984375 45.898438 30.027344 46.394531 30.066406 C 46.488281 30.070312 46.585938 30.078125 46.679688 30.085938 C 47.171875 30.117188 47.675781 30.144531 48.183594 30.164062 C 48.269531 30.167969 48.359375 30.167969 48.445312 30.171875 C 48.980469 30.1875 49.523438 30.199219 50.078125 30.199219 C 50.632812 30.199219 51.175781 30.1875 51.710938 30.171875 C 51.796875 30.167969 51.886719 30.167969 51.972656 30.164062 C 52.480469 30.144531 52.984375 30.117188 53.476562 30.085938 C 53.570312 30.078125 53.667969 30.070312 53.761719 30.066406 C 54.257812 30.027344 54.746094 29.984375 55.226562 29.933594 C 55.277344 29.929688 55.328125 29.921875 55.378906 29.917969 C 55.847656 29.867188 56.304688 29.808594 56.757812 29.746094 C 56.808594 29.738281 56.859375 29.734375 56.90625 29.726562 C 57.371094 29.65625 57.820312 29.582031 58.257812 29.503906 C 58.335938 29.492188 58.410156 29.476562 58.484375 29.464844 C 58.917969 29.382812 59.34375 29.296875 59.757812 29.207031 C 59.8125 29.195312 59.867188 29.179688 59.921875 29.167969 C 60.785156 28.972656 61.601562 28.75 62.363281 28.511719 C 62.402344 28.5 62.441406 28.488281 62.480469 28.476562 C 62.855469 28.355469 63.214844 28.230469 63.5625 28.101562 C 63.597656 28.089844 63.628906 28.078125 63.664062 28.0625 C 64.757812 27.652344 65.714844 27.199219 66.515625 26.71875 C 66.527344 26.714844 66.539062 26.707031 66.550781 26.699219 C 67.632812 26.046875 68.429688 25.347656 68.898438 24.632812 C 69.210938 24.152344 69.382812 23.667969 69.382812 23.191406 C 69.382812 22.714844 69.210938 22.230469 68.894531 21.75 C 68.429688 21.039062 67.632812 20.335938 66.550781 19.683594 C 66.539062 19.679688 66.527344 19.671875 66.515625 19.664062 C 65.714844 19.1875 64.757812 18.734375 63.664062 18.324219 C 63.628906 18.308594 63.59375 18.296875 63.558594 18.285156 C 63.214844 18.15625 62.851562 18.03125 62.480469 17.914062 C 62.441406 17.902344 62.402344 17.886719 62.363281 17.875 C 61.601562 17.636719 60.785156 17.417969 59.917969 17.21875 C 59.863281 17.207031 59.8125 17.195312 59.757812 17.183594 C 59.34375 17.089844 58.917969 17.003906 58.484375 16.925781 C 58.410156 16.910156 58.332031 16.898438 58.257812 16.882812 C 57.816406 16.804688 57.367188 16.730469 56.90625 16.664062 C 56.859375 16.65625 56.808594 16.648438 56.757812 16.644531 C 56.304688 16.578125 55.84375 16.519531 55.375 16.46875 C 55.324219 16.464844 55.277344 16.457031 55.226562 16.453125 C 54.75 16.402344 54.257812 16.359375 53.761719 16.324219 C 53.664062 16.316406 53.570312 16.308594 53.476562 16.304688 C 52.984375 16.269531 52.480469 16.242188 51.972656 16.226562 C 51.886719 16.222656 51.796875 16.21875 51.710938 16.21875 C 51.175781 16.199219 50.632812 16.1875 50.078125 16.1875 C 49.527344 16.1875 48.980469 16.199219 48.445312 16.21875 C 48.359375 16.21875 48.269531 16.222656 48.183594 16.226562 C 47.675781 16.242188 47.171875 16.269531 46.679688 16.304688 C 46.585938 16.308594 46.492188 16.316406 46.394531 16.324219 C 45.898438 16.359375 45.40625 16.402344 44.929688 16.453125 C 44.878906 16.457031 44.832031 16.464844 44.78125 16.46875 C 44.3125 16.519531 43.851562 16.578125 43.398438 16.644531 C 43.347656 16.648438 43.296875 16.65625 43.25 16.664062 C 42.785156 16.730469 42.335938 16.804688 41.898438 16.882812 C 41.820312 16.898438 41.746094 16.910156 41.671875 16.925781 C 41.238281 17.003906 40.8125 17.089844 40.398438 17.183594 C 40.34375 17.195312 40.289062 17.207031 40.234375 17.21875 C 39.371094 17.417969 38.554688 17.636719 37.789062 17.875 C 37.75 17.886719 37.710938 17.902344 37.675781 17.914062 C 37.300781 18.03125 36.941406 18.15625 36.59375 18.285156 C 36.558594 18.296875 36.523438 18.308594 36.488281 18.324219 C 35.394531 18.734375 34.4375 19.1875 33.636719 19.664062 C 33.625 19.671875 33.613281 19.679688 33.601562 19.683594 C 31.785156 20.777344 30.769531 22.007812 30.769531 23.191406 C 30.769531 24.375 31.785156 25.605469 33.601562 26.699219 " fill-opacity="1" fill-rule="nonzero"/></g><path fill="#100f0d" d="M 45.128906 21.582031 C 45.277344 21.691406 45.472656 21.800781 45.722656 21.914062 C 45.96875 22.019531 46.273438 22.097656 46.621094 22.148438 C 46.996094 22.199219 47.4375 22.21875 47.972656 22.199219 C 48.386719 22.179688 48.855469 22.125 49.371094 22.035156 L 46.523438 19.320312 C 46.082031 19.484375 45.722656 19.664062 45.449219 19.847656 C 45.15625 20.042969 44.949219 20.246094 44.824219 20.457031 C 44.722656 20.652344 44.691406 20.839844 44.734375 21.023438 C 44.78125 21.21875 44.914062 21.40625 45.128906 21.582031 " fill-opacity="1" fill-rule="nonzero"/></svg>