<svg xmlns="http://www.w3.org/2000/svg" xmlns:xlink="http://www.w3.org/1999/xlink" width="100" zoomAndPan="magnify" viewBox="0 0 75 74.999997" height="100" preserveAspectRatio="xMidYMid meet" version="1.0"><defs><clipPath id="cd2ad50aae"><path d="M 7.5 10.4375 L 61.5 10.4375 L 61.5 64.4375 L 7.5 64.4375 Z M 7.5 10.4375 " clip-rule="nonzero"/></clipPath></defs><path fill="#000000" d="M 35.625 43.859375 L 35.625 39.6875 C 35.625 39.066406 35.121094 38.5625 34.5 38.5625 C 33.878906 38.5625 33.375 39.066406 33.375 39.6875 L 33.375 43.859375 C 32.382812 44.296875 31.6875 45.289062 31.6875 46.4375 C 31.6875 47.988281 32.949219 49.25 34.5 49.25 C 36.050781 49.25 37.3125 47.988281 37.3125 46.4375 C 37.3125 45.289062 36.617188 44.296875 35.625 43.859375 Z M 34.5 47 C 34.191406 47 33.9375 46.746094 33.9375 46.4375 C 33.9375 46.128906 34.191406 45.875 34.5 45.875 C 34.808594 45.875 35.0625 46.128906 35.0625 46.4375 C 35.0625 46.746094 34.808594 47 34.5 47 Z M 34.5 47 " fill-opacity="1" fill-rule="nonzero"/><g clip-path="url(#cd2ad50aae)"><path fill="#000000" d="M 56.136719 10.4375 L 12.863281 10.4375 C 9.90625 10.4375 7.5 12.84375 7.5 15.800781 L 7.5 48.6875 C 7.5 51.644531 9.90625 54.050781 12.863281 54.050781 L 18.191406 54.050781 C 21.066406 60.179688 27.292969 64.4375 34.5 64.4375 C 41.707031 64.4375 47.933594 60.179688 50.808594 54.050781 L 56.136719 54.050781 C 59.09375 54.050781 61.5 51.644531 61.5 48.6875 L 61.5 15.800781 C 61.5 12.84375 59.09375 10.4375 56.136719 10.4375 Z M 12.863281 12.6875 L 56.136719 12.6875 C 57.855469 12.6875 59.25 14.085938 59.25 15.800781 L 59.25 19.4375 L 9.75 19.4375 L 9.75 15.800781 C 9.75 14.085938 11.144531 12.6875 12.863281 12.6875 Z M 34.5 62.1875 C 25.816406 62.1875 18.75 55.121094 18.75 46.4375 C 18.75 37.753906 25.816406 30.6875 34.5 30.6875 C 43.183594 30.6875 50.25 37.753906 50.25 46.4375 C 50.25 55.121094 43.183594 62.1875 34.5 62.1875 Z M 30 28.4375 C 29.378906 28.4375 28.875 27.933594 28.875 27.3125 C 28.875 26.691406 29.378906 26.1875 30 26.1875 L 39 26.1875 C 39.621094 26.1875 40.125 26.691406 40.125 27.3125 C 40.125 27.933594 39.621094 28.4375 39 28.4375 Z M 56.136719 51.800781 L 51.683594 51.800781 C 52.214844 50.105469 52.5 48.304688 52.5 46.4375 C 52.5 38.917969 47.867188 32.464844 41.304688 29.773438 C 41.960938 29.160156 42.375 28.285156 42.375 27.3125 C 42.375 25.453125 40.859375 23.9375 39 23.9375 L 30 23.9375 C 28.140625 23.9375 26.625 25.453125 26.625 27.3125 C 26.625 28.285156 27.039062 29.160156 27.695312 29.773438 C 21.132812 32.464844 16.5 38.917969 16.5 46.4375 C 16.5 48.304688 16.785156 50.105469 17.316406 51.800781 L 12.863281 51.800781 C 11.144531 51.800781 9.75 50.402344 9.75 48.6875 L 9.75 21.6875 L 59.25 21.6875 L 59.25 48.6875 C 59.25 50.402344 57.855469 51.800781 56.136719 51.800781 Z M 56.136719 51.800781 " fill-opacity="1" fill-rule="nonzero"/></g><path fill="#000000" d="M 13.125 14.9375 L 15.375 14.9375 L 15.375 17.1875 L 13.125 17.1875 Z M 13.125 14.9375 " fill-opacity="1" fill-rule="nonzero"/><path fill="#000000" d="M 16.5 14.9375 L 18.75 14.9375 L 18.75 17.1875 L 16.5 17.1875 Z M 16.5 14.9375 " fill-opacity="1" fill-rule="nonzero"/><path fill="#000000" d="M 19.875 14.9375 L 22.125 14.9375 L 22.125 17.1875 L 19.875 17.1875 Z M 19.875 14.9375 " fill-opacity="1" fill-rule="nonzero"/><path fill="#000000" d="M 12 23.9375 L 14.25 23.9375 L 14.25 26.1875 L 12 26.1875 Z M 12 23.9375 " fill-opacity="1" fill-rule="nonzero"/><path fill="#000000" d="M 13.125 27.3125 L 18.75 27.3125 L 18.75 29.5625 L 13.125 29.5625 Z M 13.125 27.3125 " fill-opacity="1" fill-rule="nonzero"/><path fill="#000000" d="M 15.375 23.9375 L 23.25 23.9375 L 23.25 26.1875 L 15.375 26.1875 Z M 15.375 23.9375 " fill-opacity="1" fill-rule="nonzero"/><path fill="#000000" d="M 46.875 27.3125 L 52.5 27.3125 L 52.5 29.5625 L 46.875 29.5625 Z M 46.875 27.3125 " fill-opacity="1" fill-rule="nonzero"/><path fill="#000000" d="M 50.25 30.6875 L 52.5 30.6875 L 52.5 32.9375 L 50.25 32.9375 Z M 50.25 30.6875 " fill-opacity="1" fill-rule="nonzero"/><path fill="#000000" d="M 45.75 23.9375 L 57 23.9375 L 57 26.1875 L 45.75 26.1875 Z M 45.75 23.9375 " fill-opacity="1" fill-rule="nonzero"/><path fill="#000000" d="M 54.75 17.1875 C 55.371094 17.1875 55.875 16.683594 55.875 16.0625 C 55.875 15.441406 55.371094 14.9375 54.75 14.9375 C 54.128906 14.9375 53.625 15.441406 53.625 16.0625 C 53.625 16.683594 54.128906 17.1875 54.75 17.1875 Z M 54.75 17.1875 " fill-opacity="1" fill-rule="nonzero"/><path fill="#000000" d="M 28.875 17.1875 L 51.375 17.1875 C 51.996094 17.1875 52.5 16.683594 52.5 16.0625 C 52.5 15.441406 51.996094 14.9375 51.375 14.9375 L 28.875 14.9375 C 28.253906 14.9375 27.75 15.441406 27.75 16.0625 C 27.75 16.683594 28.253906 17.1875 28.875 17.1875 Z M 28.875 17.1875 " fill-opacity="1" fill-rule="nonzero"/><path fill="#000000" d="M 34.5 36.3125 C 35.121094 36.3125 35.625 35.808594 35.625 35.1875 L 35.625 32.9375 C 35.625 32.316406 35.121094 31.8125 34.5 31.8125 C 33.878906 31.8125 33.375 32.316406 33.375 32.9375 L 33.375 35.1875 C 33.375 35.808594 33.878906 36.3125 34.5 36.3125 Z M 34.5 36.3125 " fill-opacity="1" fill-rule="nonzero"/><path fill="#000000" d="M 34.5 56.5625 C 33.878906 56.5625 33.375 57.066406 33.375 57.6875 L 33.375 59.9375 C 33.375 60.558594 33.878906 61.0625 34.5 61.0625 C 35.121094 61.0625 35.625 60.558594 35.625 59.9375 L 35.625 57.6875 C 35.625 57.066406 35.121094 56.5625 34.5 56.5625 Z M 34.5 56.5625 " fill-opacity="1" fill-rule="nonzero"/><path fill="#000000" d="M 43.25 39.277344 L 44.839844 37.6875 C 45.28125 37.25 45.28125 36.535156 44.839844 36.097656 C 44.402344 35.65625 43.691406 35.65625 43.25 36.097656 L 41.660156 37.6875 C 41.21875 38.125 41.21875 38.839844 41.660156 39.277344 C 42.097656 39.71875 42.8125 39.71875 43.25 39.277344 Z M 43.25 39.277344 " fill-opacity="1" fill-rule="nonzero"/><path fill="#000000" d="M 25.75 53.597656 L 24.160156 55.1875 C 23.71875 55.628906 23.71875 56.339844 24.160156 56.777344 C 24.597656 57.21875 25.308594 57.21875 25.75 56.777344 L 27.339844 55.1875 C 27.78125 54.75 27.78125 54.039062 27.339844 53.597656 C 26.902344 53.160156 26.1875 53.160156 25.75 53.597656 Z M 25.75 53.597656 " fill-opacity="1" fill-rule="nonzero"/><path fill="#000000" d="M 48 45.3125 L 45.75 45.3125 C 45.128906 45.3125 44.625 45.816406 44.625 46.4375 C 44.625 47.058594 45.128906 47.5625 45.75 47.5625 L 48 47.5625 C 48.621094 47.5625 49.125 47.058594 49.125 46.4375 C 49.125 45.816406 48.621094 45.3125 48 45.3125 Z M 48 45.3125 " fill-opacity="1" fill-rule="nonzero"/><path fill="#000000" d="M 24.375 46.4375 C 24.375 45.816406 23.871094 45.3125 23.25 45.3125 L 21 45.3125 C 20.378906 45.3125 19.875 45.816406 19.875 46.4375 C 19.875 47.058594 20.378906 47.5625 21 47.5625 L 23.25 47.5625 C 23.871094 47.5625 24.375 47.058594 24.375 46.4375 Z M 24.375 46.4375 " fill-opacity="1" fill-rule="nonzero"/><path fill="#000000" d="M 43.25 53.597656 C 42.8125 53.160156 42.097656 53.160156 41.660156 53.597656 C 41.21875 54.035156 41.21875 54.75 41.660156 55.1875 L 43.25 56.777344 C 43.691406 57.21875 44.402344 57.21875 44.839844 56.777344 C 45.28125 56.339844 45.28125 55.628906 44.839844 55.1875 Z M 43.25 53.597656 " fill-opacity="1" fill-rule="nonzero"/><path fill="#000000" d="M 25.75 39.277344 C 26.1875 39.71875 26.902344 39.71875 27.339844 39.277344 C 27.78125 38.839844 27.78125 38.125 27.339844 37.6875 L 25.75 36.097656 C 25.3125 35.65625 24.597656 35.65625 24.160156 36.097656 C 23.71875 36.535156 23.71875 37.25 24.160156 37.6875 Z M 25.75 39.277344 " fill-opacity="1" fill-rule="nonzero"/><path fill="#000000" d="M 14.25 55.4375 C 12.390625 55.4375 10.875 56.953125 10.875 58.8125 C 10.875 60.671875 12.390625 62.1875 14.25 62.1875 C 16.109375 62.1875 17.625 60.671875 17.625 58.8125 C 17.625 56.953125 16.109375 55.4375 14.25 55.4375 Z M 14.25 59.9375 C 13.628906 59.9375 13.125 59.433594 13.125 58.8125 C 13.125 58.191406 13.628906 57.6875 14.25 57.6875 C 14.871094 57.6875 15.375 58.191406 15.375 58.8125 C 15.375 59.433594 14.871094 59.9375 14.25 59.9375 Z M 14.25 59.9375 " fill-opacity="1" fill-rule="nonzero"/><path fill="#000000" d="M 54.75 56.5625 C 52.890625 56.5625 51.375 58.078125 51.375 59.9375 C 51.375 61.796875 52.890625 63.3125 54.75 63.3125 C 56.609375 63.3125 58.125 61.796875 58.125 59.9375 C 58.125 58.078125 56.609375 56.5625 54.75 56.5625 Z M 54.75 61.0625 C 54.128906 61.0625 53.625 60.558594 53.625 59.9375 C 53.625 59.316406 54.128906 58.8125 54.75 58.8125 C 55.371094 58.8125 55.875 59.316406 55.875 59.9375 C 55.875 60.558594 55.371094 61.0625 54.75 61.0625 Z M 54.75 61.0625 " fill-opacity="1" fill-rule="nonzero"/></svg>