<svg xmlns="http://www.w3.org/2000/svg" xmlns:xlink="http://www.w3.org/1999/xlink" width="100" zoomAndPan="magnify" viewBox="0 0 75 74.999997" height="100" preserveAspectRatio="xMidYMid meet" version="1.0"><defs><clipPath id="698f749be4"><path d="M 6 19.148438 L 21 19.148438 L 21 34 L 6 34 Z M 6 19.148438 " clip-rule="nonzero"/></clipPath><clipPath id="b92cd73cc2"><path d="M 2.957031 34 L 71.957031 34 L 71.957031 55.898438 L 2.957031 55.898438 Z M 2.957031 34 " clip-rule="nonzero"/></clipPath><clipPath id="101360e4d5"><path d="M 54 19.148438 L 69 19.148438 L 69 34 L 54 34 Z M 54 19.148438 " clip-rule="nonzero"/></clipPath></defs><g clip-path="url(#698f749be4)"><path fill="#000000" d="M 6.738281 26.175781 C 6.738281 30.066406 9.863281 33.199219 13.742188 33.199219 C 17.625 33.199219 20.75 30.066406 20.75 26.175781 C 20.75 22.285156 17.625 19.148438 13.742188 19.148438 C 9.863281 19.148438 6.738281 22.285156 6.738281 26.175781 Z M 18.59375 26.175781 C 18.59375 28.875 16.4375 31.039062 13.742188 31.039062 C 11.046875 31.039062 8.894531 28.875 8.894531 26.175781 C 8.894531 23.472656 11.046875 21.308594 13.742188 21.308594 C 16.4375 21.308594 18.59375 23.472656 18.59375 26.175781 Z M 18.59375 26.175781 " fill-opacity="1" fill-rule="nonzero"/></g><g clip-path="url(#b92cd73cc2)"><path fill="#000000" d="M 4.042969 55.898438 L 70.871094 55.898438 C 71.464844 55.898438 71.949219 55.414062 71.949219 54.816406 C 71.949219 54.601562 71.894531 54.441406 71.785156 54.277344 C 71.894531 54.113281 71.949219 53.953125 71.949219 53.738281 L 71.949219 39.792969 C 71.949219 36.765625 69.523438 34.28125 66.558594 34.28125 L 55.78125 34.28125 C 54.59375 34.28125 53.460938 34.714844 52.601562 35.363281 C 52.925781 35.792969 53.140625 36.28125 53.246094 36.820312 L 53.410156 37.578125 C 54 36.875 54.863281 36.441406 55.835938 36.441406 L 66.613281 36.441406 C 68.390625 36.441406 69.847656 37.957031 69.847656 39.792969 L 69.847656 52.65625 C 69.847656 53.25 69.363281 53.738281 68.769531 53.738281 L 59.605469 53.738281 L 59.605469 51.574219 L 65.535156 51.574219 C 66.722656 51.574219 67.691406 50.601562 67.691406 49.414062 L 67.691406 42.929688 C 67.691406 42.332031 67.207031 41.847656 66.613281 41.847656 C 66.019531 41.847656 65.535156 42.332031 65.535156 42.929688 L 65.535156 49.414062 L 59.605469 49.414062 C 59.066406 49.414062 58.582031 49.628906 58.207031 49.953125 L 56.859375 49.953125 L 56.859375 42.65625 C 56.859375 42.0625 56.375 41.578125 55.78125 41.578125 C 55.1875 41.578125 54.703125 42.0625 54.703125 42.65625 L 54.703125 44.550781 L 55.726562 49.738281 C 55.726562 49.792969 55.726562 49.898438 55.78125 49.953125 L 53.570312 49.953125 L 51.089844 37.253906 C 50.929688 36.441406 50.28125 35.902344 49.476562 35.902344 L 29.425781 35.902344 C 28.941406 35.902344 28.457031 36.117188 28.132812 36.496094 C 27.808594 36.875 27.703125 37.363281 27.808594 37.847656 L 30.289062 50.765625 C 30.34375 51.089844 30.503906 51.359375 30.71875 51.574219 L 30.71875 52.765625 C 30.71875 53.089844 30.773438 53.414062 30.882812 53.738281 L 24.523438 53.738281 L 24.523438 39.792969 C 24.523438 36.765625 22.097656 34.28125 19.132812 34.28125 L 8.355469 34.28125 C 5.390625 34.28125 2.964844 36.765625 2.964844 39.792969 L 2.964844 54.816406 C 2.964844 55.414062 3.449219 55.898438 4.042969 55.898438 Z M 32.875 52.117188 L 57.398438 52.117188 L 57.398438 53.195312 L 33.304688 53.195312 C 33.089844 53.195312 32.875 53.035156 32.875 52.765625 Z M 30.019531 38.0625 L 49.042969 38.0625 L 51.359375 49.953125 L 32.335938 49.953125 Z M 5.121094 39.792969 C 5.121094 37.957031 6.574219 36.441406 8.355469 36.441406 L 19.132812 36.441406 C 20.910156 36.441406 22.367188 37.957031 22.367188 39.792969 L 22.367188 53.738281 L 21.289062 53.738281 L 21.289062 51.574219 C 21.289062 50.765625 20.855469 50.0625 20.210938 49.738281 L 20.210938 42.65625 C 20.210938 42.0625 19.726562 41.578125 19.132812 41.578125 C 18.539062 41.578125 18.054688 42.0625 18.054688 42.65625 L 18.054688 49.414062 L 9.429688 49.414062 L 9.429688 42.929688 C 9.429688 42.332031 8.945312 41.847656 8.355469 41.847656 C 7.761719 41.847656 7.277344 42.332031 7.277344 42.929688 L 7.277344 49.414062 C 7.277344 50.601562 8.246094 51.574219 9.429688 51.574219 L 19.132812 51.574219 L 19.132812 53.738281 L 6.199219 53.738281 C 5.605469 53.738281 5.121094 53.25 5.121094 52.65625 Z M 5.121094 39.792969 " fill-opacity="1" fill-rule="nonzero"/></g><g clip-path="url(#101360e4d5)"><path fill="#000000" d="M 61.277344 19.148438 C 57.398438 19.148438 54.21875 22.285156 54.164062 26.175781 C 54.109375 28.066406 54.863281 29.847656 56.15625 31.144531 C 57.449219 32.496094 59.230469 33.199219 61.117188 33.199219 C 64.996094 33.199219 68.175781 30.066406 68.230469 26.175781 C 68.285156 24.28125 67.527344 22.5 66.234375 21.203125 C 64.886719 19.90625 63.109375 19.148438 61.277344 19.148438 Z M 61.0625 31.039062 C 59.769531 31.039062 58.582031 30.550781 57.667969 29.632812 C 56.804688 28.714844 56.320312 27.472656 56.320312 26.175781 C 56.375 23.472656 58.582031 21.308594 61.277344 21.308594 C 62.570312 21.308594 63.757812 21.796875 64.671875 22.714844 C 65.589844 23.632812 66.074219 24.824219 66.019531 26.121094 C 65.964844 28.824219 63.757812 31.039062 61.0625 31.039062 Z M 61.0625 31.039062 " fill-opacity="1" fill-rule="nonzero"/></g><path fill="#000000" d="M 41.011719 47.035156 C 42.359375 47.035156 43.4375 45.953125 43.4375 44.601562 C 43.4375 43.253906 42.359375 42.171875 41.011719 42.171875 C 39.664062 42.171875 38.589844 43.253906 38.589844 44.601562 C 38.589844 45.953125 39.664062 47.035156 41.011719 47.035156 Z M 41.011719 44.332031 C 41.175781 44.332031 41.28125 44.441406 41.28125 44.601562 C 41.28125 44.765625 41.175781 44.875 41.011719 44.875 C 40.851562 44.875 40.742188 44.765625 40.742188 44.601562 C 40.742188 44.441406 40.851562 44.332031 41.011719 44.332031 Z M 41.011719 44.332031 " fill-opacity="1" fill-rule="nonzero"/></svg>