<svg xmlns="http://www.w3.org/2000/svg" xmlns:xlink="http://www.w3.org/1999/xlink" width="100" zoomAndPan="magnify" viewBox="0 0 75 74.999997" height="100" preserveAspectRatio="xMidYMid meet" version="1.0"><defs><clipPath id="7f26a45670"><path d="M 4.6875 14.078125 L 70.6875 14.078125 L 70.6875 60.578125 L 4.6875 60.578125 Z M 4.6875 14.078125 " clip-rule="nonzero"/></clipPath></defs><g clip-path="url(#7f26a45670)"><path fill="#000000" d="M 66.867188 14.078125 C 66.449219 14.078125 66.03125 14.078125 65.613281 14.078125 L 8.875 14.078125 C 7.042969 14.078125 5.3125 15.113281 4.894531 16.972656 C 4.789062 17.75 4.738281 18.523438 4.789062 19.296875 L 4.789062 55.414062 C 4.738281 56.292969 4.789062 57.171875 5 57.996094 C 5.574219 59.703125 7.199219 60.582031 8.925781 60.582031 L 66.867188 60.582031 C 66.972656 60.582031 67.078125 60.527344 67.183594 60.476562 C 69.277344 60.269531 70.636719 58.566406 70.636719 56.445312 L 70.636719 18.109375 C 70.636719 15.941406 69.117188 14.132812 66.867188 14.078125 Z M 6.097656 17.800781 C 6.152344 16.199219 7.40625 15.320312 8.925781 15.320312 L 61.425781 15.320312 C 63.203125 15.320312 65.035156 15.269531 66.816406 15.320312 C 68.386719 15.371094 69.378906 16.558594 69.378906 18.058594 L 69.378906 22.554688 L 13.375 22.554688 C 10.914062 22.554688 8.507812 22.449219 6.097656 22.554688 C 6.046875 21.003906 6.046875 19.402344 6.097656 17.800781 Z M 69.328125 56.757812 C 69.328125 58.101562 68.230469 59.183594 66.816406 59.238281 C 66.761719 59.238281 66.710938 59.238281 66.710938 59.238281 L 9.1875 59.238281 C 8.089844 59.238281 6.988281 59.082031 6.414062 57.996094 C 5.996094 57.222656 6.097656 56.34375 6.097656 55.464844 L 6.097656 24.414062 C 6.097656 24.257812 6.097656 24.050781 6.097656 23.898438 L 62.050781 23.898438 C 64.511719 23.898438 66.921875 24 69.328125 23.898438 L 69.328125 56.238281 C 69.328125 56.394531 69.328125 56.601562 69.328125 56.757812 Z M 69.328125 56.757812 " fill-opacity="1" fill-rule="nonzero"/></g><path fill="#000000" d="M 10.496094 19.558594 C 10.496094 19.503906 10.445312 19.503906 10.496094 19.558594 Z M 10.496094 19.558594 " fill-opacity="1" fill-rule="nonzero"/><path fill="#000000" d="M 13.0625 20.746094 C 13.425781 20.332031 13.585938 19.867188 13.585938 19.296875 C 13.585938 19.195312 13.585938 19.144531 13.585938 19.039062 C 13.480469 18.214844 12.902344 17.542969 12.117188 17.230469 C 11.28125 16.921875 10.285156 17.179688 9.710938 17.851562 C 8.925781 18.78125 9.03125 20.125 9.921875 20.953125 C 10.863281 21.726562 12.222656 21.625 13.0625 20.746094 Z M 12.277344 19.144531 C 12.277344 19.144531 12.277344 19.195312 12.277344 19.144531 C 12.277344 19.195312 12.277344 19.195312 12.277344 19.195312 C 12.277344 19.195312 12.277344 19.195312 12.277344 19.144531 Z M 10.445312 19.144531 C 10.445312 19.089844 10.445312 19.089844 10.445312 19.039062 C 10.445312 18.988281 10.496094 18.9375 10.496094 18.832031 L 10.546875 18.730469 L 10.601562 18.625 C 10.652344 18.574219 10.707031 18.523438 10.757812 18.472656 L 10.808594 18.472656 C 10.757812 18.523438 10.808594 18.472656 10.863281 18.472656 C 10.914062 18.421875 11.019531 18.421875 11.070312 18.367188 C 11.070312 18.367188 10.914062 18.421875 11.019531 18.367188 L 11.125 18.316406 L 11.230469 18.316406 C 11.230469 18.316406 11.230469 18.316406 11.28125 18.316406 C 11.28125 18.316406 11.332031 18.316406 11.332031 18.316406 L 11.492188 18.316406 L 11.753906 18.367188 C 11.855469 18.421875 11.855469 18.421875 11.855469 18.421875 L 11.910156 18.472656 L 11.960938 18.523438 C 11.910156 18.472656 11.855469 18.472656 11.910156 18.523438 L 12.066406 18.679688 C 12.066406 18.730469 12.117188 18.730469 12.117188 18.78125 L 12.171875 18.886719 C 12.171875 18.9375 12.171875 18.988281 12.222656 18.988281 C 12.222656 19.039062 12.171875 19.089844 12.171875 19.144531 C 12.171875 19.195312 12.171875 19.195312 12.171875 19.246094 C 12.171875 19.296875 12.117188 19.402344 12.117188 19.453125 C 12.117188 19.453125 12.117188 19.503906 12.117188 19.503906 C 12.117188 19.503906 12.117188 19.503906 12.117188 19.558594 C 12.066406 19.609375 12.015625 19.710938 12.015625 19.761719 C 12.015625 19.761719 11.960938 19.816406 11.960938 19.816406 C 11.960938 19.816406 11.910156 19.867188 11.910156 19.867188 L 11.855469 19.867188 C 11.804688 19.917969 11.804688 19.917969 11.855469 19.867188 C 11.804688 19.917969 11.753906 19.917969 11.753906 19.96875 L 11.699219 20.023438 L 11.4375 20.125 C 11.386719 20.125 11.386719 20.125 11.332031 20.125 L 11.125 20.125 C 11.070312 20.125 11.019531 20.125 11.019531 20.074219 L 10.914062 20.023438 C 10.808594 19.96875 10.96875 20.023438 10.96875 20.023438 C 10.96875 20.023438 10.808594 19.917969 10.808594 19.917969 L 10.707031 19.867188 C 10.707031 19.867188 10.546875 19.710938 10.546875 19.710938 L 10.496094 19.660156 L 10.496094 19.558594 C 10.496094 19.558594 10.496094 19.609375 10.496094 19.609375 C 10.496094 19.609375 10.445312 19.453125 10.445312 19.402344 Z M 10.445312 19.144531 " fill-opacity="1" fill-rule="nonzero"/><path fill="#000000" d="M 18.292969 20.640625 C 18.609375 20.28125 18.765625 19.816406 18.816406 19.351562 C 18.816406 19.296875 18.816406 19.296875 18.816406 19.246094 C 18.816406 19.246094 18.816406 19.195312 18.816406 19.195312 C 18.816406 18.265625 18.242188 17.4375 17.351562 17.128906 C 16.515625 16.820312 15.519531 17.078125 14.945312 17.75 C 14.160156 18.679688 14.265625 20.023438 15.15625 20.847656 C 16.097656 21.675781 17.457031 21.570312 18.292969 20.640625 Z M 15.730469 19.144531 C 15.730469 19.089844 15.730469 19.089844 15.730469 19.039062 C 15.730469 18.988281 15.78125 18.9375 15.78125 18.832031 L 15.835938 18.730469 L 15.886719 18.625 C 15.941406 18.574219 15.992188 18.523438 16.042969 18.472656 L 16.097656 18.472656 C 16.097656 18.472656 16.097656 18.472656 16.148438 18.472656 C 16.203125 18.421875 16.304688 18.421875 16.359375 18.367188 C 16.359375 18.367188 16.203125 18.421875 16.304688 18.367188 L 16.410156 18.316406 L 16.515625 18.316406 C 16.515625 18.316406 16.515625 18.316406 16.566406 18.316406 C 16.566406 18.316406 16.621094 18.316406 16.621094 18.316406 L 16.726562 18.316406 L 16.988281 18.367188 C 17.089844 18.421875 17.089844 18.421875 17.089844 18.421875 C 17.089844 18.421875 17.144531 18.421875 17.144531 18.472656 C 17.144531 18.472656 17.144531 18.472656 17.195312 18.523438 L 17.351562 18.679688 C 17.351562 18.730469 17.40625 18.730469 17.40625 18.78125 L 17.457031 18.886719 C 17.511719 18.988281 17.511719 19.039062 17.511719 19.089844 C 17.511719 19.089844 17.511719 19.089844 17.511719 19.144531 C 17.511719 19.144531 17.511719 19.144531 17.511719 19.195312 C 17.511719 19.246094 17.511719 19.246094 17.511719 19.296875 C 17.511719 19.351562 17.457031 19.453125 17.457031 19.503906 C 17.457031 19.503906 17.457031 19.558594 17.457031 19.558594 C 17.457031 19.558594 17.457031 19.558594 17.457031 19.609375 L 17.351562 19.816406 C 17.351562 19.816406 17.300781 19.867188 17.300781 19.867188 L 17.25 19.917969 C 17.195312 19.96875 17.195312 19.96875 17.25 19.917969 C 17.195312 19.96875 17.144531 19.96875 17.144531 20.023438 L 17.089844 20.074219 L 16.777344 20.125 C 16.726562 20.125 16.726562 20.125 16.671875 20.125 L 16.304688 20.125 L 16.203125 20.074219 C 16.097656 20.023438 16.253906 20.074219 16.253906 20.074219 C 16.253906 20.074219 16.097656 19.96875 16.097656 19.96875 C 16.097656 19.96875 16.042969 19.917969 15.992188 19.917969 C 15.992188 19.917969 15.835938 19.761719 15.835938 19.761719 L 15.78125 19.710938 L 15.835938 19.660156 L 15.835938 19.609375 C 15.835938 19.558594 15.78125 19.558594 15.835938 19.609375 C 15.835938 19.558594 15.78125 19.503906 15.78125 19.453125 C 15.78125 19.453125 15.78125 19.402344 15.78125 19.351562 C 15.730469 19.296875 15.730469 19.195312 15.730469 19.144531 Z M 15.730469 19.144531 " fill-opacity="1" fill-rule="nonzero"/><path fill="#000000" d="M 15.730469 19.144531 C 15.78125 18.988281 15.730469 19.089844 15.730469 19.144531 Z M 15.730469 19.144531 " fill-opacity="1" fill-rule="nonzero"/><path fill="#000000" d="M 23.6875 20.746094 C 24.050781 20.332031 24.210938 19.867188 24.210938 19.296875 C 24.210938 19.195312 24.210938 19.144531 24.210938 19.039062 C 24.050781 18.214844 23.527344 17.542969 22.742188 17.230469 C 21.90625 16.921875 20.910156 17.179688 20.335938 17.851562 C 19.550781 18.78125 19.65625 20.125 20.546875 20.953125 C 21.433594 21.777344 22.847656 21.625 23.6875 20.746094 Z M 22.902344 19.144531 C 22.902344 19.144531 22.902344 19.195312 22.902344 19.144531 C 22.902344 19.195312 22.902344 19.195312 22.902344 19.195312 C 22.902344 19.195312 22.902344 19.195312 22.902344 19.144531 Z M 21.070312 19.144531 C 21.070312 19.144531 21.070312 19.089844 21.070312 19.039062 C 21.070312 18.988281 21.121094 18.886719 21.121094 18.832031 L 21.171875 18.730469 L 21.226562 18.625 C 21.277344 18.574219 21.332031 18.523438 21.382812 18.472656 L 21.433594 18.472656 C 21.382812 18.523438 21.433594 18.472656 21.488281 18.472656 C 21.539062 18.421875 21.644531 18.421875 21.695312 18.367188 C 21.695312 18.367188 21.539062 18.421875 21.644531 18.367188 L 21.75 18.316406 L 21.855469 18.316406 C 21.855469 18.316406 21.855469 18.316406 21.90625 18.316406 C 21.90625 18.316406 21.957031 18.316406 21.957031 18.316406 L 22.167969 18.316406 L 22.429688 18.367188 C 22.535156 18.421875 22.535156 18.421875 22.535156 18.421875 L 22.585938 18.472656 C 22.585938 18.472656 22.585938 18.472656 22.640625 18.523438 L 22.796875 18.679688 C 22.796875 18.730469 22.847656 18.730469 22.847656 18.78125 C 22.847656 18.832031 22.902344 18.832031 22.902344 18.886719 C 22.902344 18.9375 22.953125 18.988281 22.953125 19.039062 C 22.953125 19.089844 22.902344 19.144531 22.902344 19.195312 C 22.902344 19.246094 22.902344 19.246094 22.902344 19.296875 C 22.902344 19.351562 22.847656 19.453125 22.847656 19.503906 C 22.847656 19.503906 22.847656 19.503906 22.847656 19.558594 C 22.796875 19.609375 22.742188 19.710938 22.742188 19.761719 C 22.742188 19.761719 22.691406 19.816406 22.691406 19.816406 C 22.691406 19.816406 22.640625 19.867188 22.640625 19.867188 C 22.585938 19.917969 22.585938 19.917969 22.640625 19.867188 C 22.585938 19.917969 22.535156 19.917969 22.535156 19.96875 L 22.480469 20.023438 L 22.0625 20.125 C 22.011719 20.125 22.011719 20.125 21.957031 20.125 L 21.75 20.125 L 21.539062 20.023438 C 21.433594 20.023438 21.59375 20.023438 21.59375 20.023438 C 21.59375 20.023438 21.433594 19.917969 21.433594 19.917969 L 21.332031 19.867188 C 21.332031 19.867188 21.226562 19.761719 21.171875 19.710938 L 21.121094 19.609375 L 21.171875 19.558594 C 21.171875 19.503906 21.121094 19.402344 21.121094 19.351562 L 21.121094 19.246094 C 21.070312 19.246094 21.070312 19.195312 21.070312 19.144531 Z M 21.070312 19.144531 " fill-opacity="1" fill-rule="nonzero"/><path fill="#000000" d="M 22.0625 20.125 C 22.0625 20.074219 21.957031 20.125 22.0625 20.125 Z M 22.0625 20.125 " fill-opacity="1" fill-rule="nonzero"/><path fill="#000000" d="M 21.070312 19.144531 C 21.121094 18.988281 21.070312 19.089844 21.070312 19.144531 Z M 21.070312 19.144531 " fill-opacity="1" fill-rule="nonzero"/><path fill="#000000" d="M 45.40625 34.902344 C 44.882812 34.28125 43.941406 35.210938 44.464844 35.832031 L 49.542969 41.566406 L 44.464844 47.300781 C 43.890625 47.921875 44.832031 48.851562 45.40625 48.230469 L 50.902344 42.03125 C 51.164062 41.773438 51.164062 41.359375 50.902344 41.101562 Z M 45.40625 34.902344 " fill-opacity="1" fill-rule="nonzero"/><path fill="#000000" d="M 30.019531 34.902344 L 24.574219 41.101562 C 24.3125 41.359375 24.3125 41.773438 24.574219 42.03125 L 30.019531 48.230469 C 30.59375 48.851562 31.484375 47.921875 30.960938 47.300781 L 25.882812 41.566406 L 30.960938 35.832031 C 31.539062 35.210938 30.59375 34.28125 30.019531 34.902344 Z M 30.019531 34.902344 " fill-opacity="1" fill-rule="nonzero"/><path fill="#000000" d="M 40.277344 35.003906 L 34.835938 45.855469 L 34.050781 47.40625 C 33.683594 48.128906 34.78125 48.800781 35.203125 48.078125 L 40.695312 37.226562 L 41.480469 35.675781 C 41.742188 34.953125 40.644531 34.28125 40.277344 35.003906 Z M 40.277344 35.003906 " fill-opacity="1" fill-rule="nonzero"/></svg>