<svg xmlns="http://www.w3.org/2000/svg" xmlns:xlink="http://www.w3.org/1999/xlink" width="70" zoomAndPan="magnify" viewBox="0 0 52.5 52.499999" height="70" preserveAspectRatio="xMidYMid meet" version="1.0"><defs><clipPath id="1693196471"><path d="M 1.820312 8.140625 L 50.570312 8.140625 L 50.570312 44.140625 L 1.820312 44.140625 Z M 1.820312 8.140625 " clip-rule="nonzero"/></clipPath></defs><path fill="#000000" d="M 45.59375 24.816406 C 45.59375 25.015625 45.554688 25.210938 45.476562 25.394531 C 45.402344 25.582031 45.292969 25.746094 45.148438 25.886719 C 45.003906 26.03125 44.839844 26.140625 44.65625 26.214844 C 44.46875 26.292969 44.273438 26.332031 44.074219 26.332031 C 43.871094 26.332031 43.675781 26.292969 43.492188 26.214844 C 43.304688 26.140625 43.140625 26.03125 42.996094 25.886719 C 42.855469 25.746094 42.746094 25.582031 42.667969 25.394531 C 42.589844 25.210938 42.550781 25.015625 42.550781 24.816406 C 42.550781 24.613281 42.589844 24.421875 42.667969 24.234375 C 42.746094 24.050781 42.855469 23.886719 42.996094 23.746094 C 43.140625 23.601562 43.304688 23.492188 43.492188 23.414062 C 43.675781 23.339844 43.871094 23.300781 44.074219 23.300781 C 44.273438 23.300781 44.46875 23.339844 44.65625 23.414062 C 44.839844 23.492188 45.003906 23.601562 45.148438 23.746094 C 45.292969 23.886719 45.402344 24.050781 45.476562 24.234375 C 45.554688 24.421875 45.59375 24.613281 45.59375 24.816406 Z M 45.59375 24.816406 " fill-opacity="1" fill-rule="nonzero"/><g clip-path="url(#1693196471)"><path fill="#000000" d="M 47.496094 8.140625 L 4.898438 8.140625 C 3.222656 8.140625 1.855469 9.507812 1.855469 11.175781 L 1.855469 38.078125 C 1.855469 39.746094 3.222656 41.109375 4.898438 41.109375 L 19.730469 41.109375 L 19.730469 42.625 L 15.925781 42.625 C 15.507812 42.625 15.167969 42.96875 15.167969 43.382812 C 15.167969 43.800781 15.507812 44.140625 15.925781 44.140625 L 36.464844 44.140625 C 36.882812 44.140625 37.226562 43.800781 37.226562 43.382812 C 37.226562 42.96875 36.882812 42.625 36.464844 42.625 L 32.664062 42.625 L 32.664062 41.109375 L 47.496094 41.109375 C 49.167969 41.109375 50.539062 39.746094 50.539062 38.078125 L 50.539062 11.175781 C 50.539062 9.507812 49.167969 8.140625 47.496094 8.140625 Z M 31.140625 42.625 L 21.253906 42.625 L 21.253906 41.109375 L 31.140625 41.109375 Z M 49.015625 37.699219 L 10.488281 37.699219 L 10.335938 37.964844 C 9.957031 38.722656 9.15625 39.214844 8.320312 39.214844 C 7.976562 39.214844 7.597656 39.140625 7.253906 38.949219 C 6.722656 38.683594 6.34375 38.230469 6.152344 37.699219 L 3.375 37.699219 L 3.375 36.183594 L 6.152344 36.183594 C 6.191406 36.070312 6.226562 35.996094 6.265625 35.882812 L 9.15625 30.160156 C 6.078125 27.394531 5.203125 22.695312 7.21875 18.941406 C 8.816406 15.988281 11.859375 14.167969 15.203125 14.167969 C 16.496094 14.167969 17.714844 14.433594 18.894531 14.964844 C 21.175781 15.988281 22.886719 17.882812 23.722656 20.269531 C 23.839844 20.570312 23.914062 20.914062 23.992188 21.253906 L 22.925781 22.277344 L 22.621094 22.277344 C 22.355469 20.304688 21.328125 18.488281 19.691406 17.273438 C 19.351562 16.78125 18.816406 16.480469 18.210938 16.402344 C 17.21875 15.949219 16.195312 15.757812 15.167969 15.757812 C 12.464844 15.757812 9.839844 17.199219 8.511719 19.738281 C 7.941406 20.835938 7.636719 22.011719 7.597656 23.148438 L 10.222656 23.148438 L 12.238281 21.140625 C 12.390625 20.988281 12.617188 20.875 12.882812 20.914062 C 13.152344 20.949219 13.339844 21.101562 13.453125 21.292969 L 15.203125 24.324219 L 17.21875 18.375 C 17.335938 18.070312 17.601562 17.84375 17.941406 17.882812 C 18.285156 17.882812 18.550781 18.109375 18.664062 18.410156 L 20.378906 23.832031 L 23.570312 23.832031 L 25.625 21.824219 C 25.816406 21.632812 26.042969 21.558594 26.3125 21.632812 C 26.539062 21.671875 26.765625 21.859375 26.84375 22.085938 L 27.640625 24.058594 L 29.695312 16.820312 C 29.808594 16.480469 30.113281 16.25 30.496094 16.25 C 30.835938 16.289062 31.140625 16.554688 31.179688 16.894531 L 32.816406 28.226562 L 34.640625 24.511719 C 34.753906 24.246094 35.019531 24.097656 35.324219 24.097656 L 41.066406 24.097656 C 41.410156 22.808594 42.589844 21.824219 43.996094 21.824219 C 45.671875 21.824219 47.039062 23.1875 47.039062 24.855469 C 47.039062 26.519531 45.671875 27.886719 43.996094 27.886719 C 42.589844 27.886719 41.410156 26.898438 41.066406 25.613281 L 35.855469 25.613281 L 33.15625 31.105469 C 33.042969 31.371094 32.777344 31.523438 32.472656 31.523438 C 32.433594 31.523438 32.394531 31.523438 32.359375 31.523438 C 32.015625 31.484375 31.789062 31.21875 31.710938 30.878906 L 30.265625 20.648438 L 28.59375 26.558594 C 28.515625 26.863281 28.210938 27.089844 27.90625 27.128906 C 27.566406 27.128906 27.300781 26.9375 27.148438 26.671875 L 25.929688 23.679688 L 24.445312 25.121094 C 24.292969 25.269531 24.105469 25.347656 23.914062 25.347656 L 19.84375 25.347656 C 19.503906 25.347656 19.234375 25.121094 19.121094 24.816406 L 17.90625 21.027344 L 16.042969 26.332031 C 15.925781 26.597656 15.699219 26.824219 15.394531 26.824219 C 15.089844 26.863281 14.824219 26.710938 14.671875 26.445312 L 12.582031 22.84375 L 11.019531 24.398438 C 10.867188 24.550781 10.679688 24.625 10.488281 24.625 L 7.75 24.625 C 8.09375 26.671875 9.269531 28.566406 11.097656 29.742188 L 7.824219 36.183594 L 7.636719 36.601562 C 7.445312 36.980469 7.597656 37.433594 7.976562 37.625 C 8.09375 37.699219 8.207031 37.699219 8.320312 37.699219 C 8.585938 37.699219 8.851562 37.546875 9.003906 37.285156 L 9.574219 36.183594 L 12.503906 30.460938 C 13.417969 30.804688 14.328125 30.992188 15.28125 30.992188 C 18.019531 30.992188 20.644531 29.476562 22.011719 26.863281 L 23.6875 26.863281 C 23.570312 27.089844 23.496094 27.316406 23.382812 27.542969 C 21.824219 30.613281 18.742188 32.507812 15.320312 32.507812 C 14.632812 32.507812 13.988281 32.433594 13.339844 32.28125 L 11.25 36.183594 L 49.015625 36.183594 Z M 49.015625 37.699219 " fill-opacity="1" fill-rule="nonzero"/></g></svg>