<svg xmlns="http://www.w3.org/2000/svg" xmlns:xlink="http://www.w3.org/1999/xlink" width="70" zoomAndPan="magnify" viewBox="0 0 52.5 52.499999" height="70" preserveAspectRatio="xMidYMid meet" version="1.0"><defs><clipPath id="91f646d14e"><path d="M 16 20 L 41 20 L 41 50.394531 L 16 50.394531 Z M 16 20 " clip-rule="nonzero"/></clipPath><clipPath id="5901161fa5"><path d="M 2.214844 2.394531 L 50 2.394531 L 50 43 L 2.214844 43 Z M 2.214844 2.394531 " clip-rule="nonzero"/></clipPath></defs><g clip-path="url(#91f646d14e)"><path fill="#000000" d="M 23.894531 50.351562 C 23.894531 50.351562 23.933594 50.351562 23.894531 50.351562 L 30.132812 50.351562 C 32.582031 50.351562 35.441406 50.203125 38.1875 49.082031 C 39.152344 48.671875 39.746094 48.445312 40.378906 48.257812 C 40.230469 47.808594 40.15625 47.359375 40.15625 46.875 L 40.15625 46.761719 C 39.335938 46.988281 38.707031 47.25 37.59375 47.699219 C 35.105469 48.746094 32.433594 48.820312 30.132812 48.855469 L 23.933594 48.855469 C 23.078125 48.855469 22.335938 48.144531 22.335938 47.25 C 22.335938 46.351562 23.113281 45.601562 24.042969 45.601562 C 24.042969 45.601562 26.789062 45.566406 26.789062 45.566406 C 27.199219 45.566406 27.53125 45.230469 27.53125 44.816406 C 27.53125 44.40625 27.199219 44.070312 26.789062 44.070312 C 26.789062 44.070312 22.113281 44.105469 22.113281 44.105469 C 21.257812 44.105469 20.441406 43.394531 20.441406 42.5 C 20.441406 41.601562 21.222656 40.851562 22.148438 40.851562 L 26.679688 40.816406 C 27.085938 40.816406 27.421875 40.476562 27.421875 40.066406 C 27.421875 39.65625 27.085938 39.320312 26.679688 39.320312 C 26.679688 39.320312 20.886719 39.355469 20.851562 39.355469 C 19.996094 39.355469 19.179688 38.644531 19.179688 37.746094 C 19.179688 36.851562 19.960938 36.101562 20.886719 36.101562 L 26.714844 36.0625 C 27.125 36.0625 27.457031 35.726562 27.457031 35.316406 C 27.457031 34.90625 27.125 34.566406 26.714844 34.566406 L 19.8125 34.605469 C 18.882812 34.605469 18.140625 34.042969 18.066406 33.257812 C 17.992188 32.285156 18.847656 31.539062 19.8125 31.5 C 19.8125 31.5 28.792969 31.5 28.832031 31.5 C 29.277344 31.5 29.648438 31.050781 29.574219 30.601562 L 28.941406 27.574219 C 28.496094 25.367188 29.539062 23.085938 31.503906 21.925781 C 31.652344 21.851562 31.839844 21.886719 31.875 22.074219 L 33.433594 28.394531 C 33.878906 30.230469 35.105469 31.726562 36.8125 32.585938 C 37.890625 33.109375 39.039062 33.519531 40.230469 33.859375 C 40.230469 33.332031 40.265625 32.847656 40.414062 32.359375 C 39.375 32.0625 38.410156 31.726562 37.445312 31.238281 C 36.144531 30.601562 35.179688 29.445312 34.847656 28.058594 C 34.847656 28.058594 33.285156 21.738281 33.285156 21.738281 C 33.027344 20.617188 31.691406 20.09375 30.726562 20.652344 C 28.164062 22.148438 26.863281 25.066406 27.457031 27.910156 L 27.902344 30.042969 C 27.902344 30.042969 19.773438 30.042969 19.773438 30.042969 C 17.992188 30.042969 16.394531 31.574219 16.582031 33.410156 C 16.691406 34.492188 17.398438 35.390625 18.402344 35.839844 C 17.953125 36.363281 17.695312 37.035156 17.695312 37.785156 C 17.695312 39.019531 18.476562 40.179688 19.625 40.664062 C 19.21875 41.1875 18.996094 41.824219 18.996094 42.535156 C 18.996094 43.957031 20.070312 45.265625 21.445312 45.566406 C 21.109375 46.050781 20.925781 46.648438 20.925781 47.25 C 20.8125 48.933594 22.261719 50.351562 23.894531 50.351562 Z M 23.894531 50.351562 " fill-opacity="1" fill-rule="nonzero"/></g><path fill="#000000" d="M 46.949219 30.714844 L 44.644531 30.714844 C 43.011719 30.714844 41.675781 32.0625 41.675781 33.707031 L 41.675781 46.875 C 41.675781 48.519531 43.011719 49.867188 44.644531 49.867188 L 46.949219 49.867188 C 48.582031 49.867188 49.917969 48.519531 49.917969 46.875 L 49.917969 33.707031 C 49.917969 32.0625 48.582031 30.714844 46.949219 30.714844 Z M 46.949219 30.714844 " fill-opacity="1" fill-rule="nonzero"/><g clip-path="url(#5901161fa5)"><path fill="#000000" d="M 17.433594 42.683594 C 17.433594 42.609375 17.433594 42.574219 17.433594 42.5 C 17.433594 42.050781 17.507812 41.5625 17.65625 41.152344 C 16.730469 40.292969 16.171875 39.058594 16.171875 37.785156 C 16.171875 37.296875 16.246094 36.8125 16.433594 36.363281 C 15.652344 35.617188 15.171875 34.644531 15.058594 33.59375 C 14.949219 32.324219 15.355469 31.125 16.246094 30.15625 C 17.136719 29.144531 18.4375 28.582031 19.773438 28.582031 L 26.085938 28.582031 L 26.011719 28.285156 C 25.304688 24.804688 26.902344 21.25 30.019531 19.417969 C 30.503906 19.121094 31.058594 18.96875 31.617188 18.96875 C 33.136719 18.96875 34.402344 19.980469 34.773438 21.402344 C 34.773438 21.402344 35.070312 22.5625 36.332031 27.722656 C 36.554688 28.621094 37.148438 29.367188 38 29.855469 C 38 29.78125 38.039062 29.667969 38.074219 29.59375 C 39.113281 27.835938 40.042969 25.964844 40.859375 24.132812 C 41.007812 23.757812 41.453125 23.570312 41.824219 23.757812 C 42.195312 23.90625 42.382812 24.355469 42.195312 24.730469 C 41.378906 26.636719 40.414062 28.507812 39.335938 30.339844 C 39.335938 30.378906 39.300781 30.378906 39.261719 30.417969 C 39.746094 30.601562 40.265625 30.789062 40.824219 30.941406 C 40.933594 30.976562 41.007812 31.015625 41.121094 31.050781 C 41.898438 30.003906 43.125 29.292969 44.496094 29.257812 C 46.800781 24.65625 48.953125 18.671875 49.917969 12.761719 C 50.214844 10.890625 48.878906 9.019531 46.984375 8.90625 C 43.828125 8.722656 40.785156 8.234375 37.890625 7.523438 C 33.433594 6.4375 29.761719 4.832031 26.640625 2.625 C 26.382812 2.4375 26.046875 2.4375 25.789062 2.625 C 22.667969 4.832031 18.996094 6.4375 14.539062 7.523438 C 11.644531 8.234375 8.601562 8.683594 5.445312 8.90625 C 3.550781 9.019531 2.214844 10.890625 2.511719 12.761719 C 4.628906 26.300781 11.421875 36.0625 17.433594 42.683594 Z M 42.046875 20.878906 C 42.34375 20.054688 42.605469 19.269531 42.863281 18.445312 C 42.976562 18.074219 43.382812 17.808594 43.792969 17.960938 C 44.164062 18.074219 44.386719 18.519531 44.273438 18.894531 C 44.015625 19.71875 43.71875 20.578125 43.421875 21.402344 C 43.273438 21.777344 42.863281 22 42.457031 21.851562 C 42.121094 21.699219 41.9375 21.289062 42.046875 20.878906 Z M 36.183594 12.3125 C 36.21875 11.898438 36.628906 11.601562 37 11.675781 C 37.480469 11.75 37.964844 11.789062 38.445312 11.824219 C 38.855469 11.863281 39.152344 12.199219 39.113281 12.609375 C 39.078125 13.023438 38.742188 13.285156 38.371094 13.285156 C 38.371094 13.285156 37.296875 13.171875 36.8125 13.136719 C 36.441406 13.097656 36.144531 12.722656 36.183594 12.3125 Z M 17.769531 11.226562 C 18.25 11.113281 18.699219 11.003906 19.179688 10.851562 C 21.777344 10.105469 23.894531 9.019531 25.714844 7.488281 C 25.972656 7.261719 26.382812 7.261719 26.679688 7.488281 C 28.496094 9.019531 30.613281 10.105469 33.210938 10.851562 C 33.546875 10.964844 33.878906 11.039062 34.25 11.113281 C 34.660156 11.226562 34.882812 11.601562 34.808594 12.011719 C 34.699219 12.425781 34.289062 12.648438 33.917969 12.574219 C 33.546875 12.5 33.210938 12.386719 32.839844 12.273438 C 30.28125 11.527344 28.089844 10.441406 26.234375 8.984375 C 24.378906 10.441406 22.1875 11.527344 19.625 12.273438 C 19.144531 12.425781 18.660156 12.535156 18.140625 12.648438 C 17.769531 12.722656 17.324219 12.460938 17.25 12.085938 C 17.101562 11.714844 17.359375 11.339844 17.769531 11.226562 Z M 13.835938 11.824219 C 14.167969 11.789062 14.539062 11.75 14.875 11.714844 C 15.28125 11.675781 15.652344 11.976562 15.691406 12.386719 C 15.726562 12.796875 15.429688 13.171875 15.023438 13.210938 C 14.652344 13.246094 14.28125 13.285156 13.910156 13.320312 C 13.5 13.359375 13.128906 13.023438 13.09375 12.648438 C 13.128906 12.199219 13.425781 11.863281 13.835938 11.824219 Z M 13.835938 11.824219 " fill-opacity="1" fill-rule="nonzero"/></g></svg>