<svg xmlns="http://www.w3.org/2000/svg" xmlns:xlink="http://www.w3.org/1999/xlink" width="100" zoomAndPan="magnify" viewBox="0 0 75 74.999997" height="100" preserveAspectRatio="xMidYMid meet" version="1.0"><defs><clipPath id="c5cd54a156"><path d="M 22 43 L 50 43 L 50 68.25 L 22 68.25 Z M 22 43 " clip-rule="nonzero"/></clipPath><clipPath id="e8e14d43bd"><path d="M 12.660156 7.5 L 62.160156 7.5 L 62.160156 53 L 12.660156 53 Z M 12.660156 7.5 " clip-rule="nonzero"/></clipPath></defs><g clip-path="url(#c5cd54a156)"><path fill="#000000" d="M 49.210938 48.34375 C 49.207031 48.242188 49.199219 48.140625 49.1875 48.039062 C 49.183594 48.03125 49.183594 48.019531 49.183594 48.007812 C 49.167969 47.90625 49.152344 47.800781 49.132812 47.699219 C 49.125 47.640625 49.101562 47.59375 49.070312 47.554688 C 48.988281 47.449219 48.847656 47.40625 48.722656 47.445312 C 48.699219 47.449219 48.675781 47.460938 48.65625 47.472656 C 48.648438 47.476562 48.644531 47.480469 48.636719 47.484375 C 48.625 47.492188 48.613281 47.5 48.601562 47.511719 L 45.488281 50.253906 C 45.128906 50.570312 44.582031 50.53125 44.269531 50.171875 L 42.585938 48.242188 C 42.273438 47.878906 42.308594 47.328125 42.667969 47.011719 L 45.777344 44.273438 C 45.789062 44.261719 45.800781 44.25 45.8125 44.238281 C 45.835938 44.210938 45.855469 44.179688 45.867188 44.144531 C 45.871094 44.132812 45.878906 44.117188 45.878906 44.105469 C 45.882812 44.089844 45.886719 44.078125 45.886719 44.0625 C 45.890625 44.054688 45.890625 44.050781 45.890625 44.042969 C 45.890625 44.023438 45.890625 44 45.886719 43.980469 C 45.878906 43.917969 45.851562 43.859375 45.8125 43.8125 C 45.800781 43.800781 45.792969 43.789062 45.78125 43.78125 C 45.777344 43.777344 45.769531 43.773438 45.765625 43.765625 C 45.738281 43.746094 45.703125 43.726562 45.664062 43.714844 C 45.566406 43.683594 45.464844 43.652344 45.363281 43.625 C 45.355469 43.625 45.34375 43.621094 45.335938 43.617188 C 45.238281 43.59375 45.136719 43.570312 45.039062 43.550781 C 45.03125 43.550781 45.023438 43.546875 45.019531 43.546875 C 44.886719 43.523438 44.757812 43.503906 44.625 43.488281 C 44.625 43.488281 44.621094 43.488281 44.617188 43.488281 C 44.566406 43.480469 44.511719 43.476562 44.460938 43.472656 C 44.433594 43.46875 44.402344 43.46875 44.375 43.464844 C 44.210938 43.457031 44.046875 43.453125 43.882812 43.460938 C 43.828125 43.460938 43.773438 43.464844 43.71875 43.46875 C 43.609375 43.476562 43.5 43.484375 43.390625 43.5 C 43.34375 43.503906 43.292969 43.511719 43.246094 43.519531 C 43.179688 43.53125 43.113281 43.542969 43.046875 43.554688 C 42.917969 43.582031 42.789062 43.613281 42.660156 43.648438 C 42.636719 43.65625 42.609375 43.664062 42.582031 43.671875 C 42.542969 43.683594 42.507812 43.695312 42.46875 43.707031 C 42.429688 43.71875 42.386719 43.734375 42.34375 43.75 C 42.238281 43.785156 42.132812 43.828125 42.03125 43.871094 C 41.851562 43.949219 41.671875 44.035156 41.5 44.136719 C 41.425781 44.179688 41.355469 44.222656 41.28125 44.269531 C 41.234375 44.300781 41.183594 44.332031 41.136719 44.367188 C 40.972656 44.480469 40.808594 44.605469 40.652344 44.742188 C 40.628906 44.765625 40.605469 44.785156 40.582031 44.804688 C 40.578125 44.8125 40.570312 44.820312 40.5625 44.828125 C 40.546875 44.839844 40.53125 44.855469 40.515625 44.871094 C 40.507812 44.878906 40.496094 44.886719 40.488281 44.894531 C 40.476562 44.910156 40.460938 44.921875 40.449219 44.933594 C 40.4375 44.945312 40.429688 44.953125 40.421875 44.960938 C 40.40625 44.976562 40.394531 44.988281 40.382812 45 C 40.371094 45.011719 40.363281 45.019531 40.355469 45.027344 C 40.34375 45.042969 40.328125 45.054688 40.316406 45.066406 C 40.308594 45.078125 40.300781 45.085938 40.289062 45.097656 C 40.277344 45.109375 40.265625 45.125 40.253906 45.136719 C 40.246094 45.144531 40.234375 45.15625 40.226562 45.164062 C 40.214844 45.179688 40.203125 45.195312 40.1875 45.207031 C 40.183594 45.214844 40.175781 45.226562 40.167969 45.234375 C 40.152344 45.25 40.136719 45.269531 40.121094 45.285156 C 40.117188 45.292969 40.113281 45.296875 40.105469 45.304688 C 40.085938 45.324219 40.066406 45.351562 40.050781 45.375 C 40.042969 45.378906 40.039062 45.386719 40.035156 45.390625 C 40.019531 45.410156 40.007812 45.425781 39.992188 45.445312 C 39.984375 45.453125 39.980469 45.460938 39.972656 45.472656 C 39.960938 45.484375 39.949219 45.5 39.9375 45.515625 C 39.929688 45.527344 39.921875 45.535156 39.914062 45.546875 C 39.902344 45.5625 39.894531 45.574219 39.882812 45.589844 C 39.875 45.601562 39.867188 45.609375 39.859375 45.621094 C 39.851562 45.636719 39.839844 45.648438 39.828125 45.664062 C 39.824219 45.675781 39.816406 45.683594 39.808594 45.695312 C 39.796875 45.710938 39.789062 45.722656 39.777344 45.738281 C 39.769531 45.75 39.765625 45.761719 39.757812 45.769531 C 39.746094 45.785156 39.738281 45.800781 39.726562 45.816406 C 39.722656 45.824219 39.714844 45.835938 39.707031 45.84375 C 39.699219 45.863281 39.6875 45.878906 39.675781 45.898438 C 39.671875 45.90625 39.664062 45.914062 39.660156 45.921875 C 39.644531 45.945312 39.628906 45.972656 39.613281 46 C 39.597656 46.023438 39.582031 46.050781 39.570312 46.074219 C 39.566406 46.085938 39.558594 46.09375 39.554688 46.101562 C 39.546875 46.117188 39.535156 46.136719 39.527344 46.152344 C 39.519531 46.164062 39.515625 46.175781 39.511719 46.183594 C 39.5 46.199219 39.492188 46.214844 39.484375 46.234375 C 39.480469 46.242188 39.472656 46.253906 39.46875 46.265625 C 39.460938 46.28125 39.453125 46.296875 39.445312 46.3125 C 39.4375 46.324219 39.433594 46.335938 39.425781 46.347656 C 39.417969 46.363281 39.410156 46.378906 39.402344 46.394531 C 39.398438 46.402344 39.394531 46.414062 39.386719 46.425781 C 39.378906 46.441406 39.375 46.457031 39.367188 46.472656 C 39.359375 46.484375 39.355469 46.496094 39.351562 46.507812 C 39.34375 46.523438 39.335938 46.542969 39.328125 46.558594 C 39.324219 46.566406 39.320312 46.578125 39.316406 46.589844 C 39.304688 46.609375 39.296875 46.628906 39.289062 46.648438 C 39.285156 46.65625 39.285156 46.664062 39.28125 46.667969 C 39.269531 46.695312 39.257812 46.722656 39.25 46.75 C 39.246094 46.757812 39.242188 46.765625 39.242188 46.773438 C 39.234375 46.792969 39.226562 46.8125 39.21875 46.835938 C 39.214844 46.84375 39.210938 46.855469 39.207031 46.863281 C 39.199219 46.882812 39.195312 46.898438 39.1875 46.917969 C 39.183594 46.929688 39.179688 46.941406 39.175781 46.949219 C 39.171875 46.96875 39.164062 46.984375 39.160156 47 C 39.15625 47.011719 39.152344 47.023438 39.148438 47.035156 C 39.140625 47.050781 39.136719 47.070312 39.132812 47.085938 C 39.128906 47.097656 39.125 47.109375 39.121094 47.121094 C 39.117188 47.136719 39.109375 47.152344 39.105469 47.171875 C 39.101562 47.183594 39.097656 47.195312 39.09375 47.207031 C 39.089844 47.222656 39.085938 47.238281 39.082031 47.257812 C 39.078125 47.269531 39.074219 47.277344 39.070312 47.289062 C 39.066406 47.308594 39.0625 47.328125 39.058594 47.347656 C 39.054688 47.355469 39.050781 47.367188 39.050781 47.375 C 39.042969 47.402344 39.035156 47.433594 39.03125 47.460938 C 39.027344 47.460938 39.027344 47.460938 39.027344 47.464844 C 39.023438 47.492188 39.015625 47.519531 39.011719 47.546875 C 39.007812 47.554688 39.007812 47.566406 39.003906 47.574219 C 39 47.59375 38.996094 47.613281 38.992188 47.632812 C 38.988281 47.644531 38.988281 47.65625 38.984375 47.664062 C 38.980469 47.683594 38.980469 47.699219 38.976562 47.71875 C 38.972656 47.730469 38.972656 47.742188 38.96875 47.753906 C 38.964844 47.769531 38.964844 47.789062 38.960938 47.804688 C 38.957031 47.816406 38.957031 47.828125 38.953125 47.839844 C 38.953125 47.859375 38.949219 47.875 38.945312 47.894531 C 38.945312 47.90625 38.945312 47.917969 38.941406 47.929688 C 38.941406 47.945312 38.9375 47.964844 38.933594 47.980469 C 38.933594 47.992188 38.933594 48.003906 38.929688 48.015625 C 38.929688 48.035156 38.925781 48.054688 38.925781 48.070312 C 38.921875 48.082031 38.921875 48.09375 38.921875 48.101562 C 38.917969 48.125 38.917969 48.148438 38.914062 48.171875 C 38.914062 48.175781 38.914062 48.183594 38.914062 48.191406 C 38.910156 48.21875 38.90625 48.25 38.90625 48.277344 C 38.90625 48.285156 38.90625 48.292969 38.902344 48.300781 C 38.902344 48.320312 38.902344 48.34375 38.898438 48.363281 C 38.898438 48.375 38.898438 48.386719 38.898438 48.398438 C 38.898438 48.414062 38.898438 48.433594 38.894531 48.453125 C 38.894531 48.464844 38.894531 48.476562 38.894531 48.488281 C 38.894531 48.503906 38.894531 48.523438 38.894531 48.539062 C 38.894531 48.550781 38.894531 48.566406 38.894531 48.578125 C 38.890625 48.59375 38.890625 48.609375 38.890625 48.628906 C 38.890625 48.640625 38.890625 48.652344 38.890625 48.664062 C 38.890625 48.683594 38.890625 48.699219 38.890625 48.71875 C 38.894531 48.730469 38.894531 48.742188 38.894531 48.753906 C 38.894531 48.769531 38.894531 48.789062 38.894531 48.808594 C 38.894531 48.820312 38.894531 48.828125 38.894531 48.839844 C 38.894531 48.859375 38.898438 48.878906 38.898438 48.898438 C 38.898438 48.910156 38.898438 48.917969 38.898438 48.929688 C 38.902344 48.957031 38.902344 48.988281 38.90625 49.015625 C 38.90625 49.015625 38.90625 49.019531 38.90625 49.019531 C 38.90625 49.046875 38.910156 49.074219 38.910156 49.101562 C 38.914062 49.113281 38.914062 49.121094 38.914062 49.132812 C 38.914062 49.152344 38.917969 49.171875 38.917969 49.191406 C 38.921875 49.203125 38.921875 49.214844 38.921875 49.226562 C 38.925781 49.242188 38.925781 49.261719 38.929688 49.277344 C 38.929688 49.289062 38.933594 49.300781 38.933594 49.3125 C 38.9375 49.332031 38.9375 49.347656 38.941406 49.367188 C 38.941406 49.378906 38.945312 49.390625 38.945312 49.402344 C 38.949219 49.417969 38.949219 49.4375 38.953125 49.453125 C 38.957031 49.464844 38.957031 49.476562 38.957031 49.488281 C 38.960938 49.507812 38.964844 49.523438 38.96875 49.542969 C 38.96875 49.554688 38.972656 49.566406 38.972656 49.578125 C 38.972656 49.582031 38.976562 49.585938 38.976562 49.589844 C 39.046875 49.984375 38.90625 50.390625 38.605469 50.65625 L 37.289062 51.8125 L 32.480469 46.289062 L 31.03125 44.625 C 29.792969 43.203125 27.632812 43.058594 26.21875 44.304688 L 26.105469 44.40625 C 24.691406 45.652344 24.550781 47.824219 25.789062 49.246094 L 27.238281 50.910156 L 32.046875 56.433594 L 30.730469 57.59375 C 30.429688 57.859375 30.011719 57.945312 29.632812 57.820312 C 29.628906 57.820312 29.625 57.820312 29.621094 57.816406 C 29.609375 57.8125 29.597656 57.808594 29.585938 57.804688 C 29.570312 57.800781 29.554688 57.796875 29.535156 57.789062 C 29.523438 57.789062 29.511719 57.785156 29.5 57.78125 C 29.484375 57.777344 29.46875 57.769531 29.453125 57.765625 C 29.441406 57.761719 29.429688 57.757812 29.417969 57.757812 C 29.402344 57.75 29.382812 57.746094 29.367188 57.742188 C 29.355469 57.738281 29.34375 57.734375 29.332031 57.734375 C 29.316406 57.730469 29.296875 57.722656 29.28125 57.71875 C 29.269531 57.71875 29.257812 57.714844 29.246094 57.710938 C 29.226562 57.707031 29.210938 57.703125 29.191406 57.699219 C 29.179688 57.695312 29.171875 57.695312 29.164062 57.691406 C 29.136719 57.6875 29.109375 57.679688 29.082031 57.675781 C 29.078125 57.675781 29.078125 57.675781 29.078125 57.675781 C 29.046875 57.667969 29.019531 57.664062 28.992188 57.65625 C 28.980469 57.65625 28.972656 57.652344 28.964844 57.652344 C 28.945312 57.648438 28.925781 57.644531 28.90625 57.640625 C 28.894531 57.640625 28.882812 57.636719 28.871094 57.636719 C 28.855469 57.632812 28.835938 57.628906 28.820312 57.628906 C 28.808594 57.625 28.796875 57.625 28.785156 57.621094 C 28.765625 57.621094 28.75 57.617188 28.734375 57.617188 C 28.71875 57.613281 28.707031 57.613281 28.695312 57.609375 C 28.679688 57.609375 28.664062 57.605469 28.644531 57.605469 C 28.632812 57.601562 28.621094 57.601562 28.609375 57.601562 C 28.59375 57.597656 28.574219 57.597656 28.558594 57.59375 C 28.546875 57.59375 28.535156 57.59375 28.523438 57.589844 C 28.503906 57.589844 28.484375 57.585938 28.46875 57.585938 C 28.457031 57.585938 28.445312 57.585938 28.4375 57.582031 C 28.414062 57.582031 28.394531 57.582031 28.371094 57.578125 C 28.363281 57.578125 28.355469 57.578125 28.347656 57.578125 C 28.320312 57.574219 28.292969 57.574219 28.261719 57.574219 C 28.253906 57.574219 28.25 57.570312 28.242188 57.570312 C 28.21875 57.570312 28.195312 57.570312 28.175781 57.570312 C 28.164062 57.570312 28.152344 57.570312 28.144531 57.570312 C 28.125 57.570312 28.105469 57.566406 28.089844 57.566406 C 28.078125 57.566406 28.066406 57.566406 28.054688 57.566406 C 28.035156 57.566406 28.019531 57.566406 28 57.566406 C 27.988281 57.566406 27.976562 57.566406 27.964844 57.566406 C 27.945312 57.570312 27.929688 57.570312 27.914062 57.570312 C 27.902344 57.570312 27.886719 57.570312 27.875 57.570312 C 27.859375 57.570312 27.84375 57.570312 27.824219 57.570312 C 27.8125 57.574219 27.800781 57.574219 27.789062 57.574219 C 27.769531 57.574219 27.753906 57.574219 27.734375 57.578125 C 27.722656 57.578125 27.714844 57.578125 27.703125 57.578125 C 27.683594 57.578125 27.664062 57.582031 27.644531 57.582031 C 27.632812 57.582031 27.625 57.585938 27.613281 57.585938 C 27.585938 57.585938 27.558594 57.589844 27.53125 57.59375 C 27.53125 57.59375 27.527344 57.59375 27.527344 57.59375 C 27.5 57.59375 27.46875 57.597656 27.441406 57.601562 C 27.433594 57.601562 27.421875 57.605469 27.414062 57.605469 C 27.394531 57.609375 27.375 57.609375 27.355469 57.613281 C 27.34375 57.613281 27.332031 57.617188 27.320312 57.617188 C 27.304688 57.621094 27.285156 57.621094 27.269531 57.625 C 27.253906 57.628906 27.242188 57.628906 27.230469 57.632812 C 27.214844 57.632812 27.199219 57.636719 27.179688 57.640625 C 27.167969 57.640625 27.15625 57.644531 27.144531 57.644531 C 27.128906 57.648438 27.109375 57.652344 27.09375 57.65625 C 27.082031 57.65625 27.070312 57.660156 27.058594 57.660156 C 27.039062 57.664062 27.023438 57.667969 27.007812 57.671875 C 26.996094 57.675781 26.984375 57.675781 26.972656 57.679688 C 26.953125 57.683594 26.9375 57.6875 26.917969 57.691406 C 26.90625 57.691406 26.898438 57.695312 26.886719 57.699219 C 26.863281 57.703125 26.84375 57.707031 26.824219 57.714844 C 26.816406 57.714844 26.808594 57.714844 26.800781 57.71875 C 26.773438 57.726562 26.742188 57.734375 26.714844 57.738281 C 26.707031 57.742188 26.703125 57.742188 26.695312 57.746094 C 26.671875 57.75 26.652344 57.757812 26.628906 57.761719 C 26.621094 57.765625 26.609375 57.769531 26.601562 57.773438 C 26.582031 57.777344 26.5625 57.78125 26.546875 57.789062 C 26.535156 57.792969 26.523438 57.796875 26.511719 57.800781 C 26.496094 57.804688 26.476562 57.808594 26.460938 57.816406 C 26.449219 57.820312 26.4375 57.824219 26.425781 57.828125 C 26.410156 57.832031 26.394531 57.835938 26.375 57.84375 C 26.363281 57.847656 26.351562 57.851562 26.339844 57.855469 C 26.324219 57.859375 26.308594 57.867188 26.292969 57.871094 C 26.28125 57.875 26.269531 57.882812 26.257812 57.886719 C 26.242188 57.890625 26.222656 57.898438 26.207031 57.902344 C 26.195312 57.910156 26.183594 57.914062 26.175781 57.917969 C 26.15625 57.921875 26.136719 57.929688 26.121094 57.9375 C 26.109375 57.941406 26.101562 57.945312 26.09375 57.949219 C 26.066406 57.960938 26.039062 57.972656 26.011719 57.984375 C 25.984375 57.996094 25.957031 58.007812 25.929688 58.019531 C 25.917969 58.023438 25.910156 58.027344 25.902344 58.03125 C 25.882812 58.039062 25.863281 58.050781 25.847656 58.058594 C 25.835938 58.0625 25.824219 58.066406 25.816406 58.074219 C 25.800781 58.082031 25.78125 58.089844 25.765625 58.097656 C 25.753906 58.101562 25.742188 58.109375 25.734375 58.113281 C 25.71875 58.121094 25.699219 58.128906 25.683594 58.136719 C 25.675781 58.144531 25.664062 58.148438 25.652344 58.15625 C 25.636719 58.164062 25.621094 58.171875 25.605469 58.179688 C 25.59375 58.1875 25.582031 58.191406 25.570312 58.199219 C 25.554688 58.207031 25.539062 58.214844 25.523438 58.222656 C 25.515625 58.230469 25.503906 58.234375 25.492188 58.242188 C 25.476562 58.25 25.460938 58.261719 25.441406 58.269531 C 25.433594 58.277344 25.421875 58.28125 25.414062 58.289062 C 25.394531 58.300781 25.375 58.3125 25.355469 58.324219 C 25.347656 58.328125 25.34375 58.332031 25.335938 58.335938 C 25.308594 58.351562 25.285156 58.367188 25.257812 58.382812 C 25.253906 58.386719 25.246094 58.390625 25.238281 58.394531 C 25.222656 58.40625 25.203125 58.421875 25.183594 58.433594 C 25.171875 58.441406 25.164062 58.445312 25.15625 58.453125 C 25.140625 58.464844 25.121094 58.472656 25.105469 58.484375 C 25.097656 58.492188 25.085938 58.5 25.078125 58.507812 C 25.0625 58.515625 25.046875 58.527344 25.03125 58.539062 C 25.019531 58.546875 25.011719 58.554688 25 58.5625 C 24.984375 58.570312 24.972656 58.582031 24.957031 58.59375 C 24.945312 58.601562 24.9375 58.609375 24.925781 58.617188 C 24.910156 58.628906 24.898438 58.640625 24.882812 58.652344 C 24.871094 58.660156 24.863281 58.667969 24.851562 58.675781 C 24.835938 58.6875 24.820312 58.699219 24.808594 58.710938 C 24.796875 58.71875 24.789062 58.726562 24.777344 58.734375 C 24.761719 58.746094 24.746094 58.761719 24.730469 58.773438 C 24.722656 58.78125 24.714844 58.785156 24.707031 58.792969 C 24.683594 58.8125 24.660156 58.832031 24.636719 58.855469 C 24.523438 58.953125 24.417969 59.054688 24.316406 59.160156 C 24.277344 59.199219 24.238281 59.242188 24.199219 59.285156 C 24.175781 59.3125 24.152344 59.339844 24.128906 59.367188 C 24.070312 59.4375 24.011719 59.507812 23.957031 59.578125 C 23.90625 59.644531 23.855469 59.714844 23.804688 59.785156 C 23.785156 59.8125 23.765625 59.839844 23.75 59.867188 C 23.734375 59.886719 23.722656 59.910156 23.707031 59.929688 C 23.691406 59.953125 23.675781 59.980469 23.660156 60.007812 C 23.628906 60.054688 23.601562 60.101562 23.574219 60.148438 C 23.527344 60.230469 23.484375 60.308594 23.441406 60.390625 C 23.398438 60.480469 23.355469 60.566406 23.316406 60.65625 C 23.300781 60.691406 23.285156 60.726562 23.269531 60.765625 C 23.175781 60.996094 23.097656 61.230469 23.035156 61.46875 C 23.03125 61.492188 23.027344 61.511719 23.019531 61.53125 C 23.007812 61.59375 22.992188 61.65625 22.980469 61.714844 C 22.976562 61.730469 22.972656 61.746094 22.972656 61.761719 C 22.945312 61.886719 22.925781 62.011719 22.914062 62.136719 C 22.902344 62.222656 22.894531 62.308594 22.886719 62.398438 C 22.878906 62.511719 22.875 62.628906 22.875 62.742188 C 22.875 62.835938 22.875 62.929688 22.882812 63.023438 C 22.882812 63.050781 22.882812 63.074219 22.886719 63.101562 C 22.890625 63.203125 22.902344 63.304688 22.914062 63.40625 C 22.917969 63.449219 22.925781 63.496094 22.933594 63.539062 C 22.941406 63.597656 22.949219 63.65625 22.960938 63.714844 C 22.972656 63.769531 22.992188 63.816406 23.023438 63.855469 C 23.027344 63.859375 23.03125 63.867188 23.039062 63.875 C 23.042969 63.878906 23.050781 63.886719 23.054688 63.890625 C 23.0625 63.898438 23.066406 63.902344 23.074219 63.910156 C 23.082031 63.914062 23.085938 63.917969 23.09375 63.921875 C 23.148438 63.960938 23.210938 63.980469 23.277344 63.984375 C 23.296875 63.984375 23.320312 63.980469 23.339844 63.976562 C 23.34375 63.976562 23.351562 63.976562 23.359375 63.972656 C 23.394531 63.964844 23.425781 63.949219 23.457031 63.929688 C 23.472656 63.921875 23.484375 63.914062 23.496094 63.902344 L 26.605469 61.160156 C 26.964844 60.84375 27.511719 60.878906 27.828125 61.242188 L 29.507812 63.171875 C 29.824219 63.535156 29.789062 64.085938 29.429688 64.402344 L 26.316406 67.140625 C 26.128906 67.308594 26.191406 67.621094 26.429688 67.699219 C 28.105469 68.25 30.019531 67.921875 31.441406 66.667969 C 31.464844 66.648438 31.488281 66.628906 31.511719 66.605469 C 31.519531 66.601562 31.527344 66.59375 31.535156 66.585938 C 31.550781 66.570312 31.566406 66.558594 31.582031 66.542969 C 31.589844 66.535156 31.597656 66.527344 31.605469 66.519531 C 31.621094 66.503906 31.632812 66.492188 31.648438 66.476562 C 31.65625 66.46875 31.664062 66.460938 31.675781 66.449219 C 31.6875 66.4375 31.699219 66.425781 31.714844 66.410156 C 31.722656 66.402344 31.730469 66.394531 31.742188 66.382812 C 31.753906 66.371094 31.765625 66.359375 31.777344 66.34375 C 31.785156 66.335938 31.796875 66.324219 31.804688 66.316406 C 31.816406 66.304688 31.828125 66.289062 31.84375 66.277344 C 31.851562 66.265625 31.859375 66.257812 31.867188 66.25 C 31.878906 66.234375 31.894531 66.21875 31.90625 66.207031 C 31.914062 66.195312 31.921875 66.1875 31.929688 66.179688 C 31.945312 66.164062 31.957031 66.144531 31.972656 66.128906 C 31.976562 66.121094 31.984375 66.117188 31.988281 66.109375 C 32.007812 66.085938 32.027344 66.0625 32.046875 66.039062 C 32.050781 66.035156 32.054688 66.027344 32.058594 66.023438 C 32.074219 66.003906 32.089844 65.984375 32.101562 65.96875 C 32.109375 65.960938 32.117188 65.949219 32.125 65.941406 C 32.136719 65.925781 32.148438 65.910156 32.160156 65.894531 C 32.164062 65.886719 32.171875 65.875 32.179688 65.867188 C 32.191406 65.851562 32.203125 65.835938 32.210938 65.824219 C 32.21875 65.8125 32.226562 65.800781 32.234375 65.792969 C 32.246094 65.777344 32.253906 65.761719 32.265625 65.75 C 32.273438 65.738281 32.28125 65.726562 32.285156 65.71875 C 32.296875 65.703125 32.308594 65.6875 32.316406 65.671875 C 32.324219 65.664062 32.332031 65.652344 32.335938 65.644531 C 32.347656 65.628906 32.359375 65.613281 32.367188 65.597656 C 32.375 65.585938 32.378906 65.578125 32.386719 65.566406 C 32.398438 65.550781 32.410156 65.53125 32.417969 65.515625 C 32.425781 65.507812 32.429688 65.5 32.433594 65.492188 C 32.449219 65.464844 32.464844 65.441406 32.480469 65.414062 C 32.496094 65.386719 32.511719 65.363281 32.527344 65.335938 C 32.53125 65.328125 32.535156 65.320312 32.539062 65.3125 C 32.550781 65.292969 32.558594 65.277344 32.570312 65.257812 C 32.574219 65.25 32.578125 65.238281 32.585938 65.226562 C 32.59375 65.210938 32.601562 65.195312 32.609375 65.179688 C 32.617188 65.167969 32.621094 65.160156 32.628906 65.148438 C 32.636719 65.132812 32.644531 65.117188 32.652344 65.101562 C 32.65625 65.089844 32.664062 65.078125 32.667969 65.066406 C 32.675781 65.050781 32.683594 65.035156 32.691406 65.019531 C 32.695312 65.007812 32.703125 64.996094 32.707031 64.988281 C 32.714844 64.96875 32.722656 64.953125 32.730469 64.9375 C 32.734375 64.925781 32.738281 64.917969 32.742188 64.90625 C 32.75 64.886719 32.757812 64.871094 32.765625 64.855469 C 32.769531 64.84375 32.777344 64.835938 32.78125 64.824219 C 32.789062 64.804688 32.796875 64.78125 32.804688 64.761719 C 32.808594 64.753906 32.8125 64.75 32.8125 64.742188 C 32.824219 64.714844 32.835938 64.6875 32.847656 64.660156 C 32.847656 64.652344 32.851562 64.648438 32.855469 64.640625 C 32.863281 64.621094 32.871094 64.597656 32.878906 64.578125 C 32.882812 64.566406 32.886719 64.558594 32.890625 64.546875 C 32.894531 64.53125 32.902344 64.511719 32.90625 64.496094 C 32.910156 64.484375 32.914062 64.472656 32.917969 64.460938 C 32.925781 64.445312 32.929688 64.429688 32.9375 64.410156 C 32.941406 64.398438 32.945312 64.386719 32.949219 64.375 C 32.953125 64.359375 32.957031 64.34375 32.964844 64.328125 C 32.96875 64.316406 32.972656 64.304688 32.972656 64.292969 C 32.980469 64.273438 32.984375 64.257812 32.988281 64.242188 C 32.992188 64.230469 32.996094 64.21875 33 64.207031 C 33.003906 64.191406 33.007812 64.171875 33.015625 64.15625 C 33.015625 64.144531 33.019531 64.132812 33.023438 64.121094 C 33.027344 64.101562 33.03125 64.082031 33.039062 64.066406 C 33.039062 64.054688 33.042969 64.046875 33.046875 64.035156 C 33.050781 64.007812 33.058594 63.980469 33.066406 63.953125 C 33.066406 63.949219 33.066406 63.949219 33.066406 63.949219 C 33.074219 63.921875 33.078125 63.894531 33.085938 63.867188 C 33.085938 63.855469 33.089844 63.847656 33.089844 63.835938 C 33.09375 63.816406 33.097656 63.800781 33.101562 63.78125 C 33.105469 63.769531 33.105469 63.757812 33.109375 63.746094 C 33.113281 63.730469 33.117188 63.710938 33.121094 63.695312 C 33.121094 63.683594 33.125 63.667969 33.125 63.65625 C 33.128906 63.640625 33.132812 63.625 33.132812 63.605469 C 33.136719 63.59375 33.136719 63.582031 33.140625 63.570312 C 33.140625 63.554688 33.144531 63.535156 33.148438 63.519531 C 33.148438 63.507812 33.152344 63.496094 33.152344 63.484375 C 33.15625 63.464844 33.15625 63.449219 33.160156 63.429688 C 33.160156 63.417969 33.164062 63.40625 33.164062 63.394531 C 33.167969 63.378906 33.167969 63.359375 33.171875 63.339844 C 33.171875 63.332031 33.171875 63.320312 33.175781 63.308594 C 33.175781 63.285156 33.179688 63.265625 33.179688 63.242188 C 33.179688 63.234375 33.183594 63.230469 33.183594 63.222656 C 33.183594 63.191406 33.1875 63.164062 33.1875 63.136719 C 33.191406 63.128906 33.191406 63.121094 33.191406 63.113281 C 33.191406 63.089844 33.195312 63.070312 33.195312 63.046875 C 33.195312 63.035156 33.195312 63.027344 33.195312 63.015625 C 33.199219 62.996094 33.199219 62.976562 33.199219 62.960938 C 33.199219 62.949219 33.199219 62.9375 33.199219 62.925781 C 33.199219 62.90625 33.203125 62.890625 33.203125 62.871094 C 33.203125 62.859375 33.203125 62.847656 33.203125 62.835938 C 33.203125 62.820312 33.203125 62.800781 33.203125 62.785156 C 33.203125 62.773438 33.203125 62.757812 33.203125 62.746094 C 33.203125 62.730469 33.203125 62.710938 33.203125 62.695312 C 33.203125 62.683594 33.203125 62.671875 33.203125 62.660156 C 33.203125 62.640625 33.199219 62.625 33.199219 62.605469 C 33.199219 62.59375 33.199219 62.582031 33.199219 62.570312 C 33.199219 62.550781 33.199219 62.53125 33.195312 62.511719 C 33.195312 62.503906 33.195312 62.492188 33.195312 62.484375 C 33.195312 62.453125 33.191406 62.425781 33.191406 62.394531 C 33.191406 62.394531 33.191406 62.394531 33.191406 62.390625 C 33.1875 62.363281 33.1875 62.335938 33.183594 62.308594 C 33.183594 62.296875 33.183594 62.289062 33.179688 62.277344 C 33.179688 62.261719 33.175781 62.242188 33.175781 62.222656 C 33.175781 62.210938 33.171875 62.199219 33.171875 62.1875 C 33.167969 62.167969 33.167969 62.152344 33.164062 62.132812 C 33.164062 62.121094 33.164062 62.109375 33.160156 62.097656 C 33.160156 62.082031 33.15625 62.0625 33.152344 62.046875 C 33.152344 62.035156 33.152344 62.023438 33.148438 62.007812 C 33.148438 61.992188 33.144531 61.976562 33.140625 61.957031 C 33.140625 61.945312 33.136719 61.933594 33.136719 61.921875 C 33.132812 61.90625 33.128906 61.886719 33.128906 61.871094 C 33.125 61.859375 33.121094 61.847656 33.121094 61.835938 C 33.121094 61.832031 33.121094 61.828125 33.117188 61.824219 C 33.046875 61.425781 33.1875 61.023438 33.488281 60.757812 L 34.804688 59.597656 L 40.132812 65.71875 C 40.136719 65.722656 40.140625 65.726562 40.144531 65.726562 C 40.148438 65.734375 40.152344 65.738281 40.15625 65.742188 C 40.164062 65.75 40.171875 65.757812 40.175781 65.761719 C 40.179688 65.765625 40.183594 65.769531 40.1875 65.773438 C 40.199219 65.78125 40.207031 65.792969 40.21875 65.800781 C 40.21875 65.800781 40.21875 65.800781 40.222656 65.804688 C 40.246094 65.824219 40.273438 65.84375 40.300781 65.859375 C 40.3125 65.871094 40.324219 65.878906 40.339844 65.882812 C 40.339844 65.886719 40.34375 65.886719 40.34375 65.886719 C 40.355469 65.894531 40.371094 65.902344 40.382812 65.90625 C 40.382812 65.90625 40.386719 65.90625 40.386719 65.910156 C 40.40625 65.917969 40.421875 65.925781 40.441406 65.929688 L 45.921875 68.078125 C 46.011719 68.117188 46.105469 68.132812 46.199219 68.132812 C 46.382812 68.132812 46.5625 68.066406 46.703125 67.941406 C 46.917969 67.753906 47.007812 67.460938 46.941406 67.183594 L 45.542969 61.421875 C 45.542969 61.421875 45.542969 61.417969 45.542969 61.414062 C 45.539062 61.402344 45.535156 61.394531 45.53125 61.382812 C 45.53125 61.378906 45.53125 61.371094 45.527344 61.367188 C 45.523438 61.355469 45.523438 61.347656 45.515625 61.335938 C 45.515625 61.332031 45.515625 61.328125 45.515625 61.324219 C 45.507812 61.3125 45.503906 61.300781 45.496094 61.285156 C 45.496094 61.28125 45.492188 61.277344 45.492188 61.273438 C 45.488281 61.265625 45.480469 61.253906 45.476562 61.246094 C 45.476562 61.242188 45.472656 61.238281 45.46875 61.230469 C 45.464844 61.222656 45.460938 61.214844 45.453125 61.203125 C 45.453125 61.199219 45.449219 61.199219 45.445312 61.195312 C 45.4375 61.179688 45.429688 61.167969 45.421875 61.15625 C 45.421875 61.15625 45.417969 61.152344 45.417969 61.152344 C 45.410156 61.140625 45.402344 61.132812 45.394531 61.121094 C 45.394531 61.117188 45.390625 61.113281 45.386719 61.109375 C 45.382812 61.105469 45.378906 61.101562 45.378906 61.101562 L 40.046875 54.980469 L 41.363281 53.820312 C 41.664062 53.554688 42.082031 53.46875 42.460938 53.589844 C 42.464844 53.59375 42.46875 53.59375 42.472656 53.59375 C 42.484375 53.597656 42.496094 53.601562 42.507812 53.605469 C 42.523438 53.613281 42.542969 53.617188 42.558594 53.621094 C 42.570312 53.625 42.582031 53.628906 42.59375 53.632812 C 42.609375 53.636719 42.625 53.640625 42.644531 53.648438 C 42.65625 53.648438 42.667969 53.652344 42.679688 53.65625 C 42.695312 53.660156 42.710938 53.664062 42.726562 53.671875 C 42.738281 53.671875 42.75 53.675781 42.761719 53.679688 C 42.78125 53.683594 42.796875 53.6875 42.8125 53.691406 C 42.824219 53.695312 42.835938 53.699219 42.847656 53.699219 C 42.867188 53.707031 42.886719 53.710938 42.90625 53.714844 C 42.914062 53.714844 42.921875 53.71875 42.933594 53.71875 C 42.960938 53.726562 42.988281 53.730469 43.011719 53.738281 C 43.015625 53.738281 43.015625 53.738281 43.019531 53.738281 C 43.046875 53.746094 43.074219 53.75 43.105469 53.753906 C 43.113281 53.757812 43.121094 53.757812 43.132812 53.761719 C 43.152344 53.765625 43.171875 53.765625 43.1875 53.769531 C 43.199219 53.773438 43.210938 53.773438 43.222656 53.777344 C 43.242188 53.777344 43.257812 53.78125 43.277344 53.785156 C 43.289062 53.785156 43.300781 53.789062 43.3125 53.789062 C 43.328125 53.792969 43.34375 53.796875 43.363281 53.796875 C 43.375 53.800781 43.386719 53.800781 43.398438 53.800781 C 43.414062 53.804688 43.433594 53.804688 43.449219 53.808594 C 43.460938 53.808594 43.472656 53.8125 43.484375 53.8125 C 43.503906 53.816406 43.519531 53.816406 43.539062 53.816406 C 43.550781 53.820312 43.5625 53.820312 43.570312 53.820312 C 43.589844 53.824219 43.609375 53.824219 43.625 53.828125 C 43.636719 53.828125 43.648438 53.828125 43.660156 53.828125 C 43.679688 53.832031 43.703125 53.832031 43.722656 53.832031 C 43.730469 53.835938 43.738281 53.835938 43.746094 53.835938 C 43.773438 53.835938 43.804688 53.839844 43.832031 53.839844 C 43.839844 53.839844 43.847656 53.839844 43.851562 53.839844 C 43.875 53.839844 43.898438 53.84375 43.917969 53.84375 C 43.929688 53.84375 43.941406 53.84375 43.953125 53.84375 C 43.96875 53.84375 43.988281 53.84375 44.007812 53.84375 C 44.019531 53.84375 44.03125 53.84375 44.042969 53.84375 C 44.058594 53.84375 44.078125 53.84375 44.09375 53.84375 C 44.105469 53.84375 44.117188 53.84375 44.128906 53.84375 C 44.148438 53.84375 44.164062 53.84375 44.183594 53.84375 C 44.195312 53.84375 44.207031 53.84375 44.21875 53.84375 C 44.234375 53.84375 44.253906 53.839844 44.269531 53.839844 C 44.28125 53.839844 44.292969 53.839844 44.304688 53.839844 C 44.324219 53.839844 44.339844 53.835938 44.359375 53.835938 C 44.371094 53.835938 44.382812 53.835938 44.394531 53.835938 C 44.414062 53.832031 44.433594 53.832031 44.453125 53.828125 C 44.460938 53.828125 44.46875 53.828125 44.480469 53.828125 C 44.507812 53.824219 44.535156 53.824219 44.5625 53.820312 C 44.566406 53.820312 44.566406 53.820312 44.566406 53.820312 C 44.597656 53.816406 44.625 53.8125 44.652344 53.808594 C 44.664062 53.808594 44.671875 53.808594 44.683594 53.808594 C 44.703125 53.804688 44.722656 53.800781 44.742188 53.800781 C 44.753906 53.796875 44.761719 53.796875 44.773438 53.796875 C 44.792969 53.792969 44.808594 53.789062 44.828125 53.789062 C 44.839844 53.785156 44.851562 53.785156 44.863281 53.78125 C 44.878906 53.777344 44.898438 53.777344 44.914062 53.773438 C 44.925781 53.769531 44.9375 53.769531 44.949219 53.765625 C 44.96875 53.765625 44.984375 53.761719 45 53.757812 C 45.011719 53.753906 45.023438 53.753906 45.035156 53.75 C 45.054688 53.746094 45.070312 53.746094 45.089844 53.742188 C 45.101562 53.738281 45.113281 53.734375 45.125 53.734375 C 45.140625 53.730469 45.160156 53.726562 45.175781 53.722656 C 45.1875 53.71875 45.199219 53.71875 45.210938 53.714844 C 45.230469 53.710938 45.25 53.703125 45.273438 53.699219 C 45.28125 53.699219 45.289062 53.695312 45.292969 53.695312 C 45.324219 53.6875 45.351562 53.679688 45.378906 53.671875 C 45.386719 53.671875 45.394531 53.667969 45.398438 53.667969 C 45.421875 53.660156 45.441406 53.65625 45.464844 53.648438 C 45.476562 53.648438 45.484375 53.644531 45.496094 53.640625 C 45.511719 53.636719 45.53125 53.628906 45.550781 53.625 C 45.5625 53.621094 45.570312 53.617188 45.582031 53.613281 C 45.601562 53.609375 45.617188 53.601562 45.632812 53.597656 C 45.644531 53.59375 45.65625 53.589844 45.667969 53.585938 C 45.683594 53.582031 45.703125 53.574219 45.71875 53.570312 C 45.730469 53.566406 45.742188 53.5625 45.753906 53.558594 C 45.769531 53.550781 45.785156 53.546875 45.804688 53.539062 C 45.8125 53.535156 45.824219 53.53125 45.835938 53.527344 C 45.855469 53.523438 45.871094 53.515625 45.886719 53.507812 C 45.898438 53.503906 45.910156 53.5 45.921875 53.496094 C 45.9375 53.488281 45.957031 53.480469 45.976562 53.472656 C 45.984375 53.46875 45.996094 53.46875 46.003906 53.464844 C 46.03125 53.453125 46.058594 53.441406 46.085938 53.429688 C 46.113281 53.417969 46.140625 53.40625 46.167969 53.394531 C 46.175781 53.390625 46.183594 53.382812 46.195312 53.378906 C 46.210938 53.371094 46.230469 53.363281 46.25 53.355469 C 46.257812 53.351562 46.269531 53.34375 46.28125 53.339844 C 46.296875 53.332031 46.3125 53.324219 46.328125 53.316406 C 46.339844 53.3125 46.351562 53.304688 46.363281 53.300781 C 46.378906 53.292969 46.394531 53.285156 46.410156 53.277344 C 46.421875 53.269531 46.433594 53.265625 46.441406 53.257812 C 46.457031 53.25 46.476562 53.242188 46.488281 53.234375 C 46.5 53.226562 46.511719 53.222656 46.523438 53.214844 C 46.539062 53.207031 46.554688 53.199219 46.570312 53.1875 C 46.582031 53.183594 46.59375 53.175781 46.601562 53.171875 C 46.617188 53.160156 46.636719 53.152344 46.652344 53.140625 C 46.660156 53.136719 46.671875 53.132812 46.679688 53.125 C 46.699219 53.113281 46.71875 53.101562 46.738281 53.089844 C 46.746094 53.085938 46.753906 53.082031 46.757812 53.078125 C 46.785156 53.0625 46.808594 53.046875 46.835938 53.03125 C 46.84375 53.023438 46.847656 53.019531 46.855469 53.015625 C 46.875 53.003906 46.894531 52.992188 46.914062 52.980469 C 46.921875 52.972656 46.929688 52.964844 46.941406 52.960938 C 46.957031 52.949219 46.972656 52.9375 46.988281 52.925781 C 47 52.921875 47.007812 52.914062 47.019531 52.90625 C 47.035156 52.894531 47.046875 52.886719 47.0625 52.875 C 47.074219 52.867188 47.085938 52.859375 47.09375 52.851562 C 47.109375 52.839844 47.125 52.828125 47.136719 52.820312 C 47.148438 52.8125 47.160156 52.804688 47.167969 52.796875 C 47.183594 52.785156 47.199219 52.773438 47.214844 52.761719 C 47.222656 52.753906 47.234375 52.746094 47.242188 52.738281 C 47.257812 52.726562 47.273438 52.714844 47.289062 52.703125 C 47.296875 52.695312 47.304688 52.6875 47.316406 52.679688 C 47.332031 52.667969 47.347656 52.652344 47.363281 52.640625 C 47.371094 52.632812 47.378906 52.625 47.386719 52.621094 C 47.410156 52.597656 47.433594 52.578125 47.460938 52.558594 C 47.613281 52.421875 47.761719 52.277344 47.894531 52.125 C 47.933594 52.082031 47.972656 52.039062 48.007812 51.996094 C 48.046875 51.953125 48.082031 51.90625 48.117188 51.863281 C 48.140625 51.832031 48.164062 51.796875 48.191406 51.765625 C 48.300781 51.617188 48.40625 51.460938 48.5 51.300781 C 48.527344 51.25 48.554688 51.203125 48.582031 51.152344 C 48.609375 51.101562 48.636719 51.054688 48.660156 51.003906 C 48.6875 50.953125 48.710938 50.902344 48.734375 50.851562 C 48.757812 50.800781 48.78125 50.75 48.800781 50.699219 C 48.855469 50.574219 48.90625 50.441406 48.949219 50.3125 C 48.96875 50.257812 48.984375 50.207031 49 50.152344 C 49.015625 50.105469 49.027344 50.058594 49.042969 50.007812 C 49.128906 49.683594 49.183594 49.351562 49.207031 49.015625 C 49.210938 48.988281 49.210938 48.960938 49.210938 48.929688 C 49.214844 48.878906 49.21875 48.824219 49.21875 48.769531 C 49.21875 48.769531 49.21875 48.765625 49.21875 48.761719 C 49.222656 48.628906 49.21875 48.496094 49.210938 48.363281 C 49.214844 48.359375 49.210938 48.351562 49.210938 48.34375 Z M 27.113281 45.5625 L 27.226562 45.464844 C 27.582031 45.148438 28.027344 44.996094 28.464844 44.996094 C 28.992188 44.996094 29.511719 45.214844 29.882812 45.640625 L 30.828125 46.726562 L 27.882812 49.320312 L 26.9375 48.234375 C 26.253906 47.449219 26.332031 46.25 27.113281 45.5625 Z M 29.714844 49.75 L 41.707031 63.316406 L 40.78125 64.128906 L 28.890625 50.476562 Z M 42.160156 64.957031 L 44.359375 63.019531 L 45.109375 66.117188 Z M 42.855469 62.304688 L 30.863281 48.738281 L 31.835938 47.878906 L 43.726562 61.535156 Z M 42.855469 62.304688 " fill-opacity="1" fill-rule="nonzero"/></g><g clip-path="url(#e8e14d43bd)"><path fill="#000000" d="M 61.390625 28.363281 L 55.582031 27.042969 L 54.019531 23.246094 L 57.199219 18.179688 C 57.441406 17.789062 57.386719 17.28125 57.0625 16.957031 L 52.753906 12.621094 C 52.429688 12.296875 51.925781 12.242188 51.539062 12.488281 L 46.503906 15.683594 L 42.726562 14.113281 L 41.414062 8.269531 C 41.3125 7.820312 40.917969 7.5 40.457031 7.5 L 34.367188 7.5 C 33.90625 7.5 33.511719 7.820312 33.410156 8.269531 L 32.097656 14.113281 L 28.320312 15.683594 L 23.285156 12.484375 C 22.898438 12.242188 22.394531 12.296875 22.070312 12.621094 L 17.761719 16.957031 C 17.4375 17.28125 17.378906 17.789062 17.625 18.179688 L 20.804688 23.246094 L 19.242188 27.042969 L 13.429688 28.363281 C 12.984375 28.464844 12.667969 28.863281 12.667969 29.324219 L 12.667969 35.453125 C 12.667969 35.914062 12.984375 36.3125 13.429688 36.414062 L 19.242188 37.734375 L 20.804688 41.535156 L 17.625 46.597656 C 17.378906 46.988281 17.4375 47.496094 17.761719 47.824219 L 22.070312 52.15625 C 22.394531 52.480469 22.898438 52.539062 23.285156 52.292969 L 25.101562 51.140625 C 25.558594 50.847656 25.695312 50.238281 25.40625 49.78125 C 25.117188 49.320312 24.511719 49.183594 24.054688 49.472656 L 22.902344 50.207031 L 19.699219 46.984375 L 22.734375 42.15625 C 22.902344 41.882812 22.933594 41.546875 22.808594 41.25 L 20.855469 36.507812 C 20.734375 36.214844 20.476562 35.996094 20.167969 35.925781 L 14.628906 34.667969 L 14.628906 30.113281 L 20.167969 28.855469 C 20.476562 28.785156 20.734375 28.566406 20.855469 28.269531 L 22.808594 23.527344 C 22.933594 23.230469 22.902344 22.894531 22.734375 22.625 L 19.699219 17.792969 L 22.902344 14.574219 L 27.703125 17.625 C 27.972656 17.796875 28.308594 17.824219 28.601562 17.703125 L 33.316406 15.738281 C 33.609375 15.617188 33.828125 15.355469 33.898438 15.042969 L 35.148438 9.472656 L 39.675781 9.472656 L 40.925781 15.042969 C 40.996094 15.355469 41.214844 15.617188 41.507812 15.738281 L 46.222656 17.703125 C 46.515625 17.824219 46.851562 17.796875 47.121094 17.625 L 51.921875 14.574219 L 55.125 17.792969 L 52.089844 22.625 C 51.921875 22.894531 51.890625 23.230469 52.011719 23.527344 L 53.964844 28.269531 C 54.089844 28.566406 54.34375 28.785156 54.65625 28.855469 L 60.195312 30.113281 L 60.195312 34.667969 L 54.65625 35.925781 C 54.34375 35.996094 54.089844 36.214844 53.964844 36.507812 L 52.011719 41.25 C 51.890625 41.546875 51.921875 41.882812 52.089844 42.15625 L 55.125 46.984375 L 51.921875 50.207031 L 51.269531 49.789062 C 50.8125 49.5 50.207031 49.636719 49.917969 50.097656 C 49.628906 50.558594 49.765625 51.164062 50.222656 51.457031 L 51.539062 52.292969 C 51.699219 52.394531 51.878906 52.445312 52.0625 52.445312 C 52.3125 52.445312 52.566406 52.347656 52.753906 52.15625 L 57.0625 47.824219 C 57.386719 47.496094 57.441406 46.988281 57.199219 46.597656 L 54.019531 41.535156 L 55.582031 37.734375 L 61.390625 36.414062 C 61.839844 36.3125 62.15625 35.914062 62.15625 35.453125 L 62.15625 29.324219 C 62.15625 28.863281 61.839844 28.464844 61.390625 28.363281 Z M 61.390625 28.363281 " fill-opacity="1" fill-rule="nonzero"/></g><path fill="#000000" d="M 33.085938 42.6875 C 34.457031 43.269531 35.914062 43.566406 37.410156 43.566406 C 38.910156 43.566406 40.367188 43.269531 41.738281 42.6875 C 43.058594 42.125 44.246094 41.316406 45.269531 40.292969 C 46.289062 39.265625 47.089844 38.070312 47.648438 36.738281 C 48.226562 35.363281 48.523438 33.898438 48.523438 32.390625 C 48.523438 30.882812 48.226562 29.417969 47.648438 28.039062 C 47.089844 26.707031 46.289062 25.511719 45.269531 24.488281 C 44.246094 23.460938 43.058594 22.65625 41.738281 22.09375 C 40.367188 21.507812 38.910156 21.214844 37.410156 21.214844 C 35.914062 21.214844 34.457031 21.507812 33.085938 22.09375 C 31.761719 22.65625 30.574219 23.460938 29.554688 24.488281 C 28.535156 25.511719 27.734375 26.707031 27.175781 28.039062 C 26.59375 29.417969 26.300781 30.882812 26.300781 32.390625 C 26.300781 33.898438 26.59375 35.363281 27.175781 36.738281 C 27.734375 38.070312 28.535156 39.265625 29.554688 40.292969 C 30.574219 41.316406 31.761719 42.125 33.085938 42.6875 Z M 30.941406 25.882812 C 32.667969 24.140625 34.96875 23.183594 37.410156 23.183594 C 39.855469 23.183594 42.152344 24.140625 43.882812 25.882812 C 45.609375 27.621094 46.5625 29.929688 46.5625 32.390625 C 46.5625 34.847656 45.609375 37.160156 43.882812 38.898438 C 42.152344 40.636719 39.855469 41.59375 37.410156 41.59375 C 34.96875 41.59375 32.667969 40.636719 30.941406 38.898438 C 29.214844 37.160156 28.261719 34.847656 28.261719 32.390625 C 28.261719 29.929688 29.214844 27.621094 30.941406 25.882812 Z M 30.941406 25.882812 " fill-opacity="1" fill-rule="nonzero"/></svg>