<svg xmlns="http://www.w3.org/2000/svg" xmlns:xlink="http://www.w3.org/1999/xlink" width="100" zoomAndPan="magnify" viewBox="0 0 75 74.999997" height="100" preserveAspectRatio="xMidYMid meet" version="1.0"><defs><clipPath id="228db18e16"><path d="M 7.5 11.101562 L 67.5 11.101562 L 67.5 67.351562 L 7.5 67.351562 Z M 7.5 11.101562 " clip-rule="nonzero"/></clipPath></defs><path fill="#231f20" d="M 39.304688 21.785156 C 40.03125 21.785156 40.625 21.195312 40.625 20.46875 L 40.625 17.371094 C 40.625 16.648438 40.03125 16.054688 39.304688 16.054688 C 38.574219 16.054688 37.984375 16.644531 37.984375 17.371094 L 37.984375 20.46875 C 37.984375 21.195312 38.574219 21.785156 39.304688 21.785156 Z M 39.304688 21.785156 " fill-opacity="1" fill-rule="nonzero"/><path fill="#231f20" d="M 37.984375 58.140625 L 37.984375 61.238281 C 37.984375 61.964844 38.574219 62.554688 39.304688 62.554688 C 40.03125 62.554688 40.625 61.964844 40.625 61.238281 L 40.625 58.140625 C 40.625 57.414062 40.03125 56.824219 39.304688 56.824219 C 38.574219 56.824219 37.984375 57.414062 37.984375 58.140625 Z M 37.984375 58.140625 " fill-opacity="1" fill-rule="nonzero"/><path fill="#231f20" d="M 46.84375 23.351562 C 47.351562 23.351562 47.839844 23.058594 48.054688 22.5625 L 49.296875 19.726562 C 49.585938 19.058594 49.28125 18.28125 48.613281 17.992188 C 47.945312 17.703125 47.167969 18.007812 46.875 18.675781 L 45.636719 21.511719 C 45.34375 22.179688 45.648438 22.953125 46.320312 23.242188 C 46.492188 23.316406 46.667969 23.351562 46.84375 23.351562 Z M 46.84375 23.351562 " fill-opacity="1" fill-rule="nonzero"/><path fill="#231f20" d="M 29.996094 60.617188 C 30.167969 60.691406 30.34375 60.726562 30.519531 60.726562 C 31.027344 60.726562 31.515625 60.433594 31.730469 59.9375 L 32.972656 57.101562 C 33.261719 56.433594 32.957031 55.660156 32.289062 55.367188 C 31.621094 55.078125 30.84375 55.382812 30.550781 56.050781 L 29.3125 58.886719 C 29.019531 59.550781 29.324219 60.328125 29.996094 60.617188 Z M 29.996094 60.617188 " fill-opacity="1" fill-rule="nonzero"/><path fill="#231f20" d="M 62.609375 39.304688 C 62.609375 38.578125 62.019531 37.988281 61.289062 37.988281 L 58.1875 37.988281 C 57.457031 37.988281 56.867188 38.574219 56.867188 39.304688 C 56.867188 40.03125 57.457031 40.621094 58.1875 40.621094 L 61.289062 40.621094 C 62.019531 40.621094 62.609375 40.03125 62.609375 39.304688 Z M 62.609375 39.304688 " fill-opacity="1" fill-rule="nonzero"/><path fill="#231f20" d="M 53.589844 51.695312 C 53.074219 51.179688 52.238281 51.179688 51.722656 51.695312 C 51.210938 52.207031 51.210938 53.042969 51.722656 53.554688 L 53.917969 55.742188 C 54.175781 56 54.515625 56.128906 54.851562 56.128906 C 55.191406 56.128906 55.527344 56 55.785156 55.742188 C 56.300781 55.230469 56.300781 54.394531 55.785156 53.882812 Z M 53.589844 51.695312 " fill-opacity="1" fill-rule="nonzero"/><path fill="#231f20" d="M 46.183594 55.425781 C 45.511719 55.710938 45.199219 56.484375 45.484375 57.152344 L 46.703125 60 C 46.914062 60.5 47.402344 60.800781 47.914062 60.800781 C 48.089844 60.800781 48.265625 60.765625 48.429688 60.695312 C 49.101562 60.410156 49.414062 59.636719 49.128906 58.96875 L 47.914062 56.121094 C 47.628906 55.453125 46.851562 55.140625 46.183594 55.425781 Z M 46.183594 55.425781 " fill-opacity="1" fill-rule="nonzero"/><path fill="#231f20" d="M 59.519531 49.238281 C 60.03125 49.238281 60.519531 48.941406 60.734375 48.441406 C 61.019531 47.769531 60.710938 47 60.039062 46.714844 L 57.1875 45.496094 C 56.515625 45.210938 55.742188 45.523438 55.453125 46.191406 C 55.167969 46.859375 55.480469 47.632812 56.148438 47.917969 L 59.003906 49.132812 C 59.171875 49.207031 59.347656 49.238281 59.519531 49.238281 Z M 59.519531 49.238281 " fill-opacity="1" fill-rule="nonzero"/><path fill="#231f20" d="M 22.824219 55.742188 C 23.082031 56 23.417969 56.128906 23.757812 56.128906 C 24.09375 56.128906 24.433594 56 24.691406 55.742188 L 26.882812 53.554688 C 27.398438 53.039062 27.398438 52.207031 26.882812 51.695312 C 26.367188 51.183594 25.53125 51.179688 25.019531 51.695312 L 22.824219 53.882812 C 22.308594 54.394531 22.308594 55.230469 22.824219 55.742188 Z M 22.824219 55.742188 " fill-opacity="1" fill-rule="nonzero"/><path fill="#231f20" d="M 59.042969 29.558594 L 56.183594 30.761719 C 55.515625 31.046875 55.199219 31.816406 55.484375 32.488281 C 55.695312 32.988281 56.183594 33.292969 56.699219 33.292969 C 56.871094 33.292969 57.042969 33.257812 57.210938 33.1875 L 60.070312 31.984375 C 60.738281 31.699219 61.054688 30.929688 60.769531 30.257812 C 60.488281 29.585938 59.714844 29.273438 59.042969 29.558594 Z M 59.042969 29.558594 " fill-opacity="1" fill-rule="nonzero"/><path fill="#231f20" d="M 19.050781 49.15625 C 19.222656 49.15625 19.394531 49.121094 19.5625 49.050781 L 22.421875 47.847656 C 23.089844 47.566406 23.40625 46.792969 23.121094 46.121094 C 22.839844 45.453125 22.066406 45.140625 21.394531 45.421875 L 18.535156 46.625 C 17.863281 46.910156 17.550781 47.679688 17.832031 48.351562 C 18.046875 48.855469 18.535156 49.15625 19.050781 49.15625 Z M 19.050781 49.15625 " fill-opacity="1" fill-rule="nonzero"/><g clip-path="url(#228db18e16)"><path fill="#231f20" d="M 67.488281 38.878906 C 67.488281 38.832031 67.484375 38.789062 67.484375 38.742188 C 67.484375 38.671875 67.484375 38.59375 67.484375 38.523438 C 67.480469 38.464844 67.480469 38.40625 67.476562 38.347656 C 67.476562 38.289062 67.472656 38.226562 67.472656 38.167969 C 67.46875 38.101562 67.46875 38.039062 67.464844 37.976562 C 67.460938 37.921875 67.457031 37.867188 67.457031 37.8125 C 67.453125 37.742188 67.449219 37.679688 67.445312 37.609375 C 67.441406 37.558594 67.441406 37.507812 67.4375 37.460938 C 67.433594 37.386719 67.425781 37.316406 67.421875 37.246094 C 67.417969 37.199219 67.417969 37.152344 67.414062 37.105469 C 67.410156 37.03125 67.402344 36.957031 67.398438 36.882812 C 67.394531 36.839844 67.390625 36.796875 67.386719 36.753906 C 67.378906 36.675781 67.371094 36.601562 67.367188 36.527344 C 67.363281 36.484375 67.359375 36.445312 67.355469 36.402344 C 67.347656 36.324219 67.339844 36.246094 67.328125 36.167969 C 67.324219 36.128906 67.320312 36.089844 67.316406 36.050781 C 67.308594 35.972656 67.296875 35.894531 67.289062 35.8125 C 67.285156 35.777344 67.28125 35.738281 67.273438 35.703125 C 67.265625 35.621094 67.253906 35.542969 67.242188 35.460938 C 67.238281 35.425781 67.234375 35.390625 67.230469 35.355469 C 67.21875 35.273438 67.207031 35.191406 67.195312 35.113281 C 67.191406 35.078125 67.183594 35.042969 67.179688 35.007812 C 67.167969 34.925781 67.152344 34.84375 67.140625 34.761719 C 67.136719 34.726562 67.128906 34.695312 67.125 34.660156 C 67.113281 34.578125 67.097656 34.496094 67.082031 34.414062 C 67.078125 34.378906 67.074219 34.347656 67.066406 34.316406 C 67.050781 34.234375 67.035156 34.152344 67.019531 34.066406 C 67.015625 34.035156 67.007812 34 67.003906 33.96875 C 66.988281 33.886719 66.972656 33.804688 66.953125 33.722656 C 66.949219 33.691406 66.941406 33.65625 66.9375 33.625 C 66.921875 33.542969 66.902344 33.464844 66.886719 33.382812 C 66.878906 33.347656 66.871094 33.316406 66.863281 33.28125 C 66.847656 33.199219 66.828125 33.121094 66.808594 33.042969 C 66.804688 33.007812 66.792969 32.972656 66.789062 32.9375 C 66.769531 32.859375 66.75 32.78125 66.730469 32.699219 C 66.722656 32.664062 66.714844 32.632812 66.707031 32.597656 C 66.6875 32.519531 66.667969 32.441406 66.648438 32.363281 C 66.640625 32.328125 66.632812 32.292969 66.621094 32.257812 C 66.601562 32.179688 66.582031 32.101562 66.5625 32.027344 C 66.550781 31.988281 66.542969 31.953125 66.53125 31.917969 C 66.511719 31.84375 66.488281 31.765625 66.46875 31.691406 C 66.457031 31.652344 66.449219 31.617188 66.4375 31.578125 C 66.417969 31.503906 66.394531 31.429688 66.375 31.359375 C 66.359375 31.320312 66.351562 31.28125 66.339844 31.242188 C 66.320312 31.171875 66.296875 31.097656 66.273438 31.027344 C 66.261719 30.984375 66.25 30.945312 66.238281 30.90625 C 66.214844 30.835938 66.195312 30.765625 66.171875 30.695312 C 66.15625 30.652344 66.144531 30.609375 66.132812 30.566406 C 66.109375 30.5 66.085938 30.433594 66.0625 30.363281 C 66.050781 30.320312 66.035156 30.277344 66.019531 30.230469 C 65.996094 30.167969 65.972656 30.101562 65.953125 30.035156 C 65.9375 29.988281 65.921875 29.945312 65.90625 29.898438 C 65.882812 29.835938 65.859375 29.773438 65.835938 29.707031 C 65.820312 29.660156 65.800781 29.613281 65.785156 29.566406 C 65.761719 29.503906 65.742188 29.441406 65.71875 29.378906 C 65.699219 29.332031 65.683594 29.28125 65.664062 29.234375 C 65.640625 29.175781 65.617188 29.113281 65.59375 29.054688 C 65.574219 29.003906 65.554688 28.953125 65.535156 28.902344 C 65.511719 28.84375 65.488281 28.789062 65.464844 28.730469 C 65.445312 28.675781 65.421875 28.625 65.402344 28.570312 C 65.378906 28.515625 65.355469 28.464844 65.332031 28.410156 C 65.316406 28.367188 65.296875 28.328125 65.28125 28.285156 C 65.277344 28.269531 65.269531 28.257812 65.265625 28.242188 C 65.257812 28.230469 65.253906 28.21875 65.25 28.203125 C 65.234375 28.167969 65.214844 28.132812 65.199219 28.09375 C 65.175781 28.039062 65.152344 27.980469 65.128906 27.925781 C 65.105469 27.878906 65.085938 27.832031 65.0625 27.785156 C 65.039062 27.726562 65.011719 27.671875 64.988281 27.613281 C 64.964844 27.566406 64.945312 27.523438 64.921875 27.476562 C 64.894531 27.417969 64.871094 27.359375 64.84375 27.304688 C 64.820312 27.257812 64.796875 27.210938 64.777344 27.164062 C 64.75 27.109375 64.722656 27.050781 64.695312 26.996094 C 64.671875 26.949219 64.652344 26.902344 64.628906 26.859375 C 64.601562 26.800781 64.574219 26.746094 64.546875 26.691406 C 64.523438 26.644531 64.5 26.597656 64.476562 26.550781 C 64.449219 26.496094 64.421875 26.441406 64.394531 26.386719 C 64.367188 26.339844 64.34375 26.292969 64.320312 26.246094 C 64.292969 26.191406 64.265625 26.136719 64.234375 26.085938 C 64.210938 26.035156 64.1875 25.988281 64.160156 25.941406 C 64.132812 25.890625 64.105469 25.839844 64.074219 25.785156 C 64.050781 25.738281 64.023438 25.6875 63.996094 25.640625 C 63.964844 25.589844 63.941406 25.539062 63.914062 25.492188 C 63.882812 25.441406 63.855469 25.390625 63.828125 25.339844 C 63.800781 25.292969 63.773438 25.246094 63.746094 25.199219 C 63.714844 25.144531 63.683594 25.09375 63.65625 25.042969 C 63.628906 24.996094 63.601562 24.949219 63.574219 24.90625 C 63.542969 24.851562 63.511719 24.800781 63.480469 24.746094 C 63.453125 24.703125 63.425781 24.660156 63.398438 24.617188 C 63.367188 24.5625 63.332031 24.507812 63.300781 24.453125 C 63.273438 24.414062 63.25 24.371094 63.222656 24.332031 C 63.1875 24.273438 63.152344 24.21875 63.117188 24.160156 C 63.09375 24.125 63.066406 24.085938 63.042969 24.046875 C 63.007812 23.988281 62.96875 23.929688 62.933594 23.875 C 62.90625 23.835938 62.882812 23.800781 62.859375 23.765625 C 62.820312 23.707031 62.78125 23.644531 62.742188 23.589844 C 62.722656 23.554688 62.695312 23.519531 62.675781 23.484375 C 62.632812 23.425781 62.59375 23.363281 62.550781 23.304688 C 62.53125 23.273438 62.507812 23.238281 62.484375 23.207031 C 62.441406 23.144531 62.398438 23.085938 62.355469 23.027344 C 62.335938 22.996094 62.3125 22.964844 62.289062 22.933594 C 62.246094 22.871094 62.203125 22.808594 62.160156 22.746094 C 62.136719 22.71875 62.113281 22.6875 62.09375 22.65625 C 62.046875 22.59375 62 22.535156 61.957031 22.472656 C 61.9375 22.445312 61.914062 22.417969 61.890625 22.386719 C 61.84375 22.324219 61.796875 22.261719 61.75 22.199219 C 61.730469 22.171875 61.707031 22.144531 61.6875 22.117188 C 61.640625 22.054688 61.589844 21.992188 61.542969 21.933594 C 61.523438 21.90625 61.5 21.878906 61.480469 21.851562 C 61.429688 21.789062 61.382812 21.726562 61.332031 21.667969 C 61.308594 21.640625 61.289062 21.613281 61.265625 21.585938 C 61.21875 21.523438 61.167969 21.464844 61.117188 21.40625 C 61.097656 21.378906 61.074219 21.347656 61.050781 21.324219 C 61.003906 21.265625 60.953125 21.207031 60.902344 21.144531 C 60.875 21.117188 60.855469 21.089844 60.828125 21.0625 C 60.78125 21.003906 60.730469 20.945312 60.679688 20.886719 C 60.65625 20.859375 60.632812 20.828125 60.605469 20.800781 C 60.554688 20.746094 60.503906 20.6875 60.457031 20.632812 C 60.429688 20.605469 60.40625 20.574219 60.378906 20.546875 C 60.328125 20.492188 60.28125 20.4375 60.230469 20.382812 C 60.203125 20.351562 60.175781 20.320312 60.148438 20.289062 C 60.101562 20.234375 60.050781 20.183594 60.003906 20.132812 C 59.972656 20.101562 59.941406 20.066406 59.910156 20.035156 C 59.863281 19.984375 59.820312 19.933594 59.773438 19.886719 C 59.738281 19.851562 59.707031 19.816406 59.671875 19.78125 C 59.628906 19.734375 59.582031 19.691406 59.539062 19.644531 C 59.5 19.605469 59.464844 19.570312 59.425781 19.53125 C 59.386719 19.488281 59.34375 19.445312 59.300781 19.40625 C 59.28125 19.382812 59.261719 19.367188 59.238281 19.34375 C 59.21875 19.324219 59.199219 19.304688 59.179688 19.285156 C 59.160156 19.265625 59.136719 19.242188 59.121094 19.226562 C 59.113281 19.21875 59.109375 19.214844 59.105469 19.210938 C 56.546875 16.691406 53.578125 14.710938 50.28125 13.316406 C 46.804688 11.851562 43.113281 11.109375 39.308594 11.109375 C 38.582031 11.109375 37.988281 11.695312 37.988281 12.425781 C 37.988281 13.152344 38.578125 13.742188 39.308594 13.742188 C 42.757812 13.742188 46.105469 14.417969 49.253906 15.742188 C 52.269531 17.015625 54.988281 18.835938 57.320312 21.152344 C 57.355469 21.1875 57.390625 21.222656 57.429688 21.257812 C 57.464844 21.300781 57.507812 21.335938 57.546875 21.378906 C 57.578125 21.410156 57.609375 21.441406 57.640625 21.476562 C 57.683594 21.519531 57.722656 21.5625 57.765625 21.601562 C 57.792969 21.632812 57.824219 21.664062 57.855469 21.695312 C 57.898438 21.742188 57.941406 21.785156 57.980469 21.832031 C 58.011719 21.859375 58.039062 21.890625 58.066406 21.917969 C 58.109375 21.964844 58.152344 22.011719 58.195312 22.058594 C 58.222656 22.085938 58.25 22.117188 58.273438 22.144531 C 58.316406 22.195312 58.363281 22.242188 58.40625 22.292969 C 58.429688 22.320312 58.453125 22.34375 58.476562 22.371094 C 58.523438 22.421875 58.566406 22.472656 58.609375 22.523438 C 58.632812 22.550781 58.65625 22.574219 58.679688 22.605469 C 58.726562 22.65625 58.769531 22.707031 58.816406 22.761719 C 58.835938 22.785156 58.859375 22.8125 58.878906 22.839844 C 58.925781 22.890625 58.96875 22.945312 59.015625 23 C 59.035156 23.023438 59.058594 23.050781 59.078125 23.074219 C 59.121094 23.128906 59.167969 23.183594 59.210938 23.234375 C 59.234375 23.261719 59.253906 23.289062 59.273438 23.3125 C 59.316406 23.367188 59.363281 23.421875 59.40625 23.476562 C 59.425781 23.503906 59.445312 23.53125 59.464844 23.554688 C 59.507812 23.609375 59.550781 23.664062 59.59375 23.71875 C 59.613281 23.746094 59.636719 23.773438 59.652344 23.800781 C 59.695312 23.851562 59.738281 23.910156 59.777344 23.960938 C 59.796875 23.988281 59.820312 24.019531 59.839844 24.046875 C 59.878906 24.097656 59.917969 24.15625 59.957031 24.210938 C 59.980469 24.238281 60 24.265625 60.023438 24.292969 C 60.058594 24.347656 60.101562 24.402344 60.136719 24.457031 C 60.160156 24.484375 60.179688 24.515625 60.199219 24.546875 C 60.238281 24.601562 60.277344 24.652344 60.3125 24.707031 C 60.335938 24.738281 60.359375 24.769531 60.378906 24.800781 C 60.414062 24.851562 60.453125 24.90625 60.488281 24.957031 C 60.507812 24.992188 60.53125 25.023438 60.554688 25.058594 C 60.585938 25.109375 60.621094 25.160156 60.65625 25.210938 C 60.679688 25.246094 60.699219 25.28125 60.722656 25.3125 C 60.757812 25.363281 60.789062 25.414062 60.824219 25.464844 C 60.84375 25.503906 60.871094 25.539062 60.890625 25.578125 C 60.921875 25.625 60.953125 25.675781 60.988281 25.726562 C 61.011719 25.765625 61.035156 25.800781 61.058594 25.839844 C 61.085938 25.890625 61.117188 25.9375 61.148438 25.984375 C 61.171875 26.023438 61.195312 26.0625 61.21875 26.105469 C 61.246094 26.152344 61.277344 26.199219 61.304688 26.246094 C 61.328125 26.285156 61.355469 26.328125 61.378906 26.371094 C 61.40625 26.417969 61.433594 26.464844 61.460938 26.507812 C 61.484375 26.550781 61.511719 26.597656 61.535156 26.640625 C 61.5625 26.6875 61.585938 26.730469 61.613281 26.773438 C 61.636719 26.820312 61.664062 26.867188 61.6875 26.914062 C 61.710938 26.957031 61.738281 27 61.761719 27.042969 C 61.789062 27.089844 61.8125 27.136719 61.839844 27.1875 C 61.859375 27.230469 61.882812 27.273438 61.90625 27.316406 C 61.933594 27.363281 61.957031 27.414062 61.984375 27.460938 C 62.003906 27.503906 62.027344 27.542969 62.046875 27.589844 C 62.074219 27.636719 62.097656 27.6875 62.125 27.738281 C 62.144531 27.777344 62.167969 27.820312 62.1875 27.863281 C 62.214844 27.914062 62.238281 27.964844 62.261719 28.015625 C 62.285156 28.058594 62.304688 28.097656 62.324219 28.140625 C 62.347656 28.191406 62.371094 28.242188 62.398438 28.292969 C 62.417969 28.335938 62.4375 28.375 62.457031 28.417969 C 62.480469 28.46875 62.503906 28.519531 62.527344 28.570312 C 62.546875 28.613281 62.566406 28.65625 62.585938 28.699219 C 62.609375 28.75 62.632812 28.800781 62.65625 28.847656 C 62.675781 28.894531 62.695312 28.9375 62.714844 28.984375 C 62.734375 29.03125 62.757812 29.082031 62.777344 29.128906 C 62.796875 29.175781 62.816406 29.222656 62.835938 29.269531 C 62.859375 29.316406 62.878906 29.363281 62.898438 29.414062 C 62.917969 29.464844 62.941406 29.515625 62.960938 29.566406 C 62.980469 29.613281 63 29.660156 63.019531 29.707031 C 63.039062 29.757812 63.0625 29.8125 63.082031 29.863281 C 63.097656 29.910156 63.117188 29.957031 63.136719 30 C 63.15625 30.054688 63.175781 30.109375 63.199219 30.164062 C 63.214844 30.207031 63.230469 30.25 63.25 30.296875 C 63.269531 30.351562 63.289062 30.40625 63.3125 30.464844 C 63.328125 30.507812 63.34375 30.550781 63.359375 30.589844 C 63.378906 30.648438 63.398438 30.707031 63.417969 30.765625 C 63.433594 30.804688 63.449219 30.847656 63.464844 30.890625 C 63.484375 30.949219 63.503906 31.007812 63.523438 31.066406 C 63.539062 31.105469 63.550781 31.144531 63.5625 31.1875 C 63.585938 31.25 63.605469 31.308594 63.625 31.371094 C 63.636719 31.410156 63.648438 31.449219 63.664062 31.488281 C 63.683594 31.550781 63.703125 31.613281 63.722656 31.675781 C 63.734375 31.710938 63.746094 31.75 63.757812 31.789062 C 63.777344 31.851562 63.796875 31.914062 63.816406 31.980469 C 63.824219 32.015625 63.835938 32.054688 63.847656 32.089844 C 63.867188 32.15625 63.886719 32.222656 63.902344 32.285156 C 63.914062 32.320312 63.921875 32.355469 63.933594 32.394531 C 63.953125 32.460938 63.96875 32.523438 63.988281 32.59375 C 63.996094 32.628906 64.007812 32.664062 64.015625 32.699219 C 64.035156 32.765625 64.054688 32.832031 64.070312 32.902344 C 64.078125 32.933594 64.085938 32.96875 64.09375 33.003906 C 64.113281 33.074219 64.128906 33.140625 64.144531 33.210938 C 64.15625 33.242188 64.160156 33.277344 64.171875 33.308594 C 64.1875 33.378906 64.203125 33.449219 64.21875 33.519531 C 64.226562 33.550781 64.234375 33.585938 64.242188 33.617188 C 64.257812 33.6875 64.273438 33.757812 64.289062 33.828125 C 64.296875 33.859375 64.300781 33.894531 64.308594 33.925781 C 64.324219 34 64.339844 34.070312 64.355469 34.140625 C 64.363281 34.175781 64.367188 34.207031 64.375 34.238281 C 64.386719 34.308594 64.402344 34.378906 64.414062 34.453125 C 64.421875 34.484375 64.429688 34.515625 64.433594 34.550781 C 64.445312 34.621094 64.460938 34.691406 64.472656 34.765625 C 64.476562 34.796875 64.484375 34.832031 64.492188 34.863281 C 64.503906 34.933594 64.515625 35.007812 64.527344 35.078125 C 64.53125 35.113281 64.539062 35.144531 64.542969 35.179688 C 64.554688 35.25 64.566406 35.320312 64.574219 35.394531 C 64.582031 35.429688 64.585938 35.460938 64.589844 35.496094 C 64.601562 35.566406 64.613281 35.636719 64.621094 35.707031 C 64.628906 35.742188 64.632812 35.777344 64.636719 35.8125 C 64.644531 35.882812 64.65625 35.953125 64.664062 36.023438 C 64.667969 36.0625 64.671875 36.09375 64.675781 36.132812 C 64.6875 36.203125 64.695312 36.269531 64.703125 36.339844 C 64.703125 36.375 64.707031 36.414062 64.714844 36.453125 C 64.71875 36.519531 64.730469 36.589844 64.734375 36.65625 C 64.738281 36.695312 64.742188 36.738281 64.746094 36.773438 C 64.753906 36.84375 64.757812 36.910156 64.765625 36.976562 C 64.769531 37.019531 64.773438 37.058594 64.777344 37.097656 C 64.78125 37.164062 64.785156 37.230469 64.792969 37.296875 C 64.796875 37.339844 64.796875 37.382812 64.800781 37.429688 C 64.804688 37.492188 64.808594 37.554688 64.8125 37.617188 C 64.816406 37.664062 64.816406 37.707031 64.820312 37.753906 C 64.824219 37.816406 64.828125 37.875 64.832031 37.9375 C 64.832031 37.988281 64.835938 38.039062 64.835938 38.089844 C 64.839844 38.144531 64.84375 38.203125 64.84375 38.257812 C 64.847656 38.316406 64.847656 38.371094 64.847656 38.429688 C 64.851562 38.480469 64.851562 38.53125 64.855469 38.582031 C 64.855469 38.648438 64.859375 38.71875 64.859375 38.785156 C 64.859375 38.828125 64.859375 38.863281 64.859375 38.902344 C 64.863281 39.011719 64.863281 39.117188 64.863281 39.226562 C 64.863281 42.667969 64.1875 46.003906 62.855469 49.144531 C 61.566406 52.179688 59.726562 54.90625 57.378906 57.246094 C 55.035156 59.585938 52.300781 61.425781 49.257812 62.707031 C 46.109375 64.039062 42.765625 64.710938 39.3125 64.710938 C 35.863281 64.710938 32.519531 64.035156 29.371094 62.707031 C 26.328125 61.425781 23.59375 59.585938 21.25 57.246094 C 18.902344 54.90625 17.058594 52.179688 15.773438 49.144531 C 14.535156 46.230469 13.867188 43.140625 13.777344 39.960938 L 15.011719 41.195312 C 15.269531 41.453125 15.609375 41.578125 15.945312 41.578125 C 16.285156 41.578125 16.621094 41.453125 16.878906 41.195312 C 17.394531 40.679688 17.394531 39.847656 16.878906 39.332031 L 13.382812 35.84375 C 13.132812 35.597656 12.796875 35.457031 12.449219 35.457031 C 12.097656 35.457031 11.761719 35.597656 11.515625 35.84375 L 8.015625 39.332031 C 7.5 39.847656 7.5 40.683594 8.015625 41.195312 C 8.53125 41.707031 9.367188 41.707031 9.878906 41.195312 L 11.136719 39.941406 C 11.222656 43.484375 11.964844 46.921875 13.34375 50.171875 C 14.761719 53.519531 16.796875 56.527344 19.382812 59.105469 C 21.972656 61.6875 24.984375 63.714844 28.339844 65.132812 C 31.816406 66.597656 35.507812 67.339844 39.3125 67.339844 C 43.121094 67.339844 46.808594 66.597656 50.285156 65.132812 C 53.640625 63.714844 56.65625 61.6875 59.246094 59.105469 C 61.832031 56.527344 63.867188 53.519531 65.285156 50.171875 C 66.753906 46.703125 67.5 43.023438 67.5 39.226562 C 67.488281 39.113281 67.488281 38.996094 67.488281 38.878906 Z M 67.488281 38.878906 " fill-opacity="1" fill-rule="nonzero"/></g><path fill="#231f20" d="M 39.304688 41.988281 C 40.828125 41.988281 42.066406 40.753906 42.066406 39.234375 C 42.066406 39.007812 42.039062 38.777344 41.980469 38.554688 L 55.839844 24.789062 C 56.109375 24.527344 56.253906 24.175781 56.257812 23.800781 C 56.257812 23.421875 56.113281 23.070312 55.847656 22.804688 C 55.582031 22.539062 55.226562 22.390625 54.851562 22.390625 C 54.476562 22.390625 54.125 22.539062 53.859375 22.800781 L 39.996094 36.5625 C 39.769531 36.503906 39.535156 36.476562 39.304688 36.476562 C 37.78125 36.476562 36.542969 37.710938 36.542969 39.230469 C 36.542969 40.75 37.78125 41.988281 39.304688 41.988281 Z M 39.304688 41.988281 " fill-opacity="1" fill-rule="nonzero"/></svg>