<svg xmlns="http://www.w3.org/2000/svg" xmlns:xlink="http://www.w3.org/1999/xlink" width="100" viewBox="0 0 75 74.999997" height="100" preserveAspectRatio="xMidYMid meet"><defs><clipPath id="8a2146c380"><path d="M 27 4.109375 L 63 4.109375 L 63 21 L 27 21 Z M 27 4.109375 " clip-rule="nonzero"></path></clipPath><clipPath id="d9f2b780dc"><path d="M 54 27 L 70.859375 27 L 70.859375 63 L 54 63 Z M 54 27 " clip-rule="nonzero"></path></clipPath><clipPath id="8d1402730e"><path d="M 12 54 L 48 54 L 48 70.859375 L 12 70.859375 Z M 12 54 " clip-rule="nonzero"></path></clipPath><clipPath id="8221b74562"><path d="M 4.109375 12 L 21 12 L 21 48 L 4.109375 48 Z M 4.109375 12 " clip-rule="nonzero"></path></clipPath></defs><g clip-path="url(#8a2146c380)"><path fill="#000000" d="M 27.230469 6.21875 C 32.933594 4.34375 38.921875 4.113281 44.578125 5.363281 C 50.15625 6.597656 55.40625 9.277344 59.722656 13.238281 L 61.984375 11.609375 L 62.40625 15.824219 L 62.828125 20.035156 L 58.972656 18.292969 L 55.113281 16.554688 L 57.398438 14.910156 C 53.535156 11.503906 48.894531 9.1875 43.972656 8.101562 C 38.808594 6.957031 33.332031 7.167969 28.109375 8.886719 Z M 27.230469 6.21875 " fill-opacity="1" fill-rule="nonzero"></path></g><path fill="#000000" d="M 41.648438 19.230469 C 43.730469 19.707031 45.679688 20.535156 47.429688 21.644531 L 50.652344 18.425781 L 56.542969 24.316406 L 53.285156 27.574219 C 54.363281 29.316406 55.164062 31.253906 55.617188 33.316406 L 60.273438 33.316406 L 60.273438 41.652344 L 55.546875 41.652344 C 55.0625 43.671875 54.25 45.566406 53.164062 47.273438 L 56.542969 50.652344 L 50.652344 56.542969 L 47.238281 53.128906 C 45.539062 54.179688 43.65625 54.96875 41.648438 55.425781 L 41.648438 60.273438 L 33.316406 60.273438 L 33.316406 55.425781 C 31.3125 54.96875 29.429688 54.179688 27.730469 53.128906 L 24.316406 56.542969 L 18.425781 50.652344 L 21.800781 47.273438 C 20.71875 45.566406 19.902344 43.671875 19.421875 41.652344 L 14.695312 41.652344 L 14.695312 33.316406 L 19.351562 33.316406 C 19.804688 31.253906 20.601562 29.316406 21.679688 27.574219 L 18.425781 24.316406 L 24.316406 18.425781 L 27.539062 21.644531 C 29.289062 20.535156 31.234375 19.707031 33.316406 19.230469 L 33.316406 14.695312 L 41.648438 14.695312 Z M 37.484375 23.539062 C 45.183594 23.539062 51.429688 29.78125 51.429688 37.484375 C 51.429688 45.183594 45.183594 51.429688 37.484375 51.429688 C 29.78125 51.429688 23.539062 45.183594 23.539062 37.484375 C 23.539062 29.78125 29.78125 23.539062 37.484375 23.539062 Z M 37.484375 23.539062 " fill-opacity="1" fill-rule="evenodd"></path><path fill="#000000" d="M 43.90625 37.484375 L 37.484375 41.191406 L 31.058594 44.902344 L 31.058594 30.066406 L 37.484375 33.773438 Z M 43.90625 37.484375 " fill-opacity="1" fill-rule="evenodd"></path><g clip-path="url(#d9f2b780dc)"><path fill="#000000" d="M 68.75 27.230469 C 70.625 32.933594 70.855469 38.921875 69.601562 44.578125 C 68.371094 50.15625 65.691406 55.40625 61.730469 59.722656 L 63.355469 61.984375 L 54.933594 62.828125 L 56.675781 58.972656 L 58.414062 55.113281 L 60.058594 57.398438 C 63.464844 53.535156 65.78125 48.894531 66.867188 43.972656 C 68.007812 38.808594 67.796875 33.332031 66.082031 28.109375 Z M 68.75 27.230469 " fill-opacity="1" fill-rule="nonzero"></path></g><g clip-path="url(#8d1402730e)"><path fill="#000000" d="M 47.734375 68.75 C 42.035156 70.625 36.046875 70.855469 30.390625 69.601562 C 24.8125 68.371094 19.5625 65.691406 15.246094 61.730469 L 12.980469 63.355469 L 12.136719 54.933594 L 15.996094 56.675781 L 19.855469 58.414062 L 17.570312 60.058594 C 21.433594 63.464844 26.070312 65.78125 30.996094 66.867188 C 36.15625 68.007812 41.636719 67.796875 46.859375 66.082031 Z M 47.734375 68.75 " fill-opacity="1" fill-rule="nonzero"></path></g><g clip-path="url(#8221b74562)"><path fill="#000000" d="M 6.21875 47.734375 C 4.34375 42.035156 4.113281 36.046875 5.363281 30.390625 C 6.597656 24.8125 9.277344 19.5625 13.238281 15.246094 L 11.609375 12.980469 L 15.824219 12.558594 L 20.035156 12.136719 L 18.292969 15.996094 L 16.554688 19.855469 L 14.910156 17.570312 C 11.503906 21.433594 9.1875 26.070312 8.101562 30.996094 C 6.957031 36.15625 7.167969 41.636719 8.886719 46.859375 Z M 6.21875 47.734375 " fill-opacity="1" fill-rule="nonzero"></path></g></svg>