<svg xmlns="http://www.w3.org/2000/svg" xmlns:xlink="http://www.w3.org/1999/xlink" width="100" viewBox="0 0 75 74.999997" height="100" preserveAspectRatio="xMidYMid meet"><defs><filter x="0%" y="0%" width="100%" height="100%" id="33d2725aa5"></filter><clipPath id="ea49275cf6"><path d="M 3.71875 9 L 62 9 L 62 53 L 3.71875 53 Z M 3.71875 9 " clip-rule="nonzero"></path></clipPath><clipPath id="5ea8b1a879"><path d="M 35 29 L 71.21875 29 L 71.21875 66 L 35 66 Z M 35 29 " clip-rule="nonzero"></path></clipPath><mask id="325e27fa81"><g filter="url(#33d2725aa5)"><rect x="-7.5" width="90" fill="#000000" y="-7.5" height="89.999996" fill-opacity="0.2"></rect></g></mask><clipPath id="daafa2be4a"><rect x="0" width="37" y="0" height="37"></rect></clipPath></defs><g clip-path="url(#ea49275cf6)"><path fill="#000000" d="M 24.273438 52.496094 L 14.960938 52.496094 C 8.734375 50.945312 3.9375 46.050781 3.9375 39.546875 C 3.9375 34.164062 7.398438 29.242188 12.105469 27.386719 C 12.046875 26.808594 12.015625 26.261719 12.015625 25.683594 C 12.015625 16.441406 19.515625 8.964844 28.75 8.964844 C 33.820312 8.964844 38.589844 11.273438 41.78125 15.226562 C 43.664062 14.285156 45.757812 13.765625 47.882812 13.796875 C 55.203125 13.796875 61.519531 20.292969 61.792969 27.535156 L 36.820312 17.234375 L 24.273438 24.742188 Z M 24.273438 52.496094 " fill-opacity="1" fill-rule="nonzero"></path></g><path fill="#231f20" d="M 70.925781 59.398438 L 36.527344 65.960938 L 36.679688 41.765625 L 70.9375 48.117188 Z M 36.636719 20.367188 L 70.925781 33.285156 L 70.925781 46.207031 L 36.699219 38.910156 " fill-opacity="1" fill-rule="nonzero"></path><path fill="#000000" d="M 36.699219 38.910156 L 27.375 43.257812 L 27.375 26.019531 L 36.636719 20.367188 M 69.378906 44.714844 L 38.277344 37.589844 L 38.277344 22.160156 L 69.378906 33.648438 Z M 52.277344 39.183594 L 55.375 40.03125 L 55.375 29.941406 L 52.277344 28.847656 Z M 49.152344 27.875 L 46.054688 26.75 L 46.054688 37.5 L 49.152344 38.378906 Z M 58.507812 40.882812 L 61.574219 41.703125 L 61.636719 32.097656 L 58.507812 31.066406 Z M 39.824219 35.929688 L 42.925781 36.71875 L 42.925781 25.714844 L 39.824219 24.683594 Z M 67.832031 34.195312 L 64.730469 33.101562 L 64.730469 42.496094 L 67.832031 43.347656 Z M 38.277344 44.316406 L 38.277344 64.289062 L 69.378906 58.574219 L 69.378906 49.132812 Z M 39.828125 61.949219 L 39.828125 46.566406 L 42.925781 46.960938 L 42.925781 61.421875 Z M 49.152344 60.398438 L 46.054688 60.972656 L 46.054688 47.390625 L 49.152344 47.84375 Z M 52.28125 59.941406 L 52.28125 48.148438 L 55.378906 48.542969 L 55.378906 59.367188 Z M 61.605469 58.300781 L 58.507812 58.816406 L 58.507812 48.90625 L 61.605469 49.363281 Z M 67.921875 57.296875 L 64.703125 57.84375 L 64.703125 49.695312 L 67.710938 50.0625 Z M 67.921875 57.296875 " fill-opacity="1" fill-rule="nonzero"></path><path fill="#231f20" d="M 30.53125 38.605469 L 28.980469 39.515625 L 28.980469 27.265625 L 30.53125 26.414062 Z M 33.628906 24.652344 L 32.082031 25.714844 L 32.082031 37.632812 L 33.628906 36.78125 Z M 33.628906 24.652344 " fill-opacity="1" fill-rule="nonzero"></path><path fill="#000000" d="M 27.375 60.429688 L 27.3125 46.265625 L 36.667969 41.734375 L 36.726562 65.992188 " fill-opacity="1" fill-rule="nonzero"></path><path fill="#231f20" d="M 30.316406 60.371094 L 28.890625 59.640625 L 28.890625 47.695312 L 30.316406 47.066406 Z M 33.667969 45.5625 L 32.117188 46.234375 L 32.058594 61.320312 L 33.667969 62.140625 Z M 33.667969 45.5625 " fill-opacity="1" fill-rule="nonzero"></path><path fill="#040606" d="M 67.800781 35.199219 L 39.855469 25.808594 L 39.886719 24.589844 L 67.800781 34.199219 Z M 67.707031 50.09375 L 39.875 46.601562 L 39.875 47.816406 L 67.726562 51.097656 Z M 33.632812 26.234375 L 33.632812 24.714844 L 29.105469 27.207031 L 29.046875 28.484375 Z M 28.921875 48.605469 L 33.660156 46.875 L 33.660156 45.566406 L 28.894531 47.695312 Z M 28.921875 48.605469 " fill-opacity="1" fill-rule="nonzero"></path><g clip-path="url(#5ea8b1a879)"><g mask="url(#325e27fa81)"><g transform="matrix(1, 0, 0, 1, 35, 29)"><g clip-path="url(#daafa2be4a)"><path fill="#000000" d="M 35.925781 4.34375 L 35.925781 30.394531 L 1.726562 36.960938 L 27.636719 1.214844 Z M 35.925781 4.34375 " fill-opacity="1" fill-rule="nonzero"></path></g></g></g></g></svg>