<svg xmlns="http://www.w3.org/2000/svg" xmlns:xlink="http://www.w3.org/1999/xlink" width="100" viewBox="0 0 75 74.999997" height="100" preserveAspectRatio="xMidYMid meet"><defs><clipPath id="5b126b540d"><path d="M 6.832031 6.832031 L 68.332031 6.832031 L 68.332031 68.332031 L 6.832031 68.332031 Z M 6.832031 6.832031 " clip-rule="nonzero"></path></clipPath></defs><g clip-path="url(#5b126b540d)"><path fill="#000000" d="M 6.832031 13.726562 C 6.832031 12.039062 9.277344 10.398438 13.230469 9.109375 C 17.53125 7.699219 23.5 6.832031 30.117188 6.832031 C 36.734375 6.832031 42.703125 7.699219 47.003906 9.109375 C 50.957031 10.398438 53.402344 12.039062 53.402344 13.726562 C 53.402344 15.410156 50.957031 17.050781 47.003906 18.34375 C 42.703125 19.746094 36.734375 20.617188 30.117188 20.617188 C 23.5 20.617188 17.53125 19.746094 13.230469 18.34375 C 9.277344 17.050781 6.832031 15.410156 6.832031 13.726562 Z M 13.230469 34.246094 C 17.53125 35.652344 23.5 36.523438 30.117188 36.523438 C 36.734375 36.523438 42.703125 35.652344 47.003906 34.246094 C 50.957031 32.957031 53.402344 31.3125 53.402344 29.628906 L 53.402344 17.980469 C 53.402344 17.773438 53.167969 17.65625 53.003906 17.777344 C 51.671875 18.769531 49.855469 19.636719 47.660156 20.355469 C 43.152344 21.828125 36.945312 22.738281 30.117188 22.738281 C 23.289062 22.738281 17.085938 21.828125 12.578125 20.355469 C 10.378906 19.636719 8.5625 18.765625 7.230469 17.777344 C 7.066406 17.65625 6.832031 17.773438 6.832031 17.980469 L 6.832031 29.628906 C 6.832031 31.3125 9.277344 32.957031 13.230469 34.246094 Z M 53.152344 43.332031 C 53.289062 43.332031 53.402344 43.222656 53.402344 43.082031 L 53.402344 33.882812 C 53.402344 33.675781 53.167969 33.558594 53 33.683594 C 51.671875 34.671875 49.851562 35.539062 47.65625 36.257812 C 43.148438 37.730469 36.945312 38.640625 30.117188 38.640625 C 23.285156 38.640625 17.082031 37.730469 12.574219 36.257812 C 10.378906 35.542969 8.5625 34.671875 7.230469 33.683594 C 7.0625 33.558594 6.832031 33.675781 6.832031 33.882812 L 6.832031 45.535156 C 6.832031 47.21875 9.273438 48.859375 13.226562 50.152344 C 17.53125 51.554688 23.5 52.425781 30.117188 52.425781 C 30.847656 52.425781 31.46875 52.421875 31.984375 52.40625 C 32.1875 52.402344 32.386719 52.394531 32.589844 52.386719 C 32.726562 52.382812 32.835938 52.273438 32.835938 52.136719 L 32.835938 47.082031 C 32.835938 46.050781 33.253906 45.113281 33.933594 44.433594 L 34.003906 44.371094 C 34.679688 43.730469 35.589844 43.335938 36.582031 43.335938 L 53.152344 43.335938 Z M 32.871094 54.714844 C 32.851562 54.589844 32.742188 54.496094 32.617188 54.503906 C 32.425781 54.507812 32.230469 54.515625 32.035156 54.519531 C 31.300781 54.539062 30.660156 54.546875 30.117188 54.546875 C 23.289062 54.546875 17.085938 53.636719 12.578125 52.164062 C 10.378906 51.449219 8.5625 50.578125 7.230469 49.589844 C 7.066406 49.464844 6.832031 49.582031 6.832031 49.789062 L 6.832031 61.441406 C 6.832031 63.125 9.277344 64.765625 13.230469 66.058594 C 17.53125 67.460938 23.503906 68.332031 30.117188 68.332031 C 31.097656 68.332031 32 68.316406 32.828125 68.285156 C 32.996094 68.28125 33.109375 68.109375 33.050781 67.945312 C 32.914062 67.554688 32.835938 67.136719 32.835938 66.703125 L 32.835938 59.582031 C 32.835938 58.550781 33.257812 57.613281 33.9375 56.933594 L 33.984375 56.894531 L 33.9375 56.847656 C 33.371094 56.28125 32.984375 55.539062 32.871094 54.714844 Z M 35.433594 55.359375 C 35.136719 55.0625 34.953125 54.65625 34.953125 54.203125 L 34.953125 47.082031 C 34.953125 46.636719 35.140625 46.230469 35.433594 45.933594 L 35.476562 45.886719 C 35.765625 45.621094 36.15625 45.453125 36.585938 45.453125 L 66.703125 45.453125 C 67.152344 45.453125 67.558594 45.640625 67.855469 45.933594 C 68.148438 46.230469 68.332031 46.636719 68.332031 47.082031 L 68.332031 54.203125 C 68.332031 54.652344 68.152344 55.058594 67.859375 55.355469 C 67.558594 55.648438 67.152344 55.832031 66.703125 55.832031 L 36.585938 55.832031 C 36.132812 55.832031 35.726562 55.652344 35.433594 55.359375 Z M 49.027344 50.644531 C 49.027344 51.230469 49.503906 51.703125 50.085938 51.703125 L 64.953125 51.703125 C 65.539062 51.703125 66.011719 51.230469 66.011719 50.644531 C 66.011719 50.058594 65.535156 49.585938 64.953125 49.585938 L 50.085938 49.585938 C 49.5 49.582031 49.027344 50.058594 49.027344 50.644531 Z M 38.328125 50.644531 C 38.328125 51.230469 38.804688 51.707031 39.390625 51.707031 C 39.972656 51.707031 40.449219 51.230469 40.449219 50.644531 C 40.449219 50.058594 39.972656 49.585938 39.390625 49.585938 C 38.804688 49.582031 38.328125 50.058594 38.328125 50.644531 Z M 68.332031 59.582031 L 68.332031 66.703125 C 68.332031 67.152344 68.152344 67.558594 67.855469 67.851562 C 67.558594 68.148438 67.148438 68.332031 66.703125 68.332031 L 36.582031 68.332031 C 36.375 68.332031 36.175781 68.292969 35.992188 68.222656 L 35.9375 68.199219 C 35.746094 68.117188 35.574219 68 35.433594 67.855469 C 35.136719 67.558594 34.953125 67.152344 34.953125 66.703125 L 34.953125 59.582031 C 34.953125 59.136719 35.136719 58.726562 35.433594 58.433594 L 35.476562 58.386719 C 35.765625 58.117188 36.152344 57.953125 36.582031 57.953125 L 66.703125 57.953125 C 67.148438 57.953125 67.558594 58.136719 67.851562 58.433594 C 68.148438 58.726562 68.332031 59.136719 68.332031 59.582031 Z M 40.449219 63.222656 C 40.449219 62.636719 39.972656 62.164062 39.390625 62.164062 C 38.804688 62.164062 38.332031 62.636719 38.332031 63.222656 C 38.332031 63.808594 38.804688 64.285156 39.390625 64.285156 C 39.972656 64.28125 40.449219 63.808594 40.449219 63.222656 Z M 66.011719 63.144531 C 66.011719 62.558594 65.535156 62.082031 64.953125 62.082031 L 50.085938 62.082031 C 49.5 62.082031 49.027344 62.558594 49.027344 63.144531 C 49.027344 63.730469 49.503906 64.203125 50.085938 64.203125 L 64.953125 64.203125 C 65.535156 64.203125 66.011719 63.726562 66.011719 63.144531 Z M 66.011719 63.144531 " fill-opacity="1" fill-rule="evenodd"></path></g></svg>