<svg xmlns="http://www.w3.org/2000/svg" xmlns:xlink="http://www.w3.org/1999/xlink" width="100" zoomAndPan="magnify" viewBox="0 0 75 74.999997" height="100" preserveAspectRatio="xMidYMid meet" version="1.0"><defs><clipPath id="a2594346b1"><path d="M 4.972656 4.101562 L 70.222656 4.101562 L 70.222656 67.851562 L 4.972656 67.851562 Z M 4.972656 4.101562 " clip-rule="nonzero"/></clipPath><clipPath id="a47a80e2ea"><path d="M 20.242188 26.109375 L 54.742188 26.109375 L 54.742188 48.609375 L 20.242188 48.609375 Z M 20.242188 26.109375 " clip-rule="nonzero"/></clipPath></defs><g clip-path="url(#a2594346b1)"><path fill="#000000" d="M 23.078125 67.851562 L 4.984375 45.097656 L 11.441406 16.722656 L 37.597656 4.101562 L 63.753906 16.722656 L 70.210938 45.097656 L 52.117188 67.851562 Z M 23.078125 67.851562 " fill-opacity="1" fill-rule="nonzero"/></g><g clip-path="url(#a47a80e2ea)"><path fill="#ffffff" d="M 34.015625 26.132812 L 34.015625 29.535156 L 27.128906 29.535156 L 27.128906 32.9375 L 23.683594 32.9375 L 23.683594 36.339844 L 21.015625 36.339844 C 20.683594 36.339844 20.40625 36.566406 20.347656 36.890625 C 20.34375 36.914062 20.242188 37.484375 20.242188 38.210938 C 20.242188 38.683594 20.289062 39.203125 20.371094 39.71875 C 21.160156 39.535156 22.601562 39.253906 22.351562 38.335938 C 23.707031 39.890625 26.96875 39.421875 27.792969 38.65625 C 28.71875 39.976562 34.09375 39.472656 34.464844 38.445312 C 35.621094 39.78125 39.207031 39.78125 40.363281 38.445312 C 40.734375 39.472656 46.089844 39.976562 47.011719 38.65625 C 47.304688 38.925781 47.914062 39.152344 48.625 39.273438 C 48.863281 38.824219 49.085938 38.371094 49.292969 37.890625 C 53.667969 37.835938 54.609375 34.730469 54.652344 34.59375 C 54.726562 34.335938 54.625 34.066406 54.414062 33.894531 C 54.339844 33.832031 52.726562 32.539062 50.109375 32.980469 C 49.375 30.617188 47.484375 29.539062 47.398438 29.492188 C 47.152344 29.355469 46.84375 29.375 46.625 29.554688 C 46.554688 29.613281 44.925781 30.976562 45.183594 33.765625 C 45.246094 34.46875 45.433594 35.085938 45.71875 35.636719 C 45.15625 35.949219 44.183594 36.339844 42.621094 36.339844 L 42.277344 36.339844 L 42.277344 32.9375 L 38.835938 32.9375 L 38.835938 26.132812 Z M 48.625 39.273438 C 48.542969 39.433594 48.433594 39.585938 48.347656 39.742188 L 54.566406 39.742188 C 53.816406 39.554688 52.210938 39.304688 52.476562 38.335938 C 51.597656 39.34375 49.925781 39.492188 48.625 39.273438 Z M 48.347656 39.742188 L 20.371094 39.742188 C 20.539062 40.738281 20.882812 41.785156 21.402344 42.800781 C 25.140625 43.671875 29.066406 42.347656 29.105469 42.335938 C 29.46875 42.210938 29.84375 42.40625 29.96875 42.757812 C 30.09375 43.113281 29.917969 43.507812 29.558594 43.632812 C 29.425781 43.675781 27.0625 44.460938 24.15625 44.460938 C 23.582031 44.460938 22.976562 44.429688 22.371094 44.355469 C 24.179688 46.722656 27.242188 48.585938 31.949219 48.585938 C 39.386719 48.585938 45.109375 45.460938 48.347656 39.742188 Z M 20.371094 39.742188 C 20.367188 39.730469 20.375 39.730469 20.371094 39.71875 C 20.324219 39.730469 20.28125 39.730469 20.242188 39.742188 Z M 35.390625 27.496094 L 37.457031 27.496094 L 37.457031 29.535156 L 35.390625 29.535156 Z M 28.503906 30.894531 L 30.570312 30.894531 L 30.570312 32.9375 L 28.503906 32.9375 Z M 31.949219 30.894531 L 34.015625 30.894531 L 34.015625 32.9375 L 31.949219 32.9375 Z M 35.390625 30.894531 L 37.457031 30.894531 L 37.457031 32.9375 L 35.390625 32.9375 Z M 25.0625 34.296875 L 27.128906 34.296875 L 27.128906 36.339844 L 25.0625 36.339844 Z M 28.503906 34.296875 L 30.570312 34.296875 L 30.570312 36.339844 L 28.503906 36.339844 Z M 31.949219 34.296875 L 34.015625 34.296875 L 34.015625 36.339844 L 31.949219 36.339844 Z M 35.390625 34.296875 L 37.457031 34.296875 L 37.457031 36.339844 L 35.390625 36.339844 Z M 38.835938 34.296875 L 40.898438 34.296875 L 40.898438 36.339844 L 38.835938 36.339844 Z M 31.257812 41.101562 C 31.347656 41.101562 31.441406 41.113281 31.519531 41.144531 C 31.433594 41.191406 31.367188 41.273438 31.367188 41.378906 C 31.367188 41.53125 31.492188 41.675781 31.648438 41.675781 C 31.75 41.675781 31.855469 41.613281 31.90625 41.527344 C 31.941406 41.605469 31.949219 41.6875 31.949219 41.78125 C 31.949219 42.15625 31.636719 42.460938 31.257812 42.460938 C 30.878906 42.460938 30.570312 42.15625 30.570312 41.78125 C 30.570312 41.40625 30.878906 41.101562 31.257812 41.101562 Z M 31.257812 41.101562 " fill-opacity="1" fill-rule="nonzero"/></g></svg>