<svg xmlns="http://www.w3.org/2000/svg" xmlns:xlink="http://www.w3.org/1999/xlink" width="100" viewBox="0 0 75 74.999997" height="100" preserveAspectRatio="xMidYMid meet"><defs><clipPath id="d8d896534e"><path d="M 4.972656 4.101562 L 70.222656 4.101562 L 70.222656 67.851562 L 4.972656 67.851562 Z M 4.972656 4.101562 " clip-rule="nonzero"></path></clipPath><clipPath id="accdfe83c6"><path d="M 23.101562 23 L 51.601562 23 L 51.601562 52.5 L 23.101562 52.5 Z M 23.101562 23 " clip-rule="nonzero"></path></clipPath></defs><g clip-path="url(#d8d896534e)"><path fill="#000000" d="M 23.078125 67.851562 L 4.984375 45.097656 L 11.441406 16.722656 L 37.597656 4.101562 L 63.753906 16.722656 L 70.210938 45.097656 L 52.117188 67.851562 Z M 23.078125 67.851562 " fill-opacity="1" fill-rule="nonzero"></path></g><g clip-path="url(#accdfe83c6)"><path fill="#ffffff" d="M 23.101562 40.917969 L 23.101562 34.921875 C 23.101562 33.796875 23.261719 32.695312 23.582031 31.621094 C 23.90625 30.546875 24.375 29.539062 24.992188 28.605469 C 25.605469 27.667969 26.34375 26.84375 27.203125 26.128906 C 28.058594 25.414062 29 24.839844 30.027344 24.40625 C 31.054688 23.972656 32.121094 23.699219 33.226562 23.582031 C 34.332031 23.46875 35.433594 23.515625 36.523438 23.730469 C 37.617188 23.945312 38.65625 24.3125 39.640625 24.835938 C 40.625 25.359375 41.511719 26.015625 42.304688 26.804688 C 42.410156 26.921875 42.460938 27.0625 42.457031 27.222656 C 42.453125 27.378906 42.398438 27.515625 42.289062 27.628906 C 42.175781 27.742188 42.042969 27.804688 41.886719 27.808594 C 41.726562 27.816406 41.589844 27.765625 41.472656 27.660156 C 40.761719 26.953125 39.96875 26.367188 39.089844 25.898438 C 38.207031 25.429688 37.277344 25.097656 36.300781 24.90625 C 35.324219 24.714844 34.339844 24.671875 33.351562 24.773438 C 32.359375 24.875 31.40625 25.121094 30.488281 25.511719 C 29.566406 25.898438 28.726562 26.410156 27.957031 27.050781 C 27.191406 27.691406 26.53125 28.429688 25.976562 29.269531 C 25.425781 30.105469 25.007812 31.003906 24.71875 31.96875 C 24.429688 32.929688 24.289062 33.914062 24.289062 34.921875 L 24.289062 40.917969 C 24.289062 41.085938 24.230469 41.226562 24.113281 41.34375 C 23.996094 41.460938 23.859375 41.519531 23.695312 41.519531 C 23.53125 41.519531 23.390625 41.460938 23.273438 41.34375 C 23.15625 41.226562 23.101562 41.085938 23.101562 40.917969 Z M 24.472656 45.023438 C 24.324219 45.09375 24.226562 45.207031 24.171875 45.363281 C 24.117188 45.519531 24.125 45.671875 24.195312 45.820312 C 24.65625 46.792969 25.242188 47.679688 25.949219 48.480469 C 26.65625 49.285156 27.460938 49.972656 28.363281 50.546875 C 29.265625 51.121094 30.226562 51.558594 31.25 51.859375 C 32.273438 52.160156 33.316406 52.3125 34.382812 52.316406 C 34.546875 52.316406 34.683594 52.257812 34.800781 52.140625 C 34.917969 52.023438 34.976562 51.882812 34.976562 51.714844 C 34.976562 51.550781 34.917969 51.410156 34.800781 51.292969 C 34.683594 51.175781 34.546875 51.117188 34.382812 51.117188 C 33.429688 51.113281 32.492188 50.976562 31.578125 50.707031 C 30.664062 50.441406 29.804688 50.046875 28.996094 49.535156 C 28.191406 49.019531 27.46875 48.40625 26.835938 47.683594 C 26.203125 46.964844 25.679688 46.171875 25.265625 45.304688 C 25.195312 45.15625 25.082031 45.054688 24.929688 44.996094 C 24.773438 44.941406 24.621094 44.949219 24.472656 45.023438 Z M 45.070312 37.574219 C 45.234375 37.574219 45.371094 37.515625 45.488281 37.398438 C 45.605469 37.28125 45.664062 37.140625 45.664062 36.976562 L 45.664062 34.921875 C 45.664062 33.617188 45.449219 32.347656 45.019531 31.121094 C 44.96875 30.957031 44.867188 30.839844 44.71875 30.765625 C 44.566406 30.6875 44.414062 30.679688 44.253906 30.738281 C 44.097656 30.792969 43.984375 30.898438 43.914062 31.050781 C 43.84375 31.207031 43.839844 31.363281 43.898438 31.519531 C 44.285156 32.621094 44.476562 33.753906 44.476562 34.921875 L 44.476562 36.976562 C 44.476562 37.140625 44.53125 37.28125 44.648438 37.398438 C 44.765625 37.515625 44.90625 37.574219 45.070312 37.574219 Z M 27.40625 31.578125 C 27.492188 31.425781 27.507812 31.265625 27.457031 31.097656 C 27.40625 30.933594 27.304688 30.8125 27.148438 30.738281 C 26.992188 30.660156 26.832031 30.65625 26.671875 30.71875 C 26.511719 30.785156 26.398438 30.898438 26.335938 31.0625 C 25.761719 32.28125 25.472656 33.570312 25.476562 34.921875 L 25.476562 40.917969 C 25.476562 41.511719 25.53125 42.09375 25.648438 42.675781 C 25.761719 43.253906 25.929688 43.816406 26.15625 44.359375 C 26.378906 44.90625 26.652344 45.425781 26.980469 45.914062 C 27.304688 46.40625 27.671875 46.859375 28.085938 47.277344 C 28.5 47.695312 28.949219 48.070312 29.433594 48.398438 C 29.921875 48.726562 30.433594 49.003906 30.972656 49.230469 C 31.515625 49.457031 32.070312 49.625 32.644531 49.742188 C 33.21875 49.859375 33.796875 49.917969 34.382812 49.917969 C 34.546875 49.917969 34.683594 49.859375 34.800781 49.742188 C 34.917969 49.625 34.976562 49.484375 34.976562 49.316406 C 34.976562 49.152344 34.917969 49.011719 34.800781 48.894531 C 34.683594 48.777344 34.546875 48.71875 34.382812 48.71875 C 33.875 48.714844 33.371094 48.667969 32.875 48.566406 C 32.378906 48.464844 31.898438 48.316406 31.429688 48.121094 C 30.960938 47.925781 30.515625 47.683594 30.09375 47.398438 C 29.675781 47.117188 29.285156 46.792969 28.925781 46.429688 C 28.566406 46.070312 28.246094 45.675781 27.964844 45.25 C 27.683594 44.824219 27.445312 44.375 27.253906 43.902344 C 27.058594 43.429688 26.910156 42.941406 26.8125 42.441406 C 26.714844 41.9375 26.664062 41.429688 26.664062 40.917969 L 26.664062 34.921875 C 26.660156 33.75 26.90625 32.632812 27.40625 31.578125 Z M 42.695312 35.519531 C 42.859375 35.519531 42.996094 35.460938 43.113281 35.34375 C 43.230469 35.226562 43.289062 35.085938 43.289062 34.921875 C 43.285156 34.328125 43.230469 33.746094 43.113281 33.164062 C 43 32.585938 42.832031 32.023438 42.605469 31.480469 C 42.382812 30.933594 42.109375 30.414062 41.785156 29.925781 C 41.457031 29.433594 41.089844 28.980469 40.675781 28.5625 C 40.261719 28.144531 39.8125 27.769531 39.328125 27.441406 C 38.839844 27.113281 38.328125 26.835938 37.789062 26.609375 C 37.25 26.382812 36.691406 26.214844 36.117188 26.097656 C 35.542969 25.980469 34.964844 25.921875 34.382812 25.921875 C 32.34375 25.914062 30.523438 26.542969 28.917969 27.808594 C 28.789062 27.910156 28.714844 28.042969 28.695312 28.210938 C 28.671875 28.375 28.714844 28.519531 28.8125 28.652344 C 28.914062 28.78125 29.046875 28.859375 29.210938 28.878906 C 29.371094 28.898438 29.519531 28.859375 29.648438 28.757812 C 31.039062 27.660156 32.617188 27.117188 34.382812 27.121094 C 34.886719 27.125 35.390625 27.171875 35.886719 27.273438 C 36.382812 27.375 36.867188 27.523438 37.332031 27.71875 C 37.800781 27.914062 38.246094 28.15625 38.667969 28.441406 C 39.089844 28.722656 39.476562 29.046875 39.835938 29.410156 C 40.195312 29.769531 40.515625 30.164062 40.796875 30.589844 C 41.078125 31.015625 41.316406 31.464844 41.511719 31.9375 C 41.703125 32.410156 41.851562 32.898438 41.949219 33.398438 C 42.050781 33.902344 42.097656 34.410156 42.101562 34.921875 C 42.101562 35.085938 42.15625 35.226562 42.273438 35.34375 C 42.390625 35.460938 42.53125 35.519531 42.695312 35.519531 Z M 29.949219 43.9375 C 29.859375 43.800781 29.734375 43.714844 29.570312 43.683594 C 29.410156 43.652344 29.261719 43.683594 29.125 43.777344 C 28.992188 43.867188 28.90625 43.996094 28.875 44.160156 C 28.84375 44.320312 28.875 44.472656 28.964844 44.609375 C 29.347656 45.183594 29.8125 45.683594 30.351562 46.113281 C 30.894531 46.542969 31.488281 46.875 32.132812 47.113281 C 32.777344 47.351562 33.441406 47.484375 34.128906 47.511719 C 34.816406 47.539062 35.492188 47.460938 36.152344 47.273438 C 36.316406 47.230469 36.4375 47.136719 36.523438 46.992188 C 36.609375 46.84375 36.628906 46.691406 36.582031 46.527344 C 36.535156 46.363281 36.4375 46.242188 36.292969 46.160156 C 36.144531 46.082031 35.988281 46.066406 35.828125 46.117188 C 35.289062 46.269531 34.738281 46.335938 34.175781 46.3125 C 33.613281 46.292969 33.070312 46.183594 32.542969 45.988281 C 32.015625 45.792969 31.527344 45.519531 31.085938 45.167969 C 30.644531 44.816406 30.265625 44.40625 29.949219 43.9375 Z M 40.320312 38.519531 C 40.484375 38.519531 40.621094 38.460938 40.738281 38.34375 C 40.855469 38.226562 40.914062 38.085938 40.914062 37.917969 L 40.914062 34.921875 C 40.914062 33.824219 40.65625 32.789062 40.148438 31.820312 C 39.636719 30.851562 38.933594 30.0625 38.03125 29.449219 C 37.898438 29.355469 37.75 29.324219 37.585938 29.359375 C 37.425781 29.390625 37.300781 29.472656 37.207031 29.609375 C 37.117188 29.75 37.085938 29.898438 37.117188 30.0625 C 37.148438 30.222656 37.234375 30.351562 37.367188 30.445312 C 38.105469 30.945312 38.683594 31.59375 39.097656 32.386719 C 39.515625 33.179688 39.726562 34.023438 39.726562 34.921875 L 39.726562 37.917969 C 39.726562 38.085938 39.78125 38.226562 39.898438 38.34375 C 40.015625 38.460938 40.15625 38.519531 40.320312 38.519531 Z M 34.976562 28.921875 C 34.976562 28.757812 34.917969 28.613281 34.800781 28.496094 C 34.683594 28.378906 34.546875 28.320312 34.382812 28.320312 C 33.953125 28.324219 33.527344 28.367188 33.109375 28.449219 C 32.6875 28.535156 32.277344 28.660156 31.882812 28.828125 C 31.488281 28.992188 31.109375 29.195312 30.753906 29.4375 C 30.398438 29.675781 30.066406 29.949219 29.765625 30.257812 C 29.460938 30.5625 29.191406 30.894531 28.953125 31.257812 C 28.714844 31.617188 28.511719 31.996094 28.347656 32.398438 C 28.183594 32.796875 28.0625 33.210938 27.976562 33.632812 C 27.894531 34.058594 27.851562 34.488281 27.851562 34.921875 L 27.851562 40.917969 C 27.851562 41.085938 27.90625 41.226562 28.023438 41.34375 C 28.140625 41.460938 28.28125 41.519531 28.445312 41.519531 C 28.609375 41.519531 28.746094 41.460938 28.863281 41.34375 C 28.980469 41.226562 29.039062 41.085938 29.039062 40.917969 L 29.039062 34.921875 C 29.039062 34.566406 29.074219 34.214844 29.140625 33.867188 C 29.210938 33.519531 29.3125 33.183594 29.445312 32.855469 C 29.582031 32.527344 29.746094 32.21875 29.941406 31.921875 C 30.136719 31.628906 30.355469 31.355469 30.605469 31.105469 C 30.851562 30.855469 31.121094 30.628906 31.414062 30.433594 C 31.707031 30.238281 32.011719 30.070312 32.335938 29.933594 C 32.660156 29.796875 32.996094 29.695312 33.339844 29.625 C 33.683594 29.558594 34.03125 29.523438 34.382812 29.523438 C 34.546875 29.523438 34.683594 29.464844 34.800781 29.347656 C 34.917969 29.230469 34.976562 29.085938 34.976562 28.921875 Z M 34.382812 30.722656 C 33.902344 30.71875 33.433594 30.800781 32.980469 30.960938 C 32.832031 31.023438 32.726562 31.125 32.660156 31.273438 C 32.597656 31.417969 32.589844 31.566406 32.644531 31.71875 C 32.699219 31.871094 32.796875 31.984375 32.9375 32.054688 C 33.082031 32.125 33.226562 32.136719 33.378906 32.089844 C 33.605469 32.007812 33.835938 31.957031 34.070312 31.929688 C 34.308594 31.90625 34.546875 31.910156 34.78125 31.941406 C 35.019531 31.976562 35.246094 32.035156 35.46875 32.125 C 35.691406 32.210938 35.898438 32.324219 36.09375 32.464844 C 36.289062 32.601562 36.464844 32.761719 36.621094 32.945312 C 36.777344 33.125 36.910156 33.324219 37.019531 33.535156 C 37.128906 33.75 37.210938 33.976562 37.265625 34.207031 C 37.324219 34.441406 37.351562 34.679688 37.351562 34.921875 C 37.351562 35.085938 37.40625 35.226562 37.523438 35.34375 C 37.640625 35.460938 37.78125 35.519531 37.945312 35.519531 C 38.109375 35.519531 38.246094 35.460938 38.363281 35.34375 C 38.480469 35.226562 38.539062 35.085938 38.539062 34.921875 C 38.539062 34.644531 38.511719 34.371094 38.457031 34.101562 C 38.40625 33.832031 38.324219 33.570312 38.222656 33.3125 C 38.117188 33.058594 37.988281 32.816406 37.835938 32.585938 C 37.683594 32.359375 37.511719 32.144531 37.320312 31.953125 C 37.128906 31.757812 36.917969 31.582031 36.691406 31.429688 C 36.464844 31.277344 36.222656 31.148438 35.972656 31.042969 C 35.71875 30.9375 35.460938 30.855469 35.191406 30.800781 C 34.925781 30.75 34.652344 30.722656 34.382812 30.722656 Z M 31.660156 32.519531 C 31.519531 32.433594 31.371094 32.410156 31.210938 32.449219 C 31.050781 32.488281 30.929688 32.578125 30.84375 32.71875 C 30.429688 33.394531 30.222656 34.128906 30.226562 34.921875 L 30.226562 40.917969 C 30.226562 41.085938 30.28125 41.226562 30.398438 41.34375 C 30.515625 41.460938 30.65625 41.519531 30.820312 41.519531 C 30.984375 41.519531 31.121094 41.460938 31.238281 41.34375 C 31.355469 41.226562 31.414062 41.085938 31.414062 40.917969 L 31.414062 34.921875 C 31.410156 34.355469 31.558594 33.828125 31.851562 33.347656 C 31.941406 33.207031 31.964844 33.054688 31.925781 32.894531 C 31.886719 32.734375 31.800781 32.609375 31.660156 32.519531 Z M 38.539062 37.917969 C 38.539062 37.753906 38.480469 37.613281 38.363281 37.496094 C 38.246094 37.378906 38.109375 37.320312 37.945312 37.320312 C 37.78125 37.320312 37.640625 37.378906 37.523438 37.496094 C 37.40625 37.613281 37.351562 37.753906 37.351562 37.917969 L 37.351562 40.917969 C 37.351562 41.179688 37.316406 41.433594 37.25 41.683594 C 37.183594 41.933594 37.089844 42.171875 36.960938 42.398438 C 36.835938 42.625 36.683594 42.828125 36.503906 43.015625 C 36.324219 43.199219 36.125 43.359375 35.902344 43.492188 C 35.683594 43.625 35.449219 43.726562 35.203125 43.796875 C 34.957031 43.871094 34.707031 43.910156 34.449219 43.914062 C 34.191406 43.921875 33.9375 43.894531 33.691406 43.832031 C 33.441406 43.773438 33.203125 43.679688 32.976562 43.558594 C 32.832031 43.480469 32.679688 43.464844 32.523438 43.511719 C 32.367188 43.5625 32.25 43.65625 32.171875 43.804688 C 32.09375 43.949219 32.078125 44.101562 32.125 44.257812 C 32.171875 44.417969 32.269531 44.535156 32.414062 44.617188 C 32.570312 44.699219 32.734375 44.777344 32.902344 44.839844 C 33.066406 44.90625 33.238281 44.957031 33.414062 45 C 33.585938 45.042969 33.761719 45.074219 33.941406 45.09375 C 34.117188 45.109375 34.296875 45.117188 34.476562 45.113281 C 34.65625 45.109375 34.832031 45.09375 35.007812 45.066406 C 35.1875 45.039062 35.359375 45 35.53125 44.953125 C 35.703125 44.902344 35.871094 44.839844 36.035156 44.769531 C 36.199219 44.695312 36.359375 44.613281 36.511719 44.523438 C 36.667969 44.429688 36.8125 44.328125 36.953125 44.214844 C 37.09375 44.101562 37.226562 43.980469 37.351562 43.851562 C 37.476562 43.722656 37.59375 43.585938 37.703125 43.441406 C 37.808594 43.296875 37.90625 43.148438 37.996094 42.988281 C 38.082031 42.832031 38.160156 42.671875 38.230469 42.503906 C 38.296875 42.335938 38.355469 42.164062 38.398438 41.988281 C 38.445312 41.816406 38.480469 41.636719 38.503906 41.460938 C 38.527344 41.28125 38.539062 41.101562 38.539062 40.917969 Z M 33.789062 41.519531 C 33.789062 41.683594 33.84375 41.824219 33.960938 41.941406 C 34.078125 42.058594 34.21875 42.117188 34.382812 42.117188 C 34.546875 42.117188 34.683594 42.058594 34.800781 41.941406 C 34.917969 41.824219 34.976562 41.683594 34.976562 41.519531 L 34.976562 38.945312 C 34.976562 38.78125 34.917969 38.640625 34.800781 38.523438 C 34.683594 38.40625 34.546875 38.347656 34.382812 38.347656 C 34.21875 38.347656 34.078125 38.40625 33.960938 38.523438 C 33.84375 38.640625 33.789062 38.78125 33.789062 38.945312 Z M 34.382812 37.148438 C 34.546875 37.148438 34.683594 37.089844 34.800781 36.972656 C 34.917969 36.855469 34.976562 36.714844 34.976562 36.546875 L 34.976562 34.320312 C 34.976562 34.15625 34.917969 34.015625 34.800781 33.898438 C 34.683594 33.78125 34.546875 33.722656 34.382812 33.722656 C 34.21875 33.722656 34.078125 33.78125 33.960938 33.898438 C 33.84375 34.015625 33.789062 34.15625 33.789062 34.320312 L 33.789062 36.546875 C 33.789062 36.714844 33.84375 36.855469 33.960938 36.972656 C 34.078125 37.089844 34.21875 37.148438 34.382812 37.148438 Z M 51.601562 44.910156 L 51.601562 50.722656 C 51.601562 50.933594 51.558594 51.136719 51.480469 51.332031 C 51.398438 51.527344 51.285156 51.699219 51.136719 51.851562 C 50.992188 52 50.820312 52.113281 50.628906 52.195312 C 50.433594 52.277344 50.234375 52.316406 50.023438 52.316406 L 40.113281 52.316406 C 39.90625 52.316406 39.703125 52.277344 39.511719 52.195312 C 39.316406 52.113281 39.148438 52 39 51.851562 C 38.851562 51.699219 38.738281 51.527344 38.65625 51.332031 C 38.578125 51.136719 38.539062 50.933594 38.539062 50.722656 L 38.539062 44.910156 C 38.539062 44.699219 38.578125 44.496094 38.65625 44.300781 C 38.738281 44.105469 38.851562 43.933594 39 43.785156 C 39.148438 43.636719 39.316406 43.519531 39.511719 43.441406 C 39.703125 43.359375 39.90625 43.320312 40.113281 43.320312 L 41.695312 43.320312 L 41.695312 42.175781 C 41.695312 41.722656 41.78125 41.289062 41.953125 40.871094 C 42.125 40.453125 42.367188 40.085938 42.683594 39.765625 C 43 39.445312 43.363281 39.199219 43.777344 39.027344 C 44.191406 38.855469 44.621094 38.769531 45.070312 38.769531 C 45.515625 38.769531 45.945312 38.855469 46.359375 39.027344 C 46.773438 39.199219 47.136719 39.445312 47.453125 39.765625 C 47.769531 40.085938 48.015625 40.453125 48.1875 40.871094 C 48.355469 41.289062 48.441406 41.722656 48.441406 42.175781 L 48.441406 43.320312 L 50.023438 43.320312 C 50.234375 43.320312 50.433594 43.359375 50.628906 43.441406 C 50.820312 43.519531 50.992188 43.636719 51.136719 43.785156 C 51.285156 43.933594 51.398438 44.105469 51.480469 44.300781 C 51.558594 44.496094 51.601562 44.699219 51.601562 44.910156 Z M 42.882812 43.320312 L 47.253906 43.320312 L 47.253906 42.175781 C 47.253906 41.882812 47.199219 41.601562 47.089844 41.332031 C 46.976562 41.0625 46.820312 40.824219 46.613281 40.617188 C 46.410156 40.410156 46.171875 40.25 45.90625 40.136719 C 45.636719 40.027344 45.359375 39.96875 45.070312 39.96875 C 44.777344 39.96875 44.5 40.027344 44.234375 40.136719 C 43.964844 40.25 43.730469 40.410156 43.523438 40.617188 C 43.320312 40.824219 43.160156 41.0625 43.050781 41.332031 C 42.9375 41.601562 42.882812 41.882812 42.882812 42.175781 Z M 50.414062 44.910156 C 50.414062 44.800781 50.375 44.710938 50.296875 44.632812 C 50.222656 44.558594 50.132812 44.519531 50.023438 44.519531 L 40.113281 44.519531 C 40.007812 44.519531 39.914062 44.558594 39.839844 44.632812 C 39.761719 44.710938 39.726562 44.800781 39.726562 44.910156 L 39.726562 50.722656 C 39.726562 50.832031 39.761719 50.925781 39.839844 51 C 39.914062 51.078125 40.007812 51.117188 40.113281 51.117188 L 50.023438 51.117188 C 50.132812 51.117188 50.222656 51.078125 50.296875 51 C 50.375 50.925781 50.414062 50.832031 50.414062 50.722656 Z M 45.070312 46.617188 C 44.910156 46.617188 44.761719 46.648438 44.613281 46.710938 C 44.46875 46.769531 44.339844 46.855469 44.230469 46.96875 C 44.117188 47.082031 44.03125 47.210938 43.972656 47.359375 C 43.910156 47.503906 43.882812 47.660156 43.882812 47.816406 C 43.882812 47.976562 43.910156 48.128906 43.972656 48.277344 C 44.03125 48.421875 44.117188 48.554688 44.230469 48.664062 C 44.339844 48.777344 44.46875 48.863281 44.613281 48.925781 C 44.761719 48.988281 44.910156 49.015625 45.070312 49.015625 C 45.226562 49.015625 45.378906 48.988281 45.523438 48.925781 C 45.667969 48.863281 45.796875 48.777344 45.910156 48.664062 C 46.019531 48.554688 46.105469 48.421875 46.164062 48.277344 C 46.226562 48.128906 46.257812 47.976562 46.257812 47.816406 C 46.257812 47.660156 46.226562 47.503906 46.164062 47.359375 C 46.105469 47.210938 46.019531 47.082031 45.910156 46.96875 C 45.796875 46.855469 45.667969 46.769531 45.523438 46.710938 C 45.378906 46.648438 45.226562 46.617188 45.070312 46.617188 Z M 45.070312 46.617188 " fill-opacity="1" fill-rule="nonzero"></path></g></svg>