<svg xmlns="http://www.w3.org/2000/svg" xmlns:xlink="http://www.w3.org/1999/xlink" width="100" viewBox="0 0 75 74.999997" height="100" preserveAspectRatio="xMidYMid meet"><defs><clipPath id="2cc1f7fd3f"><path d="M 4.972656 4.101562 L 70.222656 4.101562 L 70.222656 67.851562 L 4.972656 67.851562 Z M 4.972656 4.101562 " clip-rule="nonzero"></path></clipPath><clipPath id="93c6cf4ff4"><path d="M 38 41 L 45 41 L 45 50.757812 L 38 50.757812 Z M 38 41 " clip-rule="nonzero"></path></clipPath><clipPath id="ba315faa3a"><path d="M 46 31 L 52.5 31 L 52.5 50.757812 L 46 50.757812 Z M 46 31 " clip-rule="nonzero"></path></clipPath><clipPath id="dd3c2d39bb"><path d="M 30 36 L 37 36 L 37 50.757812 L 30 50.757812 Z M 30 36 " clip-rule="nonzero"></path></clipPath><clipPath id="4b997e2a5d"><path d="M 22.5 42 L 29 42 L 29 50.757812 L 22.5 50.757812 Z M 22.5 42 " clip-rule="nonzero"></path></clipPath><clipPath id="62740f12b6"><path d="M 23 24.507812 L 52 24.507812 L 52 37 L 23 37 Z M 23 24.507812 " clip-rule="nonzero"></path></clipPath></defs><g clip-path="url(#2cc1f7fd3f)"><path fill="#000000" d="M 23.078125 67.851562 L 4.984375 45.097656 L 11.441406 16.722656 L 37.597656 4.101562 L 63.753906 16.722656 L 70.210938 45.097656 L 52.117188 67.851562 Z M 23.078125 67.851562 " fill-opacity="1" fill-rule="nonzero"></path></g><g clip-path="url(#93c6cf4ff4)"><path fill="#ffffff" d="M 44.203125 41.832031 L 39.296875 41.832031 C 39.019531 41.832031 38.796875 42.058594 38.796875 42.339844 L 38.796875 50.210938 C 38.796875 50.492188 39.019531 50.714844 39.296875 50.714844 L 44.203125 50.714844 C 44.480469 50.714844 44.703125 50.492188 44.703125 50.210938 L 44.703125 42.339844 C 44.703125 42.058594 44.480469 41.832031 44.203125 41.832031 Z M 43.703125 49.707031 L 39.796875 49.707031 L 39.796875 42.84375 L 43.703125 42.84375 Z M 43.703125 49.707031 " fill-opacity="1" fill-rule="nonzero"></path></g><g clip-path="url(#ba315faa3a)"><path fill="#ffffff" d="M 52 31.730469 L 47.09375 31.730469 C 46.816406 31.730469 46.59375 31.957031 46.59375 32.234375 L 46.59375 50.210938 C 46.59375 50.492188 46.816406 50.714844 47.09375 50.714844 L 52 50.714844 C 52.277344 50.714844 52.5 50.492188 52.5 50.210938 L 52.5 32.234375 C 52.5 31.957031 52.277344 31.730469 52 31.730469 Z M 51.5 49.707031 L 47.59375 49.707031 L 47.59375 32.738281 L 51.5 32.738281 Z M 51.5 49.707031 " fill-opacity="1" fill-rule="nonzero"></path></g><g clip-path="url(#dd3c2d39bb)"><path fill="#ffffff" d="M 35.703125 36.78125 L 30.796875 36.78125 C 30.519531 36.78125 30.296875 37.007812 30.296875 37.285156 L 30.296875 50.210938 C 30.296875 50.492188 30.519531 50.714844 30.796875 50.714844 L 35.703125 50.714844 C 35.980469 50.714844 36.203125 50.492188 36.203125 50.210938 L 36.203125 37.285156 C 36.203125 37.007812 35.980469 36.78125 35.703125 36.78125 Z M 35.203125 49.707031 L 31.296875 49.707031 L 31.296875 37.792969 L 35.203125 37.792969 Z M 35.203125 49.707031 " fill-opacity="1" fill-rule="nonzero"></path></g><g clip-path="url(#4b997e2a5d)"><path fill="#ffffff" d="M 27.90625 42.84375 L 23 42.84375 C 22.722656 42.84375 22.5 43.070312 22.5 43.347656 L 22.5 50.210938 C 22.5 50.492188 22.722656 50.714844 23 50.714844 L 27.90625 50.714844 C 28.183594 50.714844 28.40625 50.492188 28.40625 50.210938 L 28.40625 43.347656 C 28.40625 43.070312 28.183594 42.84375 27.90625 42.84375 Z M 27.40625 49.707031 L 23.5 49.707031 L 23.5 43.855469 L 27.40625 43.855469 Z M 27.40625 49.707031 " fill-opacity="1" fill-rule="nonzero"></path></g><g clip-path="url(#62740f12b6)"><path fill="#ffffff" d="M 25.453125 36.414062 C 26.554688 36.414062 27.453125 35.507812 27.453125 34.394531 C 27.453125 34.175781 27.410156 33.964844 27.34375 33.765625 L 31.742188 31.441406 C 32.109375 31.875 32.644531 32.152344 33.25 32.152344 C 33.871094 32.152344 34.417969 31.859375 34.785156 31.410156 L 39.78125 33.4375 C 39.765625 33.539062 39.75 33.644531 39.75 33.75 C 39.75 34.863281 40.648438 35.769531 41.75 35.769531 C 42.851562 35.769531 43.75 34.863281 43.75 33.75 C 43.75 33.664062 43.734375 33.585938 43.726562 33.503906 L 48.472656 28.316406 C 48.78125 28.519531 49.152344 28.636719 49.546875 28.636719 C 50.652344 28.636719 51.546875 27.730469 51.546875 26.617188 C 51.546875 25.503906 50.652344 24.597656 49.546875 24.597656 C 48.445312 24.597656 47.546875 25.503906 47.546875 26.617188 C 47.546875 26.960938 47.640625 27.285156 47.792969 27.570312 L 43.296875 32.484375 C 42.929688 32.027344 42.375 31.730469 41.75 31.730469 C 41.113281 31.730469 40.546875 32.039062 40.179688 32.511719 L 35.214844 30.492188 C 35.234375 30.375 35.25 30.253906 35.25 30.128906 C 35.25 29.015625 34.351562 28.109375 33.25 28.109375 C 32.148438 28.109375 31.25 29.015625 31.25 30.128906 C 31.25 30.269531 31.265625 30.40625 31.292969 30.539062 L 26.800781 32.914062 C 26.445312 32.582031 25.972656 32.375 25.453125 32.375 C 24.351562 32.375 23.453125 33.28125 23.453125 34.394531 C 23.453125 35.507812 24.351562 36.414062 25.453125 36.414062 Z M 49.546875 25.605469 C 50.097656 25.605469 50.546875 26.058594 50.546875 26.617188 C 50.546875 27.175781 50.097656 27.628906 49.546875 27.628906 C 48.996094 27.628906 48.546875 27.175781 48.546875 26.617188 C 48.546875 26.058594 48.996094 25.605469 49.546875 25.605469 Z M 41.75 32.738281 C 42.300781 32.738281 42.75 33.191406 42.75 33.75 C 42.75 34.308594 42.300781 34.761719 41.75 34.761719 C 41.199219 34.761719 40.75 34.308594 40.75 33.75 C 40.75 33.191406 41.199219 32.738281 41.75 32.738281 Z M 33.25 29.121094 C 33.800781 29.121094 34.25 29.574219 34.25 30.128906 C 34.25 30.6875 33.800781 31.140625 33.25 31.140625 C 32.699219 31.140625 32.25 30.6875 32.25 30.128906 C 32.25 29.574219 32.699219 29.121094 33.25 29.121094 Z M 25.453125 33.382812 C 26.003906 33.382812 26.453125 33.835938 26.453125 34.394531 C 26.453125 34.953125 26.003906 35.40625 25.453125 35.40625 C 24.902344 35.40625 24.453125 34.953125 24.453125 34.394531 C 24.453125 33.835938 24.902344 33.382812 25.453125 33.382812 Z M 25.453125 33.382812 " fill-opacity="1" fill-rule="nonzero"></path></g></svg>