<svg xmlns="http://www.w3.org/2000/svg" xmlns:xlink="http://www.w3.org/1999/xlink" width="100" zoomAndPan="magnify" viewBox="0 0 75 74.999997" height="100" preserveAspectRatio="xMidYMid meet" version="1.0"><defs><clipPath id="349f6f32f1"><path d="M 3.75 18.390625 L 71.25 18.390625 L 71.25 56.640625 L 3.75 56.640625 Z M 3.75 18.390625 " clip-rule="nonzero"/></clipPath></defs><g clip-path="url(#349f6f32f1)"><path fill="#040606" d="M 60.019531 54.390625 L 21.726562 54.390625 C 16.789062 54.390625 12.773438 50.28125 12.773438 45.226562 C 12.773438 40.480469 16.253906 36.558594 20.878906 36.113281 C 21.480469 36.054688 21.925781 35.53125 21.890625 34.929688 L 21.875 34.675781 C 21.859375 34.425781 21.84375 34.167969 21.84375 33.914062 C 21.84375 26.59375 27.664062 20.640625 34.828125 20.640625 C 38.800781 20.640625 42.507812 22.480469 45.003906 25.6875 C 45.195312 25.933594 45.480469 26.09375 45.796875 26.117188 C 46.109375 26.140625 46.421875 26.035156 46.652344 25.820312 C 48.117188 24.472656 50 23.722656 51.957031 23.722656 C 56.339844 23.722656 59.898438 27.371094 59.898438 31.859375 C 59.898438 32.789062 59.742188 33.707031 59.433594 34.585938 C 59.3125 34.921875 59.359375 35.292969 59.558594 35.589844 C 59.753906 35.882812 60.085938 36.066406 60.4375 36.085938 C 65.222656 36.3125 68.972656 40.335938 68.972656 45.226562 C 68.972656 50.28125 64.953125 54.390625 60.019531 54.390625 Z M 6.027344 41.855469 C 6.027344 38.265625 8.605469 35.308594 12.027344 34.976562 C 12.617188 34.921875 13.066406 34.40625 13.039062 33.8125 L 13.027344 33.507812 C 13.019531 33.34375 13.011719 33.179688 13.011719 33.015625 C 13.011719 27.429688 17.371094 22.890625 22.730469 22.890625 C 23.164062 22.890625 23.59375 22.929688 24.019531 22.984375 C 21.285156 25.792969 19.59375 29.65625 19.59375 33.914062 C 19.59375 33.953125 19.59375 33.988281 19.59375 34.027344 C 14.351562 35.042969 10.523438 39.679688 10.523438 45.226562 C 10.523438 46.382812 10.695312 47.488281 11.007812 48.539062 C 8.148438 47.769531 6.027344 45.074219 6.027344 41.855469 Z M 61.929688 33.992188 C 62.074219 33.289062 62.148438 32.578125 62.148438 31.859375 C 62.148438 26.132812 57.578125 21.472656 51.957031 21.472656 C 49.824219 21.472656 47.761719 22.160156 46.035156 23.421875 C 43.144531 20.207031 39.121094 18.390625 34.828125 18.390625 C 31.609375 18.390625 28.617188 19.417969 26.15625 21.167969 C 25.046875 20.824219 23.902344 20.640625 22.730469 20.640625 C 16.167969 20.640625 10.820312 26.132812 10.761719 32.902344 C 6.714844 33.800781 3.78125 37.472656 3.78125 41.855469 C 3.78125 46.699219 7.445312 50.667969 12.070312 50.984375 C 14.015625 54.359375 17.609375 56.640625 21.726562 56.640625 L 60.019531 56.640625 C 66.195312 56.640625 71.21875 51.519531 71.21875 45.226562 C 71.21875 39.605469 67.238281 34.921875 61.929688 33.992188 " fill-opacity="1" fill-rule="nonzero"/></g></svg>