<svg xmlns="http://www.w3.org/2000/svg" xmlns:xlink="http://www.w3.org/1999/xlink" width="100" zoomAndPan="magnify" viewBox="0 0 75 74.999997" height="100" preserveAspectRatio="xMidYMid meet" version="1.0"><defs><clipPath id="ed769a9fe6"><path d="M 4.972656 4.101562 L 70.222656 4.101562 L 70.222656 67.851562 L 4.972656 67.851562 Z M 4.972656 4.101562 " clip-rule="nonzero"/></clipPath><clipPath id="f4707ed5d7"><path d="M 22 40 L 53.34375 40 L 53.34375 51.550781 L 22 51.550781 Z M 22 40 " clip-rule="nonzero"/></clipPath><clipPath id="c6db6872b3"><path d="M 22 34 L 53.34375 34 L 53.34375 47 L 22 47 Z M 22 34 " clip-rule="nonzero"/></clipPath><clipPath id="56c6fcfa35"><path d="M 22 23.800781 L 53.34375 23.800781 L 53.34375 42 L 22 42 Z M 22 23.800781 " clip-rule="nonzero"/></clipPath></defs><g clip-path="url(#ed769a9fe6)"><path fill="#000000" d="M 23.078125 67.851562 L 4.984375 45.097656 L 11.441406 16.722656 L 37.597656 4.101562 L 63.753906 16.722656 L 70.210938 45.097656 L 52.117188 67.851562 Z M 23.078125 67.851562 " fill-opacity="1" fill-rule="nonzero"/></g><g clip-path="url(#f4707ed5d7)"><path fill="#ffffff" d="M 37.414062 51.554688 C 36.746094 51.554688 36.09375 51.367188 35.347656 51.003906 C 34.699219 50.6875 32.238281 49.644531 29.859375 48.636719 C 27.207031 47.511719 24.464844 46.351562 23.636719 45.949219 C 22.820312 45.550781 22.066406 45.078125 22.066406 44.34375 L 22.066406 41.269531 C 22.066406 40.917969 22.347656 40.625 22.699219 40.617188 C 23.082031 40.640625 23.339844 40.882812 23.359375 41.230469 C 23.367188 41.179688 23.515625 41.367188 24.199219 41.703125 C 24.996094 42.089844 27.71875 43.242188 30.347656 44.355469 C 32.859375 45.417969 35.230469 46.425781 35.914062 46.757812 C 37.046875 47.3125 37.785156 47.402344 39.4375 46.519531 C 40.359375 46.03125 42.984375 44.878906 45.519531 43.765625 C 47.847656 42.742188 50.253906 41.6875 51.003906 41.289062 C 51.710938 40.910156 51.832031 40.730469 51.839844 40.714844 C 51.851562 40.457031 52.003906 40.277344 52.242188 40.183594 C 52.457031 40.097656 52.683594 40.171875 52.859375 40.320312 C 52.886719 40.335938 52.910156 40.359375 52.929688 40.378906 C 53.054688 40.503906 53.121094 40.667969 53.121094 40.839844 L 53.117188 43.871094 C 53.117188 44.605469 52.394531 45.09375 51.613281 45.511719 C 50.8125 45.941406 48.480469 46.964844 46.007812 48.046875 C 43.503906 49.148438 40.914062 50.285156 40.042969 50.746094 C 39.023438 51.289062 38.210938 51.554688 37.414062 51.554688 Z M 23.363281 44.253906 C 23.425781 44.324219 23.625 44.492188 24.199219 44.773438 C 25 45.164062 27.726562 46.316406 30.359375 47.433594 C 32.867188 48.496094 35.234375 49.496094 35.914062 49.828125 C 37.046875 50.386719 37.785156 50.476562 39.4375 49.59375 C 40.355469 49.105469 42.964844 47.960938 45.492188 46.851562 C 47.832031 45.824219 50.25 44.761719 51.007812 44.359375 C 51.71875 43.980469 51.832031 43.796875 51.84375 43.777344 L 51.835938 42.316406 C 51.761719 42.355469 51.6875 42.398438 51.613281 42.4375 C 50.816406 42.859375 48.496094 43.878906 46.035156 44.960938 C 43.523438 46.066406 40.917969 47.207031 40.042969 47.671875 C 38.175781 48.667969 36.996094 48.734375 35.347656 47.929688 C 34.695312 47.609375 32.230469 46.566406 29.847656 45.554688 C 27.199219 44.4375 24.464844 43.277344 23.636719 42.871094 C 23.542969 42.828125 23.453125 42.78125 23.363281 42.734375 Z M 52.464844 40.835938 L 52.480469 40.835938 Z M 52.464844 40.835938 " fill-opacity="1" fill-rule="nonzero"/></g><g clip-path="url(#c6db6872b3)"><path fill="#ffffff" d="M 37.414062 46.34375 C 36.75 46.34375 36.09375 46.15625 35.347656 45.792969 C 34.699219 45.472656 32.242188 44.433594 29.871094 43.429688 C 27.214844 42.304688 24.46875 41.140625 23.636719 40.734375 C 22.820312 40.335938 22.066406 39.867188 22.066406 39.132812 L 22.066406 36.058594 C 22.066406 35.707031 22.347656 35.417969 22.699219 35.410156 C 23.082031 35.414062 23.339844 35.671875 23.359375 36.019531 C 23.367188 35.96875 23.515625 36.15625 24.199219 36.488281 C 24.996094 36.878906 27.714844 38.03125 30.34375 39.144531 C 32.855469 40.207031 35.230469 41.214844 35.914062 41.546875 C 37.046875 42.101562 37.785156 42.191406 39.4375 41.308594 C 40.359375 40.820312 42.984375 39.667969 45.519531 38.554688 C 47.847656 37.53125 50.253906 36.476562 51.003906 36.074219 C 51.710938 35.699219 51.828125 35.519531 51.839844 35.503906 C 51.851562 35.28125 51.960938 35.128906 52.148438 35.019531 C 52.324219 34.917969 52.519531 34.941406 52.699219 35.019531 C 52.785156 35.050781 52.863281 35.101562 52.929688 35.167969 C 53.054688 35.292969 53.121094 35.457031 53.121094 35.628906 L 53.117188 38.660156 C 53.117188 39.394531 52.394531 39.882812 51.613281 40.304688 C 50.816406 40.726562 48.496094 41.746094 46.035156 42.824219 C 43.523438 43.929688 40.917969 45.070312 40.042969 45.539062 C 39.023438 46.078125 38.210938 46.34375 37.414062 46.34375 Z M 23.363281 39.042969 C 23.425781 39.113281 23.625 39.28125 24.199219 39.5625 C 25 39.953125 27.730469 41.109375 30.371094 42.226562 C 32.871094 43.285156 35.234375 44.285156 35.914062 44.617188 C 37.046875 45.175781 37.785156 45.261719 39.4375 44.382812 C 40.359375 43.890625 42.984375 42.738281 45.519531 41.628906 C 47.847656 40.605469 50.253906 39.550781 51.003906 39.148438 C 51.714844 38.769531 51.832031 38.585938 51.839844 38.566406 L 51.832031 37.105469 C 51.757812 37.144531 51.683594 37.1875 51.609375 37.226562 C 50.8125 37.648438 48.496094 38.667969 46.035156 39.75 C 43.519531 40.851562 40.917969 41.996094 40.039062 42.460938 C 38.175781 43.457031 36.992188 43.519531 35.347656 42.71875 C 34.695312 42.402344 32.226562 41.355469 29.839844 40.34375 C 27.195312 39.226562 24.464844 38.066406 23.632812 37.660156 C 23.542969 37.617188 23.453125 37.570312 23.363281 37.523438 Z M 52.464844 35.625 L 52.476562 35.625 Z M 52.464844 35.625 " fill-opacity="1" fill-rule="nonzero"/></g><g clip-path="url(#56c6fcfa35)"><path fill="#ffffff" d="M 37.414062 41.132812 C 36.75 41.132812 36.097656 40.945312 35.351562 40.582031 C 34.699219 40.265625 32.246094 39.226562 29.875 38.21875 C 27.214844 37.09375 24.46875 35.929688 23.640625 35.523438 C 22.824219 35.125 22.070312 34.65625 22.070312 33.921875 L 22.070312 30.847656 C 22.035156 30.082031 22.835938 29.652344 23.617188 29.335938 L 23.753906 29.28125 C 30.414062 26.617188 34.554688 24.980469 35.730469 24.546875 C 37.722656 23.820312 38.519531 23.800781 40.222656 24.433594 C 41.007812 24.730469 43.449219 25.710938 45.886719 26.6875 C 48.316406 27.664062 50.742188 28.636719 51.515625 28.925781 C 52.011719 29.113281 53.007812 29.488281 53.105469 30.269531 C 53.117188 30.320312 53.121094 30.367188 53.121094 30.417969 L 53.121094 33.445312 C 53.121094 34.183594 52.394531 34.671875 51.613281 35.089844 C 50.816406 35.511719 48.5 36.53125 46.039062 37.609375 C 43.523438 38.714844 40.921875 39.859375 40.042969 40.324219 C 39.027344 40.867188 38.214844 41.132812 37.414062 41.132812 Z M 23.375 33.890625 C 23.417969 33.890625 23.613281 34.0625 24.203125 34.351562 C 25.003906 34.742188 27.734375 35.898438 30.375 37.019531 C 32.875 38.078125 35.238281 39.078125 35.917969 39.410156 C 37.054688 39.964844 37.792969 40.050781 39.441406 39.171875 C 40.363281 38.683594 42.988281 37.53125 45.523438 36.417969 C 47.851562 35.394531 50.257812 34.339844 51.007812 33.9375 C 51.71875 33.558594 51.835938 33.375 51.84375 33.355469 L 51.828125 30.53125 C 51.828125 30.527344 51.828125 30.523438 51.828125 30.519531 C 51.757812 30.460938 51.5625 30.335938 51.0625 30.148438 C 50.285156 29.855469 47.851562 28.878906 45.410156 27.898438 C 42.980469 26.925781 40.554688 25.949219 39.773438 25.65625 C 38.363281 25.128906 37.890625 25.140625 36.175781 25.769531 C 35.363281 26.070312 32.628906 27.132812 24.234375 30.492188 L 24.097656 30.546875 C 23.621094 30.738281 23.433594 30.871094 23.363281 30.933594 L 23.363281 33.898438 C 23.367188 33.894531 23.371094 33.890625 23.375 33.890625 Z M 23.363281 30.820312 L 23.363281 30.847656 C 23.363281 30.835938 23.363281 30.828125 23.363281 30.820312 Z M 51.820312 30.386719 Z M 51.820312 30.386719 " fill-opacity="1" fill-rule="nonzero"/></g><path fill="#ffffff" d="M 38.355469 30.726562 C 38.128906 30.726562 37.914062 30.605469 37.796875 30.40625 L 37.039062 29.113281 L 34.402344 28.871094 C 34.101562 28.84375 33.859375 28.609375 33.820312 28.304688 C 33.78125 28.003906 33.957031 27.714844 34.238281 27.609375 L 35.753906 27.046875 L 35.441406 26.453125 C 35.3125 26.210938 35.347656 25.914062 35.527344 25.710938 C 35.710938 25.507812 35.996094 25.441406 36.25 25.539062 L 38.101562 26.28125 L 39.832031 25.703125 C 40.070312 25.621094 40.335938 25.6875 40.507812 25.875 C 40.679688 26.0625 40.730469 26.332031 40.636719 26.566406 L 40.359375 27.25 L 41.730469 27.773438 C 42.007812 27.882812 42.179688 28.167969 42.140625 28.464844 C 42.101562 28.765625 41.863281 28.996094 41.566406 29.03125 L 39.382812 29.261719 L 38.953125 30.324219 C 38.859375 30.550781 38.648438 30.707031 38.402344 30.726562 C 38.386719 30.726562 38.371094 30.726562 38.355469 30.726562 Z M 37.171875 27.816406 L 37.488281 27.84375 C 37.695312 27.863281 37.878906 27.980469 37.984375 28.164062 L 38.25 28.613281 L 38.332031 28.410156 C 38.421875 28.1875 38.625 28.035156 38.863281 28.007812 L 38.980469 27.996094 C 38.953125 27.960938 38.933594 27.917969 38.914062 27.878906 C 38.84375 27.722656 38.839844 27.546875 38.902344 27.386719 L 38.285156 27.59375 C 38.140625 27.640625 37.984375 27.636719 37.839844 27.582031 L 37.324219 27.371094 C 37.328125 27.460938 37.3125 27.550781 37.28125 27.632812 C 37.253906 27.699219 37.21875 27.761719 37.171875 27.816406 Z M 37.171875 27.816406 " fill-opacity="1" fill-rule="nonzero"/><path fill="#ffffff" d="M 31.558594 32.742188 C 29.480469 32.742188 27.242188 32.085938 27.242188 30.632812 C 27.242188 29.179688 29.480469 28.523438 31.558594 28.523438 C 33.640625 28.523438 35.878906 29.183594 35.878906 30.632812 C 35.878906 32.082031 33.636719 32.742188 31.558594 32.742188 Z M 28.542969 30.632812 C 28.652344 30.867188 29.6875 31.441406 31.558594 31.441406 C 33.472656 31.441406 34.511719 30.84375 34.585938 30.617188 C 34.511719 30.421875 33.472656 29.824219 31.558594 29.824219 C 29.683594 29.824219 28.648438 30.398438 28.542969 30.632812 Z M 28.542969 30.632812 " fill-opacity="1" fill-rule="nonzero"/><path fill="#ffffff" d="M 38.203125 35.917969 C 38.117188 35.917969 38.03125 35.902344 37.953125 35.867188 L 33.160156 33.828125 C 32.894531 33.714844 32.734375 33.4375 32.769531 33.152344 C 32.804688 32.863281 33.023438 32.632812 33.3125 32.585938 L 40.175781 31.503906 C 40.425781 31.464844 40.683594 31.582031 40.820312 31.800781 C 40.957031 32.015625 40.957031 32.296875 40.8125 32.511719 L 38.738281 35.632812 C 38.617188 35.816406 38.414062 35.917969 38.203125 35.917969 Z M 35.753906 33.519531 L 37.960938 34.460938 L 38.914062 33.023438 Z M 35.753906 33.519531 " fill-opacity="1" fill-rule="nonzero"/><path fill="#ffffff" d="M 44.09375 32.894531 C 44.011719 32.894531 43.929688 32.878906 43.851562 32.847656 L 39.796875 31.203125 C 39.550781 31.101562 39.390625 30.863281 39.390625 30.597656 C 39.390625 30.332031 39.550781 30.09375 39.796875 29.992188 L 44.292969 28.171875 C 44.445312 28.105469 44.621094 28.105469 44.773438 28.171875 L 48.835938 29.816406 C 49.082031 29.917969 49.242188 30.15625 49.242188 30.421875 C 49.242188 30.6875 49.082031 30.925781 48.835938 31.023438 L 44.335938 32.847656 C 44.257812 32.878906 44.175781 32.894531 44.09375 32.894531 Z M 41.769531 30.597656 L 44.09375 31.542969 L 46.863281 30.421875 L 44.535156 29.476562 Z M 41.769531 30.597656 " fill-opacity="1" fill-rule="nonzero"/></svg>